<?xml version="1.0" encoding="utf-8"?>
<!-- Generator: Adobe Illustrator 21.1.0, SVG Export Plug-In . SVG Version: 6.00 Build 0)  -->
<svg version="1.1" id="icon" xmlns="http://www.w3.org/2000/svg" xmlns:xlink="http://www.w3.org/1999/xlink" x="0px" y="0px"
	 viewBox="0 0 512 512" style="enable-background:new 0 0 512 512;" xml:space="preserve">
<g>
	<g>
		<path d="M129.1,335.3c-10.8,1.2-19.4,9.9-20.6,20.7c-1.6,14.1,9.5,26.1,23.3,26.1c12.9,0,23.5-10.5,23.5-23.5
			C155.3,344.8,143.3,333.7,129.1,335.3z M131.8,367.1c-5.2,0-9.3-4.7-8.3-10.1c0.6-3.3,3.3-6,6.5-6.6c5.4-1.1,10.3,3,10.3,8.3
			C140.3,363.3,136.5,367.1,131.8,367.1z"/>
	</g>
</g>
<g>
	<g>
		<path d="M407,356.7c-0.9-11.4-10.1-20.6-21.5-21.5c-14.5-1.1-26.5,10.9-25.3,25.3c0.9,11.4,10.1,20.6,21.5,21.5
			C396.2,383.2,408.2,371.2,407,356.7z M382.2,367c-3.5-0.6-6.3-3.4-6.9-6.9c-1-5.8,4-10.7,9.8-9.8c3.5,0.6,6.3,3.4,6.9,6.9
			C393,363,388,368,382.2,367z"/>
	</g>
</g>
<g>
	<g>
		<path d="M374.2,224.9c-0.3-0.4-21.9-35.4-22.2-35.8c-7.4-10-19-15.2-28.8-15.2h-87.8c-28.4,0-41.6,16-44,19.3c0,0-25,34-25,34.1
			C158.7,238,162.5,251,180,251h177.7C377.6,251,381.3,236.6,374.2,224.9z M262.6,236c-88.2,0-83,0-84,0
			c0.1-0.1,24.8-33.7,24.9-33.8c1-1.3,10.2-13.2,31.9-13.2h27.2V236z M277.6,236v-47H323c3.2,0.2,11,1.4,16.7,8.9
			c23.2,37.5,22.3,35.7,22.7,37.5C360.2,236.2,363.1,236,277.6,236z"/>
	</g>
</g>
<g>
	<g>
		<path d="M352.1,131.5c-0.3,3.4,1.8,6.6,5.1,7.7l20.5,7c4.2,1.4,8.8-1.1,9.8-5.6c0.8-3.8-1.6-7.5-5.2-8.7l-5.6-1.9
			c19-9.7,42.4-8.4,60.5,4.4c3.1,2.2,7.5,2.1,10.1-0.7c3.2-3.4,2.5-8.6-1.1-11.2c-23.3-16.7-53.6-18-77.8-5l0.7-8.9
			c0.3-4.1-2.7-7.7-6.9-8.1c-4.1-0.4-7.7,2.7-8.1,6.9L352.1,131.5z"/>
	</g>
</g>
<g>
	<g>
		<path d="M489.3,225.4h-43.8l33.4-33.4c8.1-8.1,8.1-21.3,0-29.3c-3.9-3.9-9.1-6.1-14.7-6.1c-5.6,0-10.8,2.1-14.7,6.1l-47,47
			c0,0-0.1,0.1-0.1,0.2c-11.2-18.1-28.2-45.5-28.4-45.8c-9.2-12.3-23.5-18.7-35.4-18.7h-12.2c-3.8,0-7.3,2.8-7.7,6.6
			c-0.5,4.6,3,8.4,7.5,8.4c10.6,0,24.8-1.9,35.6,12.4l35.5,57.3l4.2,6.8c1.4,2.2,3.8,3.5,6.4,3.5h81.5c4.3,0,7.7,3.5,7.7,7.7v7
			h-15.3c-11.2,0-20.3,9.1-20.3,20.3v8.5c0,11.2,9.1,20.3,20.3,20.3H497v15.8c0,16.7-13.6,30.3-30.3,30.3h-30.9
			c-3.7-25.5-25.7-45.3-52.2-45.3c-26.4,0-48.4,19.6-52.2,45h-88.2c-3.5,0-6.8,2.4-7.5,5.8c-1,4.9,2.6,9.2,7.3,9.2h88.2
			c3.1,26.2,25.4,46.5,52.4,46.5c26.9,0,49.1-20.3,52.3-46.3h30.7c25,0,45.3-20.3,45.3-45.3v-71.9
			C512,235.6,501.8,225.4,489.3,225.4z M411.9,225.4c0-0.1-0.8-1.3-2-3.3l2.5-2.5l14.9-14.9l22.1-22.1l10.1-10.1
			c1.3-1.3,3.1-2,4.8-2s3.5,0.6,4.8,2c2.6,2.6,2.6,6.9,0,9.5l-43.3,43.3H411.9z M383.7,396.6c-21.7,0-39.2-18.4-37.7-40.4
			c1.3-18.6,16.3-33.7,34.9-35c22-1.6,40.5,15.9,40.5,37.6C421.4,379.7,404.5,396.6,383.7,396.6z M497,289.3h-15.3
			c-2.9,0-5.3-2.4-5.3-5.3v-8.5c0-2.9,2.4-5.3,5.3-5.3H497V289.3z"/>
	</g>
</g>
<g>
	<g>
		<path d="M291.1,145.4h-65.8c-26.1,0-45.9,11.4-55.1,24.1l-33.3,45.4l-8.1,11l-17.2,1.8c0,0,0,0,0,0L89,229.8l-29.4,3l-15.9,1.6
			C28.6,235.9,0,247.4,0,276.9v68.2c0,11.2,9.1,20.3,20.3,20.3c53.3,0,49.7,0.1,51.8-0.2h7.3c3.1,26.2,25.4,46.5,52.4,46.5
			c27,0,49.3-20.4,52.4-46.5h23.6c3.8,0,7.3-2.8,7.7-6.6c0.5-4.6-3-8.4-7.5-8.4H184c-3.8-25.4-25.8-45-52.2-45
			c-26.4,0-48.4,19.6-52.2,45c-0.8,0-8.5,0.2-59.4,0.2c-2.9,0-5.3-2.4-5.3-5.3v-1h20.1c3.5,0,6.8-2.4,7.5-5.8c1-4.9-2.6-9.2-7.3-9.2
			H15v-6.6h15.3c11.2,0,20.3-9.1,20.3-20.3v-8.5c0-11.2-9.1-20.3-20.3-20.3h-15c2.7-20.3,28.4-23.8,30.2-24.1c0.6-0.1,88.4-9,89-9.1
			c3.5-0.7,4.3-2.6,10.2-10.6c0,0,37.7-51.4,37.8-51.4c1.3-1.8,13.9-17.9,42.9-17.9h65.8c4.1,0,7.5-3.4,7.5-7.5
			C298.6,148.7,295.2,145.4,291.1,145.4z M131.8,321.1c21.7,0,39.2,18.4,37.7,40.4c-1.3,18.6-16.4,33.7-35,35
			c-22,1.5-40.4-16-40.4-37.7C94.1,338.1,111,321.1,131.8,321.1z M30.3,288.4c2.9,0,5.3,2.4,5.3,5.3v8.5c0,2.9-2.4,5.3-5.3,5.3H15
			v-19.1H30.3z"/>
	</g>
</g>
</svg>
