<svg height="512pt" viewBox="0 0 512 512" width="512pt" xmlns="http://www.w3.org/2000/svg"><path d="m475.046875 36.890625c-49.1875-49.1875-129.226563-49.1875-178.417969 0l-259.675781 259.679687c-23.832031 23.828126-36.953125 55.507813-36.953125 89.210938 0 33.695312 13.121094 65.378906 36.953125 89.207031 24.59375 24.59375 56.902344 36.890625 89.207031 36.890625 32.308594 0 64.613282-12.296875 89.210938-36.890625l259.679687-259.679687c23.828125-23.828125 36.949219-55.511719 36.949219-89.207032 0-33.699218-13.121094-65.382812-36.953125-89.210937zm-280.890625 416.882813c-18.164062 18.164062-42.308594 28.167968-67.996094 28.167968-25.683594 0-49.832031-10.003906-67.996094-28.167968-18.160156-18.160157-28.164062-42.308594-28.164062-67.992188 0-25.6875 10.003906-49.835938 28.164062-67.996094l119.234376-119.234375 135.992187 135.992188zm259.679688-259.675782-119.234376 119.230469-135.992187-135.992187 119.234375-119.230469c18.164062-18.164063 42.308594-28.164063 67.996094-28.164063 25.683594 0 49.832031 10 67.996094 28.164063 18.160156 18.160156 28.164062 42.308593 28.164062 67.996093 0 25.683594-10.003906 49.832032-28.164062 67.996094zm0 0"/></svg>