<svg height="480pt" viewBox="0 -50 480 480" width="480pt" xmlns="http://www.w3.org/2000/svg"><path d="m400.457031 132.800781c-3.320312-.191406-35.5625-2.007812-77.863281-3.945312 3.542969-6.089844 5.410156-13.007813 5.40625-20.054688v-24h-24c-22.082031.027344-39.972656 17.917969-40 40v1.597657c-55.257812-2.039063-113.246094-3.375-144.457031-1.597657-18.191407 1.03125-58.046875 7.109375-85.222657 11.503907-2.4375-10.671876-1.703124-21.824219 2.121094-32.082032 7.039063-17.101562 24.992188-29.09375 53.359375-35.636718 50.695313-11.707032 79.960938-27.378907 86.976563-46.585938 2.894531-7.273438 2.003906-15.511719-2.378906-22l-12.796876 9.601562c1.058594 2.175782 1.113282 4.707032.152344 6.925782-2.289062 6.257812-14.226562 22.328125-75.554687 36.472656-33.757813 7.800781-55.488281 23-64.597657 45.238281-4.957031 12.972657-6.042968 27.105469-3.121093 40.683594-6.703125 1.109375-11.097657 1.871094-11.839844 2-3.835937.660156-6.640625 3.984375-6.640625 7.878906v96c.00390625 3.875 2.785156 7.191407 6.601562 7.871094 1.09375.199219 10.015626 1.769531 22.574219 3.863281 8.980469 17.128906 22.039063 31.78125 38.023438 42.664063 56 41.976562 39.058593 67.832031 38.402343 68.800781l12.796876 9.601562c1.175781-1.601562 28-39-41.597657-91.203124-10.351562-7.429688-19.519531-16.378907-27.199219-26.542969 25.246094 4 55.039063 8.3125 70.09375 8.9375 61.746094 2.558593 240.800782-13.871094 248.160157-14.554688 5.585937-.359375 10.917969 2.363281 13.910156 7.089844 2.992187 4.730469 3.160156 10.714844.441406 15.609375-2.71875 4.890625-7.890625 7.90625-13.488281 7.863281h-56.71875c-7.246094.035157-14.34375 2.054688-20.519531 5.847657-6.816407-13.339844-20.5-21.769532-35.480469-21.847657h-40v24c.035156 12.640625 6.0625 24.511719 16.246094 32-10.183594 7.484375-16.210938 19.359375-16.246094 32v24h40c14.980469-.082031 28.664062-8.507812 35.480469-21.847656 6.175781 3.789063 13.273437 5.8125 20.519531 5.847656h80c48.578125-.058593 87.941406-39.421875 88-88v-51.554687c0-49.796875-34.976562-90.40625-79.542969-92.445313zm-120.457031-8c0-13.253906 10.746094-24 24-24h8v8c-.011719 7.621094-3.699219 14.769531-9.902344 19.199219-7.203125-.3125-14.59375-.617188-22.097656-.921875zm-48 168v-8h24c10.699219.054688 20.074219 7.1875 22.976562 17.488281-3.007812 4.375-5.109374 9.308594-6.175781 14.511719h-16.800781c-13.253906 0-24-10.746093-24-24zm24 72h-24v-8c0-13.253906 10.746094-24 24-24h16.800781c1.066407 5.199219 3.160157 10.136719 6.167969 14.511719-2.902344 10.296875-12.269531 17.429688-22.96875 17.488281zm208-88c-.042969 39.746094-32.253906 71.957031-72 72v-16h-16v16h-48v-16h-16v16c-13.253906 0-24-10.746093-24-24 0-13.253906 10.746094-24 24-24h24v16h16v-16h16.71875c11.40625-.039062 21.882812-6.28125 27.351562-16.289062 5.46875-10.007813 5.058594-22.195313-1.070312-31.8125-6.128906-9.617188-17.003906-15.140625-28.382812-14.410157-1.378907.125-104.28125 9.550782-181.5625 13.277344 1.648437-12.460937-1.644532-25.074218-9.175782-35.140625-5.972656-7.058593-14.640625-11.277343-23.878906-11.625l-.105469 16c4.652344.347657 8.957031 2.574219 11.9375 6.160157 4.800781 7.503906 6.601563 16.539062 5.046875 25.3125-8.550781.328124-16.605468.566406-24 .6875 1.375-12.070313-2.050781-24.195313-9.535156-33.761719-8.066406-8.84375-19.378906-14.039063-31.34375-14.398438l-.054688 16c7.328126.308594 14.246094 3.464844 19.277344 8.800781 4.8125 6.78125 6.796875 15.171876 5.539063 23.390626-2.992188-.039063-5.859375-.097657-8.433594-.199219-16.433594-.679688-52.71875-6.199219-79.351563-10.546875-.414062-1.636719-.707031-3.300782-.871093-4.980469-.765625-6.796875 1.253906-13.613281 5.597656-18.898437l-5.703125-5.566407-5.65625-5.65625c-7.496094 8.457031-11.191406 19.621094-10.222656 30.878907 0 .488281.167968.984374.214844 1.472656l-8.335938-1.425782v-82.511718l6.695312-1.117188c2.714844 7.898438 6.25 15.492188 10.550782 22.65625l13.515625-8.578125c-3.160157-5.316406-5.839844-10.90625-8-16.703125 26.839843-4.3125 64.757812-10.074218 81.695312-11.015625l2.191407-.105469c.703124 2.847657.703124 5.820313 0 8.664063-4.144532 10.8125-12.285157 19.621094-22.738282 24.601563l8.242188 13.710937c17.085937-10.257813 27.246094-22.078125 30.191406-35.144531.914062-4.050782 1.078125-8.234375.480469-12.34375 8.953125-.160156 19.03125-.191406 29.953125-.105469 0 8.128906-3.5625 23.648437-27.714844 33.304687l5.9375 14.863282c29.601562-11.855469 37.601562-33.132813 37.777344-48 88.320312 1.417968 213.199218 8.441406 214.886718 8.539062 40.257813 1.847656 64.335938 40.320313 64.335938 76.460938zm0 0"/><path d="m64 164.800781h16v16h-16zm0 0"/><path d="m64 204.800781h16v16h-16zm0 0"/><path d="m362.039062 189.0625c-2.519531-.664062-62.039062-16.261719-98.039062-16.261719-23.644531.339844-46.886719 6.167969-67.894531 17.015625-2.53125 1.414063-4.101563 4.085938-4.101563 6.984375 0 2.898438 1.570313 5.570313 4.101563 6.984375 21.007812 10.847656 44.25 16.671875 67.894531 17.015625 36 0 95.519531-15.601562 98.039062-16.265625 3.515626-.925781 5.960938-4.101562 5.960938-7.734375 0-3.632812-2.445312-6.8125-5.960938-7.738281zm-98.039062 15.738281c-14.964844-.191406-29.789062-2.894531-43.855469-8 14.066407-5.105469 28.890625-7.8125 43.855469-8 20.332031.84375 40.546875 3.519531 60.398438 8-19.851563 4.476563-40.066407 7.15625-60.398438 8zm0 0"/><path d="m400 300.800781h16v16h-16zm0 0"/><path d="m432 268.800781h16v16h-16zm0 0"/><path d="m408 236.800781h16v16h-16zm0 0"/></svg>