<?xml version="1.0" encoding="utf-8"?>
<!-- Generator: Adobe Illustrator 23.0.2, SVG Export Plug-In . SVG Version: 6.00 Build 0)  -->
<svg version="1.1" id="icon" xmlns="http://www.w3.org/2000/svg" xmlns:xlink="http://www.w3.org/1999/xlink" x="0px" y="0px"
	 viewBox="0 0 512 512" style="enable-background:new 0 0 512 512;" xml:space="preserve">
<style type="text/css">
	.st0{fill:#C6C6C6;}
	.st1{fill:#9B9B9B;}
</style>
<g>
	<path class="st0" d="M361.9,441.4c4.9,0,8.8-4,8.8-8.8V185.4c0-4.9-4-8.8-8.8-8.8h-8.8v-61.8C353.1,61.1,309.6,0,256,0
		s-97.1,61.1-97.1,114.8v61.8h-8.8c-4.9,0-8.8,4-8.8,8.8v247.2c0,4.9,4,8.8,8.8,8.8h8.8v35.3h-8.8c-4.9,0-8.8,4-8.8,8.8v17.7
		c0,4.9,4,8.8,8.8,8.8H362c4.9,0,8.8-4,8.8-8.8v-17.7c0-4.9-4-8.8-8.8-8.8h-8.8v-35.3H361.9L361.9,441.4z"/>
	<g>
		<path class="st1" d="M150.1,176.6H362c4.9,0,8.8,4,8.8,8.8v247.2c0,4.9-4,8.8-8.8,8.8H150.1c-4.9,0-8.8-4-8.8-8.8V185.4
			C141.2,180.5,145.2,176.6,150.1,176.6z"/>
		<path class="st1" d="M150.1,476.7H362c4.9,0,8.8,4,8.8,8.8v17.7c0,4.9-4,8.8-8.8,8.8H150.1c-4.9,0-8.8-4-8.8-8.8v-17.7
			C141.2,480.6,145.2,476.7,150.1,476.7z"/>
	</g>
</g>
</svg>
