<?xml version="1.0" encoding="utf-8"?>
<!-- Generator: Adobe Illustrator 23.0.2, SVG Export Plug-In . SVG Version: 6.00 Build 0)  -->
<svg version="1.1" id="Слой_1" xmlns="http://www.w3.org/2000/svg" xmlns:xlink="http://www.w3.org/1999/xlink" x="0px" y="0px"
	 viewBox="0 0 1100 1800" style="enable-background:new 0 0 1100 1800;" xml:space="preserve">
<style type="text/css">
	.st0{clip-path:url(#SVGID_2_);}
	.st1{clip-path:url(#SVGID_4_);fill-rule:evenodd;clip-rule:evenodd;fill:#FFFFFF;}
	.st2{fill:#262626;}
</style>
<g id="Layer_1">
</g>
<g id="Layer_2">
	<g>
		<g>
			<g>
				<defs>
					<path id="SVGID_1_" d="M628.5,1138.5H845v47.9H628.5V1138.5z M627.9,1137.9h217.6v49.1H627.9V1137.9z"/>
				</defs>
				<clipPath id="SVGID_2_">
					<use xlink:href="#SVGID_1_"  style="overflow:visible;"/>
				</clipPath>
				<g class="st0">
					<g>
						<defs>
							<rect id="SVGID_3_" x="628.5" y="1137.9" width="216.5" height="48.5"/>
						</defs>
						<clipPath id="SVGID_4_">
							<use xlink:href="#SVGID_3_"  style="overflow:visible;"/>
						</clipPath>
						<rect x="181.7" y="1138.5" class="st1" width="216.5" height="47.9"/>
					</g>
				</g>
			</g>
		</g>
		<path class="st2" d="M951.8,466.6v-256c0-65.4-53-118.3-118.3-118.3H264.8c-65.4,0-118.3,53-118.3,118.3v100.5h-3.7v62.6h3.7v52.9
			c-2.5,1.7-4.1,4.6-4.1,7.8v105.7c0,3.2,1.6,6.1,4.1,7.8v29.4c-2.5,1.7-4.1,4.6-4.1,7.8v105.7c0,3.2,1.6,6.1,4.1,7.8v908.6
			c0,65.4,53,118.3,118.3,118.3h568.7c65.4,0,118.3-53,118.3-118.3V657.6c2.9-0.6,5.1-3.1,5.1-6.2V472.8
			C956.9,469.7,954.7,467.2,951.8,466.6z M758.1,134.8h73.6c42.1,0,76.2,34.1,76.2,76.2v1398.6c0,42.1-34.1,76.2-76.2,76.2H266.6
			c-42.1,0-76.2-34.1-76.2-76.2V211c0-42.1,34.1-76.2,76.2-76.2h73.1"/>
		<path d="M836.1,100.7H263.7c-58.7,0-106.2,47.6-106.2,106.2v1403.9c0,58.7,47.6,106.2,106.2,106.2h572.4
			c58.7,0,106.2-47.6,106.2-106.2V206.9C942.3,148.2,894.8,100.7,836.1,100.7z M758.1,134.3h73.6c42.1,0,76.2,34.1,76.2,76.2v1399
			c0,42.1-34.1,76.2-76.2,76.2H266.6c-42.1,0-76.2-34.1-76.2-76.2V210.6c0-42.1,34.1-76.2,76.2-76.2h73.1"/>
	</g>
</g>
</svg>
