<?xml version="1.0" encoding="utf-8"?>
<!-- Generator: Adobe Illustrator 23.0.2, SVG Export Plug-In . SVG Version: 6.00 Build 0)  -->
<svg version="1.1" id="Слой_1" xmlns="http://www.w3.org/2000/svg" xmlns:xlink="http://www.w3.org/1999/xlink" x="0px" y="0px"
	 viewBox="0 0 120 120" style="enable-background:new 0 0 120 120;" xml:space="preserve">
<style type="text/css">
	.st0{fill-rule:evenodd;clip-rule:evenodd;fill:url(#bg_1_);}
	.st1{fill:#2E2E2E;}
</style>
<title>Weather</title>
<g>
	<g id="Weather">
		
			<linearGradient id="bg_1_" gradientUnits="userSpaceOnUse" x1="-242.4543" y1="454.2107" x2="-242.4543" y2="453.2107" gradientTransform="matrix(120 0 0 -120 29155 54505)">
			<stop  offset="0" style="stop-color:#FFFFFF"/>
			<stop  offset="1" style="stop-color:#EFEFF0"/>
		</linearGradient>
		<path id="bg" class="st0" d="M28.5-0.3h64c15.5,0,28,12.5,28,28v64c0,15.5-12.5,28-28,28h-64c-15.5,0-28-12.5-28-28v-64
			C0.5,12.3,13-0.3,28.5-0.3z"/>
		<g transform="translate(0.000000,690.000000) scale(0.100000,-0.100000)">
			<path class="st1" d="M626.4,6437.2c-35.4-6-36.9-6.5-36.9-9.9c0-3.2,1.5-4.1,8.5-5.8c6.5-1.6,9.4-3.3,12.2-7.6
				c3.5-4.9,3.8-9.1,4.9-41.8c0.5-19.9,0.7-63.7,0.2-97.3l-0.9-60.9l7.1-1.6c28.5-6.5,75-7.7,94.3-2.8
				c46.1,11.8,72.7,48.2,69.2,95.1c-2.5,32.3-17.3,54.4-44.7,66.8c-12.2,5.4-40.1,6.1-55.4,1.6c-6-1.9-11.6-3.5-12.7-3.8
				c-1.3-0.2-1.6,12.6-1.1,37.2l0.7,37.4l-4.4-0.2C665.1,6443.5,646.6,6440.7,626.4,6437.2z M701.6,6354
				c8.4-4.4,16.4-14.7,20.7-26.6c5.6-15.4,5.6-49.5,0-67.2c-5.1-16.1-13.6-30-21.8-35.2c-5.1-3.5-8.2-4.3-17.3-4.3h-11.1l-1.1,27.6
				c-1.6,37.5-1.8,94.1-0.5,101.2c1.3,6.5,2.7,7.1,16.2,7.4C692.9,6357.1,697.8,6356.2,701.6,6354z"/>
			<path class="st1" d="M78.1,6439.7c-1.1-0.3-1.6-3-1.3-6c0.7-5,1.1-5.4,9.6-6.3c12.2-1.4,18.9-6.8,22.9-18
				c2.9-8,3.3-16.9,3.3-83.1c0-79.9-0.7-88.1-9.3-96.8c-3.3-3.3-7.3-5.2-14.5-6.6c-10.2-2-14.4-5.4-12.4-9.9
				c0.9-2.2,8.9-2.5,69.2-2.5h67.9l-0.5,5c-0.5,4.7-1.1,5-12.4,6.9c-21.8,3.9-25.3,11.5-26.7,61l-1.1,34.2h8.9
				c4.9,0,13.8-0.8,19.8-1.6c13.6-1.9,19.8-6.9,25.3-20.7c3.6-9.3,4.4-10.1,9.3-10.1h5.5l0.5,39.1l0.4,38.9h-6.2
				c-6,0-6.4-0.3-9.3-8.7c-3.5-10.7-11.6-19.1-20.5-21.3c-3.6-0.8-12.7-1.6-19.8-1.6h-13.3v32.8c0,18.1,0.5,38.5,1.3,45.2l1.1,12.1
				l28.3-0.6c24.5-0.5,29.2-1.1,35.6-3.9c13.8-6.3,24.2-18.6,34.3-40.2c2.9-6.5,3.8-6.8,11.1-4.4l4.5,1.6l-0.4,31.8l-0.5,32
				l-19.1,0.9C248.2,6440.4,81,6440.8,78.1,6439.7z"/>
			<path class="st1" d="M336.1,6377.6c-28.9-5.2-50.9-20-63.6-43.2c-7.3-13.4-10-25.2-10-43.4c0.2-49.7,30.2-80.7,81.2-84.5
				c48.7-3.6,88.1,19.9,99.7,59.3c4.2,13.7,4.2,41.6,0.2,55c-9.1,30-31.1,49.3-63.2,56C368.1,6379.3,347.9,6379.7,336.1,6377.6z
				 M364.4,6362.9c8-4.6,15.3-15.3,19.3-27.9c2.7-8.4,3.3-16.6,3.3-45.7c0-32.5-0.4-36.4-4.2-46.8c-9.1-25.2-32.7-31.8-46.9-13.1
				c-9.4,12.5-13.8,29.3-14.7,58.3c-1.1,30.7,2,50.9,10,64.5C339,6365.8,352.2,6370,364.4,6362.9z"/>
			<path class="st1" d="M487.8,6372.2c-20.5-3.6-38.3-7.3-39.6-7.9c-1.3-0.6-2.2-2.5-2.2-4.1c0-2.2,1.8-3.3,6.9-4.1
				c18.7-2.8,19.4-5,19.4-68.4c0-62.7-0.2-62.9-21.4-67c-4.4-0.8-5.1-1.6-4.5-5.2l0.5-4.3l56.9-0.5l56.7-0.3v4.6
				c0,4.3-0.7,4.9-6.7,5.7c-15.6,2-17.6,3-21.4,9.5c-3.5,5.8-3.6,9.5-3.6,52.7v46.3l5.1,3.3c7.3,4.7,29.6,4.6,41.2-0.3
				c6.5-2.7,8.4-2.8,9.4-1.3c2.7,4.1,17.8,40.4,17.8,42.6c0,3.2-9.6,5.7-21.6,5.7c-17.8,0-35.1-9.6-47.8-26.6l-5.5-7.3l1.1,17
				c0.7,12.9,0.5,16.9-1.3,16.7C526.1,6378.9,508.3,6375.9,487.8,6372.2z"/>
			<path class="st1" d="M869.8,6377c-32.5-6.5-57.6-28.8-67-59.6c-3.3-10.6-3.3-40.5,0-50.9c7.4-24.3,23.1-41.5,47.4-52
				c30.7-13.4,71-10.1,98.8,8c13.6,8.8,17.3,13.4,14,17.3c-2.4,2.7-3.1,2.5-15.4-2.4c-11.4-4.6-14.9-5.2-28-5.2
				c-17.6,0-27.8,2.8-38.9,10.7c-13.8,9.8-24.2,30.9-24.2,49.3v6.5H912h55.4v7.1c0,11.4-5.3,30.4-11.1,40.5
				c-11.6,20-31.8,30.9-59.2,32C887.1,6378.9,876.9,6378.2,869.8,6377z M893.4,6364.8c8.5-3.3,14.4-17,16.9-39.4l1.1-10.4l-11.3-0.9
				c-6.4-0.6-18.7-1.1-27.8-1.1h-16.2l1.3,9c1.6,11.4,6.9,26.5,11.8,33.3c3.6,5,13.4,11.4,17.6,11.4
				C888.2,6366.6,891.1,6365.8,893.4,6364.8z"/>
			<path class="st1" d="M1035,6377.4c-20-3.3-37.6-14-46.9-28.5c-4.7-7.6-5.3-9.8-5.3-23.3c0-17.3,3.1-24,15.3-33.6
				c8.2-6.5,14.5-9.3,36.2-16.9c18.3-6.3,28.9-12.8,32.3-19.7c3.5-7.3,3.3-11.2-1.1-18.9c-4.7-8.5-14.5-13.4-26.5-13.4
				c-18.3,0.2-33.4,10.9-45.1,32.2c-5.1,9.1-7.4,12-9.4,11.4c-1.6-0.5-3.6-0.9-4.5-0.9c-2,0-2.2-45.7-0.2-48.4
				c6.5-9,71.9-14,95.2-7.6c20.3,5.8,32.7,14.8,40.7,29.8c3.6,6.6,4.4,10.6,4.4,22.2c-0.2,25.2-7.4,32.9-48.1,49.7
				c-27.3,11.2-37.8,18.1-39.6,26.3c-1.8,7.9,1.6,16.6,8.5,22.2c5.5,4.3,8,5,15.1,5c10.7,0,22.5-4.9,29.4-12.1
				c2.9-3.2,8-10.9,11.3-17.3c4.2-8.4,6.5-11.4,8.4-10.7c1.5,0.5,3.5,0.8,4.4,0.8s1.6,9.8,1.6,22.2v22.1l-6.2,2.2
				C1088.9,6377.9,1053.1,6380.6,1035,6377.4z"/>
		</g>
	</g>
</g>
</svg>
