<?xml version="1.0" encoding="utf-8"?>
<!-- Generator: Adobe Illustrator 23.0.2, SVG Export Plug-In . SVG Version: 6.00 Build 0)  -->
<svg version="1.1" id="Capa_1" xmlns="http://www.w3.org/2000/svg" xmlns:xlink="http://www.w3.org/1999/xlink" x="0px" y="0px"
	 viewBox="0 0 254.5 254.5" style="enable-background:new 0 0 254.5 254.5;" xml:space="preserve">
<style type="text/css">
	.st0{fill:#FFFFFF;stroke:#FFFFFF;stroke-miterlimit:10;}
</style>
<g>
	<path class="st0" d="M127.3,5.8C60.3,5.8,5.8,60.3,5.8,127.3s54.5,121.5,121.5,121.5s121.5-54.5,121.5-121.5S194.3,5.8,127.3,5.8z
		 M127.3,221.9c-52.2,0-94.6-42.4-94.6-94.6s42.4-94.6,94.6-94.6c52.2,0,94.6,42.4,94.6,94.6S179.4,221.9,127.3,221.9z"/>
	<path class="st0" d="M184.4,83.9c-4.2,0-7.6,3.4-7.6,7.6v28.8h-22.9V91.5c0-4.2-3.4-7.6-7.6-7.6s-7.6,3.4-7.6,7.6v28.8h-22.9V91.5
		c0-4.2-3.4-7.6-7.6-7.6c-4.2,0-7.6,3.4-7.6,7.6v28.8H77.7V91.5c0-4.2-3.4-7.6-7.6-7.6c-4.2,0-7.6,3.4-7.6,7.6v33.3
		c0,7.4,4.6,10.7,8.8,10.7h29.3V163c0,4.2,3.4,7.6,7.6,7.6c4.2,0,7.6-3.4,7.6-7.6v-27.5h22.9V163c0,4.2,3.4,7.6,7.6,7.6
		s7.6-3.4,7.6-7.6v-27.5h22.9V163c0,4.2,3.4,7.6,7.6,7.6c4.2,0,7.6-3.4,7.6-7.6V91.5C192,87.3,188.6,83.9,184.4,83.9z"/>
</g>
</svg>
