<?xml version="1.0" encoding="utf-8"?>
<!-- Generator: Adobe Illustrator 23.1.0, SVG Export Plug-In . SVG Version: 6.00 Build 0)  -->
<svg version="1.1" id="icon" xmlns="http://www.w3.org/2000/svg" xmlns:xlink="http://www.w3.org/1999/xlink" x="0px" y="0px"
	 viewBox="0 0 512 512" style="enable-background:new 0 0 512 512;" xml:space="preserve">
<g>
	<g>
		<path d="M399.5,394.9v-23c7.9,0.6,10.9,4.2,13.6,4.2c3.4,0,5-4.3,5-6.5c0-5.6-10.9-7.9-18.6-8.2v-3.1c0-1.4-1.7-2.6-3.4-2.6
			c-1.9,0-3.3,1.2-3.3,2.6v3.3c-10.8,1.1-21.5,6.8-21.5,21.1c0,14.5,11.3,18.6,21.5,22.2v26.6c-11.6-0.9-14.6-8.8-18.4-8.8
			c-2.8,0-5.2,3.7-5.2,6.5c0,5.6,9.5,13.1,23.6,13.4v3.5c0,1.4,1.4,2.6,3.3,2.6c1.7,0,3.4-1.2,3.4-2.6v-3.9
			c12.2-1.7,20.6-9.4,20.6-23.3C420.1,403.5,409.4,398.5,399.5,394.9z M393.5,392.7c-6-2.3-10.9-4.6-10.9-11.1
			c0-5.9,4.5-8.7,10.9-9.5V392.7z M398.8,431.3v-23.9c5.6,2.4,10,5.6,10,12.7C408.8,426.6,405,430.2,398.8,431.3z"/>
	</g>
</g>
<g>
	<g>
		<path d="M493.8,355c-12-20.5-31.3-41.5-60.4-65.6c0.3-0.4,0.6-0.9,0.9-1.4c2.7-4.6,3.3-10.1,1.8-15.2c-2-6.9-7.6-11.8-14.2-13.4
			c2.9-8.2,7.4-16.1,11.3-21c3.4-4.4,4-10.2,1.5-15.2c-2.5-5-7.6-8-13.2-7.9l-61.1,1.5c-5.6,0.1-10.5,3.4-12.8,8.5
			c-2.3,5.1-1.4,10.9,2.2,15.1c4.1,4.7,9,12.4,12.3,20.4c-6.5,1.9-11.9,7.1-13.6,14.1c-1.3,5.2-0.3,10.7,2.6,15.1
			c0.3,0.5,0.6,0.9,1,1.3c-3,2.7-5.9,5.4-8.6,8.1c-0.9-6.5-3.4-12.8-7.3-17.9c-8.8-11.5-28.9-20-46.8-27.5c-3.2-1.3-6.3-2.6-9.2-3.9
			c15.4-14.9,24.5-35,25.4-56.6c12.9-1.7,22.9-12.8,22.9-26.2v-14.7c0-9.6-5.1-18-12.8-22.7c6.4-3.5,10.8-10.3,10.8-18.2
			c0-9.8-6.9-18.1-16.1-20.2c-2.5-7.8-6.1-15.9-10.5-23.9c-2-3.6-6.5-4.9-10.1-2.9c-3.6,2-4.9,6.5-2.9,10.1c3,5.4,5.5,10.9,7.6,16.2
			H110.7c11.9-31.3,43.7-72.8,91.9-74.1c30.3,0.8,52.1,17.4,65,31.3c2.8,3,7.5,3.1,10.5,0.3c3-2.8,3.1-7.5,0.3-10.5
			c-21.4-22.8-47.6-35.3-75.6-36c-0.2,0-0.3,0-0.5,0c0,0,0,0,0,0c-27.5,0.7-53.2,12.7-74.4,34.8c-14.9,15.5-27,35.6-33.2,54.8
			C85.7,94,79,102.2,79,111.9c0,7.8,4.4,14.7,10.8,18.2c-7.7,4.6-12.8,13.1-12.8,22.7v14.7c0,13.4,10,24.4,22.8,26.2
			c0,2.2,0,3.9,0,5c0,20.1,9,38.9,24.7,51.4l0.4,0.3c-2.8,1.2-5.8,2.5-8.8,3.8c-17.8,7.5-38,16-46.8,27.5
			c-8.6,11.2-10.1,27.8-4.1,41.1c-0.2,0-0.5,0.1-0.7,0.2c-18.8,5.5-34.9,16.7-46.7,32.4C6.2,370.9,0,389.5,0,409.1v4.7
			c0,4.1,3.3,7.4,7.4,7.4s7.4-3.3,7.4-7.4v-4.7c0-16.3,5.2-31.9,15-45c9.7-13,23.1-22.3,38.6-27l8.1-1.5c5.8,4.4,13.7,8.8,24.1,13.5
			c32.5,14.7,67.3,22,102.2,22c33,0,66-6.6,96.9-19.7c-1.7,2.8-3.3,5.6-4.8,8.4c-11,20.9-15.6,42.2-14.9,69
			c0.5,22.3,10.1,43,26.9,58.4c3.1,2.8,6.3,5.4,9.7,7.7h-244v-63.1c0-4.1-3.3-7.4-7.4-7.4s-7.4,3.3-7.4,7.4v63.1H18.3
			c-1.9,0-3.5-1.6-3.5-3.5v-42.7c0-4.1-3.3-7.4-7.4-7.4S0,444.5,0,448.7v42.7c0,10.1,8.2,18.3,18.3,18.3h342.6
			c1.5,0.1,2.9,0.1,4.4,0.1c0.7,0,1.4,0,2.1,0l61-1.5c22.5-0.5,43.6-9.6,59.4-25.5c16.1-16.1,24.6-37.3,24.1-59.6
			C511.3,396.4,505.7,375.4,493.8,355z M421.8,277c0.4,1.2,0.2,2.5-0.4,3.6c-0.3,0.5-1,1.4-2.2,1.9c0,0-0.1,0-0.1,0
			c-0.1,0-0.1,0-0.2,0.1c-0.1,0-0.2,0.1-0.4,0.1c0,0,0,0,0,0c0,0,0,0,0,0c-17.4,4.2-34.4,4.6-51.9,1.2c0,0,0,0,0,0
			c-0.1,0-0.2-0.1-0.3-0.1c-0.1,0-0.1,0-0.2-0.1c0,0-0.1,0-0.1,0c-1.2-0.4-2-1.3-2.3-1.8c-0.7-1.1-0.9-2.3-0.6-3.6
			c0.5-2.1,2.4-3.5,4.4-3.5c0.3,0,0.5,0,0.8,0.1c0.9,0.2,1.8,0.3,2.7,0.4c0,0,0,0,0.1,0c14.4,2.3,28.3,1.9,42.6-1
			c0.1,0,0.2,0,0.3-0.1c0.8-0.2,1.6-0.3,2.5-0.5C418.8,273.3,421.1,274.7,421.8,277z M361.9,231.6l58.8-1.4
			c-5.3,7-11.7,18.5-14.9,30.6c-9.3,1.5-18.3,1.7-27.7,0.7C374.5,249.4,367.6,238.3,361.9,231.6z M313.7,167.4L313.7,167.4
			c0,5.1-3.3,9.5-8,11c0-8.1,0-19,0-29.4c0-0.1,0-0.1,0-0.2c0-0.1,0-0.1,0-0.2c0-2.4,0-4.7,0-6.9c4.6,1.5,7.9,5.9,7.9,11V167.4z
			 M91.9,167.4v-14.7c0-5.1,3.3-9.5,7.9-11c0,2.2,0,4.6,0,6.9c0,0.1,0,0.1,0,0.2c0,0.1,0,0.1,0,0.2c0,9.9,0,20.5,0,29.4
			C95.2,176.9,91.9,172.5,91.9,167.4z M99.7,117.7c-3.2,0-5.8-2.6-5.8-5.8c0-3.2,2.6-5.8,5.8-5.8c0,0,205.1,0,205.1,0c0,0,0,0,0,0
			h1.1c3.2,0,5.8,2.6,5.8,5.8s-2.6,5.8-5.8,5.8H99.7z M114.7,138.8l0-6.3h176.2c0,0.4,0,0.7,0,1.1c0,2.4,0,5,0,7.7H114.7
			C114.7,140.5,114.7,139.7,114.7,138.8z M264.3,160.6v11c0,3.2-2.6,5.8-5.8,5.8h-30.4c-3.2,0-5.8-2.6-5.8-5.8v-11L264.3,160.6
			L264.3,160.6z M183.3,160.6v11c0,3.2-2.6,5.8-5.8,5.8h-30.4c-3.2,0-5.8-2.6-5.8-5.8v-11L183.3,160.6L183.3,160.6z M114.7,186.4
			L114.7,186.4l0-30.2h11.7v15.3c0,11.4,9.3,20.7,20.7,20.7h30.4c11.4,0,20.7-9.3,20.7-20.7v-15.3h9.2v15.3
			c0,11.4,9.3,20.7,20.7,20.7h30.4c11.4,0,20.7-9.3,20.7-20.7v-15.3h11.8c0,11.9,0,23.3,0,29.7c0,2.1,0,3.6,0,4.4c0,0.2,0,0.4,0,0.6
			l-41.1,6.3c-34.3,5.2-69,5-103.2-0.6l-31.9-5.2C114.7,189.8,114.7,188.2,114.7,186.4z M115.3,206.5l28.9,4.7
			c18.5,3,37.2,4.5,55.8,4.5c17.4,0,34.7-1.3,52-3.9l37-5.6c-3.5,14.6-11.7,27.7-23.7,37.4l-3.2,2.6c0,0-0.1,0-0.1,0.1l-34.4,27.7
			c-3,2.4-6.9,3.8-10.8,3.8h-28c-3.9,0-7.7-1.3-10.8-3.8l-34.4-27.7c0,0-0.1,0-0.1-0.1l-9.6-7.7C123.8,230.3,117.3,219,115.3,206.5z
			 M247.2,312c1.4,2.1,3.1,3.9,4.8,5.5c-14.1,10.6-31.3,16.4-49.2,16.4s-35.1-5.8-49.2-16.4c1.8-1.6,3.4-3.4,4.8-5.5
			c3.8-5.5,5.9-12.2,5.9-18.4v-11.7l4.4,3.6c5.7,4.6,12.8,7.1,20.1,7.1h28c7.3,0,14.4-2.5,20.1-7.1l4.4-3.6v11.7
			C241.3,299.9,243.4,306.6,247.2,312z M298.8,335.6c-61,27.6-131.1,27.6-192.1,0c-21.2-9.6-26.2-15.7-27.4-18
			c-4.5-8.5-3.7-19.8,1.8-27.1c6.4-8.3,25.4-16.3,40.7-22.8c5.8-2.4,11.3-4.8,16-7l11.5,9.2v23.7c0,6.8-5,14.2-10.3,15.3
			c-2.7,0.5-4.9,2.5-5.7,5.2c-0.8,2.7,0,5.5,2,7.4c18.2,17.6,42.1,27.3,67.4,27.3s49.2-9.7,67.4-27.3c2-1.9,2.7-4.8,2-7.4
			c-0.8-2.6-3-4.7-5.7-5.2c-5.3-1.1-10.3-8.5-10.3-15.3V270l11.5-9.2c4.8,2.3,10.3,4.6,16.1,7c15.3,6.4,34.4,14.5,40.7,22.8
			c5.3,6.9,6.2,17.6,2.3,25.9c-1.1,2.5-3.3,4.5-6.3,7.1C316.4,326.6,309.8,330.6,298.8,335.6z M477.3,472.4
			c-13.1,13.2-30.6,20.7-49.2,21.1l-61,1.5c-1.7,0-3.3,0-5-0.1c-0.2,0-0.4,0-0.6,0h0c-16.6-0.9-32.2-7.4-44.5-18.6
			c-13.8-12.6-21.6-29.5-22.1-47.7c-0.8-31.9,5.6-58.8,35.9-94.1c4.4-5.5,8.2-9.2,8.2-9.2c7.7-8.2,16.6-16.9,26.9-26.2
			c8,1.4,16,2.1,23.9,2.1c10,0,20-1.2,30.1-3.4c63.5,51.7,76.2,84.3,77.2,126C497.5,441.8,490.5,459.1,477.3,472.4z"/>
	</g>
</g>
</svg>
