<svg height="512pt" viewBox="0 -156 512.0005 512" width="512pt" xmlns="http://www.w3.org/2000/svg"><path d="m2.929688 197.070312c3.902343 3.90625 10.234374 3.90625 14.140624 0l43.339844-43.335937c16.871094 10.371094 36.652344 16.265625 57.589844 16.265625 65.238281 0 97.398438-46.570312 110.292969-110h55.414062c13.074219 64.371094 45.132813 110 110.292969 110 20.9375 0 40.71875-5.894531 57.589844-16.269531l43.339844 43.339843c3.902343 3.90625 10.234374 3.90625 14.140624 0 3.90625-3.902343 3.90625-10.234374 0-14.140624l-41.316406-41.316407c15.734375-14.238281 27.425782-33.085937 32.871094-54.867187 1.335938-5.375 2.015625-10.875 2.015625-16.347656 0-42.640626-39.828125-70.398438-73.070313-70.398438h-274.570312c-5.523438 0-10 4.476562-10 10s4.476562 10 10 10h55v29.089844c-10.011719 56.78125-35.011719 100.910156-92 100.910156-41.152344 0-77.167969-27.902344-87.21875-68.089844-6.84375-27.433594 10.574219-54.273437 36.636719-60.699218 5.363281-1.324219 8.636719-6.742188 7.316406-12.105469-1.324219-5.363281-6.746094-8.640625-12.105469-7.3125-36.359375 8.964843-60.890625 46.332031-51.25 84.964843 5.445313 21.777344 17.132813 40.621094 32.863282 54.855469l-41.3125 41.316407c-3.90625 3.90625-3.90625 10.238281 0 14.140624zm479.710937-126.667968c0 3.84375-.480469 7.71875-1.421875 11.503906-9.996094 39.964844-45.832031 68.09375-87.21875 68.09375-57.382812 0-81.996094-44.175781-92-100.910156v-29.089844h126.578125c30.417969 6.417969 54.0625 18.105469 54.0625 50.402344zm-200.640625-50.402344v20h-52v-20zm0 0"/><path d="m120 10c0 5.523438-4.476562 10-10 10s-10-4.476562-10-10 4.476562-10 10-10 10 4.476562 10 10zm0 0"/></svg>