<?xml version="1.0" encoding="utf-8"?>
<!-- Generator: Adobe Illustrator 21.1.0, SVG Export Plug-In . SVG Version: 6.00 Build 0)  -->
<svg version="1.1" id="icon" xmlns="http://www.w3.org/2000/svg" xmlns:xlink="http://www.w3.org/1999/xlink" x="0px" y="0px"
	 viewBox="0 0 496 496" style="enable-background:new 0 0 496 496;" xml:space="preserve">
<g>
	<g>
		<path d="M464,136V8c0-4.4-3.6-8-8-8h-64c-4.4,0-8,3.6-8,8v40h-72.1c-0.6-8.4-5.5-15.8-13.1-19.6L273.9,16h-51.8l-24.8,12.4
			c-7.6,3.8-12.5,11.2-13.1,19.6H112V8c0-4.4-3.6-8-8-8H40c-4.4,0-8,3.6-8,8v128c0,4.4,3.6,8,8,8h64c4.4,0,8-3.6,8-8V96h40v94.1
			l-24,48V400h-16v-40c0-4.4-3.6-8-8-8H40c-4.4,0-8,3.6-8,8v128c0,4.4,3.6,8,8,8h64c4.4,0,8-3.6,8-8v-40h94.5
			c8.5,14.7,24.3,24,41.5,24s33-9.3,41.5-24H384v40c0,4.4,3.6,8,8,8h64c4.4,0,8-3.6,8-8V360c0-4.4-3.6-8-8-8h-64c-4.4,0-8,3.6-8,8
			v40h-16V238.1l-24-48V96h40v40c0,4.4,3.6,8,8,8h64C460.4,144,464,140.4,464,136z M408,112L408,112c4.4,0,8-3.6,8-8v0
			c0-4.4-3.6-8-8-8l0,0c-4.4,0-8-3.6-8-8v0c0-4.4,3.6-8,8-8l0,0c4.4,0,8-3.6,8-8v0c0-4.4-3.6-8-8-8l0,0c-4.4,0-8-3.6-8-8v0
			c0-4.4,3.6-8,8-8l0,0c4.4,0,8-3.6,8-8v0c0-4.4-3.6-8-8-8l0,0c-4.4,0-8-3.6-8-8v0c0-4.4,3.6-8,8-8h32c4.4,0,8,3.6,8,8v0
			c0,4.4-3.6,8-8,8l0,0c-4.4,0-8,3.6-8,8v0c0,4.4,3.6,8,8,8l0,0c4.4,0,8,3.6,8,8v0c0,4.4-3.6,8-8,8l0,0c-4.4,0-8,3.6-8,8v0
			c0,4.4,3.6,8,8,8l0,0c4.4,0,8,3.6,8,8v0c0,4.4-3.6,8-8,8l0,0c-4.4,0-8,3.6-8,8v0c0,4.4,3.6,8,8,8l0,0c4.4,0,8,3.6,8,8v0
			c0,4.4-3.6,8-8,8h-32c-4.4,0-8-3.6-8-8v0C400,115.6,403.6,112,408,112z M88,32L88,32c-4.4,0-8,3.6-8,8v0c0,4.4,3.6,8,8,8h0
			c4.4,0,8,3.6,8,8v0c0,4.4-3.6,8-8,8h0c-4.4,0-8,3.6-8,8v0c0,4.4,3.6,8,8,8h0c4.4,0,8,3.6,8,8v0c0,4.4-3.6,8-8,8h0
			c-4.4,0-8,3.6-8,8v0c0,4.4,3.6,8,8,8h0c4.4,0,8,3.6,8,8v0c0,4.4-3.6,8-8,8H56c-4.4,0-8-3.6-8-8v0c0-4.4,3.6-8,8-8h0
			c4.4,0,8-3.6,8-8v0c0-4.4-3.6-8-8-8h0c-4.4,0-8-3.6-8-8v0c0-4.4,3.6-8,8-8h0c4.4,0,8-3.6,8-8v0c0-4.4-3.6-8-8-8h0
			c-4.4,0-8-3.6-8-8v0c0-4.4,3.6-8,8-8h0c4.4,0,8-3.6,8-8v0c0-4.4-3.6-8-8-8h0c-4.4,0-8-3.6-8-8v0c0-4.4,3.6-8,8-8h32
			c4.4,0,8,3.6,8,8v0C96,28.4,92.4,32,88,32z M88,384L88,384c-4.4,0-8,3.6-8,8l0,0c0,4.4,3.6,8,8,8h0c4.4,0,8,3.6,8,8l0,0
			c0,4.4-3.6,8-8,8h0c-4.4,0-8,3.6-8,8l0,0c0,4.4,3.6,8,8,8h0c4.4,0,8,3.6,8,8l0,0c0,4.4-3.6,8-8,8h0c-4.4,0-8,3.6-8,8l0,0
			c0,4.4,3.6,8,8,8h0c4.4,0,8,3.6,8,8l0,0c0,4.4-3.6,8-8,8H56c-4.4,0-8-3.6-8-8l0,0c0-4.4,3.6-8,8-8h0c4.4,0,8-3.6,8-8l0,0
			c0-4.4-3.6-8-8-8h0c-4.4,0-8-3.6-8-8l0,0c0-4.4,3.6-8,8-8h0c4.4,0,8-3.6,8-8l0,0c0-4.4-3.6-8-8-8h0c-4.4,0-8-3.6-8-8l0,0
			c0-4.4,3.6-8,8-8h0c4.4,0,8-3.6,8-8l0,0c0-4.4-3.6-8-8-8h0c-4.4,0-8-3.6-8-8l0,0c0-4.4,3.6-8,8-8h32c4.4,0,8,3.6,8,8l0,0
			C96,380.4,92.4,384,88,384z M408,464L408,464c4.4,0,8-3.6,8-8l0,0c0-4.4-3.6-8-8-8l0,0c-4.4,0-8-3.6-8-8l0,0c0-4.4,3.6-8,8-8l0,0
			c4.4,0,8-3.6,8-8l0,0c0-4.4-3.6-8-8-8l0,0c-4.4,0-8-3.6-8-8l0,0c0-4.4,3.6-8,8-8l0,0c4.4,0,8-3.6,8-8l0,0c0-4.4-3.6-8-8-8l0,0
			c-4.4,0-8-3.6-8-8l0,0c0-4.4,3.6-8,8-8h32c4.4,0,8,3.6,8,8l0,0c0,4.4-3.6,8-8,8l0,0c-4.4,0-8,3.6-8,8l0,0c0,4.4,3.6,8,8,8l0,0
			c4.4,0,8,3.6,8,8l0,0c0,4.4-3.6,8-8,8l0,0c-4.4,0-8,3.6-8,8l0,0c0,4.4,3.6,8,8,8l0,0c4.4,0,8,3.6,8,8l0,0c0,4.4-3.6,8-8,8l0,0
			c-4.4,0-8,3.6-8,8l0,0c0,4.4,3.6,8,8,8l0,0c4.4,0,8,3.6,8,8l0,0c0,4.4-3.6,8-8,8h-32c-4.4,0-8-3.6-8-8l0,0
			C400,467.6,403.6,464,408,464z M232,32h32v32h-32V32z M200,49.9c0-3,1.7-5.8,4.4-7.2l11.6-5.8V80h64V36.9l11.6,5.8
			c2.7,1.4,4.4,4.1,4.4,7.2V120c0,4.4-3.6,8-8,8h-80c-4.4,0-8-3.6-8-8V49.9z M112,80V64h72v16H112z M144,241.9l24-48V96h16v24
			c0,13.2,10.8,24,24,24h16v238.5c-7.2,4.2-13.3,10.2-17.5,17.5H144V241.9z M384,416v16H279.4l-2.1,4.8
			c-5.1,11.7-16.6,19.2-29.3,19.2s-24.2-7.5-29.3-19.2l-2.1-4.8H112v-16h104.6l2.1-4.8c5.1-11.7,16.6-19.2,29.3-19.2
			c12.7,0,24.2,7.5,29.3,19.2l2.1,4.8H384z M352,241.9V400h-62.5c-4.3-7.4-10.4-13.4-17.5-17.5V360c0-4.4-3.6-8-8-8l0,0
			c-4.4,0-8,3.6-8,8v16.8c-2.6-0.4-5.3-0.8-8-0.8s-5.4,0.3-8,0.8V144h16v184c0,4.4,3.6,8,8,8l0,0c4.4,0,8-3.6,8-8V144h16
			c13.3,0,24-10.7,24-24V96h16v97.9L352,241.9z M312,80V64h72v16H312z"/>
	</g>
</g>
</svg>
