<svg id="Capa_1" enable-background="new 0 0 512.19 512.19" height="512" viewBox="0 0 512.19 512.19" width="512" xmlns="http://www.w3.org/2000/svg"><path d="m462.833 91.236c6.862-18.876-1.433-39.638-18.659-48.901 1.263-10.465 1.921-23.222 1.921-32.335 0-5.522-4.477-10-10-10s-10 4.478-10 10c0 7.643-.521 18.457-1.504 27.584-16.14.322-31.199 10.505-36.943 26.296-5.764 15.844-.734 33.372 11.491 43.978-5.136 7.977-10.926 15.511-17.316 22.529-13.412-9.048-31.636-9.366-45.426.293-13.816 9.682-19.747 26.932-15.807 42.631-8.78 3.605-17.838 6.46-27.088 8.538-5.729-15.09-20.332-25.849-37.407-25.849s-31.679 10.759-37.407 25.85c-9.251-2.078-18.309-4.933-27.089-8.538 3.94-15.7-1.991-32.95-15.808-42.633-13.793-9.658-32.013-9.343-45.425-.292-6.39-7.018-12.18-14.551-17.315-22.528 12.225-10.606 17.255-28.133 11.491-43.977-5.742-15.787-20.788-25.967-36.943-26.291-.983-9.129-1.504-19.946-1.504-27.591 0-5.522-4.477-10-10-10s-10 4.478-10 10c0 9.111.657 21.866 1.92 32.33-17.215 9.243-25.525 30.019-18.657 48.912 6.863 18.844 26.511 29.452 45.637 25.501 6.436 10.266 13.834 19.894 22.099 28.761-8.681 17.212-3.88 39.02 12.81 50.705 16.561 11.606 38.671 8.876 52-5.268 11.172 4.745 22.763 8.398 34.625 10.912 1.557 10.485 7.225 19.687 15.306 25.887l-100.56 55.318c-3.195 1.758-5.18 5.115-5.18 8.762v144.36c0 3.646 1.985 7.004 5.18 8.762l120 66.011c1.5.825 3.16 1.238 4.82 1.238s3.319-.413 4.82-1.238l120-66.011c3.195-1.758 5.18-5.115 5.18-8.762v-144.36c0-3.646-1.985-7.004-5.18-8.762l-100.56-55.318c8.081-6.2 13.749-15.402 15.306-25.887 11.86-2.514 23.45-6.166 34.62-10.91 13.202 14.018 35.326 16.954 51.999 5.269 16.659-11.663 21.519-33.463 12.816-50.71 8.266-8.867 15.664-18.496 22.1-28.763 19.402 3.997 38.863-6.9 45.637-25.503zm-56.39-20.518c3.659-10.058 15.005-15.771 25.639-11.952 10.359 3.774 15.722 15.276 11.957 25.633-3.84 10.545-15.938 16.326-27.218 11.313-9.352-4.319-13.91-15.287-10.378-24.994zm-150.348 105.282c11.028 0 20 8.972 20 20 0 10.51-8.238 19.193-18.59 19.919-.936-.133-1.885-.133-2.821 0-10.351-.726-18.59-9.409-18.59-19.919.001-11.028 8.973-20 20.001-20zm-187.941-91.596c-3.768-10.362 1.596-21.864 11.911-25.623 10.789-3.875 22.057 1.971 25.682 11.938 3.531 9.706-1.026 20.674-10.377 24.992-11.384 5.059-23.411-.858-27.216-11.307zm73.226 95.423c-9.528-6.67-11.436-20.092-3.893-29.187 6.581-7.923 18.366-9.509 26.829-3.581 8.636 6.051 11.46 18.356 4.915 27.858-6.334 9.054-18.788 11.261-27.851 4.91zm224.715 250.441-110 60.51-110-60.51v-132.536l110-60.511 110 60.511zm4.711-250.438c-9.106 6.384-21.562 4.071-27.811-4.859-6.619-9.601-3.724-21.883 4.876-27.909 8.983-6.294 21.603-4.071 27.851 4.914 6.336 9.048 4.145 21.511-4.916 27.854z"/><circle cx="256.095" cy="432" r="10"/><path d="m251.481 286.298-60 31.2c-3.31 1.721-5.386 5.142-5.386 8.872v75.26c0 3.73 2.077 7.151 5.386 8.872l19.745 10.268c4.899 2.547 10.938.642 13.486-4.259 2.548-4.899.642-10.938-4.258-13.485l-14.358-7.467v-63.117l50-26 50 26v63.117l-14.358 7.467c-4.9 2.548-6.806 8.586-4.258 13.485 2.548 4.9 8.586 6.807 13.486 4.259l19.745-10.268c3.31-1.721 5.386-5.142 5.386-8.872v-75.26c0-3.73-2.077-7.151-5.386-8.872l-60-31.2c-2.895-1.504-6.337-1.504-9.23 0z"/></svg>