<svg height="512pt" viewBox="0 -23 512 512" width="512pt" xmlns="http://www.w3.org/2000/svg"><path d="m504.21875 291.703125-84.277344-19.15625-77.234375-93.375c-1.902343-2.296875-4.726562-3.625-7.707031-3.625h-11.34375c1.507812-3.710937 2.34375-7.757813 2.34375-12 0-17.644531-14.355469-32-32-32h-76c-17.644531 0-32 14.355469-32 32 0 4.242187.835938 8.289063 2.34375 12h-37.242188c-3.457031 0-6.671874 1.785156-8.496093 4.722656l-57.449219 92.53125-77.527344 18.941407c-4.480468 1.09375-7.628906 5.105468-7.628906 9.714843v113.976563c0 5.523437 4.476562 10 10 10h41.792969c4.644531 22.808594 24.855469 40.023437 49.015625 40.023437 24.15625 0 44.367187-17.214843 49.011718-40.023437h196.230469c4.644531 22.808594 24.855469 40.023437 49.015625 40.023437 24.15625 0 44.367188-17.214843 49.015625-40.023437h57.917969c5.523438 0 10-4.476563 10-10v-113.976563c0-4.671875-3.230469-8.71875-7.78125-9.753906zm-12.21875 36.949219h-13.988281c-6.4375 0-11.679688-5.238282-11.679688-11.675782v-13.371093l25.667969 5.832031zm-98.84375-57.109375h-127.15625v-76h64.292969zm-87.15625-108c0 6.617187-5.382812 12-12 12h-28v-24h28c6.617188 0 12 5.386719 12 12zm-100 0c0-6.613281 5.382812-12 12-12h28v24h-28c-6.617188 0-12-5.382813-12-12zm-49.335938 32h89.335938v209.890625h-96.179688c-4.601562-22.585938-24.472656-39.675782-48.320312-40v-73.890625h64.5c5.523438 0 10-4.476563 10-10 0-5.519531-4.476562-10-10-10h-56.519531zm-116.664062 108.878906v20.953125c0 8.105469-6.59375 14.699219-14.695312 14.699219h-5.304688v-30.765625zm11.792969 101.011719h-31.792969v-45.359375h5.304688c19.128906 0 34.695312-15.566407 34.695312-34.699219v-25.839844l21.5-5.253906v75.011719c-15.046875 6.320312-26.378906 19.792969-29.707031 36.140625zm49.015625 40.023437c-16.554688 0-30.023438-13.46875-30.023438-30.023437 0-16.554688 13.46875-30.019532 30.023438-30.019532 16.550781 0 30.019531 13.464844 30.019531 30.019532 0 16.554687-13.46875 30.023437-30.019531 30.023437zm245.242187-40.023437h-80.050781v-113.890625h138.40625v74.761719c-3.027344-.578126-6.148438-.890626-9.339844-.890626-24.160156 0-44.371094 17.214844-49.015625 40.019532zm49.015625 40.023437c-16.554687 0-30.023437-13.46875-30.023437-30.023437 0-16.554688 13.46875-30.019532 30.023437-30.019532 16.550782 0 30.019532 13.464844 30.019532 30.019532 0 16.554687-13.46875 30.023437-30.019532 30.023437zm49.011719-40.023437c-2.539063-12.460938-9.730469-23.246094-19.671875-30.472656v-80.886719l21.925781 4.984375v17.917968c0 17.464844 14.210938 31.675782 31.679688 31.675782h13.988281v56.78125zm0 0"/><path d="m314.332031 312.980469h-14c-5.519531 0-10 4.476562-10 10 0 5.519531 4.480469 10 10 10h14c5.523438 0 10-4.480469 10-10 0-5.523438-4.476562-10-10-10zm0 0"/><path d="m147 312.980469h-14c-5.523438 0-10 4.476562-10 10 0 5.519531 4.476562 10 10 10h14c5.523438 0 10-4.480469 10-10 0-5.523438-4.476562-10-10-10zm0 0"/><path d="m100.808594 405.4375c-2.636719 0-5.207032 1.058594-7.078125 2.929688-1.859375 1.859374-2.921875 4.441406-2.921875 7.070312s1.0625 5.210938 2.921875 7.070312c1.871093 1.859376 4.441406 2.929688 7.078125 2.929688 2.632812 0 5.210937-1.070312 7.070312-2.929688 1.859375-1.859374 2.929688-4.441406 2.929688-7.070312 0-2.640625-1.066406-5.210938-2.929688-7.070312-1.859375-1.871094-4.441406-2.929688-7.070312-2.929688zm0 0"/><path d="m395.058594 405.4375c-2.628906 0-5.207032 1.070312-7.066406 2.929688-1.859376 1.859374-2.921876 4.429687-2.921876 7.070312 0 2.628906 1.0625 5.210938 2.921876 7.070312 1.859374 1.859376 4.4375 2.929688 7.066406 2.929688 2.640625 0 5.210937-1.070312 7.082031-2.929688 1.859375-1.859374 2.929687-4.441406 2.929687-7.070312 0-2.640625-1.070312-5.210938-2.929687-7.070312-1.871094-1.859376-4.441406-2.929688-7.082031-2.929688zm0 0"/><path d="m307.332031 100.210938c2.558594 0 5.117188-.976563 7.070313-2.929688l80.214844-80.210938c3.902343-3.90625 3.902343-10.238281 0-14.140624-3.90625-3.90625-10.234376-3.90625-14.144532 0l-80.210937 80.210937c-3.90625 3.902344-3.90625 10.234375 0 14.140625 1.953125 1.953125 4.511719 2.929688 7.070312 2.929688zm0 0"/><path d="m392 185.542969c0 5.523437 4.476562 10 10 10h77.167969c5.519531 0 10-4.476563 10-10 0-5.519531-4.480469-10-10-10h-77.167969c-5.523438 0-10 4.480469-10 10zm0 0"/><path d="m197.597656 97.28125c1.953125 1.953125 4.511719 2.929688 7.070313 2.929688 2.558593 0 5.117187-.976563 7.070312-2.929688 3.90625-3.902344 3.90625-10.234375 0-14.140625l-80.210937-80.210937c-3.90625-3.90625-10.238282-3.90625-14.144532 0s-3.90625 10.238281 0 14.140624zm0 0"/><path d="m32.832031 195.542969h60.167969c5.523438 0 10-4.476563 10-10 0-5.519531-4.476562-10-10-10h-60.167969c-5.519531 0-10 4.480469-10 10 0 5.523437 4.480469 10 10 10zm0 0"/><path d="m211 291.539062c2.628906 0 5.210938-1.0625 7.070312-2.921874 1.859376-1.871094 2.929688-4.4375 2.929688-7.070313 0-2.640625-1.070312-5.210937-2.929688-7.078125-1.859374-1.859375-4.441406-2.921875-7.070312-2.921875s-5.210938 1.0625-7.070312 2.921875c-1.859376 1.867188-2.929688 4.449219-2.929688 7.078125 0 2.632813 1.070312 5.199219 2.929688 7.070313 1.859374 1.859374 4.441406 2.921874 7.070312 2.921874zm0 0"/></svg>