<?xml version="1.0" encoding="utf-8"?>
<!-- Generator: Adobe Illustrator 23.1.0, SVG Export Plug-In . SVG Version: 6.00 Build 0)  -->
<svg version="1.1" id="icon" xmlns="http://www.w3.org/2000/svg" xmlns:xlink="http://www.w3.org/1999/xlink" x="0px" y="0px"
	 viewBox="0 0 512 512" style="enable-background:new 0 0 512 512;" xml:space="preserve">
<g id="Page-1">
	<g>
		<path id="Shape" d="M503.5,465.1c-15.3-0.4-30.6,2.8-44.5,9.2c-11.9,5.5-24.9,8.2-38,7.9c-9.5,0.2-19-1.1-28-4.1
			c35.5-37.4,56.6-120.7,64.5-157.3c3-13.4-5.2-26.8-18.6-30.2l-3.6-0.9v-98.1c15.5-2.2,26.6-16,25.5-31.6
			c-1.1-15.6-14.1-27.7-29.8-27.7h-21.3v-11.6c0-12.2-8.6-22.7-20.6-25.1L281.6,74.1V57l41.3,6.9c0.5,0.1,0.9,0.1,1.4,0.1
			c4.4,0,8.1-3.4,8.5-7.8s-2.7-8.4-7.1-9.1l-44.1-7.3v-1.3c0-14.1-11.5-25.6-25.6-25.6c-14.1,0-25.6,11.5-25.6,25.6v1.3l-44.1,7.3
			c-4.4,0.7-7.4,4.7-7.1,9.1c0.4,4.4,4,7.8,8.5,7.8c0.5,0,0.9,0,1.4-0.1l41.3-6.9v17.1L123,95.6c-11.9,2.4-20.5,12.9-20.6,25.1v11.6
			H81.1c-15.6,0-28.7,12.1-29.8,27.7c-1.1,15.6,10,29.4,25.5,31.6v98.1l-3.6,0.9c-13.3,3.4-21.5,16.8-18.6,30.2
			c7.9,36.6,29,119.8,64.4,157.3c-9.1,2.9-18.5,4.3-28.1,4.1c-13.1,0.3-26.1-2.4-38-7.9c-13.9-6.4-29.1-9.5-44.5-9.2
			c-4.7,0-8.5,3.8-8.5,8.5s3.8,8.5,8.5,8.5c13.1-0.3,26.1,2.4,38,7.9c13.9,6.4,29.2,9.6,44.5,9.2c15.3,0.4,30.6-2.8,44.5-9.2
			c11.9-5.5,24.9-8.2,38-7.9c13.1-0.3,26.1,2.4,38,7.9c13.9,6.4,29.2,9.5,44.5,9.2h0.1c15.3,0.4,30.5-2.8,44.4-9.2
			c11.9-5.5,24.9-8.2,38-7.9c13.1-0.3,26.1,2.4,38,7.9c13.9,6.4,29.2,9.6,44.5,9.2c15.3,0.4,30.6-2.8,44.5-9.2
			c11.9-5.5,24.9-8.2,38-7.9c4.7,0,8.5-3.8,8.5-8.5S508.2,465.1,503.5,465.1L503.5,465.1z M440.7,317.2c-0.9,4-2.1,9.4-3.6,15.7
			l-172.6-45v-25l170,44.3C438.9,308.3,441.7,312.7,440.7,317.2z M375.5,274.1l-68.3-17.8v-21.6h68.3V274.1z M385.7,112.3
			c4,0.8,6.8,4.3,6.8,8.4v11.6H281.6V91.5L385.7,112.3z M247.5,38.4c0-4.7,3.8-8.5,8.5-8.5c4.7,0,8.5,3.8,8.5,8.5v93.9h-17.1V38.4z
			 M119.5,120.7c0-4.1,2.8-7.6,6.8-8.4l104.1-20.8v40.8H119.5L119.5,120.7z M68.3,162.1c0-7.1,5.7-12.8,12.8-12.8h349.9
			c7.1,0,12.8,5.7,12.8,12.8c0,7.1-5.7,12.8-12.8,12.8H81.1C74,174.9,68.3,169.2,68.3,162.1z M93.9,192h324.3v93.2l-25.6-6.7v-43.9
			c0-9.4-7.6-17.1-17.1-17.1h-68.3c-9.4,0-17.1,7.6-17.1,17.1v17.2l-29.5-7.7c-2.9-0.9-6-1-8.9-0.1l-29.9,7.8v-17.2
			c0-9.4-7.6-17.1-17.1-17.1h-68.3c-9.4,0-17.1,7.6-17.1,17.1v43.9l-25.6,6.7V192z M204.8,256.3l-68.3,17.8v-39.4h68.3V256.3z
			 M77.5,307.1l170-44.3v25l-172.6,45c-1.5-6.2-2.7-11.6-3.6-15.7C70.4,312.7,73.1,308.2,77.5,307.1z M293.9,474.2
			c-9.3,4.3-19.2,6.8-29.4,7.6V379.7c0-4.7-3.8-8.5-8.5-8.5s-8.5,3.8-8.5,8.5v102.1c-10.2-0.7-20.2-3.3-29.5-7.6
			c-13.9-6.4-29.2-9.6-44.5-9.2c-12.6-0.3-25.1,1.8-36.9,6.1c-27.2-23-46.8-81.6-57.5-121.8l168.4-43.9v31.6c0,4.7,3.8,8.5,8.5,8.5
			c4.7,0,8.5-3.8,8.5-8.5v-31.6l168.4,43.9c-10.7,40.3-30.3,98.9-57.6,121.8c-11.8-4.4-24.3-6.5-36.9-6.2
			C323.1,464.7,307.8,467.8,293.9,474.2L293.9,474.2z"/>
		<path d="M166.4,388.3c-16.5,0-29.9,13.4-29.9,29.9c0,16.5,13.4,29.9,29.9,29.9s29.9-13.4,29.9-29.9
			C196.3,401.6,182.9,388.3,166.4,388.3z M166.4,430.9c-7.1,0-12.8-5.7-12.8-12.8c0-7.1,5.7-12.8,12.8-12.8s12.8,5.7,12.8,12.8
			C179.2,425.2,173.5,430.9,166.4,430.9z"/>
		<path d="M375.5,418.1c0-16.5-13.4-29.9-29.9-29.9c-16.5,0-29.9,13.4-29.9,29.9c0,16.5,13.4,29.9,29.9,29.9
			C362.1,448,375.5,434.6,375.5,418.1z M345.6,430.9c-7.1,0-12.8-5.7-12.8-12.8c0-7.1,5.7-12.8,12.8-12.8c7.1,0,12.8,5.7,12.8,12.8
			C358.4,425.2,352.7,430.9,345.6,430.9z"/>
	</g>
</g>
</svg>
