<svg id="Capa_1" enable-background="new 0 0 512 512" height="512" viewBox="0 0 512 512" width="512" xmlns="http://www.w3.org/2000/svg"><g><circle cx="226" cy="111.844" r="14.999"/><circle cx="285.996" cy="111.844" r="14.999"/><path d="m15.041 263.332c3.84-.011 52.415-8.69 102.626 1.758l24.731 60.987c7.69 18.966 25.989 30.738 45.591 30.738 7.588 0 12.381-1.579 18.093-3.166 4.824 16.884 17.866 30.276 34.914 35.419v70.843c0 12.18-9.908 22.09-22.088 22.09s-22.088-9.91-22.088-22.09v-29.236c0-28.722-23.365-52.089-52.086-52.089h-28.81c-8.284 0-14.999 6.716-14.999 15s6.715 15 14.999 15h28.81c12.18 0 22.088 9.909 22.088 22.089v29.236c0 28.723 23.365 52.09 52.086 52.09s52.086-23.367 52.086-52.09v-70.856c16.865-5.103 30.013-18.382 34.876-35.417 5.792 1.609 10.542 3.176 18.13 3.176 19.599 0 37.901-11.773 45.592-30.737l24.729-60.983c51.707-10.763 99.22-1.294 104.294-1.849 9.827-.614 17.15-12.56 11.299-22.515-7.862-13.377-21.895-30.735-26.641-36.187-26.219-29.967-61.186-64.448-123.21-86.82-4.81-36.128-27.896-66.083-59.07-80.883v-21.84c0-8.284-6.715-15-14.999-15s-14.999 6.716-14.999 15v12.813c-9.95-1.419-20.093-1.419-30.061.01v-12.823c0-8.284-6.715-15-14.999-15s-14.999 6.716-14.999 15v21.876c-30.69 14.602-54.126 44.265-58.996 80.839-60.57 21.848-95.679 55.349-123.22 86.827-.871 1.001-17.33 20.373-26.582 36.087-5.927 9.901 1.142 22.703 12.903 22.703zm155.156 51.47-15.211-37.51c19.768 10.033 35.19 26.955 43.569 47.311l-5.395 1.499c-9.423 2.617-19.29-2.241-22.963-11.3zm148.634 11.301-5.422-1.506c8.387-20.353 23.821-37.273 43.595-47.3l-15.209 37.506c-3.674 9.058-13.548 13.914-22.964 11.3zm-200.497-159.595c15.106-8.285 33.1-17.526 52.121-23.356 6.131-1.879 10.391-7.45 10.596-13.861 1.638-51.076 51.708-84.377 98.906-68.668.836.277 1.447.503 2.169.753 27.857 10.234 47.82 36.431 48.83 67.924.205 6.414 4.467 11.986 10.603 13.863 18.927 5.791 36.955 15.044 52.106 23.345 27.329 15.641 52.233 39.454 71.957 63.843-34.608-1.746-75.549.948-112.574 15.818-38.585 15.493-68.602 50.833-75.402 96.349-2.468 17.123-22.971 24.72-36.009 13.422-8.454-7.337-6.829-15.181-9.579-25.077-.002-.007-.005-.013-.006-.019-9.299-38.144-36.498-69.983-73.143-84.697-34.989-14.04-74.717-17.71-112.531-15.797 19.724-24.39 44.627-48.202 71.956-63.842z"/></g></svg>