<?xml version="1.0" encoding="utf-8"?>
<!-- Generator: Adobe Illustrator 23.1.0, SVG Export Plug-In . SVG Version: 6.00 Build 0)  -->
<svg version="1.1" id="Capa_1" xmlns="http://www.w3.org/2000/svg" xmlns:xlink="http://www.w3.org/1999/xlink" x="0px" y="0px"
	 viewBox="0 0 512 512" style="enable-background:new 0 0 512 512;" xml:space="preserve">
<g>
	<g>
		<g>
			<path d="M122,181c-8.3,0-15,6.7-15,15s6.7,15,15,15s15-6.7,15-15S130.3,181,122,181z M479,142c-4.8-6.4-13.7-7.9-20.4-3.5
				l-34.5,23c-3.8,2.5-8.4,3.3-12.8,2.1c-2.2-0.6-6.2-2.3-8.4-6.8C371.1,90.4,303.6,46,227,46c-88.8,0-165.3,59.9-188.1,144
				l-27.3,6.4C4.8,198,0,204,0,211v60c0,7.6,5.7,14,13.2,14.9l24.8,2.9c7.5,29.8,21.8,56.7,41,79l-11.1,11.1
				c-5.9,5.9-5.9,15.4,0,21.2c5.9,5.9,15.4,5.9,21.2,0l11.1-11.1c30.8,26.3,69.6,43.1,111.8,46.4V451c0,8.3,6.7,15,15,15
				s15-6.7,15-15v-15.6c41.4-3.2,80.4-19.3,111.9-46.3l11,11c5.9,5.9,15.4,5.9,21.2,0s5.9-15.4,0-21.2l-11-11
				c0.1-0.2,0.3-0.3,0.4-0.5c10.9-12.8,20.1-26.9,27.4-42.2c2.2-4.5,6.2-6.2,8.4-6.8c4.4-1.2,9.1-0.4,12.8,2.1l34.5,23
				c6.6,4.4,15.6,2.9,20.4-3.5c1.3-1.8,33-44.9,33-99S480.4,143.8,479,142L479,142z M227,406c-72.7,0-136.2-47.7-157.4-115.7
				c58.5,3.3,105,21.9,153.9,41.4c34.1,13.6,69.2,27.6,108.8,36.2C303.1,392,266,406,227,406z M462.5,310l-21.7-14.4
				c-11-7.3-24.6-9.5-37.4-6c-12.1,3.3-22.2,11.6-27.5,22.8c-5.1,10.7-11.3,20.6-18.4,29.8c-44.9-7.1-82.8-22.3-122.8-38.2
				c-54.3-21.7-110.4-44.1-183.8-44.1c-0.7,0-1.3,0.1-1.9,0.1L30,257.7v-34.8l24.7-5.8c5.6-1.3,10-5.8,11.2-11.4
				C82.3,130.5,150.1,76,227,76c63.1,0,121.6,36.8,148.9,93.7c5.3,11.1,15.4,19.4,27.5,22.8c12.8,3.5,26.4,1.3,37.4-6l21.7-14.5
				c6.6,11.8,15.5,31.3,18.5,54h-14c-8.3,0-15,6.7-15,15s6.7,15,15,15h14C478,278.6,469,298.1,462.5,310L462.5,310z M297,139.8
				c-4.6-4.1-11.2-5-16.7-2.2l-60,30c-7.4,3.7-10.4,12.7-6.7,20.1c3.7,7.4,12.7,10.4,20.1,6.7l50-25c7.4,8.8,18.2,24.5,18.2,41.6
				c0,17.1-10.8,32.8-18.2,41.6l-50-25c-7.4-3.7-16.4-0.7-20.1,6.7c-3.7,7.4-0.7,16.4,6.7,20.1l60,30c5.5,2.7,12.1,1.9,16.7-2.2
				c1.4-1.3,35-31.8,35-71.2S298.4,141.1,297,139.8L297,139.8z"/>
		</g>
	</g>
</g>
</svg>
