<?xml version="1.0" encoding="utf-8"?>
<!-- Generator: Adobe Illustrator 23.1.0, SVG Export Plug-In . SVG Version: 6.00 Build 0)  -->
<svg version="1.1" id="icon" xmlns="http://www.w3.org/2000/svg" xmlns:xlink="http://www.w3.org/1999/xlink" x="0px" y="0px"
	 viewBox="0 0 512 512" style="enable-background:new 0 0 512 512;" xml:space="preserve">
<g>
	<g>
		<path d="M465.1,290.7l-2.3-40.3l-24.6,32c-2,2.5-6.1,7.1-11.5,11.2c2.1-7,4-14.9,5.2-23.7c4.3-30.4,1.6-77.1-35.6-126.7
			l-15.6-20.8l-10.2,23.9c-11.8,27.6-30.9,41.5-48.6,35.3c-13.6-4.8-24.7-20.4-30.4-42.9c-5.3-21-8.4-57.9,7.1-114.6L305.2,0
			l-24.3,5.5c-82.1,18.5-137.4,76.8-160,168.6c-9.5,38.6-11.3,75.2-11,99.9c-19.4-15.7-29.1-29.4-29.3-29.8L62,217.1l-8.4,31.8
			c-4.6,17.5-7,35.6-7,53.7c0,114.6,92.6,208,206.8,209.4c0.9,0,1.7,0,2.6,0s1.7,0,2.6,0c114.3-1.4,206.8-94.8,206.8-209.4
			C465.4,298.7,465.3,294.8,465.1,290.7z M256,482c-38.7,0-70.2-31.5-70.2-70.2c0-67.6,32-97.9,56.9-111.2
			c-3.2,17.2-0.4,33.4,4.9,45.5c7.9,18,21.9,29.9,37.6,31.6c6.2,0.7,16.5,0.2,27.3-7.7c8.9,12,13.8,26.6,13.8,41.8
			C326.2,450.5,294.7,482,256,482z M344.7,458.5c7.4-14,11.6-29.9,11.6-46.7c0-28.4-12.1-55.6-33.3-74.6L310.7,326l-9.8,13.3
			c-2.5,3.4-7.4,9-12.3,8.5c-3.9-0.4-9.5-4.9-13.4-13.8c-5.4-12.3-6.5-31.9,6.6-49.6l20.8-28.2l-34.7,4.4c-1.2,0.1-29,3.8-56.6,24.6
			c-45.8,34.4-55.4,87.8-55.4,126.5c0,16.9,4.2,32.8,11.6,46.7c-54.1-30.9-90.7-89.2-90.7-155.9c0-5.7,0.3-11.4,0.8-17
			c10.1,9.6,23.9,20.8,41.3,31.1l26.1,15.5l-3.5-30.1c-0.1-0.6-6.6-59.2,8.8-121.5C167.9,109.2,206,62.7,263.6,41.7
			c-8,39.7-8.5,75.4-1.1,104.3c8.2,32.5,26.3,55.7,49.7,63.9c16.2,5.6,33.7,3.5,49.3-5.9c8.9-5.4,17-13.2,24-22.9
			c15,26.8,20.8,54.8,17,83.3c-3.5,27-14.6,44.6-14.7,44.7l-12.8,19.7l23.3,3.4c11.7,1.7,24-0.9,35.9-7.5
			C427,382,392.8,431,344.7,458.5z"/>
	</g>
</g>
</svg>
