<?xml version="1.0" encoding="utf-8"?>
<!-- Generator: Adobe Illustrator 21.1.0, SVG Export Plug-In . SVG Version: 6.00 Build 0)  -->
<svg version="1.1" id="icon" xmlns="http://www.w3.org/2000/svg" xmlns:xlink="http://www.w3.org/1999/xlink" x="0px" y="0px"
	 viewBox="0 0 468 468" style="enable-background:new 0 0 468 468;" xml:space="preserve">
<g>
	<g>
		<path d="M450.1,187.5l-10.2-10.8l-35.8-96.5C398,63.9,382.4,53.1,365,53H172c-5.5,0-10,4.5-10,10v0c0,5.5,4.5,10,10,10h193.1
			c9,0,17.1,5.6,20.3,14l31.2,84h-23.3c-5.5-37.5-40.4-63.4-77.9-57.8c-29.9,4.4-53.4,27.9-57.8,57.8H57.8L89,87
			c3.2-8.5,11.3-14,20.3-14H132c5.5,0,10-4.5,10-10v0c0-5.5-4.5-10-10-10h-22.7c-17.4,0-33,10.9-39.1,27.2l-35.3,95.3l-14.7,13.6
			C7.4,200,0,216,0,232.8v140.6c0.1,23,18.8,41.6,41.8,41.6h26.4c23,0,41.7-18.6,41.8-41.6V353h132.3c5.5,0,10-4.5,10-10l0,0
			c0-5.5-4.5-10-10-10H41.8c-11.9,0.1-21.7-9.4-21.8-21.4v-78.8c0-11,4.9-21.5,13.3-28.6l0.4-0.4L47.3,191H426l9.6,10.3
			c0.1,0.2,0.4,0.3,0.5,0.5c7.5,7.1,11.8,17,11.8,27.3v82.5h0.1c-0.1,11.9-9.9,21.5-21.8,21.4H322.3c-5.5,0-10,4.5-10,10l0,0
			c0,5.5,4.5,10,10,10H358v20.4c0.1,23,18.8,41.6,41.8,41.6h26.4c23,0,41.7-18.6,41.8-41.6V229.1
			C467.9,213.4,461.5,198.4,450.1,187.5z M41.8,353H90v20.4c-0.1,12-9.8,21.6-21.8,21.6H41.8c-12,0-21.7-9.6-21.8-21.6v-26.2
			C26,351.1,33.9,353,41.8,353z M277.8,171c5.5-26.3,31.3-43.1,57.6-37.6c18.8,4,33.5,18.7,37.5,37.6H277.8z M448,373.4
			c-0.1,12-9.8,21.6-21.8,21.6h-26.4c-12,0-21.7-9.7-21.8-21.6V353h48.2c7.9,0,15.8-1.9,21.8-5.8V373.4z"/>
	</g>
</g>
<g>
	<g>
		<path d="M132,231H57c-5.5,0-10,4.5-10,10v52c0,5.5,4.5,10,10,10h75c5.5,0,10-4.5,10-10v-52C142,235.5,137.5,231,132,231z M122,283
			H67v-32h55V283z"/>
	</g>
</g>
<g>
	<g>
		<path d="M411,231h-75c-5.5,0-10,4.5-10,10v52c0,5.5,4.5,10,10,10h75c5.5,0,10-4.5,10-10v-52C421,235.5,416.5,231,411,231z
			 M401,283h-55v-32h55V283z"/>
	</g>
</g>
<g>
	<g>
		<path d="M292.3,283c0,5.5-4.5,10-10,10h-96.6c-5.5,0-10-4.5-10-10s4.5-10,10-10h96.6C287.8,273,292.3,277.5,292.3,283z"/>
	</g>
</g>
<g>
	<g>
		<path d="M292.3,252c0,5.5-4.5,10-10,10h-96.6c-5.5,0-10-4.5-10-10s4.5-10,10-10h96.6C287.8,242,292.3,246.5,292.3,252z"/>
	</g>
</g>
<path d="M292.3,343L292.3,343c0,5.5-4.5,10-10,10l0,0c-5.5,0-10-4.5-10-10l0,0c0-5.5,4.5-10,10-10l0,0
	C287.8,333,292.3,337.5,292.3,343z"/>
</svg>
