<svg height="512" viewBox="0 0 60 60" width="512" xmlns="http://www.w3.org/2000/svg"><g id="004---Bait-Box"><path id="Shape" d="m32 27h-4c-.5522847 0-1 .4477153-1 1s.4477153 1 1 1h4c.5522847 0 1-.4477153 1-1s-.4477153-1-1-1z"/><path id="Shape" d="m32 22h-4c-.5522847 0-1 .4477153-1 1s.4477153 1 1 1h4c.5522847 0 1-.4477153 1-1s-.4477153-1-1-1z"/><path id="Shape" d="m59 22.28v-7.28c0-2.7614237-2.2385763-5-5-5h-4v-5c0-2.76142375-2.2385763-5-5-5h-30c-2.7614237 0-5 2.23857625-5 5v5h-4c-2.76142375 0-5 2.2385763-5 5v7.28c-.61508907.3551046-.99571308 1.0097779-1 1.72v2c.00428692.7102221.38491093 1.3648954 1 1.72v19.28c.00645545 1.2500992.48096643 2.4524316 1.33 3.37-1.4184306.6517097-2.32816235 2.0690171-2.33 3.63v4c0 1.1045695.8954305 2 2 2h56c1.1045695 0 2-.8954305 2-2v-4c-.0018377-1.5609829-.9115694-2.9782903-2.33-3.63.8490336-.9175684 1.3235446-2.1199008 1.33-3.37v-19.28c.6150891-.3551046.9957131-1.0097779 1-1.72v-2c-.0042869-.7102221-.3849109-1.3648954-1-1.72zm-53 27.72c-1.65685425 0-3-1.3431458-3-3v-19h20v3c0 1.1045695.8954305 2 2 2h10c1.1045695 0 2-.8954305 2-2v-3h20v19c0 1.6568542-1.3431458 3-3 3zm-4-26h21v2h-21zm33 7h-10v-12h10zm2-5v-2h21v2zm-25-21c0-1.65685425 1.3431458-3 3-3h30c1.6568542 0 3 1.34314575 3 3v5h-2v-4c0-1.1045695-.8954305-2-2-2h-28c-1.1045695 0-2 .8954305-2 2v4h-2zm4 5v-4h28v4zm-10 2h48c1.6568542 0 3 1.3431458 3 3v7h-20v-3c0-1.1045695-.8954305-2-2-2h-10c-1.1045695 0-2 .8954305-2 2v3h-20v-7c0-1.6568542 1.34314575-3 3-3zm43 44h9v2h-56v-2h42c.5522847 0 1-.4477153 1-1s-.4477153-1-1-1h-42c0-1.1045695.8954305-2 2-2h52c1.1045695 0 2 .8954305 2 2h-9c-.5522847 0-1 .4477153-1 1s.4477153 1 1 1z"/><path id="Shape" d="m44 42c-1.76 0-3-6.19-8.94-6h-.06-.09c-5.39.29-6.52 6-8.25 6s-2.93-6-8.66-6h-2c-1.6568542 0-3 1.3431458-3 3s1.3431458 3 3 3h2c1.75 0 2.95 6 8.66 6s6.92-6 8.67-6 3 5.83 8.43 6c1.5476329.1205167 2.9403092-.9368856 3.24-2.46.1619086-.8841215-.0811301-1.7942573-.6622395-2.4799665-.5811095-.6857091-1.4390564-1.0747364-2.3377605-1.0600335zm-22.48.59c-2.08-2.89-2.52-2.59-5.52-2.59-.5522847 0-1-.4477153-1-1s.4477153-1 1-1c3.95 0 4.52-.12 7.46 3.85l-1 2c-.33-.43-.64-.85-.94-1.26zm2.48 2.64.9-1.81c1.2387241.9117931 2.9663581.7390297 4-.4l.93 1.85c-1.6639419 1.3606444-4.0112991 1.5055927-5.83.36zm7.26-1.92-1-2c.8397984-1.448444 2.1644567-2.5535066 3.74-3.12v2.13c-1.1.57-1.8 1.77-2.73 2.99zm4.74-3.23v-2c2.11.27 3.33 1.77 4.3 3.1l-1 2c-1.01-1.33-1.83-2.77-3.3-3.1zm9 5.11c-.1313749.5209404-.6256871.8661066-1.16.81-1.1429533-.032137-2.2376228-.4678792-3.09-1.23l.93-1.86c.5814842.6788989 1.4262296 1.0757836 2.32 1.09.3016771-.005506.5897121.1254947.7838263.3564905.1941141.2309959.2735521.5372882.2161737.8335095z"/></g></svg>