<?xml version="1.0" encoding="utf-8"?>
<!-- Generator: Adobe Illustrator 23.1.0, SVG Export Plug-In . SVG Version: 6.00 Build 0)  -->
<svg version="1.1" id="Слой_1" xmlns="http://www.w3.org/2000/svg" xmlns:xlink="http://www.w3.org/1999/xlink" x="0px" y="0px"
	 viewBox="0 0 120 120" style="enable-background:new 0 0 120 120;" xml:space="preserve">
<style type="text/css">
	.st0{fill-rule:evenodd;clip-rule:evenodd;fill:url(#bg_1_);}
	.st1{fill:#F9C422;}
	.st2{fill:#FFFFFF;}
</style>
<title>iTunes</title>
<g>
	<g id="iTunes">
		
			<linearGradient id="bg_1_" gradientUnits="userSpaceOnUse" x1="-497.3167" y1="1269.3583" x2="-497.3167" y2="1268.3583" gradientTransform="matrix(120 0 0 -120 59738 152323)">
			<stop  offset="0" style="stop-color:#602B80"/>
			<stop  offset="1" style="stop-color:#332A6D"/>
		</linearGradient>
		<path id="bg" class="st0" d="M28,0h64c15.5,0,28,12.5,28,28v64c0,15.5-12.5,28-28,28H28c-15.5,0-28-12.5-28-28V28
			C0,12.5,12.5,0,28,0z"/>
	</g>
</g>
<g transform="translate(0.000000,300.000000) scale(0.100000,-0.100000)">
	<path class="st1" d="M446.8,2521.9c-2.1-11.4-4.3-22.7-4.8-25.2s-1.4-7.1-1.9-10.2c-0.5-3.1-2.3-12.9-4.1-21.9
		c-1.7-9-3.4-17.4-3.6-18.8c-0.8-4.9-3.7-20.7-9.2-49.4c-2-10.6-4.6-24.3-5.7-30.5c-1.1-6.1-3.4-18-5-26.5c-1.6-8.3-4.1-21.5-5.5-29
		s-4-20.9-5.6-29.5c-1.6-8.7-3.3-17.5-3.6-19.6l-0.7-3.8h88h88.1l0.4,2.3c2,9.9,2.9,13.8,4.7,24.1s2.6,14.3,4.7,24.1l0.4,2.3h-57
		c-64.7,0-57.9-1.1-55.9,9.3c0.5,3.1,1.6,9.2,2.4,13.6c0.8,4.5,2.9,16,4.5,25.4c1.7,9.6,3.2,17.6,3.2,18.1c0,0.4,25.8,0.7,57.3,0.7
		h57.3l1.1,5.9c0.7,3.2,2.1,11.1,3.4,17.5c1.2,6.4,3,15.9,4,20.9l1.7,9.2l-57.3,0.3c-31.6,0.1-57.3,0.5-57.3,0.9
		c0,0.7,3.5,20.1,5.1,28.3c0.5,2.9,1.9,10.1,3.1,16.2s2.1,11.3,2.3,11.4c0.1,0.1,29.6,0.4,65.7,0.6l65.3,0.3l-0.5-2.5
		c-0.3-1.4-1.2-6.2-2-10.7c-0.7-4.5-2.9-15.5-4.6-24.4c-1.7-9-3.9-20-4.6-24.4c-0.8-4.5-2.1-11.9-3.1-16.5c-0.8-4.7-2.1-12-3-16.3
		c-0.8-4.4-2.6-14.1-4.1-21.7c-1.5-7.5-3.4-17.4-4.2-21.9c-1.2-6.5-5.5-29.6-8.1-43.3c-0.3-1.4-1-5.3-1.6-8.7
		c-1.2-7-3.5-19.1-5.6-29.7c-0.8-4.1-1.4-8.2-1.4-9.5v-2l85.7,0.2l85.7,0.3l1.1,6.1c0.7,3.4,1.7,9.1,2.4,12.7
		c0.6,3.7,2,11.4,3.2,17.3s2.2,11.9,2.5,13.5l0.5,2.7h-55c-30.2,0-55,0.1-55,0.3c0,0.1,1.4,8,3.1,17.5c3.1,16.8,4.9,27,7.4,41.7
		l1.2,7.1l52.7,0.3c52.3,0.2,52.6,0.2,52.6,2.3c0,1.1,2,12.9,4.6,26.2s4.6,24.4,4.6,24.8s-23.3,0.8-51.8,0.8
		c-37.4,0-51.9,0.3-52.2,1.1c-0.2,0.6,0.6,6.2,1.8,12.4c1.2,6.2,3.6,18.7,5.1,27.9l3,16.6h54.6h54.5l1.2,7.4
		c0.7,4,2.9,15.8,4.8,26.2c1.9,10.4,3.6,18.9,3.6,19.1c0,0.1-81.2,0.2-180.5,0.2H450.7L446.8,2521.9z"/>
	<path class="st2" d="M902.2,2506.8c-17.9-2.3-39.5-8.4-49.9-14.4c-15.3-8.6-29.8-23.4-41.8-42.8c-14.4-23.1-17.2-31.2-19.2-53.6
		c-1.2-13.8-0.2-30.2,2.6-39.9c0.8-3.1,4.5-11.5,8-18.8c5.6-11.5,7.4-14.4,13.3-20.3c9.1-9,21.6-17.8,32.2-22.9
		c11.1-5.4,18.3-6,64.5-6.1h35.7l9.5,22.6c5.3,12.5,10.6,25.1,11.8,28.1l2.3,5.3h29.5c16.3,0,29.6-0.4,29.6-0.8
		c0-3,4.2-49.8,4.6-50.8c0.6-1.9,50.4-1.9,50.4,0c0,1.6-23.9,192.6-25.7,204.8l-1.3,9.2h-29.9h-29.9l-14.4-30.5
		c-13.9-29.6-19.5-41-49-98.2c-7.6-14.9-15.8-30.7-18.1-35.3l-4.2-8.4l-9.3-0.2c-20-0.4-23.4,0.7-35.6,10.7
		c-13.7,11.2-19.5,21.1-21.9,37.6c-2.4,16.3-0.8,24.9,7.8,41.9c4.8,9.4,7.1,12.6,13.4,18.9c15.7,15.6,30.7,21.4,55.7,21.4
		c11,0,23.1-2,31.2-5.2c2.6-1.1,5.3-1.9,5.7-1.9c1.3,0,13.6,38.8,12.6,39.7c-2.3,2.1-21.9,8.3-30.6,9.7
		C931.5,2508,913,2508.2,902.2,2506.8z M1021.3,2455.1c0-2.2,5.1-63,5.6-66.8l0.5-4.1h-19.6H988l5.3,12.7c3,7,9.6,23.1,14.9,35.8
		c7.3,17.6,10,23.2,11.4,23.2C1020.5,2456,1021.3,2455.6,1021.3,2455.1z"/>
	<path class="st2" d="M167.9,2506c-0.7-1-47.4-210.7-47.4-212.6c0-1,5.6-1.2,26.2-1l26.1,0.3l7.9,35.6c4.4,19.6,8.4,38,9.1,40.7
		l1,5.1l37.2-0.3l37.2-0.2l1,2.2c0.5,1.3,2.3,9.9,4.1,19.1c1.7,9.3,3.5,17.8,3.8,19.1l0.5,2.2h-36.7c-34.3,0-36.7,0.1-36.7,1.8
		c0.1,0.9,2.2,11.6,5,23.6l4.9,21.9l43.1,0.3l43,0.2l-0.5-2.2c-2-8-37.4-168-37.4-168.8c0-0.7,21.3-0.9,65.9-0.8l65.9,0.3l3.8,19.3
		c2.1,10.7,3.9,20.2,3.9,21.2c0.1,1.6-2.4,1.7-38.6,1.7c-21.3,0-38.7,0.4-38.7,0.8c0,0.5,8.2,37.7,18.2,82.8
		c10,45,18.5,83.4,18.9,85.2l0.7,3.3h-95.3C210.5,2506.9,168.2,2506.5,167.9,2506z"/>
</g>
</svg>
