<?xml version="1.0" encoding="utf-8"?>
<!-- Generator: Adobe Illustrator 23.0.2, SVG Export Plug-In . SVG Version: 6.00 Build 0)  -->
<svg version="1.1" id="Слой_1" xmlns="http://www.w3.org/2000/svg" xmlns:xlink="http://www.w3.org/1999/xlink" x="0px" y="0px"
	 viewBox="0 0 1920 1080" style="enable-background:new 0 0 1920 1080;" xml:space="preserve">
<style type="text/css">
	.st0{fill:#F9C422;}
</style>
<path class="st0" d="M1088,103l-2.3,14.8l2.3,19.2l-0.7,10.7l7.6,12.7v5.1l-7.1,3L1085,185l0.7,9.9v8.1l-6.1,2l-16.2,2l-2,12.2
	l20.3,10.2l22.3,16.2l12.2,24.4l2,38.6l4.1,4.1l-10.2,40.6l6.1,60.9l6.1,8.1l10.2,85.3l6.1,24.4l-2,14.2l4.1,18.3l12.2,22.3
	l-8.1,10.2v16.2l-14.2,10.2l2,73.1l2,34.5l-4.1,38.6l-4.1,8.1l4.1,4.1l-8.1,89.4l-6.1,18.3l10.2,16.2v10.2l-4.1,12.2l4.1,4.1v12.2
	l4.1,4.1l2,14.2l26.4,26.4c0,0,8.1,1,31.5,1s19.3,19.3,19.3,19.3l-34.5,8.1l-113.7-4.1v-18.3l2-38.6l4.1-12.2l-2-8.1l4.1-6.1
	l-6.1-180.7l6.1-6.1l-8.1-12.2l2-14.2l-30.5-77.2l-20.3,97.5l-6.1,6.1l-6.1,16.2l2,12.2l-14.2,14.2l-4.1,38.6l4.1,14.2v91.4
	l14.2,10.2l-4.1,20.3c2,18.3,27.4,33.5,27.4,33.5c21.3,0,21.3,21.3,21.3,21.3l-30.5,6.1l-75.1-6.1v-14.2v-8.1l6.1-10.2l-2-20.3
	l-8.1-12.2l-10.2-132l8.1-81.2l10.2-8.1v-30.5l2-125.9l-12.2-28.4l2-28.4L906,417.3L920.2,269c0,0,6.1-28.4,42.6-44.7
	c36.6-16.2,42.6-34.5,42.6-34.5h4.1v-8.1L1004,162l-6-12c0,0-12.8-47.5,19.7-63.7C1050.2,70,1080,93,1080,93L1088,103z"/>
</svg>
