<?xml version="1.0" encoding="utf-8"?>
<!-- Generator: Adobe Illustrator 23.1.0, SVG Export Plug-In . SVG Version: 6.00 Build 0)  -->
<svg version="1.1" id="icon" xmlns="http://www.w3.org/2000/svg" xmlns:xlink="http://www.w3.org/1999/xlink" x="0px" y="0px"
	 viewBox="0 0 512 512" style="enable-background:new 0 0 512 512;" xml:space="preserve">
<path d="M475.9,126.9h-90.1V76c0-29.2-23.8-53-53-53H179.2c-29.2,0-53,23.8-53,53v50.9H36.1C16.2,126.9,0,143.1,0,163v290.3
	c0,19.9,16.2,36.1,36.1,36.1h439.9c19.9,0,36.1-16.2,36.1-36.1V163C512,143.1,495.8,126.9,475.9,126.9z M141.2,76
	c0-21,17.1-38,38-38h153.6c21,0,38,17.1,38,38v50.9h-18.3V76c0-10.9-8.8-19.7-19.7-19.7H179.2c-10.9,0-19.7,8.8-19.7,19.7v50.9
	h-18.3V76z M174.5,126.9V76c0-2.6,2.1-4.7,4.7-4.7h153.6c2.6,0,4.7,2.1,4.7,4.7v50.9H174.5z M475.9,474.4H36.1
	c-11.6,0-21.1-9.5-21.1-21.1V249.2h30.8c4.1,0,7.5-3.4,7.5-7.5c0-4.1-3.4-7.5-7.5-7.5H15v-17h30.8c4.1,0,7.5-3.4,7.5-7.5
	s-3.4-7.5-7.5-7.5H15V163c0-11.6,9.5-21.1,21.1-21.1h439.9c11.6,0,21.1,9.5,21.1,21.1v39.2h-30.8c-4.1,0-7.5,3.4-7.5,7.5
	s3.4,7.5,7.5,7.5H497v17h-30.8c-4.1,0-7.5,3.4-7.5,7.5c0,4.1,3.4,7.5,7.5,7.5H497v204.1C497,465,487.5,474.4,475.9,474.4z"/>
<path d="M110.4,176.4H87.3c-10.5,0-19,8.5-19,19v60.7c0,10.5,8.5,19,19,19h23.1c10.5,0,19-8.5,19-19v-60.7
	C129.4,184.9,120.9,176.4,110.4,176.4z M114.4,256.1c0,2.2-1.8,4-4,4H87.3c-2.2,0-4-1.8-4-4v-60.7c0-2.2,1.8-4,4-4h23.1
	c2.2,0,4,1.8,4,4V256.1z"/>
<path d="M424.7,176.4h-23.1c-10.5,0-19,8.5-19,19v60.7c0,10.5,8.5,19,19,19h23.1c10.5,0,19-8.5,19-19v-60.7
	C443.6,184.9,435.1,176.4,424.7,176.4z M428.6,256.1c0,2.2-1.8,4-4,4h-23.1c-2.2,0-4-1.8-4-4v-60.7c0-2.2,1.8-4,4-4h23.1
	c2.2,0,4,1.8,4,4V256.1z"/>
<path d="M360.1,202.2H151.9c-4.1,0-7.5,3.4-7.5,7.5s3.4,7.5,7.5,7.5h208.2c4.1,0,7.5-3.4,7.5-7.5S364.2,202.2,360.1,202.2z"/>
<path d="M360.1,234.2H151.9c-4.1,0-7.5,3.4-7.5,7.5c0,4.1,3.4,7.5,7.5,7.5h208.2c4.1,0,7.5-3.4,7.5-7.5
	C367.6,237.6,364.2,234.2,360.1,234.2z"/>
<path d="M324,332.5h-39.9v-39.9c0-8.9-7.2-16.1-16.1-16.1h-24c-8.9,0-16.1,7.2-16.1,16.1v39.9H188c-8.9,0-16.1,7.2-16.1,16.1v24
	c0,8.9,7.2,16.1,16.1,16.1h39.9v39.9c0,8.9,7.2,16.1,16.1,16.1h24c8.9,0,16.1-7.2,16.1-16.1v-39.9H324c8.9,0,16.1-7.2,16.1-16.1v-24
	C340.1,339.7,332.8,332.5,324,332.5z M325.1,372.6c0,0.6-0.5,1.1-1.1,1.1h-47.4c-4.1,0-7.5,3.4-7.5,7.5v47.4c0,0.6-0.5,1.1-1.1,1.1
	h-24c-0.6,0-1.1-0.5-1.1-1.1v-47.4c0-4.1-3.4-7.5-7.5-7.5H188c-0.6,0-1.1-0.5-1.1-1.1v-24c0-0.6,0.5-1.1,1.1-1.1h47.4
	c4.1,0,7.5-3.4,7.5-7.5v-47.4c0-0.6,0.5-1.1,1.1-1.1h24c0.6,0,1.1,0.5,1.1,1.1V340c0,4.1,3.4,7.5,7.5,7.5H324c0.6,0,1.1,0.5,1.1,1.1
	V372.6z"/>
</svg>
