<?xml version="1.0" encoding="iso-8859-1"?>
<!-- Generator: Adobe Illustrator 19.0.0, SVG Export Plug-In . SVG Version: 6.00 Build 0)  -->
<svg version="1.1" id="icon" xmlns="http://www.w3.org/2000/svg" xmlns:xlink="http://www.w3.org/1999/xlink" x="0px" y="0px"
	 viewBox="0 0 480 480" style="enable-background:new 0 0 480 480;" xml:space="preserve">
<g>
	<g>
		<path d="M472.08,16.042c-4.325,0.102-7.843,3.513-8.08,7.832v1.488c-0.594,14.066-10.985,25.781-24.88,28.048l-12.192,2.032
			c-34.337,5.713-69.087,8.59-103.896,8.6H156.968c-34.809-0.01-69.559-2.887-103.896-8.6L40.88,53.41
			C26.986,51.143,16.594,39.428,16,25.362v-1.488c-0.046-4.418-3.666-7.962-8.084-7.916C3.498,16.005-0.046,19.624,0,24.042
			c0,0.616,0,1.224,0,1.832L8,416.21c0.07,3.383,2.262,6.356,5.472,7.424l71.456,23.816l31.496,15.792
			c1.114,0.54,2.338,0.814,3.576,0.8h240c1.238,0.014,2.462-0.26,3.576-0.8l31.496-15.752l71.456-23.816
			c3.224-1.073,5.418-4.066,5.472-7.464l8-390.336c0-0.608,0-1.216,0-1.832C480.001,19.655,476.467,16.086,472.08,16.042z
			 M184,448.042h-62.112l-30.312-15.16c-0.339-0.169-0.689-0.313-1.048-0.432L23.88,410.234l-7.152-350.76
			c6.2,5.067,13.62,8.418,21.52,9.72l12.192,2.032c35.207,5.857,70.837,8.805,106.528,8.816H184V448.042z M280,448.042h-80v-368h80
			V448.042z M456.12,410.234l-66.648,22.216c-0.359,0.119-0.709,0.263-1.048,0.432l-30.312,15.16H296v-368h27.032
			c35.704-0.003,71.347-2.946,106.568-8.8l12.192-2.032c7.9-1.302,15.32-4.653,21.52-9.72L456.12,410.234z"/>
	</g>
</g>
<g>
	<g>
		<path d="M98.528,264.45l-48-16c-4.192-1.396-8.722,0.87-10.118,5.062c-0.272,0.816-0.41,1.67-0.41,2.53v128
			c-0.001,3.445,2.204,6.503,5.472,7.592l48,16c0.816,0.27,1.669,0.407,2.528,0.408c4.418,0,8-3.582,8-8v-128
			C104.001,268.597,101.797,265.539,98.528,264.45z M88,388.946l-32-10.672v-15.128l32,10.664V388.946z M88,356.938l-32-10.664
			v-15.128l32,10.664V356.938z M88,324.938l-32-10.664v-15.128l32,10.664V324.938z M88,292.938l-32-10.664v-15.136l32,10.672
			V292.938z"/>
	</g>
</g>
<g>
	<g>
		<path d="M436.672,249.554c-2.084-1.503-4.762-1.913-7.2-1.104l-48,16c-3.268,1.089-5.473,4.147-5.472,7.592v128
			c0,4.418,3.582,8,8,8c0.859-0.001,1.712-0.138,2.528-0.408l48-16c3.268-1.089,5.473-4.147,5.472-7.592v-128
			C439.999,253.47,438.76,251.056,436.672,249.554z M424,378.274l-32,10.672V373.81l32-10.664V378.274z M424,346.274l-32,10.664
			V341.81l32-10.664V346.274z M424,314.274l-32,10.664V309.81l32-10.664V314.274z M424,282.274l-32,10.664V277.81l32-10.672V282.274
			z"/>
	</g>
</g>
<g>
</g>
<g>
</g>
<g>
</g>
<g>
</g>
<g>
</g>
<g>
</g>
<g>
</g>
<g>
</g>
<g>
</g>
<g>
</g>
<g>
</g>
<g>
</g>
<g>
</g>
<g>
</g>
<g>
</g>
</svg>
