<?xml version="1.0" encoding="utf-8"?>
<!-- Generator: Adobe Illustrator 23.1.0, SVG Export Plug-In . SVG Version: 6.00 Build 0)  -->
<svg version="1.1" id="icon" xmlns="http://www.w3.org/2000/svg" xmlns:xlink="http://www.w3.org/1999/xlink" x="0px" y="0px"
	 viewBox="0 0 512 512" style="enable-background:new 0 0 512 512;" xml:space="preserve">
<path d="M298.7,277.3h-22.4l11.3-37.8c1.5-5.2,0.6-10.8-2.7-15.1c-3.2-4.3-8.3-6.9-13.7-6.9h-33.4c-7.5,0-14.2,5-16.3,12.2
	L201.1,298c-1.6,5.2-0.6,10.8,2.7,15.1c3.2,4.3,8.3,6.9,13.7,6.9h27.9l-21.8,65.6c-1.3,3.9,0.4,8.1,3.9,10.1s8.1,1.2,10.7-2
	l73.7-88.4c4.2-5.1,5.2-12.2,2.4-18.2C311.3,281.1,305.3,277.3,298.7,277.3z M253.9,348l11.3-33.9c0.9-2.6,0.4-5.5-1.2-7.7
	c-1.6-2.2-4.2-3.5-6.9-3.5h-39.7l20.5-68.3h33.4l-11.3,37.8c-1.5,5.2-0.6,10.8,2.7,15.1c3.2,4.3,8.3,6.9,13.7,6.9h22.4L253.9,348z"
	/>
<path d="M494.9,174.9h-17.1c-9.4,0-17.1,7.6-17.1,17.1v42.7h-17.1v-42.7c0-14.1-11.5-25.6-25.6-25.6H281.6v-17.1h42.7
	c9.4,0,17.1-7.6,17.1-17.1v-8.5c0-23.6-19.1-42.6-42.7-42.7h-85.3c-23.6,0-42.6,19.1-42.7,42.7v8.5c0,9.4,7.6,17.1,17.1,17.1h42.7
	v17.1h-9.3c-6.7,0-13.3,2-19,5.7l-63.7,42.6c-2.9,1.9-6.2,2.9-9.6,2.9h-26.4c-14.1,0-25.6,11.5-25.6,25.6v59.7H51.2v-42.7
	c0-9.4-7.6-17.1-17.1-17.1H17.1c-9.4,0-17.1,7.6-17.1,17.1v136.5c0,9.4,7.6,17.1,17.1,17.1h17.1c9.4,0,17.1-7.6,17.1-17.1v-42.7
	h25.6v51.2c0,14.1,11.5,25.6,25.6,25.6h179.2c7.4,0,14.6-2.4,20.5-6.8l88.8-66.6c3-2.2,6.5-3.4,10.2-3.4h17.1
	c14.1,0,25.6-11.5,25.6-25.6v-42.7h17.1v42.7c0,9.4,7.6,17.1,17.1,17.1h17.1c9.4,0,17.1-7.6,17.1-17.1V191.9
	C512,182.5,504.4,174.9,494.9,174.9z M187.7,123.7c0-14.1,11.5-25.6,25.6-25.6h85.3c14.1,0,25.6,11.5,25.6,25.6v8.5H187.7V123.7z
	 M247.5,149.3h17.1v17.1h-17.1V149.3z M34.1,396.7H17.1V260.2h17.1V396.7z M51.2,337v-17.1h25.6V337H51.2z M426.7,328.5
	c0,4.7-3.8,8.5-8.5,8.5h-17.1c-7.4,0-14.6,2.4-20.5,6.8l-88.7,66.6c-3,2.2-6.6,3.4-10.2,3.4H102.4c-4.7,0-8.5-3.8-8.5-8.5V243.1
	c0-4.7,3.8-8.5,8.5-8.5h26.4c6.7,0,13.3-2,19-5.7l63.7-42.6c2.9-1.9,6.2-2.9,9.6-2.9h197c4.7,0,8.5,3.8,8.5,8.5V328.5z M443.7,268.7
	v-17.1h17.1v17.1H443.7z M494.9,328.5h-17.1V191.9h17.1V328.5z"/>
<path d="M125.5,254.1c-3.4-3.2-8.7-3.2-12.1,0c-0.8,0.8-1.4,1.8-1.8,2.8c-0.5,1-0.7,2.1-0.7,3.2c0,3.5,2,6.6,5.2,8s6.9,0.6,9.4-1.9
	c2.4-2.5,3.2-6.2,1.8-9.4C126.9,255.9,126.3,255,125.5,254.1z"/>
<path d="M119.5,285.8c-4.7,0-8.5,3.8-8.5,8.5v76.8c0,4.7,3.8,8.5,8.5,8.5c4.7,0,8.5-3.8,8.5-8.5v-76.8
	C128,289.6,124.2,285.8,119.5,285.8z"/>
</svg>
