<?xml version="1.0" encoding="iso-8859-1"?>
<!-- Generator: Adobe Illustrator 19.0.0, SVG Export Plug-In . SVG Version: 6.00 Build 0)  -->
<svg version="1.1" id="Capa_1" xmlns="http://www.w3.org/2000/svg" xmlns:xlink="http://www.w3.org/1999/xlink" x="0px" y="0px"
	 viewBox="0 0 496 496" style="enable-background:new 0 0 496 496;" xml:space="preserve">
<g>
	<g>
		<g>
			<path d="M96,336c-35.288,0-64,28.712-64,64c0,35.288,28.712,64,64,64s64-28.712,64-64C160,364.712,131.288,336,96,336z M96,448
				c-26.472,0-48-21.528-48-48s21.528-48,48-48s48,21.528,48,48S122.472,448,96,448z"/>
			<path d="M296,392v-16H192v-3.712l89.2-51.504l-8-13.856l138.56-80c11.472-6.624,26.176-2.68,32.792,8.784l13.856-8
				c-11.024-19.088-35.544-25.656-54.648-14.64l-138.56,80l-8-13.856l-65.2,37.64v-1.808l-14.936-7.464l39.72-68.792l-13.856-8
				l46.344-80.272l26.384-7.072l-11.72-43.712l17.336-4.64l21.656-37.52l-13.856-8L270.728,81.36l-26.384,7.064l11.72,43.712
				l-17.336,4.648L189.072,222.8l-13.864-8L160,241.144V80h32V0H40C17.944,0,0,17.944,0,40v456h96c44.64,0,82.144-30.664,92.84-72
				H296v-16h200v-16H296z M192,335.336l59.344-34.272l8,13.856L192,353.816V335.336z M181.072,236.656l13.856,8l-32.2,55.76
				l-2.728-1.36v-25.904L181.072,236.656z M176,400c0,44.112-35.888,80-80,80H16V40c0-13.232,10.768-24,24-24h136v48h-32v244.944
				l32,16V400z M280,408h-88.408c0.224-2.648,0.408-5.304,0.408-8v-8h88V408z"/>
			<rect x="32" y="64" width="16" height="208"/>
			<rect x="32" y="288" width="16" height="16"/>
		</g>
	</g>
</g>
<g>
</g>
<g>
</g>
<g>
</g>
<g>
</g>
<g>
</g>
<g>
</g>
<g>
</g>
<g>
</g>
<g>
</g>
<g>
</g>
<g>
</g>
<g>
</g>
<g>
</g>
<g>
</g>
<g>
</g>
</svg>
