<?xml version="1.0" encoding="utf-8"?>
<!-- Generator: Adobe Illustrator 23.0.2, SVG Export Plug-In . SVG Version: 6.00 Build 0)  -->
<svg version="1.1" id="icon" xmlns="http://www.w3.org/2000/svg" xmlns:xlink="http://www.w3.org/1999/xlink" x="0px" y="0px"
	 viewBox="0 0 512 512" style="enable-background:new 0 0 512 512;" xml:space="preserve">
<style type="text/css">
	.st0{fill:#C6C6C6;}
	.st1{fill:#9B9B9B;}
</style>
<path class="st0" d="M172.6,316.4h176.6v185.4H172.6V316.4z"/>
<path class="st1" d="M163.7,475.3h194.2c4.9,0,8.8,4,8.8,8.8v17.7c0,4.9-4,8.8-8.8,8.8H163.7c-4.8,0-8.8-4-8.8-8.8v-17.7
	C154.9,479.2,158.9,475.3,163.7,475.3z"/>
<path class="st1" d="M172.6,334h176.6v35.3H172.6V334z"/>
<path class="st0" d="M172.6,78h176.6v256H172.6V78z"/>
<rect x="172.6" y="17.6" class="st1" width="176.6" height="60.4"/>
<path class="st1" d="M252,175.1h17.7c4.9,0,8.8,4,8.8,8.8v70.7c0,4.9-4,8.8-8.8,8.8H252c-4.9,0-8.8-4-8.8-8.8V184
	C243.2,179.1,247.1,175.1,252,175.1z"/>
</svg>
