<?xml version="1.0" encoding="utf-8"?>
<!-- Generator: Adobe Illustrator 23.1.0, SVG Export Plug-In . SVG Version: 6.00 Build 0)  -->
<svg version="1.1" id="icon" xmlns="http://www.w3.org/2000/svg" xmlns:xlink="http://www.w3.org/1999/xlink" x="0px" y="0px"
	 viewBox="0 0 480 480" style="enable-background:new 0 0 480 480;" xml:space="preserve">
<path d="M352,304H128c-4.4,0-8,3.6-8,8v128c0,4.4,3.6,8,8,8h224c4.4,0,8-3.6,8-8V312C360,307.6,356.4,304,352,304z M343.6,320
	c-4.1,36.4-34.9,64-71.6,64h-24v-8c0-4.4-3.6-8-8-8s-8,3.6-8,8v8h-24c-36.7,0-67.4-27.6-71.6-64H343.6z M344,432H136v-69.6
	c16.4,23.5,43.3,37.5,72,37.6h24v8c0,4.4,3.6,8,8,8s8-3.6,8-8v-8h24c28.7,0,55.6-14,72-37.6V432z"/>
<path d="M432,288h-24V159.2c18.6-3.8,32-20.2,32-39.2V72c0-22.1-17.9-40-40-40h-96.8C299.4,13.4,283,0,264,0h-48
	c-19,0-35.4,13.4-39.2,32H80c-22.1,0-40,17.9-40,40v48c0,19,13.4,35.4,32,39.2V288H48c-22.1,0-40,17.9-40,40v64
	c0,22.1,17.9,40,40,40h24v8c0,22.1,17.9,40,40,40h256c22.1,0,40-17.9,40-40v-8h24c22.1,0,40-17.9,40-40v-64
	C472,305.9,454.1,288,432,288z M424,72v48c0,13.3-10.7,24-24,24h-40V48h40C413.3,48,424,58.7,424,72z M344,48v96h-16V48H344z
	 M328,224h16v8c0,4.4-3.6,8-8,8s-8-3.6-8-8V224z M328,208v-48h16v48H328z M312,48v96H168V48H312z M216,16h48
	c10.2,0,19.2,6.4,22.6,16h-93.3C196.8,22.4,205.8,16,216,16z M152,48v96h-16V48H152z M136,224h16v8c0,4.4-3.6,8-8,8s-8-3.6-8-8V224z
	 M136,208v-48h16v48H136z M56,120V72c0-13.3,10.7-24,24-24h40v96H80C66.7,144,56,133.3,56,120z M48,416c-13.3,0-24-10.7-24-24v-64
	c0-13.3,10.7-24,24-24h24v112H48z M392,440c0,13.3-10.7,24-24,24H112c-13.3,0-24-10.7-24-24V160h32v48h-8c-4.4,0-8,3.6-8,8
	s3.6,8,8,8h8v8c0,13.3,10.7,24,24,24s24-10.7,24-24v-8h8c4.4,0,8-3.6,8-8s-3.6-8-8-8h-8v-48h144v48h-8c-4.4,0-8,3.6-8,8s3.6,8,8,8h8
	v8c0,13.3,10.7,24,24,24s24-10.7,24-24v-8h8c4.4,0,8-3.6,8-8s-3.6-8-8-8h-8v-48h32V440z M456,392c0,13.3-10.7,24-24,24h-24V304h24
	c13.3,0,24,10.7,24,24V392z"/>
</svg>
