<?xml version="1.0" encoding="utf-8"?>
<!-- Generator: Adobe Illustrator 23.0.2, SVG Export Plug-In . SVG Version: 6.00 Build 0)  -->
<svg version="1.1" id="Слой_1" xmlns="http://www.w3.org/2000/svg" xmlns:xlink="http://www.w3.org/1999/xlink" x="0px" y="0px"
	 viewBox="0 0 512 512" style="enable-background:new 0 0 512 512;" xml:space="preserve">
<path d="M384.9,232.5c-17.1-23.8-34.6-48.3-40.4-63.8c12.4-3.7,21.5-15.2,21.5-28.8c0-16.5-13.5-30-30-30h-0.3
	c2.5-4.5,5.3-9.8,8-15.3c12.1-25.1,14.5-41.7,7.8-52.1c-8.9-13.7-25.2-13-39.4-8.2c-0.2-7.3-1.9-15.3-6.9-22
	C300.8,6.7,292.5,0,277,0c-20.2,0-32.7,18.6-38.9,31.4c-7.8-4.2-18.8-9.4-29.4-11.3c-12.7-2.2-30.5-1-42.5,9
	C158.9,35.3,155,43.9,155,54c0,16.1,9.9,40.6,17.1,56.3c-14.7,1.9-26.1,14.5-26.1,29.7c0,12.3,7.4,22.8,17.9,27.5
	c-4.8,10.6-17.3,26.5-30.4,43.1c-17.6,22.4-39.6,50.3-56.9,82.1C56,330.6,46,366.3,46,402c0,60.7,49.3,110,110,110
	c17.4,0,34.6-4.1,50-12c15.4,7.9,32.6,12,50,12s34.6-4.1,50-12c15.4,7.9,32.6,12,50,12c60.7,0,110-49.3,110-110
	C466,345.8,421,283,384.9,232.5z M334.6,53.4c0,0.1,3.5,6.6-8.9,32.4c-4.7,9.8-10,18.9-13.2,24.1h-20.8l16.7-52.3
	C317.3,52.9,331.3,48.3,334.6,53.4z M179.1,44.5c5.4-4.5,16.1-6.4,26.1-4.6c9,1.6,18.9,6.6,25.3,10.3l-2.9,7.2
	c-2.1,5.1,0.4,10.9,5.6,13c1.2,0.5,2.5,0.7,3.7,0.7c4,0,7.7-2.4,9.3-6.3l6-15c0.1-0.2,0.1-0.4,0.2-0.5c0-0.1,0.1-0.2,0.1-0.2
	C254.9,41.4,264.4,20,277,20c8.8,0,11.2,3.3,12,4.3c4.8,6.4,2.6,19.6,1.4,23.8L270.7,110H244v-9c0-5.5-4.5-10-10-10s-10,4.5-10,10v9
	h-29.8C187.1,95.5,175,68,175,54C175,49.9,176.3,46.8,179.1,44.5z M176,130h160c5.5,0,10,4.5,10,10s-4.5,10-10,10H176
	c-5.5,0-10-4.5-10-10S170.5,130,176,130z M356,492c-10.3,0-20.4-1.8-30-5.1c10.1-8.3,18.7-18.4,25.3-29.8c2.8-4.8,1.1-10.9-3.6-13.7
	s-10.9-1.1-13.7,3.6c-7.9,13.6-19.3,25-32.9,32.9c0,0-0.1,0-0.1,0.1c-13.6,7.9-29.2,12-45,12s-31.4-4.2-45-12
	c-0.1-0.1-0.2-0.1-0.4-0.2c-0.1-0.1-0.2-0.1-0.3-0.2c-13.4-7.9-24.6-19.2-32.3-32.6c-2.8-4.8-8.9-6.4-13.7-3.6
	c-4.8,2.8-6.4,8.9-3.6,13.7c6.6,11.4,15.2,21.5,25.3,29.8c-9.6,3.4-19.7,5.1-30,5.1c-49.6,0-90-40.4-90-90
	c0-73.3,48.1-134.4,83.3-179.1c17.1-21.8,30.5-38.7,35-52.9h22.9l-17.6,53.3c-1.7,5.2,1.1,10.9,6.4,12.6c1,0.3,2.1,0.5,3.1,0.5
	c4.3,0,8.1-2.8,9.5-6.9l19.7-59.6h52.4c2.4,12.2,7.7,34.9,16.7,50.9c1.8,3.3,5.2,5.1,8.7,5.1c1.7,0,3.3-0.4,4.9-1.3
	c4.8-2.7,6.5-8.8,3.8-13.6c-6.8-12.1-11.3-29.6-13.7-41.1H324c5.1,18.9,22.9,43.9,44.6,74.2c34.5,48.1,77.4,108,77.4,157.8
	C446,451.6,405.6,492,356,492z"/>
</svg>
