<svg height="511pt" viewBox="0 0 511 511.99931" width="511pt" xmlns="http://www.w3.org/2000/svg"><path d="m416.746094 67.585938c2.824218 2.824218 7.675781 2.933593 10.605468 0 2.933594-2.929688 2.933594-7.679688 0-10.609376l-11.433593-11.4375c-2.929688-2.929687-7.679688-2.929687-10.609375 0-2.929688 2.929688-2.929688 7.679688 0 10.609376 0 0 11.429687 11.429687 11.4375 11.4375zm0 0"/><path d="m307.0625 170.207031c6.664062-1.839843 13.53125-6.050781 19.339844-11.859375 9.222656-9.222656 19.453125-27.882812 7.953125-39.382812-11.492188-11.492188-30.191407-1.234375-39.378907 7.953125-13.492187 13.496093-16.914062 30.425781-7.953124 39.382812 5.234374 5.234375 13.230468 5.789063 20.039062 3.90625zm-1.480469-32.679687c3.945313-3.945313 8.585938-6.863282 12.730469-8.011719 1.332031-.367187 4.261719-1.113281 5.433594.058594.492187.492187.910156 2.34375.054687 5.4375-1.144531 4.144531-4.0625 8.78125-8.007812 12.726562-3.945313 3.945313-8.582031 6.863281-12.726563 8.007813-3.089844.855468-4.945312.4375-5.4375-.054688-1.480468-1.480468-.527344-9.679687 7.953125-18.164062zm0 0"/><path d="m184.148438 293.125c2.21875-8.035156.796874-15.339844-3.910157-20.042969-8.957031-8.957031-25.886719-5.539062-39.378906 7.953125-9.226563 9.222656-19.453125 27.882813-7.953125 39.378906 11.566406 11.570313 30.132812 1.292969 39.378906-7.953124 5.808594-5.804688 10.019532-12.671876 11.863282-19.335938zm-14.460938-4c-1.148438 4.144531-4.066406 8.785156-8.011719 12.726562-8.480469 8.484376-16.679687 9.4375-18.164062 7.953126-.488281-.488282-.910157-2.34375-.054688-5.433594 1.144531-4.144532 4.0625-8.785156 8.007813-12.730469 6.425781-6.421875 12.6875-8.527344 15.992187-8.527344 3.5.003907 2.910157 3.550781 2.230469 6.011719zm0 0"/><path d="m222.839844 240.113281c7.449218-2.207031 14.644531-7.183593 19.335937-11.875 9.222657-9.222656 19.449219-27.886719 7.953125-39.382812-8.957031-8.957031-25.886718-5.539063-39.378906 7.953125-13.492188 13.492187-16.914062 30.421875-7.953125 39.382812 5.605469 5.605469 12.9375 6.023438 20.042969 3.921875zm-1.484375-32.695312c6.425781-6.421875 12.6875-8.527344 15.992187-8.527344 3.449219 0 2.925782 3.484375 2.230469 6.011719-1.148437 4.144531-4.066406 8.78125-8.011719 12.726562-3.945312 3.945313-8.582031 6.863282-12.726562 8.007813-3.089844.855469-4.945313.4375-5.4375-.054688-1.480469-1.484375-.527344-9.679687 7.953125-18.164062zm0 0"/><path d="m415.390625 87.230469c-2.925781 2.929687-2.925781 7.679687 0 10.609375 2.828125 2.824218 7.683594 2.929687 10.609375 0l11.4375-11.4375c2.929688-2.929688 2.929688-7.679688 0-10.609375-2.929688-2.929688-7.679688-2.929688-10.609375 0zm0 0"/><path d="m26.4375 448.601562c16.4375 8.140626 29.242188 20.949219 37.375 37.378907 12.621094 25.480469 53.023438 38.242187 70.359375 9.996093 13.152344-21.421874 11.597656-47.753906 9.226563-62.519531 9.890624-1.050781 20.742187-3.488281 32.472656-7.332031 31.675781-10.378906 68.246094-30.316406 106.429687-57.957031 1.710938 5.535156 5.179688 10.285156 10.046875 13.644531 12.132813 8.378906 27.742188 9.777344 41 3.167969 12.90625-6.429688 21.277344-18.816407 22.390625-33.132813.953125-12.242187-.078125-24.410156-3.0625-36.164062-.390625-1.550782-.921875-3.039063-1.558593-4.464844 6.703124-6.261719 13.339843-12.660156 19.769531-19.089844 16.050781-16.046875 31.375-32.742187 45.558593-49.617187 2.667969-3.171875 2.257813-7.90625-.914062-10.570313-3.175781-2.664062-7.90625-2.253906-10.570312.917969-13.90625 16.546875-28.9375 32.917969-44.679688 48.660156-6.152344 6.152344-12.492188 12.28125-18.902344 18.277344-5.773437-3.808594-12.832031-5.335937-19.65625-4.164063-.050781.007813-.097656.011719-.144531.023438-8.578125 1.484375-16.097656 6.691406-20.082031 14.496094-3.148438 6.171875-2.859375 13.234375-5.671875 19.550781-2.320313 5.207031-5.640625 9.863281-8.53125 13.359375-1.332031 1.609375-2.496094 3.410156-3.417969 5.28125-40.699219 30.746094-79.625 52.699219-112.675781 63.527344-27.105469 8.882812-48.675781 9.476562-61.941407 1.898437 0 0 40.503907-40.503906 40.519532-40.519531 2.878906-2.878906 2.875-7.734375 0-10.609375-2.929688-2.929687-7.679688-2.929687-10.609375 0l-40.53125 40.527344c-.007813-.011719-.015625-.027344-.023438-.042969-4.273437-7.542969-5.429687-16.425781-5.246093-24.972656.382812-17.972656 7.011718-41.140625 19.734374-67.8125 21.007813-44.042969 50.613282-84.089844 82.664063-120.683594 11.289063-12.890625 23.023437-25.394531 35.140625-37.511719 31.699219-31.699219 65.601562-60.167969 98.601562-82.835937.046876.167968.097657.332031.148438.496094 6.882812 24.136718 19.652344 46.964843 36.710938 65.636718 0 0-206.289063 206.289063-206.292969 206.296875-2.871094 2.867188-2.898438 7.710938 0 10.605469 2.878906 2.878906 7.734375 2.875 10.605469 0 0 0 206.296874-206.292969 206.296874-206.292969 18.816407 17.191407 41.601563 29.917969 66.125 36.867188-6.253906 9.101562-13.015624 18.371093-20.179687 27.652343-2.535156 3.28125-1.925781 7.992188 1.355469 10.523438 3.277344 2.53125 7.988281 1.925781 10.519531-1.355469 9.726563-12.601562 18.734375-25.183593 26.777344-37.402343 30.050781-45.605469 47.601562-86.628907 50.753906-118.628907 1.105469-11.257812-7.410156-21.59375-18.699219-22.539062l-15.96875-1.359375c-2.695312-.230469-4.816406-2.347656-5.042968-5.039063 0 0-1.363282-15.976562-1.363282-15.976562-.953125-11.222657-11.230468-19.816407-22.527344-18.6953128-31.988281 3.1406248-73.015624 20.6874998-118.640624 50.7421878-36.582032 24.09375-74.546876 55.453125-109.789063 90.695312-1.242187 1.246094-2.472656 2.492188-3.707031 3.742188-13.050782 1.835937-68.972656 11.71875-109.351563 50.3125-14.769531 14.117187-8.085937 39.660156 11.324219 45.308594 5.328125 1.550781 9.917969 3.671874 13.746094 6.3125-13.003906 19.375-24.042969 38.425781-32.746094 56.667968-11.726562 24.582032-18.582031 46.535156-20.550781 65.148438-14.761719-2.378906-41.125-3.949219-62.570313 9.214844-28.113281 17.257812-15.402344 57.78125 9.996094 70.359374zm314.34375-97.917968c-.699219 9.011718-5.980469 16.8125-14.125 20.867187-7.941406 3.957031-17.085938 3.503907-24.464844-1.210937-5.976562-3.820313-8.058594-11.984375-3.339844-17.71875 6.625-8.003906 11.0625-16.035156 13.273438-23.957032 1.160156-4.152343.941406-8.910156 3.292969-12.640624 2.34375-3.726563 6.703125-5.851563 11.078125-5.769532 5.382812.097656 10.3125 3.886719 11.640625 9.121094 2.578125 10.164062 3.46875 20.699219 2.644531 31.308594zm109.417969-335.65625c3.046875-.296875 5.847656 1.96875 6.105469 5.027344l1.359374 15.980468c.84375 9.996094 8.714844 17.867188 18.71875 18.722656 0 0 15.960938 1.359376 15.996094 1.363282 3.070313.285156 5.320313 3.050781 5.015625 6.109375-2.773437 28.183593-18.894531 66.210937-45.507812 107.492187-.050781-.011718-.101563-.023437-.152344-.035156-.566406-.140625-1.128906-.304688-1.695313-.449219-25.554687-6.6875-49.207031-20.308593-67.878906-38.984375-19.117187-19.117187-32.867187-43.34375-39.421875-69.574218-.015625-.050782-.023437-.101563-.035156-.152344 41.296875-26.617188 79.324219-42.734375 107.496094-45.5zm-327.449219 211.460937c-8.550781-2.488281-11.734375-13.761719-5.148438-20.050781 25.597657-24.46875 58.976563-36.484375 80.765626-42.097656-.414063.445312-.816407.890625-1.226563 1.335937-10.152344 11.027344-20.097656 22.265625-29.464844 33.976563-9.574219 11.742187-18.546875 23.507812-26.835937 35.191406-5.152344-3.554688-11.207032-6.351562-18.089844-8.355469zm-98.460938 164.539063c10.945313-6.71875 23.796876-8.652344 34.96875-8.652344 7.523438 0 14.289063.878906 19.191407 1.761719.574219 11.566406 3.539062 21.320312 8.824219 29.15625 4.410156 6.542969 10.625 11.863281 17.765624 15.222656 6.664063 3.183594 14.421876 5.015625 23.238282 5.453125 2.199218 12.1875 4.351562 35.84375-6.890625 54.160156-11.050781 18.007813-36.777344 6.035156-44.128907-8.804687-9.589843-19.367188-24.804687-34.582031-44.164062-44.167969-14.953125-7.40625-26.863281-33.042969-8.804688-44.128906zm0 0"/></svg>