<?xml version="1.0" encoding="utf-8"?>
<!-- Generator: Adobe Illustrator 23.1.0, SVG Export Plug-In . SVG Version: 6.00 Build 0)  -->
<svg version="1.1" id="icon" xmlns="http://www.w3.org/2000/svg" xmlns:xlink="http://www.w3.org/1999/xlink" x="0px" y="0px"
	 viewBox="0 0 512 512" style="enable-background:new 0 0 512 512;" xml:space="preserve">
<title>Car3</title>
<path d="M91.7,289.9c14.3,0,25.9-11.6,25.9-25.9c0-14.3-11.6-25.9-25.9-25.9S65.8,249.7,65.8,264c0,0,0,0,0,0
	C65.8,278.3,77.4,289.8,91.7,289.9z M91.7,252.1c6.6,0,11.9,5.3,11.9,11.9c0,6.6-5.3,11.9-11.9,11.9s-11.9-5.3-11.9-11.9
	c0,0,0,0,0,0C79.8,257.4,85.1,252.1,91.7,252.1z"/>
<path d="M420.3,289.9c14.3,0,25.9-11.6,25.9-25.9s-11.6-25.9-25.9-25.9s-25.9,11.6-25.9,25.9c0,0,0,0,0,0
	C394.4,278.3,406,289.8,420.3,289.9z M420.3,252.1c6.6,0,11.9,5.3,11.9,11.9c0,6.6-5.3,11.9-11.9,11.9c-6.6,0-11.9-5.3-11.9-11.9
	C408.4,257.4,413.7,252.1,420.3,252.1z"/>
<path d="M136.1,266h239.7c3.9,0,7-3.1,7-7s-3.1-7-7-7H136.1c-3.9,0-7,3.1-7,7S132.3,266,136.1,266z"/>
<path d="M136.1,289h239.7c3.9,0,7-3.1,7-7s-3.1-7-7-7H136.1c-3.9,0-7,3.1-7,7S132.3,289,136.1,289z"/>
<path d="M482.4,226.4c-3.5-12.2-11.7-23.2-22.2-31.4H483c3.9,0,7-3.1,7-7c0-17.7-14.3-32-32-32h-3c-9.9,0-19.2,4.6-25.3,12.4
	l-18.6-42.9c-7.4-17.2-24.4-28.3-43.1-28.3L145.2,97h0c-18.5,0-35.2,10.9-42.8,27.7L86,160.8c-5.8-5.1-13.3-7.9-21-7.8h-3
	c-17.7,0-32,14.3-32,32c0,3.9,3.1,7,7,7h18.9c-12.5,8.3-22.4,20.7-26.3,34.4c-7,24.6-9.2,35.1-9.9,40c-0.4,0.9-0.7,2-0.7,3v57.9
	c-0.1,22.9,15.7,42.7,38,47.7v29.5c0,9.5,7.7,17.3,17.2,17.5h31.2c9.6-0.1,17.4-7.9,17.6-17.5V376h264v28.5
	c0.1,9.6,7.8,17.3,17.3,17.5h33.5c9.5-0.2,17.2-7.9,17.2-17.5v-29.5c22.3-5,38.1-24.9,38-47.7v-57.9c0-0.8-0.1-1.6-0.4-2.3
	C492.2,262.2,490,251.5,482.4,226.4z M455,170h3c7.2,0,13.8,4.3,16.6,11h-36.2C441.2,174.3,447.8,170,455,170z M115.1,130.5
	c5.3-11.8,17.1-19.4,30.1-19.5h0l222.8,0.2c13.1,0,25,7.8,30.3,19.9l21.7,50H208.4c-6.6-25.1-32.4-40.1-57.4-33.4
	c-16.3,4.3-29.1,17.1-33.4,33.4H96.7c-0.3-2.2-0.8-4.4-1.5-6.6L115.1,130.5z M193.7,181h-61.5c6.6-17,25.8-25.4,42.8-18.7
	C183.6,165.6,190.4,172.4,193.7,181z M62,167h3c5.9,0,11.4,2.9,14.7,7.7l-1.5,3.3H45.4C48.2,171.3,54.8,167,62,167z M43,230.3
	c5.5-19.1,26.9-35.3,46.8-35.3h332.4c19.9,0,41.3,16.2,46.8,35.3l0,0.1c4.3,14.3,9,31.6,9.7,37c-2.7,3.2-12,10.3-19.8,15.6
	c-18,12-51.4,22-73,22H127.3c-21.6,0-55.1-9.9-73.2-21.8c0,0-0.1,0-0.1,0c-8.9-5.7-17.9-12.4-20.5-15.4
	C34.3,262.4,38.9,244.9,43,230.3z M337.4,319l-3.6,10.5c-2.6,7.7-12,14.5-20.1,14.5H185.8c-8.1,0-17.4-6.8-19.9-14.5l-3.4-10.5
	H337.4z M109,404.5c-0.2,1.9-1.7,3.3-3.6,3.5H74.2c-1.8-0.2-3.2-1.7-3.2-3.5V376h38V404.5z M437.8,408h-33.5
	c-1.8-0.1-3.3-1.6-3.3-3.5V376h40v28.5C441,406.3,439.6,407.8,437.8,408z M444,362H68c-19.2,0.1-34.8-15.3-35-34.5c0,0,0-0.1,0-0.1
	v-41.6c3.5,2.6,7.9,5.6,13.5,9.1C66.8,308.3,103,319,127.3,319h20.5l4.8,14.9c4.4,13.5,19,24.1,33.2,24.1h127.9
	c14.2,0,28.8-10.6,33.4-24l5.1-15h33.6c24.3,0,60.5-10.9,80.8-24.4c4.8-3.2,8.9-6.1,12.4-8.8v41.6c0,19.2-15.6,34.7-34.8,34.7
	C444.1,362,444.1,362,444,362L444,362z"/>
</svg>
