<?xml version="1.0" encoding="utf-8"?>
<!-- Generator: Adobe Illustrator 23.1.0, SVG Export Plug-In . SVG Version: 6.00 Build 0)  -->
<svg version="1.1" id="icon" xmlns="http://www.w3.org/2000/svg" xmlns:xlink="http://www.w3.org/1999/xlink" x="0px" y="0px"
	 viewBox="0 0 512 512" style="enable-background:new 0 0 512 512;" xml:space="preserve">
<style type="text/css">
	.st0{fill:#FDC794;}
	.st1{fill:#F9A671;}
</style>
<path class="st0" d="M459.1,220.7c0-19.4-15.9-35.3-35.3-35.3c-19.4,0-35.3,15.9-35.3,35.3v-44.1c0-19.4-15.9-35.3-35.3-35.3
	c-19.4,0-35.3,15.9-35.3,35.3l0,0l0,0V35.3C317.9,15.9,302,0,282.5,0l0,0c-19.4,0-35.3,15.9-35.3,35.3v141.2v-17.7
	c0-19.4-15.9-35.3-35.3-35.3l0,0c-19.4,0-35.3,15.9-35.3,35.3v105.9L160.7,241c-17.7-30.9-60-45-88.3-34.4
	c-4.4,0.9-7.1,3.5-10.6,5.3c-10.6,7.1-8.8,15-8.8,17.7s50.3,53.8,79.4,105.9c0,0,25.6,42.4,53,70.6v26.5c0,44.1,35.3,79.4,79.4,79.4
	h88.3c34.4,0,69.7-29.1,77.7-62.7c1.8-7.9,5.3-19.4,10.6-25.6c7.9-8.8,17.7-30.9,17.7-61.8L459.1,220.7L459.1,220.7z"/>
<g>
	<path class="st1" d="M185.4,291.3c-3.5,0-6.2-1.8-7.9-5.3l-8.8-17.7c-1.8-4.4,0-9.7,3.5-11.5c4.4-1.8,9.7,0,11.5,3.5l8.8,17.7
		c1.8,4.4,0,9.7-3.5,11.5C188.1,291.3,187.2,291.3,185.4,291.3z"/>
	<path class="st1" d="M247.2,282.5c-5.3,0-8.8-3.5-8.8-8.8v-97.1c0-5.3,3.5-8.8,8.8-8.8s8.8,3.5,8.8,8.8v97.1
		C256.1,279,252.5,282.5,247.2,282.5z"/>
	<path class="st1" d="M317.8,273.7c-5.3,0-8.8-3.5-8.8-8.8v-88.3c0-5.3,3.5-8.8,8.8-8.8s8.8,3.5,8.8,8.8v88.3
		C326.7,270.1,323.1,273.7,317.8,273.7z"/>
	<path class="st1" d="M388.5,282.5c-5.3,0-8.8-3.5-8.8-8.8v-53c0-5.3,3.5-8.8,8.8-8.8s8.8,3.5,8.8,8.8v53
		C397.3,279,393.8,282.5,388.5,282.5z"/>
	<path class="st1" d="M406.1,450.2c-3.5,0-7.1-2.6-8.8-6.2c-0.9-4.4,1.8-9.7,6.2-10.6c14.1-3.5,15-4.4,17.7-8.8
		c0.9-1.8,1.8-3.5,3.5-5.3c2.6-3.5,8.8-4.4,12.4-1.8s4.4,8.8,1.8,12.4c-0.9,1.8-2.6,3.5-3.5,4.4c-6.2,8.8-9.7,11.5-28.2,16.8
		C407.9,450.2,407,450.2,406.1,450.2z"/>
	<path class="st1" d="M229.6,441.4c-1.8,0-3.5-0.9-5.3-1.8c-5.3-4.4-9.7-7.1-15-11.5c-7.1-4.4-13.2-9.7-20.3-15.9
		c-3.5-3.5-3.5-8.8-0.9-12.4c3.5-3.5,8.8-3.5,12.4-0.9c6.2,5.3,12.4,9.7,18.5,14.1c5.3,3.5,10.6,7.1,15.9,12.4
		c3.5,3.5,4.4,8.8,0.9,12.4C234.9,440.5,232.2,441.4,229.6,441.4z"/>
</g>
</svg>
