<?xml version="1.0" encoding="utf-8"?>
<!-- Generator: Adobe Illustrator 23.1.0, SVG Export Plug-In . SVG Version: 6.00 Build 0)  -->
<svg version="1.1" id="icons" xmlns="http://www.w3.org/2000/svg" xmlns:xlink="http://www.w3.org/1999/xlink" x="0px" y="0px"
	 viewBox="0 0 512 512" style="enable-background:new 0 0 512 512;" xml:space="preserve">
<path d="M80.6,507.1c0.3,0.7,0.8,1.3,1.2,1.8c0.2,0.2,0.3,0.5,0.5,0.8c0.4,0.4,0.9,0.6,1.3,0.9s0.8,0.6,1.3,0.8c1,0.4,2,0.6,3.1,0.6
	h0.1H216h0.1h0.1h208c4.4,0,8-3.6,8-8V112c0-1-0.2-2.1-0.6-3.1s-1-1.9-1.7-2.6L368,44.7V24c0-13.2-10.8-24-24-24H168
	c-13.2,0-24,10.8-24,24v20.6l-61.7,61.7c-0.7,0.7-1.3,1.6-1.7,2.6c-0.4,1-0.6,2-0.6,3.1v392l0,0C80,505,80.2,506.1,80.6,507.1
	L80.6,507.1z M168,16h176c4.4,0,8,3.6,8,8v16H160V24C160,19.6,163.6,16,168,16z M208,120v364.7l-48-48V120H208z M144,436.7l-48,48
	V120h48V436.7z M152,451.3l44.7,44.7h-89.4L152,451.3z M224,120h192v376H224V120z M296.1,103.3c13.2,0,23.9-10.6,23.9-23.6
	s-10.8-23.6-24-23.6s-24,10.6-24,23.6s10.7,23.6,23.9,23.6h-76.6l-48-47.3h185.4l48,47.3H296.1z M296,88c-4.4,0-8-3.6-8-8s3.6-8,8-8
	s8,3.6,8,8S300.4,88,296,88z M152,59.3l44.7,44.7h-89.4L152,59.3z"/>
<path id="XMLID_260_" d="M358,266.9v-3c0-1.5-1.2-2.8-2.8-2.8c-1.5,0-2.8,1.2-2.8,2.8v3h-3c-1.5,0-2.8,1.2-2.8,2.8
	c0,1.5,1.2,2.8,2.8,2.8h3v3c0,1.5,1.2,2.8,2.8,2.8c1.5,0,2.8-1.2,2.8-2.8v-3h3c1.5,0,2.8-1.2,2.8-2.8c0-1.5-1.2-2.8-2.8-2.8H358z"/>
<path id="XMLID_978_" d="M320.9,304c-7-7-16.4-10.9-26.3-10.9c0,0,0,0,0,0c-10,0-19.3,3.9-26.4,11c0,0,0,0,0,0c0,0,0,0,0,0
	c-7.1,7.1-11,16.4-11,26.4c0,10,3.9,19.3,10.9,26.3c0,0,0,0,0,0c0,0,0,0,0,0c0,0,0,0,0,0c7.3,7.2,16.8,10.8,26.3,10.8
	c9.5,0,19-3.6,26.3-10.8c0,0,0,0,0,0c0,0,0,0,0,0c0,0,0,0,0,0c0,0,0,0,0,0C335.4,342.1,335.4,318.5,320.9,304L320.9,304z
	 M318.9,350.8l-17.6-17.6h24.8C325.5,339.5,323.1,345.7,318.9,350.8z M262.8,333.2h25l-17.6,17.6
	C265.9,345.9,263.4,339.7,262.8,333.2z M270.2,310l5.6,5.6l12,12h-24.9C263.4,321.1,265.9,315,270.2,310L270.2,310z M297.3,298.8
	c6.5,0.6,12.6,3.1,17.6,7.3l-17.6,17.6V298.8z M291.7,337.1V362c-6.3-0.5-12.5-3-17.6-7.2L291.7,337.1z M297.3,337.2l17.6,17.6
	c-5.1,4.3-11.3,6.7-17.6,7.2V337.2z M301.2,327.7l17.6-17.6c4.3,5.1,6.7,11.3,7.2,17.6H301.2z M291.7,298.8v24.9l-12-12l-5.6-5.6
	C279.1,301.9,285.2,299.3,291.7,298.8z"/>
<path id="XMLID_1585_" d="M328.8,250.2c-13.4,0-26.1,5.3-35.8,15c-1.1,1.1-1.1,2.8,0,3.9c0.5,0.5,1.3,0.8,2,0.8s1.4-0.3,2-0.8
	c8.6-8.6,20-13.4,31.9-13.4c0,0,0,0,0,0c1.5,0,2.8-1.2,2.8-2.8C331.6,251.5,330.3,250.2,328.8,250.2
	C328.8,250.2,328.8,250.2,328.8,250.2L328.8,250.2z"/>
<path id="XMLID_1586_" d="M368.8,309.4c0.7,0,1.4-0.3,2-0.8c0.5-0.5,0.8-1.2,0.8-2c0-0.7-0.3-1.4-0.8-2c-0.5-0.5-1.2-0.8-2-0.8
	c-0.7,0-1.4,0.3-2,0.8c-0.5,0.5-0.8,1.2-0.8,2c0,0.7,0.3,1.4,0.8,2C367.3,309.1,368,309.4,368.8,309.4z"/>
<path id="XMLID_1637_" d="M358,313.6c0-0.7-0.3-1.4-0.8-2c-0.5-0.5-1.2-0.8-2-0.8c-0.7,0-1.4,0.3-2,0.8c-0.5,0.5-0.8,1.2-0.8,2
	c0,0.7,0.3,1.4,0.8,2c0.5,0.5,1.2,0.8,2,0.8c0.7,0,1.4-0.3,2-0.8C357.7,315.1,358,314.4,358,313.6z"/>
<path id="XMLID_1640_" d="M359,332.2c0.7,0,1.4-0.3,2-0.8s0.8-1.2,0.8-2c0-0.7-0.3-1.4-0.8-2s-1.2-0.8-2-0.8c-0.7,0-1.4,0.3-2,0.8
	c-0.5,0.5-0.8,1.2-0.8,2c0,0.7,0.3,1.4,0.8,2C357.5,331.9,358.2,332.2,359,332.2z"/>
<path id="XMLID_1644_" d="M378.9,264.3c-0.8-1.3-2.5-1.7-3.8-0.9c-1.3,0.8-1.7,2.5-0.9,3.8c13.6,21.7,9.8,51.1-9.2,70
	c-7.7,7.7-17.1,13.1-27.4,15.6c3.6-6.9,5.5-14.6,5.5-22.6c0-13-5.1-25.2-14.2-34.4c-9.2-9.2-21.4-14.3-34.4-14.3
	c-8,0-15.8,1.9-22.7,5.6c2.5-10.3,7.9-19.7,15.6-27.5c18.9-18.9,48.4-22.8,70-9.2c1.3,0.8,3,0.4,3.8-0.9c0.8-1.3,0.4-3-0.9-3.8
	c-11.5-7.2-25.5-10.2-39.4-8.5c-14,1.7-27.4,8.3-37.6,18.5c-9.8,9.8-16.1,22.1-18.2,35.5c-1.9,1.4-3.6,2.9-5.3,4.6l0,0
	c-9.2,9.2-14.3,21.4-14.3,34.5c0,13,5.1,25.2,14.3,34.4c9.2,9.2,21.4,14.2,34.4,14.2h0c13,0,25.2-5,34.4-14.1c0,0,0.1,0,0.1-0.1
	l0.1-0.1c0,0,0.1-0.1,0.1-0.1c1.7-1.7,3.2-3.4,4.6-5.3c13.4-2.1,25.6-8.4,35.4-18.2c10.2-10.2,16.7-23.5,18.5-37.6
	C389.2,289.8,386.2,275.8,378.9,264.3z M325,360.9C325,360.9,325,360.9,325,360.9C325,360.9,325,361,325,360.9
	c-16.9,16.8-44.3,16.8-61.1,0c-8.1-8.1-12.6-18.9-12.6-30.4c0-11.5,4.5-22.4,12.7-30.5l0.1-0.1c1.7-1.7,3.6-3.3,5.5-4.7
	c0,0,0.1,0,0.1-0.1c7.2-5.2,15.9-7.9,24.9-7.9c11.5,0,22.3,4.5,30.4,12.6C341.8,316.7,341.8,344,325,360.9L325,360.9z"/>
<path id="XMLID_1645_" d="M368.8,258.8c0.7,0,1.4-0.3,2-0.8c0.5-0.5,0.8-1.2,0.8-2c0-0.7-0.3-1.4-0.8-2c-0.5-0.5-1.2-0.8-2-0.8
	c-0.7,0-1.4,0.3-2,0.8c-0.5,0.5-0.8,1.2-0.8,2c0,0.7,0.3,1.4,0.8,2C367.3,258.5,368.1,258.8,368.8,258.8z"/>
</svg>
