<?xml version="1.0" encoding="utf-8"?>
<!-- Generator: Adobe Illustrator 23.1.0, SVG Export Plug-In . SVG Version: 6.00 Build 0)  -->
<svg version="1.1" id="icon" xmlns="http://www.w3.org/2000/svg" xmlns:xlink="http://www.w3.org/1999/xlink" x="0px" y="0px"
	 viewBox="0 0 927.2 927.2" style="enable-background:new 0 0 927.2 927.2;" xml:space="preserve">
<g>
	<g>
		<path d="M833.5,209.9l35.4,35.4l15.2-15.2c26.3-26.3,26.3-69.1,0-95.5l-91.5-91.5c-12.8-12.7-29.7-19.8-47.7-19.8
			c-18,0-35,7-47.7,19.8l-15.2,15.2l35.4,35.4l15.2-15.2c3.3-3.3,7.7-5.1,12.4-5.1c4.7,0,9.1,1.8,12.4,5.1l91.5,91.5
			c6.8,6.8,6.8,17.9,0,24.8L833.5,209.9z"/>
		<path d="M56.4,738.3c-36.6,36.6-78.9,138.3-42.3,174.9c28.1,28.1,94.4,9.7,140.4-16.8c3.3-1.9,6.2-6.6,6.4-10.4
			c1.6-29.9,5.5-74.8,5.5-74.8c0-1.5,0.9-2.4,2.4-2.4l80.6-1.8c2.1,0,3.7-1.7,3.8-3.8l1.7-80.5c0-1.5,0.9-2.4,2.4-2.4
			c0,0,52.7-0.5,74.2-0.7c5,0,11.9-2.9,15.4-6.4c16.9-16.9,64.5-64.5,109-109L323.1,471.5L56.4,738.3z"/>
		<path d="M851.2,263l-35.4-35.4L699.6,111.4L664.2,76l-62.8-62.8C592.7,4.4,581.1,0,569.5,0s-23.1,4.4-32,13.2L304.5,246.3
			c-47.3,47.3-47.3,123.9,0,171.2l36.3,36.3l132.6,132.6l36.3,36.3c23.6,23.6,54.6,35.5,85.6,35.5s62-11.8,85.6-35.5L914,389.7
			c17.7-17.7,17.7-46.3,0-63.9L851.2,263z M575.1,494.2c-6.3,6.3-14.2,10.6-22.7,12.5c-3.3,0.7-6.8,1.1-10.3,1.1
			c-12.5,0-24.2-4.9-33-13.7L433,418.1c-8.8-8.8-13.7-20.5-13.7-33c0-3.6,0.4-7.1,1.2-10.4c1.9-8.5,6.2-16.3,12.5-22.6
			c8.8-8.8,20.5-13.7,33-13.7c12.5,0,24.2,4.9,33,13.7l3.1,3.1l69.6,69.6l3.4,3.4c8.8,8.8,13.7,20.5,13.7,33
			C588.8,473.7,583.9,485.4,575.1,494.2z M804.6,355.9l-45.3,45.3c-29.3,29.3-76.8,29.3-106.1,0L526,274
			c-29.3-29.3-29.3-76.8,0-106.1l45.3-45.3c10.9-10.9,28.7-10.9,39.6,0l10.5,10.5L794,305.7l10.5,10.5
			C815.5,327.2,815.5,344.9,804.6,355.9z"/>
		<path d="M477.7,373.3c-3.1-3.1-7.3-4.9-11.8-4.9c-4.5,0-8.6,1.7-11.8,4.9c-3.1,3.1-4.9,7.3-4.9,11.8c0,4.5,1.7,8.6,4.9,11.8
			l76.1,76.1c3.1,3.1,7.3,4.9,11.8,4.9c4.5,0,8.6-1.7,11.8-4.9c3.1-3.1,4.9-7.3,4.9-11.8c0-4.5-1.7-8.6-4.9-11.8L477.7,373.3z"/>
	</g>
</g>
</svg>
