<?xml version="1.0" encoding="utf-8"?>
<!-- Generator: Adobe Illustrator 23.1.0, SVG Export Plug-In . SVG Version: 6.00 Build 0)  -->
<svg version="1.1" id="icon" xmlns="http://www.w3.org/2000/svg" xmlns:xlink="http://www.w3.org/1999/xlink" x="0px" y="0px"
	 viewBox="0 0 511 511" style="enable-background:new 0 0 511 511;" xml:space="preserve">
<g id="surface1">
	<path d="M447,218.2c-13.1-10.7-31.8-14.2-47.4-8.8c-4.2,1.5-8.1,3.5-11.6,6.1c-8.9,6.6-28.7,26.2-44.4,45.7V111.1
		c0-12.8-5.2-25.2-14.4-34.2c-9.1-8.9-21-13.7-33.5-13.5c-5.7,0.1-11.1,1.2-16.2,3.2V51.9c0-13.9-5.7-27.5-15.7-37.2
		C254.1,5,241.2-0.2,227.5,0c-27.2,0.5-49.5,22.6-50.3,49.7c-5.9-2.7-12.3-4.2-18.9-4.4c-13.8-0.4-27.5,4.9-37.6,14.7
		c-9.8,9.5-15.3,22.2-15.3,35.5l0,14.2c-4.2-1.4-8.8-2.2-13.5-2.2c-23.7,0-43.1,19.3-43.1,43.1l0,218.2l0,1c2,28.6,8,53.1,17.8,72.9
		C76,461.1,88.9,476,105,486.9c31.8,21.4,71.1,24.1,101.7,24.1c60.2,0,114.4-29.9,141.5-78.2c3.3-5.3,12-19,21.4-33.7
		c9.1-14.3,17.6-27.6,25.1-39.2c4.1-6.4,7.9-12.2,11.1-17.3c12.1-18.9,25-37.3,38.4-54.6c5-6.4,6.5-8.1,6.8-8.5
		c6.2-6.8,10.2-15.2,11.4-24.1C464.3,241.2,458.7,227.7,447,218.2z M432.7,251.4c-0.4,2.9-1.7,5.6-3.8,7.9c-1.1,1.2-3,3.5-8.4,10.5
		c-13.9,18-27.3,37.1-39.9,56.8c-3.2,5.1-7,10.9-11.1,17.3c-7.5,11.7-16,24.9-25.2,39.3c-9.6,15.1-18.5,29-21.7,34.3l-0.3,0.6
		c-21.7,38.9-66,63.1-115.5,63.1c-26.4,0-59.9-2.2-85-19c-25.6-17.2-39.6-47.9-42.9-93.8l0-217.6c0-7.2,5.9-13.1,13.1-13.1
		c7.3,0,13.2,5.9,13.2,13.1v81.6c0,0.2,0,0.5,0,0.7c0,0.3,0,0.5,0,0.8c0,0.2,0.1,0.5,0.1,0.7c0,0.3,0.1,0.5,0.1,0.8
		c0.1,0.2,0.1,0.5,0.2,0.7c0.1,0.2,0.1,0.5,0.2,0.7c0.1,0.2,0.2,0.5,0.2,0.7c0.1,0.2,0.2,0.5,0.3,0.7c0.1,0.2,0.2,0.4,0.3,0.7
		s0.2,0.4,0.3,0.7c0.1,0.2,0.2,0.4,0.4,0.6c0.1,0.2,0.2,0.4,0.4,0.6c0.1,0.2,0.3,0.4,0.4,0.6c0.1,0.2,0.3,0.4,0.4,0.6
		c0.2,0.2,0.3,0.4,0.5,0.5c0.2,0.2,0.3,0.4,0.5,0.5c0.2,0.2,0.3,0.3,0.5,0.5c0.2,0.2,0.4,0.3,0.5,0.5c0.2,0.1,0.4,0.3,0.6,0.4
		c0.2,0.1,0.4,0.3,0.6,0.4c0.2,0.1,0.4,0.2,0.6,0.4c0.2,0.1,0.4,0.3,0.6,0.4c0.2,0.1,0.4,0.2,0.6,0.3c0.2,0.1,0.5,0.2,0.7,0.3
		c0.2,0.1,0.4,0.2,0.7,0.2c0.2,0.1,0.5,0.2,0.7,0.3c0.2,0.1,0.5,0.1,0.7,0.2c0.2,0.1,0.5,0.1,0.7,0.2c0.2,0.1,0.5,0.1,0.7,0.1
		c0.2,0,0.5,0.1,0.7,0.1c0.2,0,0.5,0,0.8,0c0.2,0,0.5,0,0.8,0c0,0,0,0,0,0c0.5,0,1,0,1.5-0.1c0.2,0,0.4-0.1,0.7-0.1
		c0.3,0,0.6-0.1,0.8-0.1c0.3-0.1,0.6-0.1,0.8-0.2c0.2-0.1,0.4-0.1,0.6-0.2c0.3-0.1,0.6-0.2,0.9-0.3c0.1-0.1,0.3-0.1,0.5-0.2
		c0.3-0.1,0.6-0.3,0.9-0.4c0.1-0.1,0.3-0.1,0.4-0.2c0.3-0.1,0.5-0.3,0.8-0.5c0.1-0.1,0.3-0.2,0.4-0.3c0.2-0.2,0.5-0.3,0.7-0.5
		c0.2-0.1,0.3-0.2,0.5-0.3c0.2-0.2,0.4-0.4,0.6-0.6c0.2-0.1,0.3-0.3,0.5-0.4c0.2-0.2,0.4-0.4,0.5-0.6c0.1-0.2,0.3-0.3,0.4-0.5
		c0.2-0.2,0.3-0.4,0.4-0.6c0.1-0.2,0.3-0.4,0.4-0.6c0.1-0.2,0.2-0.4,0.4-0.6c0.1-0.2,0.3-0.4,0.4-0.6c0.1-0.2,0.2-0.4,0.3-0.6
		c0.1-0.2,0.2-0.4,0.3-0.7c0.1-0.2,0.2-0.4,0.2-0.7c0.1-0.2,0.2-0.5,0.3-0.7c0.1-0.2,0.1-0.5,0.2-0.7c0.1-0.2,0.1-0.5,0.2-0.7
		c0-0.2,0.1-0.5,0.1-0.7c0-0.3,0.1-0.5,0.1-0.8c0-0.2,0-0.5,0-0.7c0-0.3,0-0.5,0-0.8l0.3-136.8c0-5.2,2.2-10.1,6.2-14
		c4.3-4.1,10-6.4,15.8-6.2c10.8,0.3,19.6,9.7,19.6,21l0.2,135.2c0,0.3,0,0.5,0,0.8c0,0.2,0,0.5,0,0.7c0,0.3,0.1,0.5,0.1,0.8
		c0,0.2,0.1,0.4,0.1,0.7c0.1,0.3,0.1,0.6,0.2,0.9c0.1,0.2,0.1,0.4,0.1,0.6c0.1,0.3,0.2,0.6,0.3,0.9c0.1,0.2,0.1,0.3,0.2,0.5
		c0.1,0.3,0.3,0.6,0.5,1c0.1,0.1,0.1,0.2,0.2,0.4c0.2,0.3,0.4,0.6,0.6,0.9c0.1,0.1,0.1,0.2,0.2,0.3c0.2,0.3,0.4,0.6,0.7,0.9
		c0.1,0.1,0.1,0.2,0.2,0.3c0.3,0.3,0.5,0.6,0.8,0.9c0.1,0.1,0.1,0.1,0.2,0.2c0.3,0.3,0.6,0.5,0.9,0.8c0.1,0.1,0.1,0.1,0.2,0.2
		c0.3,0.3,0.6,0.5,1,0.7c0.1,0.1,0.1,0.1,0.2,0.2c0.3,0.2,0.7,0.4,1,0.6c0.1,0,0.1,0.1,0.2,0.1c0.4,0.2,0.7,0.4,1.1,0.5
		c0.1,0,0.1,0.1,0.2,0.1c0.4,0.2,0.8,0.3,1.2,0.4c0.1,0,0.1,0.1,0.2,0.1c0.4,0.1,0.8,0.2,1.2,0.3c0.1,0,0.2,0,0.2,0.1
		c1,0.2,2,0.3,3,0.3c0,0,0,0,0,0c0.3,0,0.5,0,0.8,0c0.2,0,0.5,0,0.7,0c0.3,0,0.5-0.1,0.8-0.1c0.2,0,0.5-0.1,0.7-0.1
		c0.3-0.1,0.5-0.1,0.8-0.2c0.2-0.1,0.4-0.1,0.6-0.2c0.3-0.1,0.5-0.2,0.8-0.3c0.2-0.1,0.4-0.1,0.6-0.2c0.3-0.1,0.5-0.3,0.8-0.4
		c0.2-0.1,0.4-0.2,0.5-0.2c0.3-0.1,0.5-0.3,0.8-0.5c0.2-0.1,0.3-0.2,0.5-0.3c0.2-0.2,0.5-0.3,0.7-0.5c0.2-0.1,0.3-0.2,0.5-0.4
		c0.2-0.2,0.4-0.4,0.6-0.6c0.1-0.1,0.3-0.3,0.4-0.4c0.2-0.2,0.4-0.4,0.6-0.6c0.1-0.2,0.3-0.3,0.4-0.5c0.2-0.2,0.3-0.4,0.5-0.6
		c0.1-0.2,0.3-0.4,0.4-0.5c0.1-0.2,0.3-0.4,0.4-0.6c0.1-0.2,0.3-0.4,0.4-0.6c0.1-0.2,0.2-0.4,0.3-0.7c0.1-0.2,0.2-0.4,0.3-0.7
		c0.1-0.2,0.2-0.4,0.2-0.7c0.1-0.2,0.2-0.5,0.3-0.7c0.1-0.2,0.1-0.5,0.2-0.7c0.1-0.2,0.1-0.5,0.2-0.7c0.1-0.2,0.1-0.5,0.1-0.7
		c0-0.2,0.1-0.5,0.1-0.7c0-0.3,0-0.5,0-0.8c0-0.3,0-0.5,0-0.8V51.2c0-11.5,9.4-21,20.9-21.2c5.5-0.1,10.8,2.1,14.9,6.1
		c4.3,4.2,6.7,10,6.7,15.9v180.3c0,0.3,0,0.5,0,0.8c0,0.2,0,0.5,0,0.7c0,0.3,0.1,0.5,0.1,0.8c0,0.2,0.1,0.5,0.1,0.7
		c0.1,0.3,0.1,0.5,0.2,0.8c0.1,0.2,0.1,0.4,0.2,0.7c0.1,0.3,0.2,0.5,0.3,0.8c0.1,0.2,0.1,0.4,0.2,0.6c0.1,0.3,0.3,0.5,0.4,0.8
		c0.1,0.2,0.1,0.3,0.2,0.5c0.1,0.3,0.3,0.5,0.5,0.8c0.1,0.1,0.2,0.3,0.3,0.4c0.2,0.3,0.4,0.5,0.6,0.8c0.1,0.1,0.2,0.3,0.3,0.4
		c0.2,0.3,0.5,0.5,0.7,0.8c0.1,0.1,0.2,0.2,0.3,0.3c0.2,0.2,0.5,0.5,0.8,0.7c0.1,0.1,0.2,0.2,0.3,0.3c0.3,0.2,0.6,0.5,0.9,0.7
		c0.1,0.1,0.2,0.1,0.2,0.2c0.3,0.2,0.7,0.4,1,0.6c0.1,0,0.1,0.1,0.2,0.1c0.4,0.2,0.8,0.4,1.2,0.6c0,0,0.1,0,0.1,0.1
		c0.4,0.2,0.9,0.3,1.3,0.5c0,0,0,0,0.1,0c0.9,0.3,1.9,0.5,2.9,0.6c0,0,0,0,0,0c0.5,0.1,1,0.1,1.5,0.1c0,0,0,0,0,0c0.3,0,0.5,0,0.8,0
		c0.2,0,0.5,0,0.7,0c0.3,0,0.5-0.1,0.8-0.1c0.2,0,0.4-0.1,0.7-0.1c0.3-0.1,0.6-0.1,0.9-0.2c0.2-0.1,0.4-0.1,0.6-0.1
		c0.3-0.1,0.6-0.2,0.9-0.3c0.2-0.1,0.3-0.1,0.5-0.2c0.3-0.1,0.6-0.3,0.9-0.4c0.1-0.1,0.3-0.1,0.4-0.2c0.3-0.2,0.6-0.3,0.8-0.5
		c0.1-0.1,0.3-0.2,0.4-0.2c0.3-0.2,0.5-0.4,0.8-0.6c0.1-0.1,0.2-0.2,0.3-0.3c0.3-0.2,0.5-0.5,0.8-0.7c0.1-0.1,0.2-0.2,0.3-0.3
		c0.2-0.2,0.5-0.5,0.7-0.8c0.1-0.1,0.2-0.2,0.3-0.3c0.2-0.3,0.4-0.5,0.6-0.8c0.1-0.1,0.2-0.2,0.3-0.3c0.2-0.3,0.3-0.6,0.5-0.8
		c0.1-0.1,0.2-0.3,0.2-0.4c0.2-0.3,0.3-0.6,0.4-0.9c0.1-0.1,0.1-0.3,0.2-0.4c0.1-0.3,0.2-0.6,0.3-0.9c0.1-0.2,0.1-0.3,0.2-0.5
		c0.1-0.3,0.2-0.6,0.2-0.9c0-0.2,0.1-0.4,0.1-0.6c0.1-0.3,0.1-0.6,0.1-0.9c0-0.2,0.1-0.4,0.1-0.6c0-0.3,0-0.6,0-0.8
		c0-0.2,0-0.5,0-0.7V108.5c1-8.4,8.1-15,16.7-15.1c4.4-0.1,8.7,1.7,12,4.9c3.4,3.4,5.4,8.1,5.4,12.8V288l0,0.7
		c0.1,9.7,6.5,17.9,15.9,20.4c9.3,2.5,18.9-1.4,23.8-9.9l0.1-0.2c11.8-20.5,43.2-52.7,52.3-59.5c1.1-0.8,2.3-1.4,3.6-1.9
		c6-2.1,13.5-0.6,18.6,3.6C430.5,243.4,433.3,246.7,432.7,251.4z"/>
</g>
</svg>
