<?xml version="1.0" encoding="utf-8"?>
<!-- Generator: Adobe Illustrator 23.0.2, SVG Export Plug-In . SVG Version: 6.00 Build 0)  -->
<svg version="1.1" id="Слой_1" xmlns="http://www.w3.org/2000/svg" xmlns:xlink="http://www.w3.org/1999/xlink" x="0px" y="0px"
	 viewBox="0 0 120 120" style="enable-background:new 0 0 120 120;" xml:space="preserve">
<style type="text/css">
	.st0{fill:#ECF0F1;}
	.st1{fill:#BDC3C7;}
	.st2{fill:#546A79;}
	.st3{fill:#8697CB;}
	.st4{fill-rule:evenodd;clip-rule:evenodd;fill:url(#SVGID_1_);}
	.st5{fill:#E2E2E2;}
	.st6{fill:#494949;}
	.st7{fill:#595959;}
	.st8{fill:#519FF4;}
</style>
<title>Settings</title>
<g>
	<g id="Settings">
		<path class="st0" d="M68.8,38.6C28.5,13.3-14.3,56.1,11,96.4c2,3.2,4.8,6,8,8c40.3,25.3,83.1-17.5,57.8-57.8
			C74.8,43.4,72.1,40.6,68.8,38.6z M65.5,98.1c-34,22.5-70.7-14.2-48.2-48.2c1.3-2,3-3.7,5-5c34-22.5,70.7,14.2,48.2,48.2
			C69.2,95.1,67.5,96.8,65.5,98.1z"/>
		<path class="st1" d="M12.4,60.1c-1.2,3.2-1.8,6.6-2,10.2c1.9,0.1,4.8,0.5,8.5,2.1l13-17.1C21.7,56.3,15.7,58.5,12.4,60.1z"/>
		<path class="st2" d="M44.1,54.8c-3.1,0-5.9,0.1-8.5,0.3L21.4,73.7c2.6,1.5,5.5,3.7,8.4,6.9c2.5,2.8,4,6,4.9,9.1h18.9
			c0.8-3.2,2.3-6.4,4.9-9.1c2.8-3,5.6-5.1,8.1-6.6L51.9,55C49.5,54.8,46.9,54.8,44.1,54.8z"/>
		<path class="st1" d="M35.1,103.9c2.8,0.8,5.8,1.2,8.8,1.2c3.2,0,6.3-0.5,9.2-1.3c-0.4-2.6-0.8-6.8-0.1-11.3H35.2
			C36,97,35.5,101.3,35.1,103.9z"/>
		<path class="st1" d="M77.4,70.3c-0.1-3.6-0.8-7.1-2.1-10.4c-3.4-1.6-9.5-3.7-19.7-4.6l13.4,17.4C72.6,71,75.6,70.4,77.4,70.3z"/>
		<path class="st3" d="M31.9,55.3l-13,17.1c0.8,0.4,1.7,0.8,2.5,1.3L35.6,55C34.3,55.1,33.1,55.2,31.9,55.3z"/>
		<path class="st3" d="M55.7,55.2c-1.2-0.1-2.4-0.2-3.7-0.3l14.6,18.9c0.9-0.5,1.7-0.9,2.5-1.3L55.7,55.2z"/>
		<path class="st3" d="M35.2,92.5H53c0.1-0.9,0.3-1.9,0.6-2.8H34.7C34.9,90.6,35.1,91.6,35.2,92.5z"/>
	</g>
</g>
<g id="bg">
	
		<linearGradient id="SVGID_1_" gradientUnits="userSpaceOnUse" x1="-242.4583" y1="454.2083" x2="-242.4583" y2="453.2083" gradientTransform="matrix(120 0 0 -120 29155 54505)">
		<stop  offset="0" style="stop-color:#E8E2F0"/>
		<stop  offset="1" style="stop-color:#8A8E92"/>
	</linearGradient>
	<path class="st4" d="M28,0h64c15.5,0,28,12.5,28,28v64c0,15.5-12.5,28-28,28H28c-15.5,0-28-12.5-28-28V28C0,12.5,12.5,0,28,0z"/>
	<path class="st5" d="M60.5,16.1C35.4,16.1,15,36.5,15,61.6s20.4,45.5,45.5,45.5s45.5-20.4,45.5-45.5S85.6,16.1,60.5,16.1z
		 M60.5,99.3c-20.8,0-37.7-16.9-37.7-37.7s16.9-37.7,37.7-37.7s37.7,16.9,37.7,37.7S81.3,99.3,60.5,99.3z"/>
	<path class="st6" d="M25.1,48.8c-1.3,3.6-2.1,7.4-2.2,11.4c2.1,0.1,5.4,0.5,9.5,2.4L47,43.4C35.6,44.5,28.8,46.9,25.1,48.8z"/>
	<path class="st7" d="M60.7,42.8c-3.4,0-6.6,0.1-9.5,0.3l-16,21c2.9,1.7,6.1,4.2,9.4,7.7c2.9,3.1,4.5,6.7,5.5,10.3h21.2
		c0.9-3.6,2.6-7.2,5.5-10.3c3.1-3.4,6.2-5.8,9.1-7.5L69.5,43C66.8,42.9,63.9,42.8,60.7,42.8z"/>
	<path class="st6" d="M50.6,97.9c3.2,0.9,6.5,1.3,9.9,1.3c3.6,0,7-0.5,10.3-1.4c-0.5-2.9-1-7.6-0.2-12.7H50.8
		C51.6,90.3,51.1,95.1,50.6,97.9z"/>
	<path class="st6" d="M98.2,60.2c-0.1-4.1-0.9-8-2.3-11.7c-3.8-1.8-10.7-4.2-22.2-5.2l15.1,19.5C92.8,61,96.1,60.4,98.2,60.2z"/>
	<path class="st8" d="M47,43.4L32.4,62.6c0.9,0.4,1.9,0.9,2.8,1.5l16-21C49.8,43.1,48.4,43.3,47,43.4z"/>
	<path class="st8" d="M73.7,43.3c-1.3-0.1-2.7-0.2-4.2-0.3L86,64.3c1-0.6,1.9-1.1,2.8-1.5L73.7,43.3z"/>
	<path class="st8" d="M50.8,85.2h19.9c0.2-1,0.4-2.1,0.6-3.1H50.1C50.4,83.1,50.6,84.1,50.8,85.2z"/>
</g>
</svg>
