<svg id="Capa_1" enable-background="new 0 0 511.996 511.996" height="512" viewBox="0 0 511.996 511.996" width="512" xmlns="http://www.w3.org/2000/svg"><path id="XMLID_260_" d="m404.153 107.85v-10.809c0-5.523-4.477-10-10-10s-10 4.477-10 10v10.809h-10.809c-5.523 0-10 4.477-10 10s4.477 10 10 10h10.809v10.809c0 5.523 4.477 10 10 10s10-4.477 10-10v-10.809h10.809c5.523 0 10-4.477 10-10s-4.477-10-10-10z"/><path id="XMLID_978_" d="m270.495 241.67c-25.314-25.367-58.986-39.336-94.813-39.336-.002 0 .002 0 0 0-35.89 0-69.646 14.015-95.038 39.459-.007.007-.013.015-.02.022s-.015.013-.022.02c-25.446 25.394-39.46 59.146-39.46 95.04 0 35.826 13.97 69.498 39.336 94.812.026.026.052.05.078.076.01.01.019.022.029.032.018.018.038.033.056.051 26.16 26.02 60.473 39.024 94.814 39.024 34.283 0 68.588-12.976 94.79-38.903.041-.04.086-.074.126-.115.051-.051.1-.104.151-.156.045-.045.092-.088.137-.134.036-.036.066-.076.102-.112 51.966-52.5 51.894-137.514-.266-189.78zm-7.249 168.337-63.351-63.222h89.346c-1.99 22.632-10.654 44.788-25.995 63.222zm-201.673-63.222h89.879l-63.503 63.503c-15.224-18.008-24.366-40.017-26.376-63.503zm26.394-83.444 20.113 20.072 43.284 43.373h-89.784c2.041-23.446 11.183-45.43 26.387-63.445zm97.627-40.577c23.486 2.011 45.494 11.152 63.502 26.376l-63.502 63.503zm-20 138.164v89.525c-22.738-1.946-44.99-10.633-63.463-26.062zm20 .158 63.218 63.348c-18.436 15.343-40.585 24.009-63.218 25.998zm14.143-34.301 63.465-63.465c15.431 18.474 24.124 40.725 26.069 63.465zm-34.143-104.014v89.784l-43.369-43.28-20.075-20.117c18.015-15.204 39.999-24.345 63.444-26.387z"/><path id="XMLID_1585_" d="m298.993 48.055c-48.185 0-93.937 19.213-128.821 54.098-3.905 3.905-3.905 10.237 0 14.142 1.953 1.953 4.512 2.929 7.071 2.929s5.119-.977 7.071-2.929c31.108-31.109 71.833-48.24 114.679-48.24.005 0 .013-.002.019 0 5.522 0 10-4.477 10-9.999s-4.476-10-9.999-10.001c-.009 0-.012 0-.02 0z"/><path id="XMLID_1586_" d="m443.015 260.992c2.63 0 5.21-1.07 7.07-2.93s2.93-4.44 2.93-7.07-1.07-5.21-2.93-7.07c-1.87-1.86-4.44-2.93-7.07-2.93-2.64 0-5.21 1.07-7.07 2.93-1.87 1.86-2.93 4.44-2.93 7.07s1.06 5.21 2.93 7.07c1.85 1.86 4.43 2.93 7.07 2.93z"/><path id="XMLID_1637_" d="m404.155 276.322c0-2.63-1.07-5.21-2.93-7.07s-4.44-2.92-7.07-2.92-5.21 1.06-7.07 2.92-2.93 4.44-2.93 7.07c0 2.64 1.07 5.21 2.93 7.08 1.86 1.86 4.44 2.93 7.07 2.93s5.21-1.07 7.07-2.93c1.86-1.87 2.93-4.44 2.93-7.08z"/><path id="XMLID_1640_" d="m407.675 342.992c2.64 0 5.21-1.07 7.07-2.93s2.93-4.44 2.93-7.07-1.07-5.21-2.93-7.07-4.43-2.93-7.07-2.93c-2.63 0-5.21 1.07-7.07 2.93s-2.93 4.44-2.93 7.07 1.07 5.21 2.93 7.07 4.44 2.93 7.07 2.93z"/><path id="XMLID_1644_" d="m479.557 98.797c-2.935-4.679-9.108-6.092-13.785-3.156-4.678 2.935-6.092 9.107-3.156 13.785 48.974 78.061 35.11 184.129-32.966 252.205-27.817 27.817-61.589 46.991-98.656 56.199 12.952-24.824 19.818-52.57 19.805-81.359-.022-46.823-18.22-90.833-51.242-123.923-33.051-33.118-77.012-51.357-123.787-51.357-28.929 0-56.789 6.982-81.674 20.13 9.175-37.186 28.374-71.065 56.277-98.967 68.061-68.06 174.11-81.934 252.164-32.992 4.679 2.935 10.851 1.52 13.785-3.16 2.934-4.679 1.519-10.851-3.16-13.785-41.442-25.984-91.771-36.898-141.707-30.726-50.549 6.245-98.573 29.869-135.225 66.521-35.349 35.349-57.935 79.507-65.498 127.94-6.669 5.015-13.032 10.532-19.033 16.544l-.178.177c-33.224 33.157-51.521 77.225-51.521 124.088 0 46.774 18.239 90.736 51.357 123.787 33.09 33.022 77.1 51.221 123.923 51.243h.084c46.66 0 90.586-18.05 123.74-50.841.095-.088.188-.178.28-.27l.303-.303c.092-.093.183-.187.271-.282 5.96-6.026 11.426-12.412 16.393-19.102 48.237-7.643 92.223-30.202 127.44-65.42 36.659-36.659 60.285-84.692 66.524-135.251 6.166-49.95-4.757-100.283-30.758-141.725zm-194.04 347.658c-.042.042-.083.085-.124.127-.043.041-.086.083-.128.125-60.713 60.285-159.306 60.232-219.779-.117-29.332-29.271-45.486-68.205-45.486-109.629 0-41.513 16.212-80.553 45.646-109.928l.192-.191c6.216-6.228 12.868-11.857 19.88-16.873.102-.071.202-.144.302-.219 26.07-18.553 57.146-28.558 89.749-28.558 41.424 0 80.358 16.154 109.63 45.485 60.349 60.472 60.402 159.064.118 219.778z"/><path id="XMLID_1645_" d="m443.025 78.942c2.64 0 5.21-1.07 7.07-2.93 1.87-1.86 2.93-4.44 2.93-7.07 0-2.64-1.06-5.21-2.93-7.08-1.86-1.86-4.43-2.92-7.07-2.92-2.63 0-5.21 1.06-7.07 2.92-1.86 1.87-2.93 4.44-2.93 7.08 0 2.63 1.07 5.21 2.93 7.07s4.44 2.93 7.07 2.93z"/></svg>