<svg height="512pt" viewBox="-31 0 512 512.002" width="512pt" xmlns="http://www.w3.org/2000/svg"><path d="m202.941406 73.820312c4.046875 1.054688 8.179688-1.378906 9.234375-5.425781 4.753907-18.316406 9.605469-32.324219 13.351563-41.898437 10.621094 27.339844 30.328125 90.90625 31.671875 188.722656.046875 3.464844 2.441406 6.457031 5.8125 7.261719 3.371093.804687 6.859375-.78125 8.46875-3.851563 37.4375-71.433594 75.179687-112.417968 94.273437-130.445312-5.332031 62.5-27.132812 125.84375-55.761718 181.246094-1.484376 2.871093-.945313 6.46875 1.316406 8.773437 2.5625 2.621094 6.765625 3.007813 9.765625.902344 12.386719-8.703125 24.957031-16.742188 37.355469-23.898438 3.621093-2.089843 4.863281-6.722656 2.769531-10.347656-2.089844-3.621094-6.722657-4.863281-10.34375-2.769531-5.199219 3-10.429688 6.152344-15.660157 9.4375 48.707032-109.035156 46.566407-177.84375 46.445313-180.878906-.113281-2.796876-1.757813-5.300782-4.277344-6.515626-2.519531-1.214843-5.503906-.941406-7.761719.707032-2.105468 1.539062-48.203124 35.871094-98.132812 122.386718-5.949219-119.445312-37.789062-180.492187-39.242188-183.214843-1.316406-2.46875-3.882812-4.011719-6.683593-4.011719-2.796875 0-5.363281 1.542969-6.679688 4.011719-.449219.839843-11.082031 21.011719-21.351562 60.578125-1.050781 4.046875 1.378906 8.183594 5.429687 9.230468 4.046875 1.054688-4.050781-1.046874 0 0zm0 0"/><path d="m450.410156 214.886719c1.160156-2.546875.820313-5.523438-.882812-7.742188-1.703125-2.222656-4.488282-3.324219-7.246094-2.867187-.917969.152344-22.886719 3.914062-58.597656 20.632812-3.789063 1.773438-5.421875 6.285156-3.648438 10.070313 1.773438 3.789062 6.28125 5.421875 10.070313 3.648437 15.640625-7.324218 28.519531-12.027344 37.835937-14.964844-12.859375 20.058594-41.402344 57.898438-94.75 99.6875-2.722656 2.132813-3.65625 5.839844-2.261718 9.007813 1.390624 3.167969 4.753906 4.988281 8.167968 4.425781 34.957032-5.789062 61.289063-5.347656 77.300782-3.941406-17.316407 10.84375-50.199219 27.898438-100.519532 40.015625-3.703125.890625-7.953125 1.710937-12.628906 2.4375-3.378906.523437-5.984375 3.246094-6.363281 6.644531-.378907 3.398438 1.566406 6.628906 4.746093 7.882813 22.089844 8.722656 36.921876 19.070312 45.628907 26.40625-13.757813 1.449219-37.574219 1.464843-68.789063-8.125-11.3125-3.476563-26.042968-12.523438-37.394531-21.4375l43.542969-11.808594c4.035156-1.09375 6.421875-5.253906 5.328125-9.292969-1.09375-4.035156-5.253907-6.421875-9.292969-5.328125l-27.410156 7.433594 36.023437-33.40625c3.066407-2.84375 3.246094-7.636719.402344-10.707031-2.84375-3.066406-7.636719-3.246094-10.703125-.402344l-33.308594 30.890625 26.277344-63.859375c1.589844-3.867188-.253906-8.292969-4.125-9.886719-3.867188-1.589843-8.292969.253907-9.886719 4.125l-24.804687 60.292969v-83.667969c0-4.183593-3.390625-7.574219-7.574219-7.574219s-7.574219 3.390626-7.574219 7.574219v83.667969l-24.804687-60.292969c-1.59375-3.867187-6.019531-5.714843-9.886719-4.125-3.867188 1.59375-5.714844 6.019531-4.125 9.886719l26.277344 63.859375-33.308594-30.890625c-3.066406-2.84375-7.859375-2.664062-10.703125.402344-2.84375 3.070312-2.664063 7.859375.402344 10.707031l36.023437 33.40625-27.410156-7.433594c-4.039062-1.097656-8.199219 1.292969-9.292969 5.328125-1.09375 4.039063 1.289063 8.199219 5.328125 9.292969l43.542969 11.808594c-11.351563 8.914062-26.082031 17.960937-37.394531 21.4375-30.992188 9.523437-54.894532 9.507812-68.734375 8.078125 8.71875-7.335938 23.53125-17.65625 45.574219-26.359375 3.179687-1.253907 5.125-4.484375 4.746093-7.882813-.378906-3.398437-2.988281-6.121094-6.363281-6.644531-4.679688-.726563-8.925781-1.546875-12.628906-2.4375-11.757813-2.832031-23.253906-6.097656-34.171875-9.714844-3.972657-1.3125-8.257813.839844-9.570313 4.808594-1.316406 3.972656.835938 8.257813 4.808594 9.574219 8.582031 2.839844 17.503906 5.472656 26.621094 7.855468-27.96875 14.855469-40.148438 30.207032-40.757813 30.992188-1.515625 1.949219-1.988281 4.515625-1.261719 6.875.722657 2.359375 2.550782 4.21875 4.898438 4.980469 1.449219.472656 36.082031 11.316406 91.289062-5.644531 9.042969-2.78125 19.261719-8.128907 28.785157-14.3125v43.707031c0 4.917969-.390625 9.878906-1.164063 14.738281l-5.8125 36.519531c-.347656 2.1875.28125 4.421875 1.722656 6.105469 1.4375 1.6875 3.542969 2.660156 5.757813 2.660156h38.375c2.21875 0 4.324219-.972656 5.761719-2.660156 1.441406-1.683594 2.070312-3.917969 1.71875-6.105469l-5.808594-36.519531c-.773438-4.859375-1.164062-9.820312-1.164062-14.738281v-43.707031c9.523437 6.183593 19.742187 11.535156 28.785156 14.3125 24.003906 7.375 44.113281 9.492187 59.300781 9.492187 19.746094 0 31.167969-3.582031 31.984375-3.847656 2.347656-.761719 4.179688-2.621094 4.902344-4.980469s.253906-4.925781-1.261719-6.875c-.609375-.785156-12.792969-16.136719-40.757813-30.988281 76.839844-20.074219 111.539063-50.316407 113.027344-51.640625 2.09375-1.859375 2.988282-4.71875 2.335938-7.4375-.65625-2.71875-2.757813-4.855469-5.464844-5.554688-1.285156-.335937-27.75-6.964844-74.945312-2.40625 65.285156-56.269531 86.320312-101.386718 87.261718-103.460937zm-218.96875 254.210937 4.417969 27.753906h-20.628906l4.417969-27.753906c.898437-5.648437 1.351562-11.40625 1.351562-17.121094v-54.683593c1.582031-1.277344 3.109375-2.550781 4.542969-3.804688 1.4375 1.253907 2.964843 2.527344 4.546875 3.804688v54.683593c0 5.714844.453125 11.472657 1.351562 17.121094zm0 0"/><path d="m68.726562 350.746094c-14.816406-6.550782-26.136718-12.902344-34.125-17.925782 15.945313-1.414062 42.234376-1.855468 77.390626 3.964844 3.410156.5625 6.777343-1.253906 8.171874-4.425781 1.390626-3.167969.460938-6.875-2.265624-9.007813-53.355469-41.792968-81.898438-79.636718-94.753907-99.691406 20.675781 6.53125 58.992188 21.816406 106.875 55.445313 2.855469 2.003906 6.707031 1.800781 9.332031-.492188 2.628907-2.292969 3.351563-6.085937 1.75-9.183593-28.628906-55.402344-50.433593-118.746094-55.765624-181.242188 19.101562 18.03125 56.839843 59.015625 94.277343 130.445312 1.609375 3.066407 5.09375 4.652344 8.464844 3.847657 3.371094-.804688 5.769531-3.796875 5.816406-7.261719.542969-39.542969 4.109375-77.269531 10.597657-112.128906.765624-4.113282-1.949219-8.070313-6.058594-8.832032-4.113282-.765624-8.066406 1.945313-8.832032 6.058594-5.109374 27.433594-8.445312 56.570313-9.972656 86.921875-49.933594-86.527343-96.03125-120.859375-98.136718-122.398437-2.257813-1.648438-5.242188-1.921875-7.761719-.707032-2.519531 1.214844-4.164063 3.71875-4.277344 6.515626-.125 3.035156-2.257813 71.84375 46.4375 180.867187-62.929687-39.5625-105.117187-46.914063-107.078125-47.238281-2.761719-.457032-5.546875.644531-7.25 2.863281-1.699219 2.222656-2.039062 5.199219-.882812 7.746094.945312 2.070312 21.980468 47.191406 87.265624 103.460937-47.191406-4.558594-73.65625 2.070313-74.945312 2.402344-2.707031.703125-4.808594 2.839844-5.460938 5.558594-.65625 2.71875.242188 5.578125 2.332032 7.4375.691406.613281 17.320312 15.199218 52.730468 30.855468 3.746094 1.652344 8.308594-.058593 9.992188-3.867187 1.6875-3.824219-.042969-8.296875-3.867188-9.988281-14.816406-6.550782 3.824219 1.691406 0 0zm0 0"/></svg>