<?xml version="1.0" encoding="utf-8"?>
<!-- Generator: Adobe Illustrator 21.1.0, SVG Export Plug-In . SVG Version: 6.00 Build 0)  -->
<svg version="1.1" id="icon" xmlns="http://www.w3.org/2000/svg" xmlns:xlink="http://www.w3.org/1999/xlink" x="0px" y="0px"
	 viewBox="0 0 451.2 451.2" style="enable-background:new 0 0 451.2 451.2;" xml:space="preserve">
<style type="text/css">
	.st0{fill:#FFFFFF;}
	.st1{fill:none;}
</style>
<polygon class="st0" points="147.2,174.3 147,174.3 147,174.2 "/>
<line class="st1" x1="156.3" y1="179.6" x2="156.3" y2="179.6"/>
<path d="M140.2,238c-1.3,0-2.6,0.3-3.8,1l-30,17.3c-3.5,2-6.8,3-10.5,3c-5.8,0-17.8-4.1-20.7-15.8c-0.8-3.3-3.9-5.5-7.2-5.5h0
	c-4.9,0-8.5,4.6-7.3,9.3c4.6,18.4,22.5,27,35.2,27c6.3,0,12.2-1.6,18-5L144,252C150.6,248.2,147.9,238,140.2,238L140.2,238z
	 M383.1,238c-3.4,0-6.4,2.4-7.3,5.7c-0.9,3.6-2.8,6.8-5.6,9.4c-4,3.8-9.8,6.2-15.1,6.2h0c-3.6,0-7-1-10.5-3l-30-17.4
	c-1.1-0.7-2.4-1-3.8-1h0c-7.7,0-10.4,10.2-3.8,14.1l30.1,17.3c5.8,3.3,11.7,5,18,5h0c9.2,0,18.7-3.9,25.5-10.4
	c4.9-4.7,8.1-10.3,9.7-16.7C391.6,242.6,388,238,383.1,238L383.1,238z M443.4,238c-3.9,0-7.1,3-7.5,7c-2.2,26.4-16.8,49.6-40.1,63
	c-25.3,14.6-55.5,14.6-80.8,0l-39.7-22.9V268l47.1,27.2c10.3,5.9,21.4,9,32.9,9c16.9,0,33.7-6.8,46.1-18.7
	c10.9-10.5,17.7-24.1,19.6-39.1c0.5-4.4-3-8.4-7.5-8.4h0c-3.8,0-7,2.9-7.4,6.6c-1.4,11.5-6.7,22-15,30c-9.6,9.2-22.6,14.5-35.7,14.5
	c-8.8,0-17.4-2.3-25.4-7l-54.6-31.5v-5.1c0-4.1-3.4-7.5-7.5-7.5l0,0c-4.1,0-7.5,3.4-7.5,7.5V390c0,3.4-2.8,6.2-6.2,6.2h-0.8
	c-3.4,0-6.2-2.8-6.2-6.2V245.5c0-4.1-3.4-7.5-7.5-7.5l0,0c-4.1,0-7.5,3.4-7.5,7.5v47.3c0,3.4-2.8,6.2-6.2,6.2h-0.8
	c-3.4,0-6.2-2.8-6.2-6.2v-47.3c0-4.1-3.4-7.5-7.5-7.5l0,0c-4.1,0-7.5,3.4-7.5,7.5v47.3c0,3.4-2.8,6.2-6.1,6.2h-0.8
	c-3.4,0-6.2-2.8-6.2-6.2v-47.3c0-4.1-3.4-7.5-7.5-7.5l0,0c-4.1,0-7.5,3.4-7.5,7.5v5.1l-54.6,31.5c-8,4.6-16.5,7-25.4,7
	c-22.8,0-47.4-16.9-50.8-44.6c-0.5-3.8-3.7-6.6-7.4-6.6h0c-4.5,0-8,3.9-7.5,8.3c4.3,36,36.1,57.8,65.7,57.8c11.5,0,22.6-3,32.9-9
	L176,268v17.1L136.3,308c-12.6,7.3-26.2,11-40.3,11c-20.7,0-41.2-8.3-56.3-22.8c-14.2-13.6-22.7-31.6-24.3-51.2
	c-0.3-3.9-3.5-7-7.5-7h0c-4.4,0-7.8,3.8-7.5,8.1c1.9,23.3,12,44.6,28.9,60.8c17.9,17.1,42.2,27,66.7,27c16.6,0,33.1-4.5,47.8-13
	l34-19.6c3.3,7.4,10.7,12.6,19.3,12.6h0.8c5.2,0,10-1.9,13.6-5c3.7,3.1,8.5,5,13.7,5h0.8c2.1,0,4.2-0.3,6.2-0.9V390
	c0,11.7,9.5,21.2,21.2,21.2h0.8c11.7,0,21.2-9.5,21.2-21.2v-87.5l32.2,18.6c15,8.7,31.5,13,47.9,13c16.4,0,32.9-4.3,47.9-13
	c27.6-16,45-43.5,47.6-74.8C451.2,241.8,447.8,238,443.4,238L443.4,238z"/>
<path d="M140,103.2l-0.2,0.4c-1.9,3.3-6.1,4.5-9.5,2.9c-23.8-11.3-51.1-10.3-74.3,2.8c-23.2,13.2-38.4,37-40.7,63.4
	c-0.3,3.9-3.6,6.9-7.5,6.9h0c-4.4,0-7.8-3.8-7.5-8.2c2.6-31.3,20-58.9,47.6-74.8c27.7-16,60.3-17.2,88.8-3.7
	C140.6,94.8,142.1,99.5,140,103.2z"/>
<path d="M275.2,132.6v17.1l47.1-27.2c10.3-6,21.4-9,32.9-9c29.6,0,61.4,21.9,65.7,57.8c0.5,4.4-3,8.3-7.5,8.3h0
	c-3.8,0-7-2.8-7.4-6.6c-3.4-27.7-27.9-44.6-50.7-44.6c-8.8,0-17.4,2.3-25.4,7l-46.8,27l14.8,8.6l39.4-22.7c5.8-3.4,11.7-5,18-5
	c12.7,0,30.6,8.6,35.2,27c1.2,4.7-2.4,9.3-7.3,9.3h0c-3.4,0-6.4-2.2-7.2-5.5c-2.9-11.7-14.8-15.8-20.7-15.8c-3.6,0-7,0.9-10.5,3
	L313,179.6h-30.2l-7.6-4.3l0,0c0,2.4-1.9,4.3-4.3,4.3h-6.3c-2.4,0-4.3-1.9-4.3-4.3v-50.5c0-3.4-2.8-6.2-6.2-6.2h-0.8
	c-3.4,0-6.2,2.8-6.2,6.2v47.3c0,4.1-3.4,7.5-7.5,7.5l0,0c-4.1,0-7.5-3.4-7.5-7.5v-47.3c0-3.4-2.8-6.2-6.2-6.2h-0.8
	c-3.4,0-6.2,2.8-6.2,6.2v47.3c0,4.1-3.4,7.5-7.5,7.5l0,0c-4.1,0-7.5-3.4-7.5-7.5v-47.3c0-3.4-2.8-6.2-6.2-6.2h-0.8
	c-3.4,0-6.2,2.8-6.2,6.2v50.4c0,2.5-2,4.5-4.5,4.5h-6.1c-2.5,0-4.5-2-4.5-4.5l0,0l-7.7,4.5h-30l-31.8-18.3c-3.5-2-6.8-3-10.5-3
	c-5.8,0-17.8,4.1-20.7,15.8c-0.8,3.3-3.9,5.5-7.2,5.5h0c-4.9,0-8.5-4.6-7.3-9.3c4.6-18.3,22.5-27,35.2-27c6.3,0,12.2,1.6,18,5
	l39.3,22.7l14.8-8.6l-46.7-27c-8-4.6-16.5-7-25.4-7c-22.8,0-47.4,16.9-50.8,44.6c-0.5,3.8-3.7,6.6-7.4,6.6h0c-4.5,0-8-3.9-7.5-8.3
	c4.3-36,36.1-57.8,65.7-57.8c11.5,0,22.6,3,32.9,9l47.1,27.2v-17.1l-11.2-6.5c-2.5-1.4-3.8-3.9-3.8-6.5c0-1.9,0.7-3.8,2.2-5.3
	c2.4-2.4,6.1-2.9,9-1.2l5.5,3.2c3.3-7.4,10.7-12.6,19.3-12.6h0.8c5.2,0,10,1.9,13.6,5c3.7-3.1,8.5-5,13.7-5h0.8c5.2,0,10,1.9,13.7,5
	c3.7-3.1,8.5-5,13.7-5h0.8c8.6,0,16.1,5.2,19.3,12.6l34-19.6c14.7-8.5,31.2-13,47.8-13c24.5,0,48.8,9.8,66.7,27
	c16.9,16.2,27,37.6,28.9,60.8c0.4,4.4-3.1,8.1-7.5,8.1h0c-3.9,0-7.2-3-7.5-7c-1.6-19.6-10.1-37.6-24.3-51.2
	c-15.1-14.5-35.7-22.8-56.3-22.8c-14.1,0-27.7,3.7-40.3,11L275.2,132.6z"/>
<path d="M152.5,115.9L152.5,115.9c-3,0-5.5-2.5-5.5-5.5v0c0-3,2.5-5.5,5.5-5.5l0,0c3,0,5.5,2.5,5.5,5.5v0
	C158,113.5,155.5,115.9,152.5,115.9z"/>
</svg>
