<?xml version="1.0" encoding="utf-8"?>
<!-- Generator: Adobe Illustrator 23.1.0, SVG Export Plug-In . SVG Version: 6.00 Build 0)  -->
<svg version="1.1" id="icon" xmlns="http://www.w3.org/2000/svg" xmlns:xlink="http://www.w3.org/1999/xlink" x="0px" y="0px"
	 viewBox="0 0 512 512" style="enable-background:new 0 0 512 512;" xml:space="preserve">
<g>
	<g>
		<path d="M412.7,169.5h-48.7c-2.9,0-5.1,2.3-5.1,5.1c0,2.9,2.3,5.1,5.1,5.1h48.7c3.2,0,5.8,2.6,5.8,5.8v190.7
			c0,3.2-2.6,5.8-5.8,5.8H96.5c-3.2,0-5.8-2.6-5.8-5.8V185.5c0-3.2,2.6-5.8,5.8-5.8H339c2.9,0,5.1-2.3,5.1-5.1
			c0-2.9-2.3-5.1-5.1-5.1H96.5c-8.8,0-16,7.2-16,16v190.7c0,8.8,7.2,16,16,16h316.1c8.8,0,16-7.2,16-16V185.5
			C428.6,176.7,421.4,169.5,412.7,169.5z"/>
		<path d="M229.7,205.7c0-3.2-2.6-5.6-5.6-5.6H115.8c-3.2,0-5.6,2.6-5.6,5.6V326c0,3.2,2.6,5.6,5.6,5.6h108.3c3.2,0,5.6-2.6,5.6-5.6
			V205.7z M145.6,320.3V302c0-3.5,2.9-6.4,6.4-6.4H188c3.5,0,6.4,2.9,6.4,6.4v18.4H145.6z M218.5,320.3h-12.8V302
			c0-9.8-8-17.6-17.6-17.6H152c-9.8,0-17.6,8-17.6,17.6v18.4h-12.8v-109h97v109H218.5z"/>
		<path d="M169.9,283.5c16.4,0,29.7-13.4,29.7-29.7s-13.4-29.7-29.7-29.7s-29.7,13.4-29.7,29.7S153.6,283.5,169.9,283.5z
			 M169.9,235.4c10.1,0,18.4,8.3,18.4,18.4s-8.3,18.4-18.4,18.4c-10.1,0-18.4-8.3-18.4-18.4S159.8,235.4,169.9,235.4z"/>
		<path d="M260.2,200.1c-3.2,0-5.6,2.6-5.6,5.6s2.6,5.6,5.6,5.6h102.3c3.2,0,5.6-2.6,5.6-5.6s-2.6-5.6-5.6-5.6H260.2z"/>
		<path d="M260.2,241.4h48.1c3.2,0,5.6-2.6,5.6-5.6s-2.6-5.6-5.6-5.6h-48.1c-3.2,0-5.6,2.6-5.6,5.6S257,241.4,260.2,241.4z"/>
		<path d="M422.2,235.8c0-3.2-2.6-5.6-5.6-5.6h-84.2c-3.2,0-5.6,2.6-5.6,5.6s2.6,5.6,5.6,5.6h84.2
			C419.6,241.4,422.2,238.9,422.2,235.8z"/>
		<path d="M392.5,260.2H260.2c-3.2,0-5.6,2.6-5.6,5.6c0,3.1,2.6,5.6,5.6,5.6h132.3c3.2,0,5.6-2.6,5.6-5.6
			C398.1,262.7,395.6,260.2,392.5,260.2z"/>
		<path d="M338,295.9c0-3.2-2.6-5.6-5.6-5.6h-72.2c-3.2,0-5.6,2.6-5.6,5.6c0,3.2,2.6,5.6,5.6,5.6h72.2
			C335.4,301.6,338,299,338,295.9z"/>
		<path d="M392.5,290.3h-36.1c-3.2,0-5.6,2.6-5.6,5.6c0,3.2,2.6,5.6,5.6,5.6h36.1c3.2,0,5.6-2.6,5.6-5.6
			C398.1,292.8,395.6,290.3,392.5,290.3z"/>
		<path d="M260.2,320.3c-3.2,0-5.6,2.6-5.6,5.6c0,3.2,2.6,5.6,5.6,5.6h42.1c3.2,0,5.6-2.6,5.6-5.6c0-3.2-2.6-5.6-5.6-5.6H260.2z"/>
		<path d="M326.4,331.6h66.2c3.2,0,5.6-2.6,5.6-5.6c0-3.2-2.6-5.6-5.6-5.6h-66.2c-3.2,0-5.6,2.6-5.6,5.6
			C320.7,329.1,323.2,331.6,326.4,331.6z"/>
		<path d="M115.8,350.4c-3.2,0-5.6,2.6-5.6,5.6c0,3.2,2.6,5.6,5.6,5.6h30.1c3.2,0,5.6-2.6,5.6-5.6c0-3.2-2.6-5.6-5.6-5.6H115.8z"/>
		<path d="M224.1,350.4H170c-3.2,0-5.6,2.6-5.6,5.6c0,3.2,2.6,5.6,5.6,5.6h54.1c3.2,0,5.6-2.6,5.6-5.6
			C229.7,352.9,227.2,350.4,224.1,350.4z"/>
		<path d="M256,0C114.8,0,0,114.8,0,256c0,141.2,114.8,256,256,256s256-114.8,256-256C512,114.8,397.2,0,256,0z M32,256
			c0-56,20.8-107.1,54.9-146.5l315.6,315.6C363.1,459.2,312,480,256,480C132.5,480,32,379.5,32,256z M425.1,402.5L109.5,86.9
			C148.9,52.8,200,32,256,32c123.5,0,224,100.5,224,224C480,312,459.2,363.1,425.1,402.5z"/>
	</g>
</g>
</svg>
