<?xml version="1.0" encoding="utf-8"?>
<!-- Generator: Adobe Illustrator 21.1.0, SVG Export Plug-In . SVG Version: 6.00 Build 0)  -->
<svg version="1.1" id="icon" xmlns="http://www.w3.org/2000/svg" xmlns:xlink="http://www.w3.org/1999/xlink" x="0px" y="0px"
	 viewBox="0 0 519 372" style="enable-background:new 0 0 519 372;" xml:space="preserve">
<path d="M358,93.1v67.4h-61.9v61.1h-27.5v-137h81c3.6,0,5.9,0.5,6.9,1.5C357.5,87.2,358,89.5,358,93.1z"/>
<path d="M358,176.6v36.6c0,3.6-0.5,6-1.5,6.9c-1,1-3.3,1.5-6.9,1.5h-29.9v-45.1H358z"/>
<path d="M410.2,185v65c0,3.5-0.5,5.7-1.6,6.8s-3.3,1.6-6.8,1.6h-82.1v-20.7h40.8c14.3,0,21.5-7.2,21.5-21.5v-39.6h19.8
	c3.5,0,5.7,0.5,6.8,1.5C409.7,179.1,410.2,181.4,410.2,185z"/>
<path d="M358,160.6h-61.9v61.1h-27.5v-137h81c3.6,0,5.9,0.5,6.9,1.5c1,1,1.5,3.3,1.5,6.9V160.6z"/>
<path d="M319.7,221.7v-45.1H358v36.6c0,3.6-0.5,6-1.5,6.9c-1,1-3.3,1.5-6.9,1.5H319.7z"/>
<path d="M408.6,178.1c1.1,1,1.6,3.3,1.6,6.9v65c0,3.5-0.5,5.7-1.6,6.8s-3.3,1.6-6.8,1.6h-82.1v-20.7h40.8c14.3,0,21.5-7.2,21.5-21.5
	v-39.6h19.8C405.3,176.6,407.5,177.1,408.6,178.1z"/>
<path d="M338.2,23.2c-0.3,0-0.5,0-0.8,0c-0.9,0-1.8,0-2.8,0H25.1c0,47,38.1,85.2,85.2,85.2h80.1c-3.5,6.3-6.7,12.9-9.3,19.8H67.8
	c0,47,38.1,85.2,85.2,85.2h18.8c1.6,10.2,4.1,20.1,7.4,29.6h-50.6c0,47,38.1,85.2,85.2,85.2h34c25.2,15.7,55,24.8,86.9,24.8
	c90.9,0,164.8-74,164.8-164.9C499.5,98.3,427.4,25.1,338.2,23.2z M433.6,253c0,11.9-9.6,21.5-21.5,21.5h-92.4V306
	c0,13.1-10.6,23.6-23.6,23.6v-91.9h-51.4V68.7h115.8c11.9,0,21.5,9.6,21.5,21.5v70.4h30.2c14.3,0,21.5,7.2,21.5,21.5V253z"/>
<path d="M358,160.6h-61.9v61.1h-27.5v-137h81c3.6,0,5.9,0.5,6.9,1.5c1,1,1.5,3.3,1.5,6.9V160.6z"/>
<path d="M319.7,221.7v-45.1H358v36.6c0,3.6-0.5,6-1.5,6.9c-1,1-3.3,1.5-6.9,1.5H319.7z"/>
<path d="M410.2,185v65c0,3.5-0.5,5.7-1.6,6.8s-3.3,1.6-6.8,1.6h-82.1v-20.7h40.8c14.3,0,21.5-7.2,21.5-21.5v-39.6h19.8
	c3.5,0,5.7,0.5,6.8,1.5C409.7,179.1,410.2,181.4,410.2,185z"/>
</svg>
