<?xml version="1.0" encoding="utf-8"?>
<!-- Generator: Adobe Illustrator 23.1.0, SVG Export Plug-In . SVG Version: 6.00 Build 0)  -->
<svg version="1.1" id="icon" xmlns="http://www.w3.org/2000/svg" xmlns:xlink="http://www.w3.org/1999/xlink" x="0px" y="0px"
	 viewBox="0 0 433.8 433.8" style="enable-background:new 0 0 433.8 433.8;" xml:space="preserve">
<g>
	<path d="M237.6,306c-5.6-3.2-15.3,0.7-23.1,14.3c-2.9,5.1-4.8,10.4-5.3,15.1c-0.8,7.8,2.5,10.9,4.5,12.1c1.2,0.7,2.6,1.1,4.2,1.1
		c5.5,0,12.8-4.7,19-15.3c2.9-5.1,4.8-10.4,5.3-15.1C242.9,310.3,239.6,307.2,237.6,306z M234.2,317.3c-0.4,3.5-1.9,7.8-4.3,11.9
		c-5.1,8.9-11.2,11.9-12.2,11.3c-0.1-0.1-0.9-1.2-0.6-4.3c0.4-3.5,1.9-7.8,4.3-11.9c4.7-8.2,10.2-11.4,11.9-11.4
		c0.1,0,0.3,0,0.4,0.1C233.7,313.1,234.5,314.2,234.2,317.3z"/>
	<path d="M404.3,209.1c-5.5-3.2-15.3,0.7-23.1,14.3c-7.9,13.6-6.3,24-0.8,27.2c1.2,0.7,2.6,1.1,4.2,1.1c5.5,0,12.8-4.7,19-15.3
		C411.3,222.7,409.8,212.4,404.3,209.1z M396.5,232.3c-5.1,8.9-11.2,12-12.2,11.3c-1.1-0.6-1.4-7.3,3.7-16.2
		c5.1-8.9,11.2-12,12.2-11.3C401.3,216.7,401.7,223.4,396.5,232.3z"/>
	<path d="M433.8,137.5c0-1.4-0.8-2.7-2-3.5L296.1,55.6c-1.2-0.7-2.8-0.7-4,0l-72.8,42.1l-10.3-6c-9.4-5.4-22.2,2.4-33.4,9.4
		c-0.9,0.5-1.7,1-2.5,1.5c-4.6,2.5-7.8,6.7-9.1,11.8c0,0.1-3.4,19.1-3.4,19.1s-41-23.8-41.9-24.1c-1.7-0.5-4.2-0.6-5.4,1.5
		l-25.2,62.3l-86.8,62C0.5,235.9,0,237,0,238.1v58c0,1.4,0.8,2.8,2,3.5l136.1,78.5c0.6,0.4,1.3,0.5,2,0.5s2.3-0.5,2.3-0.5l47.5-27.8
		c1.6,8.2,5.6,14.4,11.8,18c3.5,2,7.4,3,11.5,3c5,0,10.3-1.4,15.8-4.3c9.3-4.9,17.9-13.6,24.2-24.4c6.2-10.8,9.5-22.6,9.1-33.1
		c0-0.3,0-0.6-0.1-0.9l94.5-54.6c1.6,7.7,5.6,13.9,11.8,17.5c3.6,2.1,7.5,3,11.6,3c13.7,0,29.5-10.8,39.8-28.8
		c9.7-16.7,11.6-34.4,6.3-46.4l7-9.4c0.5-0.7,0.8-1.5,0.8-2.4L433.8,137.5C433.8,137.6,433.8,137.5,433.8,137.5z M294.1,63.7
		l127.7,73.8l-43.9,25.4L250.2,89.1L294.1,63.7z M242.2,93.7l127.7,73.8l-43.8,25.3l0-5.2c0-3.3,0.2-6.5,0.5-10l0.1-1.1
		c0.7-9.8-4.4-19.3-12.9-24.2l-86.5-50L242.2,93.7z M204.9,98.6l104.9,60.6c5.9,3.4,9.4,10,8.9,16.7l-0.1,1.1
		c-0.2,3.4-0.5,7-0.5,10.5l0,9.9l-9.8,5.7l0-4.5c0-3.3,0.2-6.6,0.5-10l0.1-1c0.7-9.8-4.4-19.3-12.9-24.2l-104.9-60.6
		c-0.5-0.3-1-0.5-1.5-0.8C195.6,98.9,201.6,96.7,204.9,98.6z M171.7,116.3c0.8-3.2,3-5.7,6-7c3.1-1.3,6.5-1.1,9.4,0.6L292,170.4
		c5.9,3.4,9.4,10,8.9,16.7l-0.1,1c-0.2,3.4-0.5,7-0.5,10.5l0,9.1l-27.6,16l-23.4-13.5l7.1-17.5c0.8-2-0.1-4.3-2.2-5.2l-86.3-49.8
		L171.7,116.3z M246.3,217.7l18.4,10.7L235,245.5L246.3,217.7z M118.8,118.6L247.6,193l-22.5,55.6L96.3,174.2L118.8,118.6z
		 M91.4,180.6l128.4,74.2l-80,57L11.7,237.4L91.4,180.6z M189.1,341.5l-45.1,26.4v-12l46.8-27.1
		C189.8,333.1,189.2,337.4,189.1,341.5z M83.3,325.6v11.7l-32-18.5V307L83.3,325.6z M24.6,282.2v-9l94.8,55.1v9L24.6,282.2z
		 M8,244.5l8.6,5v28l-8.6-5V244.5z M119.3,319l-94.8-55.1v-9.7l94.8,55.1V319z M127.3,313.9l8.7,5.1v28l-8.7-5.1
		C127.3,341.9,127.3,313.9,127.3,313.9z M8,281.8l35.3,20.6v11.9L8,293.8V281.8z M91.3,341.9v-11.7l44.7,26v11.5L91.3,341.9z
		 M246.1,338.6c-5.5,9.5-13,17.1-21,21.4c-7.4,3.9-14.4,4.4-19.5,1.4c-5.2-3-8.2-9.2-8.5-17.6c-0.3-9.1,2.5-19.3,8-28.8
		s13-17.1,21-21.4c4.2-2.2,8.3-3.4,12-3.4c2.8,0,5.3,0.6,7.5,1.9c5.2,3,8.2,9.2,8.5,17.6C254.5,318.8,251.6,329.1,246.1,338.6z
		 M355.7,245.2l-95,54.9c-1.9-6.7-5.7-11.9-11.1-15c-7.6-4.4-17.3-3.9-27.3,1.3c-9.3,4.9-17.9,13.6-24.2,24.4
		c-1.2,2-2.3,4.1-3.2,6.2L144,346.6v-27.9l85.1-60.6l196.6-113.6v41.7l-4.5,6c-1.5-1.5-3.1-2.9-5-3.9c-15.4-8.9-38,2.4-51.4,25.7
		C358.8,224.6,355.7,235.6,355.7,245.2z M412.8,241.7c-10.8,18.8-29.4,29.2-40.5,22.8c-11.1-6.4-11.3-27.7-0.5-46.5
		c8.7-15,22.3-24.7,33-24.7c2.7,0,5.2,0.6,7.5,1.9C423.4,201.6,423.6,222.9,412.8,241.7z"/>
</g>
</svg>
