<?xml version="1.0" encoding="utf-8"?>
<!-- Generator: Adobe Illustrator 23.1.0, SVG Export Plug-In . SVG Version: 6.00 Build 0)  -->
<svg version="1.1" id="icon" xmlns="http://www.w3.org/2000/svg" xmlns:xlink="http://www.w3.org/1999/xlink" x="0px" y="0px"
	 viewBox="0 0 512 512" style="enable-background:new 0 0 512 512;" xml:space="preserve">
<path d="M187.7,179.5c-66,0-119.5,53.5-119.5,119.5c0,66,53.5,119.5,119.5,119.5S307.2,365,307.2,299
	C307.1,233.1,253.7,179.6,187.7,179.5z M187.7,401.4c-56.6,0-102.4-45.8-102.4-102.4s45.8-102.4,102.4-102.4S290.1,242.5,290.1,299
	C290.1,355.5,244.3,401.3,187.7,401.4z"/>
<path d="M254.8,246.5c-13.9-17.8-34.3-29.4-56.8-32.2s-45.1,3.6-62.8,17.6c-24.2,18.7-36.5,48.9-32.3,79.2
	c4.2,30.3,24.3,56,52.7,67.4s60.7,6.7,84.6-12.3c17.9-13.9,29.4-34.3,32.2-56.8C275.2,286.9,268.9,264.3,254.8,246.5L254.8,246.5z
	 M143.6,351.1c11-5,20.6-12.6,27.9-22.2c0.6,0.3,1.2,0.7,1.9,1c0.4,0.2,0.7,0.4,1.1,0.6c1.4,0.6,2.9,1,4.4,1.4
	c0.5,0.1,0.9,0.3,1.3,0.4c1.9,11.5,0.1,23.4-5.2,33.8C163.4,363.9,152.6,358.7,143.6,351.1z M119.7,304.7c8.1,3.1,16.8,4.7,25.5,4.6
	c3.3,0,6.6-0.2,9.9-0.6c0.3,1.2,0.7,2.4,1.1,3.6c0.2,0.4,0.4,0.7,0.6,1.1c0.6,1.3,1.3,2.6,2.1,3.9c-6.8,9.5-16.5,16.6-27.6,20.1
	C124.7,327.7,120.7,316.4,119.7,304.7L119.7,304.7z M231.8,247c-11,5-20.6,12.6-27.9,22.2c-0.6-0.3-1.2-0.7-1.9-1
	c-0.4-0.2-0.7-0.4-1.1-0.6c-1.4-0.6-2.9-1-4.4-1.4c-0.5-0.1-0.9-0.3-1.3-0.4c-1.9-11.5-0.1-23.4,5.2-33.8
	C212,234.2,222.9,239.3,231.8,247z M176.1,311.4c-1.6-1.5-2.9-3.2-3.8-5.2c-0.1-0.2-0.3-0.4-0.4-0.7c-0.2-0.6-0.4-1.2-0.6-1.9
	c-0.1-0.5-0.3-0.9-0.4-1.3c-0.1-0.5-0.1-0.7-0.1-1.1c-0.3-1.5-0.3-3.1,0-4.6c0.1-0.4,0-0.7,0.1-1.1c0.1-0.4,0.3-0.9,0.4-1.3
	c0.2-0.6,0.4-1.3,0.6-1.9c0.1-0.2,0.2-0.4,0.3-0.7c1.7-3.5,4.5-6.4,8.1-8.1c0.2-0.1,0.4-0.3,0.7-0.4c0.6-0.2,1.2-0.4,1.9-0.6
	c0.4-0.1,0.9-0.3,1.3-0.4c0.5-0.1,0.7-0.1,1.1-0.1c1.5-0.3,3.1-0.3,4.6,0c0.4,0.1,0.7,0,1.1,0.1c0.4,0.1,0.9,0.3,1.3,0.4
	c0.6,0.2,1.3,0.4,1.9,0.6c0.2,0.1,0.4,0.3,0.7,0.4c3.6,1.7,6.4,4.6,8.1,8.1c0.1,0.2,0.3,0.4,0.4,0.7c0.2,0.6,0.4,1.3,0.6,1.9
	c0.1,0.4,0.3,0.9,0.4,1.3c0.1,0.5,0.1,0.7,0.1,1.1c0.3,1.5,0.3,3.1,0,4.6c-0.1,0.4,0,0.7-0.1,1.1c-0.1,0.4-0.3,0.9-0.4,1.3
	c-0.2,0.6-0.4,1.3-0.6,1.9c-0.1,0.2-0.2,0.4-0.4,0.7c-0.9,1.9-2.2,3.7-3.8,5.2C192.7,317.3,182.8,317.3,176.1,311.4L176.1,311.4z
	 M178.1,266.4c-1.2,0.3-2.4,0.7-3.6,1.1c-0.5,0.2-0.9,0.5-1.3,0.7c-1.3,0.6-2.5,1.2-3.7,2c-9.5-6.8-16.6-16.5-20.2-27.6
	c9.7-6.6,21-10.6,32.8-11.6C177.9,242.3,176.5,254.5,178.1,266.4L178.1,266.4z M197.4,331.6c1.2-0.3,2.4-0.7,3.6-1.1
	c0.4-0.2,0.7-0.4,1.1-0.6c1.3-0.6,2.6-1.3,3.9-2.1c9.5,6.8,16.6,16.5,20.2,27.7c-9.7,6.6-21,10.6-32.8,11.6
	C197.6,355.7,199,343.5,197.4,331.6L197.4,331.6z M220.3,289.3c-0.3-1.2-0.7-2.4-1.1-3.6c-0.2-0.4-0.4-0.7-0.6-1.1
	c-0.6-1.3-1.3-2.6-2.1-3.9c6.8-9.5,16.5-16.6,27.6-20.1c6.6,9.7,10.6,21,11.6,32.8C244.4,289.2,232.3,287.8,220.3,289.3L220.3,289.3
	z M135.7,254.9c5,11,12.6,20.6,22.2,27.9c-0.3,0.6-0.7,1.2-1,1.9c-0.2,0.4-0.4,0.7-0.6,1.1c-0.6,1.5-1,2.9-1.4,4.4
	c-0.1,0.4-0.3,0.9-0.4,1.3c-11.5,1.9-23.4,0.1-33.8-5.2C122.9,274.7,128.1,263.9,135.7,254.9z M239.8,343.1
	c-5-11-12.6-20.6-22.2-27.9c0.3-0.6,0.7-1.2,1-1.9c0.2-0.4,0.4-0.7,0.6-1.1c0.6-1.4,1-2.9,1.4-4.4c0.1-0.5,0.3-0.9,0.4-1.3
	c11.5-1.9,23.4-0.1,33.8,5.2C252.6,323.3,247.4,334.1,239.8,343.1z"/>
<path d="M477.9,60.1h-34.1c-16.2,0-30.2,11.5-33.5,27.4c-2.9-1.2-6.1-1.8-9.2-1.8h-8.5c-8,0-15.5,3.8-20.3,10.2l-76.3,6.2l-8.4-26.5
	c9-2.9,13.9-12.4,11.1-21.4l-5.1-16.3c-2.9-9-12.4-13.9-21.4-11.1L182.6,55c-9,2.9-13.9,12.4-11.1,21.4l5.1,16.3
	c2.8,9,12.4,13.9,21.3,11.1l1.9,6l-20.9,1.7h-1.2l-10.9,0.9l-0.6,0.1h-0.1C66,124.1-7.2,212.8,0.6,313.4
	C8.3,414,94.1,490.5,194.9,486.6c100.8-3.9,180.5-86.7,180.5-187.6c0.1-23.4-4.3-46.5-12.8-68.3h10.9c4.8,5.4,11.7,8.5,18.9,8.5h8.5
	c5.6,0,11-1.9,15.4-5.3c6.4,8.7,16.5,13.8,27.3,13.8h34.1c18.9,0,34.1-15.3,34.1-34.1V94.2C512,75.4,496.7,60.1,477.9,60.1z
	 M409.6,154H384v-17.1h25.6V154z M384,171h25.6v17.1H384V171z M392.5,102.7h8.5c4.7,0,8.5,3.8,8.5,8.5v8.5H384v-8.5
	C384,106.6,387.8,102.7,392.5,102.7z M187.7,71.3L277.3,43l5.1,16.3l-8.1,2.6h0L201.1,85H201l-8.1,2.6L187.7,71.3z M214.3,98.7
	l56.9-18l7.2,22.8l-61.1,5L214.3,98.7z M315.7,213.7c-4.7,0-8.5,3.8-8.5,8.5c0,4.7,3.8,8.5,8.5,8.5h28.4
	c9.4,21.5,14.3,44.8,14.3,68.3c0,91.6-72.4,166.9-163.9,170.5c-91.5,3.6-169.6-65.7-176.9-157c-7.3-91.3,58.9-172.1,149.8-183
	c0.4,0,0.8,0,1.2-0.1c3.4-0.5,6.8-0.7,9.9-0.9h1.2l187.2-15.2v100.3H315.7z M401.1,222.2h-8.5c-4.7,0-8.5-3.8-8.5-8.5v-8.5h25.6v8.5
	C409.6,218.4,405.8,222.2,401.1,222.2z M426.7,213.7V94.2c0-9.4,7.6-17.1,17.1-17.1h17.1v153.6h-17.1
	C434.3,230.7,426.7,223.1,426.7,213.7z M494.9,213.7c0,9.4-7.6,17.1-17.1,17.1V77.2c9.4,0,17.1,7.6,17.1,17.1V213.7z"/>
</svg>
