<?xml version="1.0" encoding="utf-8"?>
<!-- Generator: Adobe Illustrator 23.1.0, SVG Export Plug-In . SVG Version: 6.00 Build 0)  -->
<svg version="1.1" id="icon" xmlns="http://www.w3.org/2000/svg" xmlns:xlink="http://www.w3.org/1999/xlink" x="0px" y="0px"
	 viewBox="0 0 512 512" style="enable-background:new 0 0 512 512;" xml:space="preserve">
<g>
	<path d="M379.1,346.3c-2.8,0-5,2.2-5,5v50.5c0,8.3-6.7,15-15,15H150.8V161.3c0-2.8-2.2-5-5-5s-5,2.2-5,5v260.6c0,2.8,2.2,5,5,5H359
		c13.8,0,25.1-11.2,25.1-25.1v-50.5C384.1,348.5,381.8,346.3,379.1,346.3z"/>
	<path d="M359,85.2H145.8c-2.8,0-5,2.2-5,5v51c0,2.8,2.2,5,5,5s5-2.2,5-5v-46H359c8.3,0,15,6.7,15,15v221c0,2.8,2.2,5,5,5
		c2.8,0,5-2.2,5-5v-221C384.1,96.4,372.8,85.2,359,85.2z"/>
	<path d="M329.9,205.7c0.3,2.7,2.8,4.7,5.6,4.3c2.7-0.3,4.7-2.9,4.3-5.6c-1.3-10-4.4-19.3-9-27.7c-0.8-1.4-1.6-2.7-2.4-4.1
		c-12.5-19.9-33.2-33-56.5-35.8c-7.2-0.9-14.5-0.8-21.7,0.4c-24.5,3.8-45.9,19.1-57.4,41.7c-0.1,0.2-0.2,0.3-0.2,0.5
		c-5.3,10.5-8.2,22.3-8.2,34.9s3,24.4,8.2,34.9c0.1,0.2,0.1,0.3,0.2,0.5c11.5,22.7,32.9,37.9,57.4,41.7c6.5,1,13.1,1.2,19.6,0.6
		c26.5-2.5,49.9-18.2,62.2-42.3c0-0.1,0.1-0.2,0.1-0.3c3.7-7.3,6.2-15.1,7.4-23.2c0.4-2.7-1.5-5.3-4.2-5.7c-2.7-0.4-5.3,1.5-5.7,4.2
		c-0.9,5.7-2.5,11.2-4.7,16.4c-7.8-2.8-16.3-5.1-25.3-6.7c0.8-6.5,1.2-13.2,1.2-20c0-6.9-0.4-13.6-1.2-20c9-1.7,17.6-3.9,25.3-6.7
		C327.4,193.2,329.1,199.3,329.9,205.7z M262.4,282.2c-6.8,0-13.7-6.7-19.1-18.5c-2.8-6.2-5.1-13.4-6.6-21.2
		c8.3-1.1,17-1.6,25.7-1.6c8.8,0,17.4,0.6,25.7,1.6c-1.6,7.8-3.8,15-6.6,21.2C276.1,275.5,269.2,282.2,262.4,282.2z M234.2,268
		c1.8,4,3.8,7.5,6,10.6c-14.9-5.2-27.5-15.4-35.7-28.6c6.8-2.4,14.3-4.3,22.2-5.8C228.5,252.9,231,261,234.2,268z M199.9,241
		c-3.5-8.2-5.5-17.2-5.5-26.7s2-18.5,5.5-26.7c7.8,2.8,16.3,5.1,25.3,6.7c-0.8,6.5-1.2,13.2-1.2,20c0,6.9,0.4,13.6,1.2,20
		C216.2,235.9,207.6,238.2,199.9,241z M204.5,178.5c8.2-13.2,20.7-23.4,35.7-28.6c-2.2,3-4.2,6.6-6,10.6c-3.2,7-5.7,15.1-7.4,23.8
		C218.9,182.9,211.4,180.9,204.5,178.5z M243.3,164.7c5.4-11.7,12.3-18.5,19.1-18.5s13.7,6.7,19.1,18.5c2.8,6.2,5.1,13.4,6.6,21.2
		c-8.3,1.1-17,1.6-25.7,1.6c-8.8,0-17.4-0.6-25.7-1.6C238.2,178,240.5,170.9,243.3,164.7z M320.3,249.9c-3.6,5.8-8.1,11.2-13.4,15.7
		c-6.6,5.7-14.2,10-22.3,12.8c2.2-3,4.2-6.6,6-10.5c3.2-7,5.7-15.1,7.4-23.8C306,245.6,313.5,247.5,320.3,249.9z M290.9,214.2
		c0,6.3-0.4,12.5-1.1,18.5c-8.8-1.1-18-1.7-27.3-1.7c-9.3,0-18.5,0.6-27.3,1.7c-0.7-5.9-1.1-12.1-1.1-18.5c0-6.3,0.4-12.5,1.1-18.5
		c8.8,1.1,18,1.7,27.3,1.7c9.3,0,18.5-0.6,27.3-1.7C290.5,201.7,290.9,207.9,290.9,214.2z M298,184.3c-1.7-8.8-4.2-16.8-7.4-23.8
		c-1.8-4-3.8-7.5-6-10.5c14.8,5.1,27.5,15.3,35.7,28.6C313.5,180.9,306,182.9,298,184.3z"/>
	<path d="M189.4,331.7h146c2.8,0,5-2.2,5-5s-2.2-5-5-5h-146c-2.8,0-5,2.2-5,5S186.6,331.7,189.4,331.7z"/>
	<path d="M209.1,350.2c-2.8,0-5,2.2-5,5c0,2.8,2.2,5,5,5h106.7c2.8,0,5-2.2,5-5c0-2.8-2.2-5-5-5H209.1z"/>
</g>
<path d="M259.3,10.1C122.7,10.1,11.6,120.4,11.6,256c0,135.6,111.1,245.9,247.7,245.9S507,391.6,507,256
	C507,120.4,395.9,10.1,259.3,10.1z M42.6,256c0-53.8,20.1-102.9,53.1-140.7L401,418.4c-38,32.8-87.5,52.8-141.7,52.8
	C139.8,471.2,42.6,374.7,42.6,256z M422.9,396.7L117.6,93.6c38-32.8,87.5-52.8,141.7-52.8C378.8,40.8,476,137.3,476,256
	C476,309.8,455.9,358.9,422.9,396.7z"/>
</svg>
