<?xml version="1.0" encoding="utf-8"?>
<!-- Generator: Adobe Illustrator 23.1.0, SVG Export Plug-In . SVG Version: 6.00 Build 0)  -->
<svg version="1.1" id="icon" xmlns="http://www.w3.org/2000/svg" xmlns:xlink="http://www.w3.org/1999/xlink" x="0px" y="0px"
	 viewBox="0 0 1093 1093" style="enable-background:new 0 0 1093 1093;" xml:space="preserve">
<g id="surface1">
	<path d="M390.4,683.4h39v39h-39V683.4z"/>
	<path d="M273.2,683.4v39h78.1v-39H273.2z"/>
	<path d="M897.8,741.9c0,21.6-17.5,39-39,39c-21.6,0-39-17.5-39-39c0-21.6,17.5-39,39-39C880.3,702.9,897.8,720.4,897.8,741.9z"/>
	<path d="M468.4,722.4h314.8c0.9-3.4,2-6.7,3.4-9.9c0.1-0.3,0.2-0.7,0.4-1c1.8-4.2,4-8.2,6.5-12c0.7-1.1,1.6-2.2,2.4-3.3
		c1.9-2.6,4-5.1,6.2-7.5c1-1.1,2.1-2.2,3.2-3.2c0.7-0.7,1.3-1.4,2-2.1H468.4V722.4z"/>
	<path d="M195.2,566.3c0,10.8-8.7,19.5-19.5,19.5H0v39h39v39H0v58.6h61c0.8-2.7,1.6-5.3,2.7-7.8c0.5-1.2,0.8-2.5,1.3-3.7
		c1.8-4.3,4.1-8.4,6.6-12.3c0.6-0.9,1.3-1.6,2-2.4c2.1-3,4.4-5.8,6.9-8.4c1.2-1.2,2.4-2.2,3.6-3.3c2.2-2.1,4.5-4,7-5.9
		c1.5-1,2.9-2,4.5-3c2.5-1.6,5.1-3,7.8-4.2c1.6-0.8,3.2-1.5,4.9-2.2c3-1.1,6.1-2.1,9.2-2.9c1.5-0.4,3-0.9,4.5-1.2
		c9.7-2,19.6-2,29.3,0c1.5,0.3,3,0.8,4.5,1.2c3.1,0.8,6.2,1.7,9.2,2.9c1.7,0.7,3.3,1.4,4.9,2.2c2.7,1.3,5.3,2.7,7.8,4.2
		c1.5,1,3,2,4.5,3c2.4,1.8,4.8,3.8,7,5.9c1.2,1.1,2.5,2.1,3.6,3.3c2.5,2.6,4.8,5.4,6.9,8.4c0.6,0.9,1.3,1.6,2,2.4
		c2.6,3.9,4.8,8,6.7,12.3c0.5,1.2,0.8,2.5,1.3,3.7c1,2.5,1.9,5.2,2.7,7.8h21.9V468.7h-39V566.3z"/>
	<path d="M117.1,468.7h39v78.1h-39V468.7z"/>
	<path d="M175.7,741.9c0,21.6-17.5,39-39,39s-39-17.5-39-39c0-21.6,17.5-39,39-39S175.7,720.4,175.7,741.9z"/>
	<path d="M912.4,685.5c1.1,1,2.1,2.1,3.2,3.2c2.2,2.4,4.3,4.9,6.2,7.5c0.8,1.1,1.6,2.1,2.4,3.3c2.5,3.8,4.7,7.8,6.5,12
		c0.1,0.3,0.2,0.7,0.4,1c1.3,3.2,2.5,6.5,3.4,9.9h131l27.6-27.6v-11.4H910.4C911.1,684,911.7,684.8,912.4,685.5z"/>
	<path d="M351.3,312.5v331.8H1093V312.5H351.3z M429.4,605.3h-39V351.6h39V605.3z M507.5,605.3h-39V351.6h39V605.3z M585.5,605.3
		h-39V351.6h39V605.3z M663.6,605.3h-39V351.6h39V605.3z M741.7,605.3h-39V351.6h39V605.3z M819.8,605.3h-39V351.6h39V605.3z
		 M897.8,605.3h-39V351.6h39V605.3z M975.9,605.3h-39V351.6h39V605.3z M1054,605.3h-39V351.6h39V605.3z"/>
</g>
</svg>
