<?xml version="1.0" encoding="utf-8"?>
<!-- Generator: Adobe Illustrator 23.1.0, SVG Export Plug-In . SVG Version: 6.00 Build 0)  -->
<svg version="1.1" id="icon" xmlns="http://www.w3.org/2000/svg" xmlns:xlink="http://www.w3.org/1999/xlink" x="0px" y="0px"
	 viewBox="0 0 484.7 484.6" style="enable-background:new 0 0 484.7 484.6;" xml:space="preserve">
<g>
	<g id="_x32_7_48_">
		<g>
			<path d="M243.5,153.8c0.1,0,0.2,0,0.3,0c0.1,0,0.2,0,0.3,0c42.5,0,76.9-34.4,76.9-76.9C320.9,34.4,286.4,0,244,0
				c-0.1,0-0.2,0-0.3,0c-0.1,0-0.2,0-0.3,0c-42.5,0-76.9,34.4-76.9,76.9C166.6,119.3,201,153.8,243.5,153.8z"/>
			<path d="M436.6,311l-86.7-63l-27.4-67c-5.2-12.7-17.6-20.3-30.6-20.1l0,0h-49.5h-49.5l0,0c-13-0.3-25.4,7.3-30.6,20.1l-27.4,67
				l-86.7,63c-14.4,10.5-17.6,30.7-7.1,45.2c6.3,8.7,16.2,13.3,26.2,13.3c6.6,0,13.2-2,19-6.2l93.7-68.2l-2.4,24.7l-88.6,89.8
				c-12.3,12.8-15.8,31.7-8.8,48c7,16.3,23,26.9,40.7,26.9h42.4c-10.9-9.9-17.9-24.6-17.9-41.1c0-29.7,22.6-53.8,50.3-53.8
				c0,0,32.5,0,48.3,0c15.8,0,28.3,12.9,28.3,12.9h-76.6c-21.1,0-38.2,18.4-38.2,40.9c0,22.6,17.2,40.9,38.2,40.9h74.2
				c0.8-0.1,1.7-0.1,2.5-0.2h89.7c17.7,0,33.8-10.6,40.7-26.9c7-16.3,3.5-35.2-8.8-48l-86.7-90h0l-2.3-24.2l93.7,68.2
				c5.7,4.2,12.4,6.2,19,6.2c10,0,19.9-4.6,26.2-13.3C454.2,341.8,451,321.5,436.6,311z"/>
		</g>
	</g>
</g>
</svg>
