<?xml version="1.0" encoding="utf-8"?>
<!-- Generator: Adobe Illustrator 21.1.0, SVG Export Plug-In . SVG Version: 6.00 Build 0)  -->
<svg version="1.1" id="icon" xmlns="http://www.w3.org/2000/svg" xmlns:xlink="http://www.w3.org/1999/xlink" x="0px" y="0px"
	 viewBox="0 0 512 512" style="enable-background:new 0 0 512 512;" xml:space="preserve">
<style type="text/css">
	.st0{fill:none;}
</style>
<path d="M446.3,260.8L391,168.5c-0.1-0.2-0.2-0.4-0.3-0.6l-5.2-10.1c-1-1.9-1.5-4.1-1.5-6.3V79.9c0-3.5-0.3-7-0.8-10.5l-0.8-5.6
	c-0.1-0.5-0.2-1.1-0.3-1.6c-3.3-12.4-10.9-23.4-21.9-30.8L325.9,8.6c-8.8-5.9-19-9-29.6-9l-35.6,0c-5.5,0-10.6,4.5-11,10
	c-0.2,3.2,1,6.2,3.1,8.2c1.9,1.9,4.6,3.1,7.5,3.1h35.9c6.3,0,12.5,1.9,17.8,5.4l34.3,22.8c8.9,6,14.3,15.9,14.3,26.6v73.4
	c0,3.8-1.5,7.5-4.2,10.2L323,194.7c-2,2-3.1,4.7-3.1,7.6V309c0,4,2.3,7.7,5.9,9.5l36.3,18.1c0.3,0.1,0.5,0.4,0.5,0.8V368
	c0,5.4,3.8,10.1,9.2,10.9c3.5,0.5,6.8-0.8,9.1-3c1.9-1.9,3.1-4.6,3.1-7.5V201.2c0-0.8,1.1-1.2,1.6-0.4l42.6,71.1
	c3,5.1,9.5,6.7,14.6,3.6C447.8,272.4,449.4,265.8,446.3,260.8z M362.5,289.7c0,10.7-11.3,17.7-20.9,12.9h0c-0.3-0.1-0.5-0.4-0.5-0.8
	v-89.2c0-3.8,1.5-7.5,4.2-10.2l15.7-15.7c0.5-0.5,1.4-0.2,1.4,0.6V289.7z"/>
<path d="M374.7,418.2c-3.5-0.5-6.8,0.8-9.1,3c-1.9,1.9-3.1,4.6-3.1,7.5v8.2c0,1.1,0,2.3-0.1,3.4c0,0.4,0,0.8-0.1,1.2
	c-2.4,27.2-25.3,48.7-53.1,48.7H202.5c-27.8,0-50.8-21.4-53.1-48.7l-0.2-4.7v-99.6c0-0.3,0.2-0.6,0.5-0.8l36.3-18.1
	c3.6-1.8,5.9-5.5,5.9-9.5V202.3c0-2.8-1.1-5.5-3.1-7.5l-27-27l-8.3-8.3c-2.7-2.7-4.2-6.4-4.2-10.2V75.8c0-10.7,5.3-20.7,14.3-26.6
	l34.2-22.8c3-2,6.3-3.5,9.8-4.4c4.7-1.2,8-5.3,8-10.1v-0.6c0-6.7-6.3-11.7-12.8-10.1c-5.9,1.5-11.6,4-16.8,7.4l-34.3,22.8
	c-11,7.3-18.6,18.3-21.9,30.8c-0.1,0.5-0.2,1-0.3,1.6l-1.4,9.9c-0.1,0.6-0.1,1.3-0.1,1.9v76c0,2.2-0.5,4.3-1.5,6.2l-5.2,10
	c-0.1,0.2-0.3,0.6-0.5,0.9l-55.3,92.2c-3,5-1.4,11.6,3.6,14.6c5.1,3.1,11.6,1.4,14.6-3.6l42.6-71.1c0.4-0.7,1.6-0.4,1.6,0.4v240.4
	c0,0.1,0,0.1,0,0.2l0,0.5c1.3,37.8,32,68.3,70,69.3c0.5,0,1,0,1.5,0l26.4,0.1l85.8,0.4h0.3c39.1,0,70.9-31.2,71.8-70.2l0-0.1
	c0,0,0-0.1,0-0.2v-12.4C383.9,423.7,380,419,374.7,418.2z M149.2,187.4c0-0.8,0.9-1.1,1.4-0.6l15.7,15.7c2.7,2.7,4.2,6.4,4.2,10.2
	v89.2c0,0.3-0.2,0.6-0.5,0.8h0c-9.6,4.8-20.9-2.2-20.9-12.9V187.4z"/>
<line class="st0" x1="129.7" y1="63.4" x2="128" y2="75"/>
<line class="st0" x1="384" y1="75" x2="382.4" y2="63.4"/>
<path d="M372.4,410.8L372.4,410.8c-5.5,0-9.9-4.4-9.9-9.9v0c0-5.5,4.4-9.9,9.9-9.9h0c5.5,0,9.9,4.4,9.9,9.9v0
	C382.4,406.4,377.9,410.8,372.4,410.8z"/>
</svg>
