<?xml version="1.0" encoding="utf-8"?>
<!-- Generator: Adobe Illustrator 23.1.0, SVG Export Plug-In . SVG Version: 6.00 Build 0)  -->
<svg version="1.1" id="icon" xmlns="http://www.w3.org/2000/svg" xmlns:xlink="http://www.w3.org/1999/xlink" x="0px" y="0px"
	 viewBox="0 0 464 464" style="enable-background:new 0 0 464 464;" xml:space="preserve">
<path d="M417.2,224H368v32.1h42.2L417.2,224z"/>
<path d="M406.6,272.5l0.1-0.4H368V304C386.5,303.7,402.7,290.6,406.6,272.5z"/>
<path d="M112,272.1h48V304h-48V272.1z"/>
<path d="M112,176h48v32h-48V176z"/>
<path d="M112,224h48v32.1h-48V224z"/>
<path d="M53.8,256.1H96V224H46.9L53.8,256.1z"/>
<path d="M176,272.1h48V304h-48V272.1z"/>
<path d="M427.6,176H368v32h52.6L427.6,176z"/>
<path d="M57.4,272.5c3.9,18.1,20.1,31.2,38.6,31.5v-31.9H57.3L57.4,272.5z"/>
<path d="M43.4,208H96v-32H36.4L43.4,208z"/>
<path d="M304,224h48v32.1h-48V224z"/>
<path d="M304,176h48v32h-48V176z"/>
<path d="M240,192v16h48v-32h-20.7l-16,16H240z"/>
<path d="M304,272.1h48V304h-48V272.1z"/>
<path d="M176,224h48v32.1h-48V224z"/>
<path d="M450.3,144H276.7l-16-16h-57.4l-16,16H13.7C6.1,144,0,150.1,0,157.7c0,1,0.1,2,0.3,2.9l25.8,118.7
	c7.1,32.9,36.7,56.7,70.4,56.7h271c33.6,0,63.2-23.8,70.4-56.7l25.8-118.7c0.2-0.9,0.3-1.9,0.3-2.9C464,150.1,457.9,144,450.3,144z
	 M422.2,275.9c-5.6,25.6-28.6,44.1-54.7,44.1h-271c-26.2,0-49.2-18.5-54.7-44.1L16.6,160h186.8l16,16h25.4l16-16h186.8L422.2,275.9z
	"/>
<path d="M196.7,176H176v32h48v-16h-11.3L196.7,176z"/>
<path d="M240,224h48v32.1h-48V224z"/>
<path d="M240,272.1h48V304h-48V272.1z"/>
</svg>
