<?xml version="1.0" encoding="iso-8859-1"?>
<!-- Generator: Adobe Illustrator 19.0.0, SVG Export Plug-In . SVG Version: 6.00 Build 0)  -->
<svg version="1.1" id="Capa_1" xmlns="http://www.w3.org/2000/svg" xmlns:xlink="http://www.w3.org/1999/xlink" x="0px" y="0px"
	 viewBox="0 0 511.999 511.999" style="enable-background:new 0 0 511.999 511.999;" xml:space="preserve">
<g>
	<g>
		<path d="M503.386,5.007c-5.149-1.957-10.833-0.614-14.554,3.417l-138.19,138.189l-30.369,30.369l-8.316-8.316L171.27,309.353
			l-2.281-2.281l-77.525,77.525l-3.315-3.315L0,469.431l38.448,38.448l76.965-76.965c1.66,9.246,6.074,17.76,12.857,24.544
			c9.056,9.055,20.951,13.584,32.847,13.584c5.607,0,11.21-1.019,16.519-3.031l30.247,30.247l26.879-26.879l-30.227-30.227
			c1.984-5.214,3.032-10.795,3.032-16.54c0-12.408-4.831-24.072-13.605-32.846c-8.215-8.216-18.965-12.974-30.486-13.547
			l37.329-37.329l-2.282-2.282l140.689-140.687l-8.316-8.316l40.992-40.992L495.075,23.428l-91.46,333.693l-5.313-1.571
			l-4.261,14.407l6.709,1.984v42.325c0,9.353,7.61,16.962,16.962,16.962c6.677,0,12.465-3.878,15.231-9.5l1.509,1.51l10.623-10.623
			l-25.425-25.424v27.075c0,1.069-0.87,1.939-1.94,1.939c-1.069,0-1.939-0.87-1.939-1.939v-37.882l2.449,0.724l4.261-14.407
			l-4.459-1.319L511.732,19.48l0.267-0.975v-1.009C512,11.899,508.619,6.995,503.386,5.007z M38.448,486.633l-17.202-17.203
			l66.903-66.903l17.202,17.202L38.448,486.633z M213.518,469.377l-5.635,5.634l-47.902-47.902l5.635-5.634L213.518,469.377z
			 M183.341,400.388c7.206,7.206,10.17,17.07,8.9,26.467l-26.625-26.625l-26.879,26.879l26.625,26.625
			c-9.396,1.27-19.261-1.694-26.468-8.901c-11.237-11.237-12.162-28.932-2.788-41.242l6.018-6.018
			c5.437-4.142,12.042-6.391,18.993-6.391C169.512,391.181,177.404,394.451,183.341,400.388z M112.658,405.792l-10.571-10.572
			l66.902-66.902l10.571,10.571L112.658,405.792z M187.903,325.985l-6.01-6.01l130.065-130.064l6.01,6.01L187.903,325.985z"/>
	</g>
</g>
<g>
</g>
<g>
</g>
<g>
</g>
<g>
</g>
<g>
</g>
<g>
</g>
<g>
</g>
<g>
</g>
<g>
</g>
<g>
</g>
<g>
</g>
<g>
</g>
<g>
</g>
<g>
</g>
<g>
</g>
</svg>
