<?xml version="1.0"?>
<svg xmlns="http://www.w3.org/2000/svg" width="512" height="512" viewBox="0 0 128 128"><path d="M106.24,9.5a5.048,5.048,0,0,0-.1-.971,4.767,4.767,0,0,0-5.763-3.652c-23.737,5.6-42.266,17.833-55.071,36.372C32.252,60.149,28.373,81,27.481,95.639a6.756,6.756,0,0,0-5.039,6.522v13.847a7.242,7.242,0,0,0,14.484,0V97.264l0-.013c.05-.961.12-1.954.205-2.964a7.69,7.69,0,0,0,6.461-.808l3.6,3.6a1.749,1.749,0,0,0,2.475,0L51.7,95.042a1.75,1.75,0,0,0-2.476-2.475l-.8.8L46.068,91A7.735,7.735,0,0,0,39.5,79.16c-.037,0-.072.005-.109.006a101.577,101.577,0,0,1,4.646-15.407c.029,0,.057.009.087.009a4.732,4.732,0,0,0,3.481-7.957,80.729,80.729,0,0,1,9.856-15.047A4.688,4.688,0,0,0,59,41.042a4.749,4.749,0,0,0,4.379-6.589A75.937,75.937,0,0,1,77.04,24.163a4.7,4.7,0,0,0,2.835.962,4.756,4.756,0,0,0,4.75-4.75c0-.054-.014-.1-.016-.157a91.312,91.312,0,0,1,11.918-4.459,4.725,4.725,0,0,0,1.345,1.006,117.955,117.955,0,0,1-2.847,14.661C92.8,40.742,90.28,51.3,90.28,67.9c0,15.179,3.543,28.576,8.029,45.538a1.749,1.749,0,1,0,3.382-.895c-4.9-18.55-7.911-30.631-7.911-44.643,0-16.186,2.47-26.533,4.65-35.662a120.083,120.083,0,0,0,2.929-15.168A4.728,4.728,0,0,0,104.7,13,4.766,4.766,0,0,0,106.24,9.5ZM80.282,15.666A96.149,96.149,0,0,1,96.342,9.55a4.7,4.7,0,0,0-1.087,2.938,94.663,94.663,0,0,0-12.037,4.519A4.725,4.725,0,0,0,80.282,15.666Zm-5.076,5.515A79.447,79.447,0,0,0,60.924,31.958a4.518,4.518,0,0,0-3.06-.263,81.637,81.637,0,0,1,17.892-13.64,4.689,4.689,0,0,0-.631,2.32A4.766,4.766,0,0,0,75.206,21.181ZM98.75,12.542a1.25,1.25,0,1,1,1.25,1.25A1.252,1.252,0,0,1,98.75,12.542ZM54.33,35.5a4.394,4.394,0,0,0,.479,2.981A84.287,84.287,0,0,0,44.447,54.3c-.109-.007-.213-.032-.323-.032a4.721,4.721,0,0,0-2.629.8A88.012,88.012,0,0,1,54.33,35.5ZM31.8,87.761a7.716,7.716,0,0,0,2.02,4.4q-.167,1.656-.275,3.247H31.006C31.152,93.266,31.4,90.681,31.8,87.761Zm1.627,28.247a3.742,3.742,0,0,1-7.484,0V102.161a3.254,3.254,0,0,1,3.25-3.25h4.234ZM43.75,86.91a4.2,4.2,0,0,1-.284,1.491l-2.729-2.728a1.749,1.749,0,1,0-2.474,2.474l2.728,2.729a4.2,4.2,0,0,1-1.491.284,4.25,4.25,0,1,1,4.25-4.25ZM35.6,80.223a7.793,7.793,0,0,0-3.18,3.547,111.131,111.131,0,0,1,7.014-24.146,4.726,4.726,0,0,0,1.372,2.784A105.717,105.717,0,0,0,35.6,80.223Zm8.523-19.955a1.244,1.244,0,0,1-.485-.1l-.005,0a1.249,1.249,0,0,1,.49-2.4,1.222,1.222,0,0,1,.465.094c.012.006.022.015.034.021a.241.241,0,0,0,.025.008,1.245,1.245,0,0,1-.524,2.377ZM59,37.542a1.25,1.25,0,1,1,1.25-1.25A1.252,1.252,0,0,1,59,37.542ZM79.875,21.625a1.25,1.25,0,1,1,1.25-1.25A1.252,1.252,0,0,1,79.875,21.625Z"/></svg>
