<?xml version="1.0" encoding="utf-8"?>
<!-- Generator: Adobe Illustrator 23.1.0, SVG Export Plug-In . SVG Version: 6.00 Build 0)  -->
<svg version="1.1" id="icon" xmlns="http://www.w3.org/2000/svg" xmlns:xlink="http://www.w3.org/1999/xlink" x="0px" y="0px"
	 viewBox="0 0 512 512" style="enable-background:new 0 0 512 512;" xml:space="preserve">
<path d="M322.3,8.7C222.3-18.1,116,18,53,100.1c-63,82.1-70.4,194.1-18.6,283.8c33.8,58.9,89.8,101.8,155.4,119.2
	c21.7,5.8,44.1,8.8,66.7,8.8c91.4-0.2,175.7-49,221.3-128.2c45.6-79.2,45.6-176.7-0.1-255.8C443.9,69.1,387.9,26.1,322.3,8.7z
	 M486.8,317.8c-25,93.3-103.8,162.4-199.6,175c-95.8,12.6-189.7-33.7-238-117.4c-42.6-73.9-42.6-164.8,0-238.7
	C91.7,62.8,170.4,17.2,255.6,17c21,0,41.9,2.8,62.2,8.2c61.2,16.4,113.4,56.4,145.1,111.3C494.6,191.4,503.2,256.6,486.8,317.8
	L486.8,317.8z"/>
<path d="M153.6,78.7c6.6-3.8,13.5-7.2,20.5-10.2c2.8-1.2,4.7-3.8,5.1-6.9c0.3-3-1-6-3.4-7.8c-2.5-1.8-5.7-2.2-8.5-1
	c-7.6,3.3-15,7-22.1,11.1C103.4,87.7,70.7,124.6,52,168.9c-1.8,4.3,0.2,9.3,4.5,11.2c4.3,1.8,9.3-0.2,11.2-4.5
	C85,134.7,115.1,100.7,153.6,78.7z"/>
<path d="M455.6,331.8c-2.1-0.9-4.4-0.9-6.5-0.1c-2.1,0.8-3.8,2.5-4.7,4.6c-17.3,40.9-47.5,74.9-86,96.9
	c-13.4,7.7-27.7,13.9-42.5,18.4c-4,1.2-6.6,5.3-5.9,9.4c0.6,4.2,4.2,7.3,8.5,7.2c0.8,0,1.7-0.1,2.5-0.4c16-4.9,31.4-11.6,45.9-20
	c41.7-23.9,74.5-60.8,93.2-105.1C462,338.6,460,333.6,455.6,331.8z"/>
<path d="M357.7,382c0.1-0.1,0.3-0.1,0.4-0.2c0.2-0.2,0.4-0.4,0.6-0.6c44.3-36.4,66.1-93.4,57.4-150c0-0.1-0.1-0.2-0.1-0.3
	c-5.9-39.4-26.4-75.2-57.4-100.2c-0.2-0.2-0.3-0.4-0.6-0.6c-0.1-0.1-0.2-0.1-0.3-0.1c-44.9-36.1-105.6-45.8-159.5-25.3
	c-0.1,0-0.2,0-0.3,0.1l-0.1,0.1c-15.9,5.8-30.6,14.3-43.6,25.1c-0.1,0.1-0.3,0.1-0.4,0.2c-0.2,0.2-0.4,0.4-0.6,0.6
	c-44.3,36.4-66.1,93.4-57.4,150c0,0.1,0.1,0.2,0.1,0.3c8.5,57.4,47.3,105.8,101.4,126.7C251.6,428.6,312.8,418.8,357.7,382z
	 M289.8,295.5c-0.2,0.1-0.5,0.3-0.7,0.4l-7.3,4.3l-14.9,8.6c-2.3,1.4-3.8,3.8-4.1,6.5c-5.5,0.6-11.1,0.4-16.6-0.5
	c-1.2-4.1-4-7.7-7.7-9.8l-15.9-9.2c-3.8-2.1-8.2-2.8-12.4-1.8c-2.1-2.5-4.1-5.2-5.7-8.1c-1.6-2.9-3-5.8-4.1-8.9
	c3-3.2,4.7-7.4,4.7-11.7v-18.4c0-4.3-1.7-8.5-4.6-11.7c1.9-5.2,4.6-10.1,7.9-14.6c2.4,1.2,5.3,1.1,7.6-0.3l6.3-3.7
	c0.1-0.1,0.2-0.1,0.3-0.1c0.2-0.1,0.5-0.3,0.7-0.4l7.3-4.3l14.9-8.6c2.3-1.4,3.8-3.8,4.1-6.5c5.5-0.6,11.1-0.4,16.6,0.5
	c1.3,4.2,4.1,7.7,7.8,9.8l15.9,9.2c3.8,2.2,8.3,2.8,12.5,1.8c2.1,2.5,4,5.2,5.7,8.1c1.6,2.9,3,5.8,4.1,8.9c-3,3.2-4.7,7.4-4.7,11.7
	v18.4c0,4.3,1.7,8.5,4.6,11.7c-1.9,5.2-4.6,10.1-7.9,14.6c-2.4-1.1-5.3-1-7.6,0.3l-6.2,3.6C290.1,295.4,289.9,295.4,289.8,295.5z
	 M171.2,372l42.8-61.6l15.9,9.2l-32,67.8L171.2,372z M112.1,240.4l75.7,6.3v18.5l-75.8,6.3C110.9,261.2,110.9,250.7,112.1,240.4
	L112.1,240.4z M341.6,138.9l-43.5,62.6l-15.9-9.2l32.5-68.9C324.2,127.6,333.2,132.8,341.6,138.9L341.6,138.9z M400,271.5l-75.7-6.3
	v-18.5l75.8-6.3C401.2,250.7,401.2,261.2,400,271.5L400,271.5z M354.8,362.1L315,304.9c5.5-6.6,9.8-14.2,12.9-22.2l69.3,5.8
	C390.7,316.7,376,342.3,354.8,362.1z M381.7,183.4c7.2,12.5,12.5,26,15.7,40.1l-69.5,5.8c-1.4-4.1-3.2-8-5.3-11.8
	c-2.2-3.7-4.7-7.3-7.5-10.6l39.8-57.2C365.4,159.6,374.4,171,381.7,183.4z M255.8,110.9c14.5,0,28.9,2.2,42.8,6.5l-29.7,63
	c-8.5-1.5-17.2-1.5-25.8-0.1l-29.7-63C227.2,113.1,241.5,110.9,255.8,110.9z M183.5,130.3c4.5-2.6,9.1-4.9,13.9-7l32.4,68.9
	l-8.2,4.8l-7.7,4.4l-43.5-62.6C174.7,135.8,179,133,183.5,130.3z M157.3,149.8l39.7,57.2c-5.5,6.6-9.8,14.2-12.9,22.2l-69.3-5.8
	C121.4,195.3,136.2,169.6,157.3,149.8z M130.5,328.5c-7.2-12.5-12.5-26-15.7-40.1l69.5-5.8c1.4,4.1,3.2,8,5.4,11.7
	c2.2,3.7,4.7,7.2,7.5,10.5l-39.8,57.3C146.7,352.3,137.7,341,130.5,328.5z M213.5,394.4l29.7-62.9c4.3,0.8,8.7,1.2,13.1,1.3
	c4.2,0,8.5-0.4,12.6-1.2l29.7,62.9C270.9,403,241.2,402.9,213.5,394.4z M314.7,388.6l-32.4-68.9l8.2-4.8l7.7-4.4l43.5,62.6
	C333.3,379.2,324.3,384.4,314.7,388.6L314.7,388.6z"/>
<path d="M264.9,223c-15.7-4.2-32.2,3.3-39.4,17.9c-7.2,14.6-3.1,32.3,9.8,42.2c12.9,9.9,31,9.3,43.3-1.4c12.2-10.7,15.2-28.6,7-42.7
	C281.1,231,273.6,225.3,264.9,223z M272.6,260.4c-2.3,8.5-10.7,13.9-19.4,12.4c-8.7-1.5-14.8-9.5-14-18.3c0.8-8.8,8.1-15.6,17-15.6
	c1.5,0,3,0.2,4.4,0.6c4.4,1.2,8.1,4,10.4,8C273.1,251.3,273.7,256,272.6,260.4L272.6,260.4z"/>
<path d="M204.9,51.2c0,4.7-3.8,8.5-8.5,8.5c-4.7,0-8.5-3.8-8.5-8.5c0-4.7,3.8-8.5,8.5-8.5C201.1,42.7,204.9,46.5,204.9,51.2z"/>
</svg>
