<?xml version="1.0" encoding="utf-8"?>
<!-- Generator: Adobe Illustrator 23.0.2, SVG Export Plug-In . SVG Version: 6.00 Build 0)  -->
<svg version="1.1" id="Слой_1" xmlns="http://www.w3.org/2000/svg" xmlns:xlink="http://www.w3.org/1999/xlink" x="0px" y="0px"
	 viewBox="0 0 120 120" style="enable-background:new 0 0 120 120;" xml:space="preserve">
<style type="text/css">
	.st0{fill-rule:evenodd;clip-rule:evenodd;fill:url(#bg_1_);}
	.st1{fill:#CCA70D;}
	.st2{fill:#7C75AA;}
	.st3{fill:#CECECE;}
</style>
<title>iTunes</title>
<g>
	<g id="iTunes">
		
			<linearGradient id="bg_1_" gradientUnits="userSpaceOnUse" x1="-242.4583" y1="454.2083" x2="-242.4583" y2="453.2083" gradientTransform="matrix(120 0 0 -120 29155 54505)">
			<stop  offset="7.821229e-02" style="stop-color:#731BE1"/>
			<stop  offset="0.8436" style="stop-color:#E75BA2"/>
		</linearGradient>
		<path id="bg" class="st0" d="M28,0h64c15.5,0,28,12.5,28,28v64c0,15.5-12.5,28-28,28H28c-15.5,0-28-12.5-28-28V28
			C0,12.5,12.5,0,28,0z"/>
	</g>
</g>
<path class="st1" d="M73.7,25.2c-1.7,0-3.3,0.7-4.4,1.8L26.5,69.6c-1.2,1.2-1.8,2.8-1.8,4.5c0,1.7,0.7,3.3,1.8,4.5L50,102
	c1.2,1.2,2.8,1.8,4.4,1.8s3.3-0.7,4.4-1.8l37.7-37.5c1.2-1.2,1.8-2.8,1.8-4.5v-9.3c0-1.7-0.6-3.2-1.7-4.4L78.2,27.1
	C77,25.9,75.4,25.2,73.7,25.2z"/>
<path class="st2" d="M77.7,68L57.3,88.7c-1.3,1.3-3.3,1.3-4.6,0L40.4,76.2c-1.3-1.3-1.3-3.4,0-4.7l20.5-20.8c1.3-1.3,3.3-1.3,4.6,0
	l12.3,12.5C79,64.6,79,66.7,77.7,68z"/>
<path class="st3" d="M77.7,63.3l-3.3-3.4l-0.8-0.8l-8.2-8.4c-0.6-0.7-1.5-1-2.3-1c-0.9,0-1.7,0.3-2.3,1l-2.3,2.3l-1.7,1.7l-5,5
	l-0.3,0.3l-6.3,6.5l-1.7,1.7l-3.2,3.2c-1.3,1.3-1.3,3.4,0,4.7l3.3,3.3l0.9,0.9l4.2,4.2l1.7,1.7l2.4,2.5c0.6,0.7,1.5,1,2.3,1
	c0.9,0,1.7-0.3,2.3-1l3.1-3.2l1.7-1.7L77.7,68C79,66.7,79,64.6,77.7,63.3L77.7,63.3z M58.1,56.1l3.4,3.5l-5,5.1l-3.4-3.5
	C53.2,61.2,58.1,56.1,58.1,56.1z M51.4,62.9l3.4,3.5l-5,5.1L46.5,68C46.5,68,51.4,62.9,51.4,62.9z M41.7,72.8l3.1-3.2l3.4,3.5
	l-4.2,4.2l-2.5-2.5C41.1,74.3,41.1,73.4,41.7,72.8z M45.8,79.1l19.1-19.5L64,58.7l-4.2-4.4l2.3-2.4c0.2-0.2,0.6-0.4,1-0.4
	s0.7,0.1,1,0.4l8.2,8.4L49.9,83.3L45.8,79.1z M69,67.2l3.4,3.5l-5,5L64,72.3L69,67.2z M56,87.4c-0.2,0.2-0.6,0.4-1,0.4
	c-0.4,0-0.7-0.1-1-0.4L51.6,85l4.2-4.2l3.4,3.5C59.2,84.2,56,87.4,56,87.4z M57.4,79l5-5.1l3.4,3.5l-5,5C60.8,82.5,57.4,79,57.4,79z
	 M76.4,66.7L74.1,69l-3.4-3.5l3.3-3.4l2.4,2.5C77,65.1,77,66.1,76.4,66.7z"/>
</svg>
