<?xml version="1.0" encoding="utf-8"?>
<!-- Generator: Adobe Illustrator 23.1.0, SVG Export Plug-In . SVG Version: 6.00 Build 0)  -->
<svg version="1.1" id="icon" xmlns="http://www.w3.org/2000/svg" xmlns:xlink="http://www.w3.org/1999/xlink" x="0px" y="0px"
	 viewBox="0 0 1091 1091" style="enable-background:new 0 0 1091 1091;" xml:space="preserve">
<g id="surface1">
	<path d="M272.7,355.9c-3.9-17.9-19.7-30.6-38-30.6v77.8c7.2,0,14.2-2,20.3-5.8L272.7,355.9z"/>
	<path d="M235.6,541.4l114.4-266.8l-35.8-15.3L199.8,526c-79.3-23-162.7,19.6-190.6,97.3c-27.9,77.7,9.4,163.7,85.2,196.3
		c75.8,32.7,163.9,0.8,201.3-72.8C333,673.2,306.7,583.2,235.6,541.4z M156.9,792.2c-45.1,0.2-86.4-25.7-105.8-66.4
		c-19.5-40.7-13.7-89,14.8-124c28.5-35,74.6-50.5,118.5-39.7l-15.8,36.7c-3.9-0.7-7.8-1.1-11.7-1.2c-38.6-0.4-71.8,27.1-78.4,65.1
		c-6.7,38,15.2,75.2,51.6,87.9c36.4,12.7,76.7-2.8,95.1-36.7c18.4-33.9,9.6-76.1-20.8-99.8l15.4-36h1.3
		c43.1,28.3,62.5,81.6,47.7,131C254,758.5,208.5,792.3,156.9,792.2z"/>
	<path d="M530.3,539.3h-66.5c-1.3,0-2.5,0.6-3.2,1.7c-0.7,1.1-0.9,2.4-0.4,3.6l21.2,53h74.8l-22.4-55.9
		C533.3,540.2,531.9,539.3,530.3,539.3z"/>
	<path d="M748.8,422.5c18.3,0,36.4-2.9,53.8-8.7c16.8-5.6,34.3-9,52-10.2c0.9-0.3,1.9-0.4,2.8-0.6h19.5c10.8,0,19.5-8.7,19.5-19.5
		c0-10.7-8.7-19.5-19.5-19.5h-8.2c-18.3,0-36.5,2.9-53.8,8.7c-21.3,7.1-43.7,10.7-66.2,10.7H612.5c5.1,12.5,8.5,25.6,10.1,38.9
		H748.8z"/>
	<path d="M728.7,500.4l19.5-38.9H630.6l11.7,38.9H728.7z"/>
	<path d="M578.2,422.5L564,376.1c-21.6-31.7-57.4-50.7-95.8-50.8h-77.8c-32.2,0-58.4,26.1-58.4,58.4v19.5c0,10.7,8.7,19.5,19.5,19.5
		H578.2z"/>
	<path d="M546.1,496.5c0,2.3-0.3,4.6-0.7,6.9c11.2,4.1,20.2,12.8,24.6,23.9l28.2,70.4h25.7c2.5,0,4.8,0.5,7.1,0.7l-21.5-71.7
		c-0.2-0.4-0.5-0.8-0.6-1.3l-19-63.9h-43.9V496.5z"/>
	<path d="M421.3,539.3c1.9-22.1,20.4-39,42.5-38.9h39.5c2.1,0,3.9-1.7,3.9-3.9v-35H351.5c-2.5-0.1-5-0.3-7.5-0.8l33.1,85.1
		c6.3-4.2,13.6-6.5,21.2-6.5H421.3z"/>
	<path d="M935.3,694.9V656H701.2l-1.2,2.7h-0.1c0.2,1.1,0.4,2.2,0.6,3.3c1.9,9,1.9,18.2,0,27.2c-0.2,1.3-0.4,2.6-0.7,3.9
		c-0.1,0.7-0.2,1.4-0.4,2.1h236V694.9z"/>
	<path d="M954.7,733.9h-70.8c3.2,2.8,6.6,5.2,10.1,7.5c1.1,0.7,2.3,1.3,3.5,1.9c2.6,1.5,5.2,2.8,8,3.9c1.4,0.6,2.8,1.1,4.2,1.6
		c2.8,1,5.7,1.8,8.6,2.4c1.3,0.3,2.6,0.7,3.9,0.9c4.3,0.8,8.7,1.2,13.1,1.3c43,0,77.8-34.9,77.8-77.8c0-43-34.8-77.8-77.8-77.8
		c-4.3,0-8.7,0.4-13,1.2c-1.3,0.2-2.6,0.6-3.9,0.9c-2.9,0.6-5.8,1.5-8.6,2.4c-1.4,0.5-2.8,1-4.2,1.6c-2.7,1.1-5.4,2.4-8,3.9
		c-1.2,0.6-2.3,1.2-3.5,2c-3.6,2.2-7,4.7-10.1,7.5h70.7c10.8,0,19.5,8.7,19.5,19.5v77.8c0,5.2-2,10.1-5.7,13.8
		C964.9,731.8,959.9,733.9,954.7,733.9z"/>
	<path d="M935.3,519.8c-63.5-0.3-120.7,38.3-144.3,97.3h43.2c0.4-0.7,0.9-1.2,1.2-1.9c1.1-1.9,2.4-3.6,3.7-5.4
		c1.8-2.7,3.7-5.3,5.7-7.8c1.4-1.7,2.9-3.4,4.4-5c2.1-2.3,4.3-4.6,6.6-6.7c1.7-1.6,3.4-3,5.1-4.5c2.4-2,4.8-3.8,7.4-5.6
		c1.9-1.3,3.7-2.6,5.6-3.8c2.7-1.6,5.4-3.1,8.1-4.5c1.9-1,3.9-2.1,5.8-3c3-1.3,6-2.4,9.1-3.5c1.9-0.7,3.9-1.5,5.8-2
		c3.5-1,7-1.7,10.6-2.4c1.8-0.3,3.5-0.8,5.3-1.1c45.3-6.5,90.2,13.9,114.9,52.4c24.7,38.5,24.7,87.8,0,126.3
		c-24.7,38.5-69.7,59-114.9,52.4c-1.8-0.2-3.5-0.7-5.3-1.1c-3.5-0.7-7.1-1.4-10.5-2.3c-2-0.6-3.9-1.4-6-2.1
		c-3.1-1.1-6.1-2.1-9.1-3.5c-1.9-0.9-3.9-1.9-5.8-2.9c-2.8-1.4-5.5-2.9-8.2-4.5c-1.9-1.2-3.8-2.5-5.6-3.8c-2.5-1.8-5-3.6-7.4-5.6
		c-1.7-1.4-3.4-2.9-5.1-4.5c-2.3-2.1-4.5-4.4-6.6-6.7c-1.5-1.7-3-3.3-4.4-5c-1.9-2.5-3.9-5.2-5.7-7.8c-1.2-1.8-2.5-3.6-3.7-5.4
		c-0.4-0.7-0.9-1.2-1.2-1.9H791c29.3,72.6,108,112.1,183.8,92.2c75.7-19.8,124.9-92.8,114.9-170.5
		C1079.7,577.9,1013.6,519.8,935.3,519.8z"/>
	<path d="M654,539.3l23,76.6l35.8-76.6H654z"/>
	<path d="M431.7,578.2h-33.5l17.1,40.6c7.6-7,16.5-12.5,26.2-16.1L431.7,578.2z"/>
	<path d="M507.2,675.5c0,21.5-17.4,38.9-38.9,38.9c-21.5,0-38.9-17.4-38.9-38.9c0-21.5,17.4-38.9,38.9-38.9
		C489.8,636.6,507.2,654,507.2,675.5z"/>
	<path d="M661.4,665.5c-1.6-5.9-4.6-11.4-8.7-16c-0.1-0.1-0.2-0.3-0.3-0.4c-7.3-8-17.7-12.6-28.5-12.6h-88.6
		c14.4,23.9,14.4,53.9,0,77.8h88.6c10.9,0,21.2-4.6,28.5-12.6c0.1-0.1,0.2-0.3,0.3-0.4c4.1-4.6,7-10,8.7-16c0.2-0.6,0.4-1.1,0.5-1.7
		c1.2-5.4,1.2-11,0-16.5C661.8,666.7,661.6,666.1,661.4,665.5z"/>
</g>
</svg>
