<?xml version="1.0" encoding="utf-8"?>
<!-- Generator: Adobe Illustrator 23.1.0, SVG Export Plug-In . SVG Version: 6.00 Build 0)  -->
<svg version="1.1" id="Слой_1" xmlns="http://www.w3.org/2000/svg" xmlns:xlink="http://www.w3.org/1999/xlink" x="0px" y="0px"
	 viewBox="0 0 743 510" style="enable-background:new 0 0 743 510;" xml:space="preserve">
<style type="text/css">
	.st0{fill:#BABABA;}
</style>
<g>
	<path d="M711.2,6H34.8C20.1,6,8,18.1,8,32.8v446.3C8,493.9,20.1,506,34.8,506h676.3c14.8,0,26.8-12.1,26.8-26.8V32.8
		C738,18.1,725.9,6,711.2,6z M719,472.2c0,9.3-7.6,16.8-16.8,16.8H44.8c-9.3,0-16.8-7.6-16.8-16.8V40.8C28,31.6,35.6,24,44.8,24
		h657.3c9.3,0,16.8,7.6,16.8,16.8v431.4H719z"/>
	<path class="st0" d="M711.2,6c14.7,0,26.8,12.1,26.7,26.8v446.4c0,14.7-12,26.8-26.8,26.8H34.8C20.1,506,8,493.9,8,479.1V32.8
		C8,18.1,20.1,6,34.8,6H711.2 M44.8,489h657.4c9.2,0,16.8-7.5,16.8-16.8h-0.1V40.8c0-9.2-7.5-16.8-16.8-16.8H44.8
		C35.6,24,28,31.6,28,40.8v431.4C28,481.4,35.5,489,44.8,489 M711.2,5H34.8C19.5,5,7,17.5,7,32.8v446.3C7,494.5,19.5,507,34.8,507
		h676.3c15.3,0,27.8-12.5,27.8-27.8V32.8c0-7.3-2.8-14.3-8.1-19.6C725.6,7.9,718.6,5,711.2,5L711.2,5z"/>
</g>
</svg>
