<?xml version="1.0" encoding="utf-8"?>
<!-- Generator: Adobe Illustrator 23.1.0, SVG Export Plug-In . SVG Version: 6.00 Build 0)  -->
<svg version="1.1" id="icon" xmlns="http://www.w3.org/2000/svg" xmlns:xlink="http://www.w3.org/1999/xlink" x="0px" y="0px"
	 viewBox="0 0 512 512" style="enable-background:new 0 0 512 512;" xml:space="preserve">
<path d="M68.3,154.5c-4.2-2.1-9.3-0.4-11.4,3.9c-30.3,61.6-30.3,133.7,0,195.3c2.1,4.2,7.2,5.9,11.4,3.8c4.2-2.1,5.9-7.2,3.9-11.4
	c-28-56.8-28-123.4,0-180.2C74.2,161.7,72.5,156.5,68.3,154.5z"/>
<path d="M443.7,357.5c4.2,2.1,9.3,0.4,11.4-3.9c30.3-61.6,30.3-133.7,0-195.3c-2.1-4.2-7.2-5.9-11.4-3.8c-4.2,2.1-5.9,7.2-3.9,11.4
	c28,56.8,28,123.4,0,180.2C437.8,350.3,439.5,355.5,443.7,357.5z"/>
<path d="M341.3,153.6c-14.1,0-25.6,11.5-25.6,25.6v51.2h-34.1v-51.2c0-14.1-11.5-25.6-25.6-25.6s-25.6,11.5-25.6,25.6v51.2h-34.1
	v-51.2c0-14.1-11.5-25.6-25.6-25.6c-14.1,0-25.6,11.5-25.6,25.6v153.6c0,14.1,11.5,25.6,25.6,25.6c14.1,0,25.6-11.5,25.6-25.6v-51.2
	h34.1v51.2c0,14.1,11.5,25.6,25.6,25.6s25.6-11.5,25.6-25.6v-51.2h34.1v51.2c0,14.1,11.5,25.6,25.6,25.6c14.1,0,25.6-11.5,25.6-25.6
	V179.2C366.9,165.1,355.5,153.6,341.3,153.6z M349.9,332.8c0,4.7-3.8,8.5-8.5,8.5c-4.7,0-8.5-3.8-8.5-8.5v-59.7
	c0-4.7-3.8-8.5-8.5-8.5h-51.2c-4.7,0-8.5,3.8-8.5,8.5v59.7c0,4.7-3.8,8.5-8.5,8.5s-8.5-3.8-8.5-8.5v-59.7c0-4.7-3.8-8.5-8.5-8.5
	h-51.2c-4.7,0-8.5,3.8-8.5,8.5v59.7c0,4.7-3.8,8.5-8.5,8.5c-4.7,0-8.5-3.8-8.5-8.5V179.2c0-4.7,3.8-8.5,8.5-8.5
	c4.7,0,8.5,3.8,8.5,8.5v59.7c0,4.7,3.8,8.5,8.5,8.5h51.2c4.7,0,8.5-3.8,8.5-8.5v-59.7c0-4.7,3.8-8.5,8.5-8.5s8.5,3.8,8.5,8.5v59.7
	c0,4.7,3.8,8.5,8.5,8.5h51.2c4.7,0,8.5-3.8,8.5-8.5v-59.7c0-4.7,3.8-8.5,8.5-8.5c4.7,0,8.5,3.8,8.5,8.5V332.8z"/>
<path d="M157.4,93l4.7-2.4v45.9c0,4.7,3.8,8.5,8.5,8.5c4.7,0,8.5-3.8,8.5-8.5V76.8c0-3-1.5-5.7-4-7.3s-5.7-1.7-8.3-0.4l-17.1,8.5
	c-4.2,2.1-5.9,7.2-3.8,11.5C148.1,93.4,153.2,95.1,157.4,93L157.4,93z"/>
<path d="M256,128c-4.6,0-8.5-2.9-8.5-6.4c0-4.7-3.8-8.5-8.5-8.5c-4.7,0-8.5,3.8-8.5,8.5c1.1,13.3,12.3,23.5,25.6,23.5
	s24.5-10.2,25.6-23.5c0-5.6-2.2-10.9-6-14.9c3.8-4.1,5.9-9.4,6-14.9c-1.1-13.3-12.3-23.5-25.6-23.5s-24.5,10.2-25.6,23.5
	c0,4.7,3.8,8.5,8.5,8.5c4.7,0,8.5-3.8,8.5-8.5c0-3.5,3.9-6.4,8.5-6.4s8.5,2.9,8.5,6.4s-3.9,6.4-8.5,6.4c-4.7,0-8.5,3.8-8.5,8.5
	c0,4.7,3.8,8.5,8.5,8.5c4.6,0,8.5,2.9,8.5,6.4S260.6,128,256,128z"/>
<path d="M358.4,85.3c4.7,0,8.5-3.8,8.5-8.5c0-4.7-3.8-8.5-8.5-8.5h-34.1c-4.7,0-8.5,3.8-8.5,8.5v25.6c0,4.7,3.8,8.5,8.5,8.5h17.1
	c2.3,0,4.5,0.9,6.1,2.6c1.4,1.4,2.3,3.3,2.4,5.2c0.1,4.3-2.8,8-7,9.1c-3.8,0.7-7.5-1.2-9.2-4.6c-1.3-2.9-4-4.8-7.2-5
	c-3.1-0.2-6.1,1.3-7.8,3.9c-1.7,2.6-1.8,6-0.2,8.7c4.3,8.7,13.2,14.2,22.9,14.2c1.4,0,2.9-0.1,4.3-0.3c11.8-2.2,20.5-12.2,21.1-24.2
	c0.1-0.3,0.1-0.7,0.2-1.1c0-0.1,0-0.9,0-0.9v-0.1c0-0.1-0.1-0.2-0.1-0.3c-0.8-13.6-11.9-24.2-25.5-24.2h-8.5v-8.5H358.4z"/>
<path d="M171.3,420.9c20.6-9.3,25-20.5,25-28.3c0-14.1-11.5-25.6-25.6-25.6c-14.1,0-25.6,11.5-25.6,25.6c0,4.7,3.8,8.5,8.5,8.5
	c4.7,0,8.5-3.8,8.5-8.5c0-4.7,3.8-8.5,8.5-8.5c4.7,0,8.5,3.8,8.5,8.5c0,3.7-5.7,8.6-14.9,12.8c-11.8,5.3-19.3,17-19.2,29.9
	c0,4.7,3.8,8.5,8.5,8.5h34.1c4.7,0,8.5-3.8,8.5-8.5c0-4.7-3.8-8.5-8.5-8.5h-23.2C166.2,424.1,168.5,422.1,171.3,420.9z"/>
<path d="M366.9,392.5c0-14.1-11.5-25.6-25.6-25.6h-17.1c-4.7,0-8.5,3.8-8.5,8.5v59.7c0,4.7,3.8,8.5,8.5,8.5c4.7,0,8.5-3.8,8.5-8.5
	v-17.1h4l14.5,21.8c1.7,2.5,4.6,4,7.7,3.8c3-0.2,5.8-2,7.1-4.7c1.3-2.7,1.1-6-0.6-8.5l-10.8-16.2
	C362.3,409.7,366.9,401.4,366.9,392.5z M332.8,384h8.5c4.7,0,8.5,3.8,8.5,8.5c0,4.7-3.8,8.5-8.5,8.5h-8.5V384z"/>
<path d="M273.1,401.1v-25.6c0-4.7-3.8-8.5-8.5-8.5c-4.7,0-8.5,3.8-8.5,8.5v25.6h-8.5v-25.6c0-4.7-3.8-8.5-8.5-8.5
	c-4.7,0-8.5,3.8-8.5,8.5v25.6c0,9.4,7.6,17.1,17.1,17.1h8.5v17.1c0,4.7,3.8,8.5,8.5,8.5c4.7,0,8.5-3.8,8.5-8.5v-17.1
	c4.7,0,8.5-3.8,8.5-8.5C281.6,404.9,277.8,401.1,273.1,401.1z"/>
<path d="M256,0C114.6,0,0,114.6,0,256s114.6,256,256,256s256-114.6,256-256C511.8,114.7,397.3,0.2,256,0z M256,494.9
	C124,494.9,17.1,388,17.1,256S124,17.1,256,17.1S494.9,124,494.9,256C494.8,387.9,387.9,494.8,256,494.9z"/>
</svg>
