<?xml version="1.0" encoding="utf-8"?>
<!-- Generator: Adobe Illustrator 23.0.2, SVG Export Plug-In . SVG Version: 6.00 Build 0)  -->
<svg version="1.1" id="Слой_1" xmlns="http://www.w3.org/2000/svg" xmlns:xlink="http://www.w3.org/1999/xlink" x="0px" y="0px"
	 viewBox="0 0 278 92" style="enable-background:new 0 0 278 92;" xml:space="preserve">
<style type="text/css">
	.st0{fill:#FFFFFF;}
</style>
<g transform="translate(0.000000,92.000000) scale(0.100000,-0.100000)">
	<path class="st0" d="M0,597V273l23-21c22-20,33-22,164-22h141l26,31c26,31,26,31,26,221v190l-34,34l-34,34H211H110v90v90H55H0V597z
		 M260,480V340h-75h-75v140v140h75h75V480z"/>
	<path class="st0" d="M1230,830v-90h-101h-101l-34-34l-34-34V479V286l27-28l27-28h138c134,0,140,1,163,25c25,24,25,25,25,232
		c0,114,3,259,7,321l6,112h-61h-62V830z M1230,480V340h-80h-80v140v140h80h80V480z"/>
	<path class="st0" d="M524,703c-4-16-2-36,7-52c14-25,19-26,112-29l97-3v-28v-28l-88,3c-73,3-93,0-119-16c-64-38-72-71-64-247
		c1-6,13-25,27-42l26-31h142c198,0,186-16,186,251c0,264,11,249-183,249H530L524,703z M740,390v-50h-75h-75v50v50h75h75V390z"/>
	<path class="st0" d="M1471,704c-20-25-21-40-21-224c0-259-5-250,156-250c63,0,114-2,114-5s-31-35-70-71c-38-37-70-74-70-84
		c0-30,39-70,68-70c21,0,46,19,105,78l77,77v257v256l-26,31l-26,31h-143C1492,730,1491,730,1471,704z M1713,477l2-138l-78,3l-78,3
		l-2,138l-2,138l78-3l78-3L1713,477z"/>
	<path class="st0" d="M1956,699c-26-30-26-31-26-219s0-189,26-219l26-31h159c177,0,179,1,179,74v36h-134h-134l-4,40l-4,40h138h138
		v124c0,119-1,126-26,155l-26,31h-143h-143L1956,699z M2200,580v-40h-75h-75v40v40h75h75V580z"/>
	<path class="st0" d="M2436,697l-26-34V447V230h60h60v195v195h64h65l3-32c4-45,49-68,87-47c22,12,26,23,29,68c3,44-1,58-23,87
		l-26,34h-134h-134L2436,697z"/>
</g>
</svg>
