<?xml version="1.0" encoding="utf-8"?>
<!-- Generator: Adobe Illustrator 21.1.0, SVG Export Plug-In . SVG Version: 6.00 Build 0)  -->
<svg id="icon" version="1.1" xmlns="http://www.w3.org/2000/svg" xmlns:xlink="http://www.w3.org/1999/xlink" x="0px" y="0px"
	 viewBox="0 0 512 512" style="enable-background:new 0 0 512 512;" xml:space="preserve">
<g id="Capa_1">
	<g>
		<g>
			<path d="M275.9,379.4c0.1,0,0.2,0.1,0.3,0.1c0.4,0.2,0.8,0.4,1.3,0.6C276.9,379.9,276.4,379.6,275.9,379.4z M275.9,379.4
				c0.1,0,0.2,0.1,0.3,0.1c0.4,0.2,0.8,0.4,1.3,0.6C276.9,379.9,276.4,379.6,275.9,379.4z M247.9,235.3c0.8-1.2,1.7-2.4,2.5-3.6
				C249.5,232.8,248.7,234,247.9,235.3z M275.9,379.4c0.1,0,0.2,0.1,0.3,0.1c0.4,0.2,0.8,0.4,1.3,0.6
				C276.9,379.9,276.4,379.6,275.9,379.4z M247.9,235.3c0.8-1.2,1.7-2.4,2.5-3.6C249.5,232.8,248.7,234,247.9,235.3z M247.9,235.3
				c0.8-1.2,1.7-2.4,2.5-3.6C249.5,232.8,248.7,234,247.9,235.3z M275.9,379.4c0.1,0,0.2,0.1,0.3,0.1c0.4,0.2,0.8,0.4,1.3,0.6
				C276.9,379.9,276.4,379.6,275.9,379.4z M247.9,235.3c0.8-1.2,1.7-2.4,2.5-3.6C249.5,232.8,248.7,234,247.9,235.3z M247.9,235.3
				c0.8-1.2,1.7-2.4,2.5-3.6C249.5,232.8,248.7,234,247.9,235.3z M275.9,379.4c0.1,0,0.2,0.1,0.3,0.1c0.4,0.2,0.8,0.4,1.3,0.6
				C276.9,379.9,276.4,379.6,275.9,379.4z M275.9,379.4c0.1,0,0.2,0.1,0.3,0.1c0.4,0.2,0.8,0.4,1.3,0.6
				C276.9,379.9,276.4,379.6,275.9,379.4z M250.4,231.7c-0.9,1.2-1.7,2.3-2.5,3.6C248.7,234,249.5,232.9,250.4,231.7z M457.7,303.3
				c-4.1,0-7.6,2.9-8.4,6.9c-12,59.8-65,105-128.3,105c-25.8,0-49.9-7.5-70.2-20.5l-6.5-4.9c-6.6,7.9-14.5,14.6-23.5,19.7
				c-0.4,0.2-0.8,0.5-1.2,0.7c-0.3,0.2-0.6,0.4-0.9,0.5c-0.1,0.1-0.1,0.1-0.2,0.1c-0.6,0.3-1.2,0.6-1.8,0.9
				c-10.3,5.3-21.6,8.5-33.4,9.4c-0.7,0.1-1.4,0.1-2.1,0.1c-0.1,0-0.2,0-0.3,0c-0.7,0-1.4,0.1-2.1,0.1h0c-0.7,0-1.4,0-2.2,0h-0.1
				c-0.7,0-1.5,0-2.2,0c-47.5-1.2-85.7-40.2-85.7-88c0-47.8,38.3-86.8,85.7-88c0.7,0,1.4,0,2.2,0c0.3,0,0.6,0,0.9,0
				c6.2,0.1,12.2,0.7,18,2c6.6-22.4,19.2-43,36.6-59.2c1.2-1.2,2.1-2.6,2.5-4.3l9.3-38.1c1.1-4.5,3.9-12.1,10.4-12.1h49.6
				c4.8,0,8.6-3.9,8.6-8.6v0c0-4.8-3.9-8.6-8.6-8.6h-49.6c-13.1,0-23.2,9.5-27.1,25.3l-5.8,23.9h-36V84c0-14.3,11.6-25.8,25.8-25.8
				h75.5c14.3,0,25.8,11.6,25.8,25.8V108c0,4.8,3.9,8.6,8.6,8.6l0,0c4.8,0,8.6-3.9,8.6-8.6V84c0-23.8-19.3-43-43-43H211
				c-23.8,0-43,19.3-43,43v90.3c0,4.7,3.9,8.6,8.6,8.6H213c-12.5,13.3-22.3,28.8-29.2,45.6c-2.4-0.2-4.8-0.3-7.2-0.3
				c-58,0-105.2,47.2-105.2,105.2c0,28.6,11.5,54.7,30.2,73.7c0.2,0.3,0.4,0.5,0.6,0.7c6,6,4.8,16.4-3.4,20.6
				c-0.5,0.3-1.1,0.5-1.7,0.7c-4.4,1.3-8.8,0.4-12.1-2.2c-24.3-23.8-39.4-56.9-39.4-93.5c0-36.3,15.3-71.3,41.9-96
				c1.2-1.1,2.1-2.6,2.5-4.3l9.3-38.1c0.8-3.4,3.4-11.4,9.3-12.1c4.7-0.6,8.1-4.8,7.5-9.5c-0.6-4.7-4.8-8.1-9.6-7.5
				C95,167.3,86.2,176.4,82.7,191L74,226.7C45,254.5,28.5,293.3,28.5,333.5c0,40.4,16.3,77.1,42.6,103.9c0.2,0.3,0.5,0.6,0.7,0.9
				c0.5,0.5,1.1,1.1,1.7,1.6c26.7,25.8,63,41.8,103,41.8c43.9,0,84.8-19.1,113.1-52.5c10.1,2.2,20.5,3.3,31.3,3.3
				c71.6,0,131.6-51.1,145.2-118.8C467.2,308.3,463.1,303.3,457.7,303.3L457.7,303.3z M176.6,464.3c-25.8,0-49.9-7.5-70.2-20.4
				c2.9-1.4,5.6-3.4,8-5.7c4.2-4.1,6.8-9.2,8-14.6c15.8,9.5,34.4,15.1,54.2,15.1c26,0,50.5-9.3,69.8-26.5
				c7.9,4.6,16.2,8.5,24.9,11.6C246.6,449.7,212.8,464.3,176.6,464.3z M277.5,380.1c-0.5-0.2-1-0.5-1.5-0.7c0.1,0,0.2,0.1,0.3,0.1
				C276.6,379.7,277,379.9,277.5,380.1z M250.4,231.7c-0.9,1.2-1.7,2.3-2.5,3.6C248.7,234,249.5,232.9,250.4,231.7z M247.9,235.3
				c0.8-1.2,1.7-2.4,2.5-3.6C249.5,232.8,248.7,234,247.9,235.3z M275.9,379.4c0.1,0,0.2,0.1,0.3,0.1c0.4,0.2,0.8,0.4,1.3,0.6
				C276.9,379.9,276.4,379.6,275.9,379.4z M275.9,379.4c0.1,0,0.2,0.1,0.3,0.1c0.4,0.2,0.8,0.4,1.3,0.6
				C276.9,379.9,276.4,379.6,275.9,379.4z M247.9,235.3c0.8-1.2,1.7-2.4,2.5-3.6C249.5,232.8,248.7,234,247.9,235.3z M247.9,235.3
				c0.8-1.2,1.7-2.4,2.5-3.6C249.5,232.8,248.7,234,247.9,235.3z M247.9,235.3c0.8-1.2,1.7-2.4,2.5-3.6
				C249.5,232.8,248.7,234,247.9,235.3z M247.9,235.3c0.8-1.2,1.7-2.4,2.5-3.6C249.5,232.8,248.7,234,247.9,235.3z M247.9,235.3
				c0.8-1.2,1.7-2.4,2.5-3.6C249.5,232.8,248.7,234,247.9,235.3z M247.9,235.3c0.8-1.2,1.7-2.4,2.5-3.6
				C249.5,232.8,248.7,234,247.9,235.3z M247.9,235.3c0.8-1.2,1.7-2.4,2.5-3.6C249.5,232.8,248.7,234,247.9,235.3z"/>
			<path d="M364,380.4c-13.6,6.1-28.1,9.2-43,9.2c-4.8,0-9.5-0.3-14.1-0.9c-0.1,0-0.1,0-0.2,0c-0.8-0.1-1.6-0.2-2.3-0.4
				c0,0-0.1,0-0.1,0c-0.7-0.1-1.4-0.2-2-0.4c-0.6-0.1-1.2-0.2-1.8-0.3c-0.4-0.1-0.9-0.2-1.3-0.3c-0.6-0.1-1.2-0.3-1.8-0.4
				c-0.5-0.1-1-0.2-1.5-0.4c-1.6-0.4-3.2-0.8-4.7-1.3c-0.6-0.2-1.1-0.3-1.7-0.5c-0.1,0-0.2-0.1-0.3-0.1c-0.5-0.2-1.1-0.3-1.6-0.5
				c-0.1,0-0.2-0.1-0.3-0.1c-0.5-0.2-1.1-0.4-1.6-0.6c-0.1-0.1-0.3-0.1-0.4-0.2c-0.5-0.2-1-0.4-1.4-0.5c-0.6-0.2-1.3-0.5-1.9-0.8
				c-1.4-0.6-2.8-1.2-4.1-1.8c-0.5-0.2-1-0.5-1.5-0.7c-1.4-0.7-2.5-1.8-3.3-3c-0.9-1.4-1.3-2.9-1.3-4.6c0-6.3,6.6-10.5,12.3-7.8
				c0,0,0,0,0,0c0.7,0.3,1.4,0.7,2.2,1c0.7,0.3,1.5,0.6,2.2,0.9c0.7,0.3,1.5,0.6,2.2,0.9c0.7,0.3,1.5,0.6,2.3,0.8
				c0.7,0.2,1.3,0.4,2,0.7c0.2,0.1,0.5,0.2,0.7,0.2c0.6,0.2,1.1,0.3,1.7,0.5c0.1,0,0.2,0.1,0.3,0.1c0.6,0.2,1.2,0.3,1.8,0.5
				c0.8,0.2,1.6,0.4,2.4,0.6c0.4,0.1,0.9,0.2,1.4,0.3c0.1,0,0.1,0,0.1,0c0.5,0.1,1,0.2,1.5,0.3c0.8,0.2,1.6,0.3,2.4,0.4
				c0.7,0.1,1.4,0.2,2.1,0.3c0.4,0.1,0.8,0.1,1.1,0.2c1.5,0.2,2.9,0.3,4.4,0.4c0.5,0,1.1,0.1,1.6,0.1c0.1,0,0.2,0,0.3,0
				c0.5,0,1,0.1,1.6,0.1c0.5,0,1.1,0,1.6,0.1c0.6,0,1.2,0,1.9,0c13.5,0,26.3-3,37.7-8.4c3.8-0.6,7.6,1.3,9.2,5
				C370.2,373.3,368.3,378.4,364,380.4z"/>
			<path d="M142.2,182.9c6.1,0,10.7-6.3,7.7-12.7c-1.3-2.8-4.3-4.5-7.4-4.5h0c-4.6,0-8.6,3.5-8.9,8
				C133.2,178.8,137.2,182.9,142.2,182.9z"/>
			<path d="M395.3,358.7c-1.7,1.7-3.9,2.5-6.1,2.5c-2.2,0-4.4-0.8-6.1-2.5c-2.7-2.7-3.2-6.7-1.6-9.9c0.4-0.8,0.9-1.6,1.6-2.2l0,0
				c0.7-0.7,1.5-1.2,2.3-1.7c3.2-1.6,7.2-1,9.8,1.7C398.7,349.9,398.7,355.3,395.3,358.7z"/>
		</g>
	</g>
</g>
<g id="Слой_2">
	<g>
		<g>
			<path d="M501.7,228.4c-2.7-18.4-9.1-45.6-24.7-70.5c-15.5-24.8-36.8-42.3-52-52.5c-16.7-11.3-38.5-11.7-55.6-1.2l-60.1,37.1
				c-17.8,11-27.2,32.2-23.2,52.6c1.2,6.4,2.7,12.6,4.4,18.8l-132,81.9c-2.9,1.8-4.9,4.6-5.7,7.9l-12.8,54.6
				c-1.6,6.9,2.7,13.7,9.5,15.3l54.6,12.8c6.9,1.6,13.7-2.7,15.3-9.5l5.2-22.3l22.3,5.2c6.9,1.6,13.7-2.7,15.3-9.5l5.2-22.3L290,332
				c6.9,1.6,13.7-2.7,15.3-9.5c1.6-6.9-2.7-13.7-9.5-15.3L261,299c-6.9-1.6-13.7,2.7-15.3,9.5l-5.2,22.3l-22.3-5.2
				c-6.9-1.6-13.7,2.7-15.3,9.5l-5.2,22.3l-29.8-7l8.7-37.1l135.8-84.3c5-3.1,7.2-9.2,5.4-14.8c-2.6-8.1-4.8-16.6-6.5-25.3
				c-1.9-10.2,2.7-20.7,11.6-26.2l60.1-37.1c8.6-5.3,19.5-5.1,27.9,0.6c13.1,8.9,31.5,23.9,44.6,44.9c13.2,21.2,18.8,44.7,21.1,60.7
				c1.5,10-3.2,19.9-11.8,25.2l-60.8,37.6c-8.9,5.5-20.1,5-28.6-1.1c-7-5-13.6-10.6-19.7-16.6c-5-5-13.1-4.9-18,0.1
				c-5,5-4.9,13.1,0.1,18c7,6.9,14.6,13.4,22.7,19.2c16.9,12.2,39.2,13,56.9,2.1l60.8-37.6C495.4,268.3,504.6,248.4,501.7,228.4z"/>
		</g>
	</g>
</g>
</svg>
