<?xml version="1.0" encoding="iso-8859-1"?>
<!-- Generator: Adobe Illustrator 19.0.0, SVG Export Plug-In . SVG Version: 6.00 Build 0)  -->
<svg version="1.1" id="icon" xmlns="http://www.w3.org/2000/svg" xmlns:xlink="http://www.w3.org/1999/xlink" x="0px" y="0px"
	 viewBox="0 0 511.976 511.976" style="enable-background:new 0 0 511.976 511.976;" xml:space="preserve">
<g>
	<g>
		<path d="M418.199,141.79l-56.459-56.459l35.125-35.125c4.164-4.165,4.164-10.917,0-15.083l-32-32
			c-4.165-4.164-10.917-4.164-15.083,0l-35.125,35.125l-13.792-13.792c-4.165-4.164-10.917-4.164-15.083,0L104.45,205.79
			c-4.164,4.165-4.164,10.917,0,15.083l34.987,34.987l-30.571,36.661c-18.133,21.696-16.864,54.528,2.805,74.741l31.947,32.843
			c2.758,2.939,2.758,7.515,0,10.453l-49.941,51.307c-4.031,4.141-4.031,10.739,0,14.88l31.125,32
			c4.106,4.224,10.86,4.319,15.083,0.213c0.072-0.07,0.143-0.141,0.213-0.213l62.933-64.661c20.792-21.668,20.792-55.879,0-77.547
			l-28.533-29.333c-3.514-3.668-3.514-9.452,0-13.12l16.373-16.832l30.933,30.933c4.165,4.164,10.917,4.164,15.083,0
			l181.333-181.333C422.365,152.682,422.355,145.947,418.199,141.79z M357.325,25.747l16.917,16.917l-27.584,27.584l-16.917-16.917
			L357.325,25.747z M159.18,309.224c-11.514,11.975-11.514,30.905,0,42.88l28.533,29.333c12.809,13.354,12.809,34.433,0,47.787
			l-55.264,56.811l-16.245-16.704l42.667-43.893c10.79-11.233,10.79-28.98,0-40.213l-31.947-32.843
			c-12.167-12.756-12.904-32.584-1.717-46.208l29.333-35.2l21.173,21.173L159.18,309.224z M229.325,315.624L127.074,213.331
			l11.584-11.584l102.251,102.251L229.325,315.624z M255.991,288.915L153.74,186.664L266.658,73.747l102.251,102.251
			L255.991,288.915z M383.991,160.958L281.741,58.664l11.584-11.584l102.251,102.251L383.991,160.958z"/>
	</g>
</g>
<g>
</g>
<g>
</g>
<g>
</g>
<g>
</g>
<g>
</g>
<g>
</g>
<g>
</g>
<g>
</g>
<g>
</g>
<g>
</g>
<g>
</g>
<g>
</g>
<g>
</g>
<g>
</g>
<g>
</g>
</svg>
