<?xml version="1.0" encoding="utf-8"?>
<!-- Generator: Adobe Illustrator 23.1.0, SVG Export Plug-In . SVG Version: 6.00 Build 0)  -->
<svg version="1.1" id="icon" xmlns="http://www.w3.org/2000/svg" xmlns:xlink="http://www.w3.org/1999/xlink" x="0px" y="0px"
	 viewBox="0 0 496 496" style="enable-background:new 0 0 496 496;" xml:space="preserve">
<path d="M480,88H16c-8.8,0-16,7.2-16,16v288c0,8.8,7.2,16,16,16h464c8.8,0,16-7.2,16-16V104C496,95.2,488.8,88,480,88z M480,392H16
	V104h464L480,392z"/>
<path d="M464,120H32v256h432V120z M448,360H48V136h400V360z"/>
<path d="M416,152h16v16h-16V152z"/>
<path d="M64,152h16v16H64V152z"/>
<path d="M416,328h16v16h-16V328z"/>
<path d="M64,328h16v16H64V328z"/>
<path d="M72,264c0,10.6,4.1,20.6,11.7,28.3c7.6,7.5,17.7,11.7,28.3,11.7c22.1,0,40-17.9,40-40h-16c0,13.2-10.8,24-24,24
	c-6.4,0-12.4-2.5-16.9-7c-4.6-4.6-7.1-10.7-7.1-17v-32c0-13.2,10.8-24,24-24c6.4,0,12.4,2.5,16.9,7c4.6,4.6,7.1,10.7,7.1,17h16
	c0-10.6-4.1-20.6-11.7-28.3c-7.6-7.5-17.7-11.7-28.3-11.7c-22.1,0-40,17.9-40,40V264z"/>
<path d="M168,240h48v16h-48V240z"/>
<path d="M264,216v16c0,4.4-3.6,8-8,8h-24v16h24c4.4,0,8,3.6,8,8v16c0,4.4-3.6,8-8,8h-40v16h40c13.2,0,24-10.8,24-24v-16
	c0-6.2-2.4-11.7-6.2-16c3.8-4.3,6.2-9.8,6.2-16v-16c0-13.2-10.8-24-24-24h-40v16h40C260.4,208,264,211.6,264,216z"/>
<path d="M360,288h-44.7l31.1-31.1c8.7-8.7,13.6-20.7,13.6-32.9c0-8.5-3.3-16.6-9.4-22.6c-6.1-6-14.1-9.4-22.6-9.4
	c-17.6,0-32,14.4-32,32v8h16v-8c0-8.8,7.2-16,16-16c4.3,0,8.3,1.7,11.3,4.7s4.7,7,4.7,11.3c0,8.1-3.3,15.9-8.9,21.6L296,284.7V304
	h64V288z"/>
<path d="M424,288h-16v-96h-32v16h16v80h-16v16h48V288z"/>
</svg>
