<?xml version="1.0" encoding="utf-8"?>
<!-- Generator: Adobe Illustrator 23.1.0, SVG Export Plug-In . SVG Version: 6.00 Build 0)  -->
<svg version="1.1" id="icon" xmlns="http://www.w3.org/2000/svg" xmlns:xlink="http://www.w3.org/1999/xlink" x="0px" y="0px"
	 viewBox="0 0 800 600" style="enable-background:new 0 0 800 600;" xml:space="preserve">
<g transform="translate(0.000000,600.000000) scale(0.100000,-0.100000)">
	<path d="M584,4296.8c-44.5-6.1-114.1-15.8-153.2-23.1c-68.4-13.4-72.8-15.8-79.3-51.1c-3.3-20.7-6.5-41.4-6.5-46.3
		c0-32.9,242.2-146.1,1126.5-523.4l975.5-417.5l1053.7-547.7c580.1-300.6,1575.2-828.9,2212.8-1172.1
		C6350.2,1171.2,6880.3,890,6890.1,890c19.6,0,701.8,118.1,742,127.8c27.2,7.3,30.4,26.8,8.7,62.1l-16.3,24.3l-323.7-45
		c-346.5-49.9-410.6-54.8-421.5-34.1c-4.3,7.3-23.9,538-43.5,1180.6c-27.2,878.8-40.2,1174.6-51.1,1189.2
		c-7.6,11-14.1,21.9-14.1,23.1c0,1.2-320.5,71.8-711.5,155.8c-775.6,168-764.8,166.8-856,103.5l-48.9-34.1l-122.8-344.5
		c-101-288.5-124.9-345.7-141.2-343.2c-11.9,1.2-946.2,306.7-2077,679.2c-1428.5,468.6-2069.4,675.5-2102,674.3
		C686.1,4307.8,628.5,4302.9,584,4296.8z"/>
</g>
</svg>
