<?xml version="1.0" encoding="utf-8"?>
<!-- Generator: Adobe Illustrator 23.1.0, SVG Export Plug-In . SVG Version: 6.00 Build 0)  -->
<svg version="1.1" id="icon" xmlns="http://www.w3.org/2000/svg" xmlns:xlink="http://www.w3.org/1999/xlink" x="0px" y="0px"
	 viewBox="0 0 512 512" style="enable-background:new 0 0 512 512;" xml:space="preserve">
<style type="text/css">
	.st0{fill:#AAC5EE;}
	.st1{fill:#8FB1DB;}
	.st2{fill:#CEDDF7;}
	.st3{fill:#504A7F;}
	.st4{fill:#65669E;}
	.st5{fill:#3B3868;}
</style>
<rect x="138.2" y="244" transform="matrix(0.866 -0.5 0.5 0.866 -97.965 163.1544)" class="st0" width="234.6" height="40.7"/>
<rect x="133.5" y="245.2" transform="matrix(0.866 -0.5 0.5 0.866 -94.5688 159.7587)" class="st1" width="234.6" height="22.2"/>
<path class="st2" d="M347.9,165.4l7-4l39.5,68.4l-7,4c-6.4,3.7-14.6,1.5-18.3-4.9L343,183.7C339.3,177.3,341.5,169.1,347.9,165.4z"
	/>
<path class="st0" d="M365,195.1l7.1-4.1l-17.1-29.7l-7,4c-6.4,3.7-8.6,11.9-4.9,18.3l13.6,23.6C355.7,203.7,359.1,198.5,365,195.1z"
	/>
<path class="st2" d="M124.8,294.2l-7,4l39.5,68.4l7-4c6.4-3.7,8.6-11.9,4.9-18.3l-26.1-45.2C139.5,292.7,131.3,290.5,124.8,294.2z"
	/>
<path class="st0" d="M141.6,323.2c6.4-3.7,13.3-3.7,15.5,0l0,0l0,0l-13.9-24.1c-3.7-6.4-11.9-8.6-18.3-4.9l-7,4l16.7,29L141.6,323.2
	z"/>
<rect x="223.2" y="243.6" transform="matrix(0.866 -0.5 0.5 0.866 -97.6813 163.4301)" class="st2" width="65.9" height="40.7"/>
<rect x="218.6" y="244.9" transform="matrix(0.866 -0.5 0.5 0.866 -94.2876 160.0355)" class="st0" width="65.9" height="22.2"/>
<path class="st2" d="M465.8,97.3l-7,4l39.5,68.4l7-4c6.4-3.7,8.6-11.9,4.9-18.3l-26.1-45.2C480.4,95.8,472.2,93.6,465.8,97.3z"/>
<path class="st0" d="M483.3,127.6c6.4-3.7,13.3-3.8,15.4-0.2l-14.5-25.2c-3.7-6.4-11.9-8.6-18.3-4.9l-7,4l17.5,30.3L483.3,127.6z"/>
<path class="st3" d="M332.4,70l-12.1,7c-6.4,3.7-8.6,11.9-4.9,18.3L431.9,297c3.7,6.4,11.9,8.6,18.3,4.9l12.1-7
	c6.4-3.7,8.6-11.9,4.9-18.3L350.7,74.9C347,68.5,338.8,66.3,332.4,70z"/>
<path class="st4" d="M383,76.1l-12.1,7c-6.4,3.7-8.6,11.9-4.9,18.3l85.9,148.8c3.7,6.4,11.9,8.6,18.3,4.9l12.1-7
	c6.4-3.7,8.6-11.9,4.9-18.3L401.3,81C397.6,74.6,389.4,72.4,383,76.1z"/>
<path id="SVGCleanerId_0" class="st3" d="M433.5,82.2l-12.1,7c-6.4,3.7-8.6,11.9-4.9,18.3l55.3,95.8c3.7,6.4,11.9,8.6,18.3,4.9
	l12.1-7c6.4-3.7,8.6-11.9,4.9-18.3l-55.3-95.8C448.1,80.7,439.9,78.5,433.5,82.2z"/>
<g>
	<path id="SVGCleanerId_0_1_" class="st3" d="M433.5,82.2l-12.1,7c-6.4,3.7-8.6,11.9-4.9,18.3l55.3,95.8c3.7,6.4,11.9,8.6,18.3,4.9
		l12.1-7c6.4-3.7,8.6-11.9,4.9-18.3l-55.3-95.8C448.1,80.7,439.9,78.5,433.5,82.2z"/>
</g>
<path class="st5" d="M350.9,156.6c-2.6-4.6,0.4-11.3,6.8-15l12.1-7c6.4-3.7,13.8-3,16.4,1.6l-35.4-61.3c-3.7-6.4-11.9-8.6-18.3-4.9
	l-12.1,7c-6.4,3.7-8.6,11.9-4.9,18.3L350.9,156.6L350.9,156.6L350.9,156.6z"/>
<path class="st3" d="M403.9,140.1l12-7c6.4-3.7,13.8-3,16.4,1.6l-31-53.7c-3.7-6.4-11.9-8.6-18.3-4.9l-12.1,7
	c-6.4,3.7-8.6,11.9-4.9,18.3l31,53.7C394.4,150.5,397.5,143.8,403.9,140.1z"/>
<g>
	<path class="st5" d="M443.2,153.6c-2.6-4.6,0.4-11.3,6.8-15l12.1-7c6.4-3.7,13.8-3,16.4,1.6l-26.6-46.1c-3.7-6.4-11.9-8.6-18.3-4.9
		l-12,7c-6.4,3.7-8.6,11.9-4.9,18.3L443.2,153.6L443.2,153.6L443.2,153.6z"/>
	<polygon class="st5" points="507.2,182.9 507.2,182.9 489.6,152.5 	"/>
</g>
<path class="st3" d="M50,233.1l12.1-7c6.4-3.7,14.6-1.5,18.3,4.9l116.4,201.7c3.7,6.4,1.5,14.6-4.9,18.3l-12.1,7
	c-6.4,3.7-14.6,1.5-18.3-4.9L45.1,251.4C41.4,245,43.6,236.8,50,233.1z"/>
<path class="st4" d="M30,279.9l12.1-7c6.4-3.7,14.6-1.5,18.3,4.9l85.9,148.8c3.7,6.4,1.5,14.6-4.9,18.3l-12.1,7
	c-6.4,3.7-14.6,1.5-18.3-4.9L25.1,298.2C21.4,291.8,23.6,283.6,30,279.9z"/>
<path class="st5" d="M79.1,310.4c-2.7-4.6,0.3-11.4,6.8-15.1l12.1-7c6.4-3.7,13.8-2.9,16.5,1.7l-34.1-59c-3.7-6.4-11.9-8.6-18.3-4.9
	l-12,7c-6.4,3.7-8.6,11.9-4.9,18.3L79.1,310.4L79.1,310.4L79.1,310.4z"/>
<g>
	<path class="st3" d="M54.9,349.9c-2.7-4.6,0.3-11.4,6.8-15.1l12.1-7c6.4-3.7,13.8-2.9,16.5,1.7l-29.8-51.7
		c-3.7-6.4-11.9-8.6-18.3-4.9l-12.1,7c-6.4,3.7-8.6,11.9-4.9,18.3L54.9,349.9L54.9,349.9L54.9,349.9z"/>
	<path class="st3" d="M40.3,324.7c-3.7-6.4-11.9-8.6-18.3-4.9l-11.9,6.9c13.3,45.4,39.2,85.5,73.6,116.3l7.1-4.1
		c6.4-3.7,8.6-11.9,4.9-18.3L40.3,324.7z"/>
</g>
<path class="st5" d="M39,375.4l12-7c5-2.9,11.1-2.2,15.3,1.3l-26-45.1c-3.7-6.4-11.9-8.6-18.3-4.9l-11.9,6.9
	c5.7,19.3,13.6,37.6,23.5,54.7C34.7,378.9,36.5,376.8,39,375.4z"/>
</svg>
