<?xml version="1.0" encoding="utf-8"?>
<!-- Generator: Adobe Illustrator 23.1.0, SVG Export Plug-In . SVG Version: 6.00 Build 0)  -->
<svg version="1.1" id="icon" xmlns="http://www.w3.org/2000/svg" xmlns:xlink="http://www.w3.org/1999/xlink" x="0px" y="0px"
	 viewBox="0 0 512 512" style="enable-background:new 0 0 512 512;" xml:space="preserve">
<g id="outline">
	<path d="M356.9,161.7l-9.8,12.6l61.8,48.1c-26.3,11.3-56.9,3.4-74.5-19.1l-12.9,9.4l0.6,0.7c14.8,19.1,37.6,30.2,61.7,30
		c12.7,0,25.2-3,36.5-8.7l7.2-3.6c4-2,5.6-6.8,3.6-10.7c-0.5-1.1-1.3-2-2.3-2.8L356.9,161.7z"/>
	<path d="M392,40H256c-13.7,0-27.4,1.4-40.9,4c-11.6-6.5-26.1-4.9-36,4H88v0.2c-12.7,0.7-24.4,7.1-31.9,17.3
		c-10.1,14-13,31.9-7.9,48.4l11.4,45.6C43.9,157.4,32.1,143.9,32,128V16H16v112c0,26.4,21.3,47.9,47.8,48l7.4,29.8l-15.3,14.1
		c-0.2,0.2-0.4,0.4-0.6,0.6c-4.2,4.7-6.5,10.8-6.4,17.1c0,14.5,11.8,26.4,26.3,26.4c1.6,0,3.3-0.1,4.9-0.2v0.2h112.5
		c4.7,39,42.8,54.7,44.6,55.4c2.5,1,5.3,0.7,7.5-0.8c2.2-1.5,3.5-4,3.5-6.6v-48h11.1c3.4,0,6.7,0.2,9.9,0.4
		c-5.6,23.6-1,48.4,12.6,68.4c1.5,2,3.9,3.2,6.4,3.2c0.2,0,0.3,0,0.5,0c2.7-0.2,5.1-1.7,6.4-4l29.3-51.3c6.6,3.6,12.8,7.7,18.7,12.4
		c-6.2,41.9-41.4,73.4-83.7,74.8L219,327.6c-20.8-20.8-54.5-20.9-75.3-0.1c-8.5,8.5-13.9,19.5-15.3,31.4c-0.3,2.1-0.4,4.2-0.4,6.3
		v77.4c0,29.4,23.9,53.2,53.3,53.3h9.4c7.2,0,14.4-1.5,21-4.3l46-19.7c15.6-0.1,31.1-1.9,46.3-5.4v5.4c0,13.3,10.7,24,24,24h8
		c44.2,0,80-35.8,80-80v-15.2c27.3-29.9,45.5-66.9,52.5-106.7c17.8-21.1,27.5-47.8,27.5-75.4V144c0-57.4-46.4-104-103.8-104
		C392.1,40,392.1,40,392,40z M459.7,184H480v16h-15.4C463.2,194.6,461.6,189.3,459.7,184L459.7,184z M453.1,168
		c-2.4-5.5-5.1-10.8-7.9-16H480v16H453.1z M435.5,136c-3.7-5.5-7.5-10.9-11.7-16h52.9c1.5,5.2,2.5,10.6,2.9,16H435.5z M409.5,104
		c-5.6-5.7-11.5-11-17.7-16h68c4.1,4.9,7.6,10.3,10.6,16H409.5z M392,56c18.1,0,35.7,5.6,50.5,16h-73.4c-10.1-6.2-20.6-11.5-31.5-16
		H392z M200,56c8.8,0,16,7.2,16,16s-7.2,16-16,16s-16-7.2-16-16S191.2,56,200,56z M79.6,173.4C99,166.7,112,148.5,112,128V88
		c0-4.4-3.6-8-8-8c-2.1,0-4.2,0.8-5.7,2.3l-24,24l11.3,11.3L96,107.3V128c0,13.1-8.1,24.9-20.3,29.7l-12-48
		C60,98,61.9,85.2,68.9,75.1C74.1,68,82.4,63.8,91.1,64l0,0c29.4,0,55.1,19.8,62.7,48.2l3.9,14.3l-73.1,67L79.6,173.4z M64.8,237.6
		c0-2.3,0.8-4.5,2.3-6.3l95.4-87.4l12.7,46.3c-32.8,40-63.8,57.8-100.1,57.8c-5.7,0-10.3-4.5-10.3-10.2
		C64.8,237.7,64.8,237.7,64.8,237.6z M232,298.3c-12.1-7.9-20.5-20.2-23.3-34.3H232V298.3z M288.2,311.6
		c-6.1-14.2-7.3-30.1-3.2-45.1c2.3,0.5,4.6,1,6.8,1.5c1.4,0.4,2.6,0.6,3.4,0.8c3.3,0.9,6.5,2,9.8,3.2c0.6,0.2,1.2,0.3,1.2,0.4
		c1.2,0.5,2.3,1,3.5,1.5L288.2,311.6z M356.7,306.2c5.2,5.2,10,10.8,14.4,16.7c2,2.9,3.9,6,5.6,9c0.3,0.5,0.5,0.8,0.8,1.3l0.1,0.1
		l0.1,0.1c1.8,3.1,3.3,6.3,4.9,9.6l0.8,1.5c1.4,3,2.6,6.2,3.7,9.3l0.9,2.3c1,3.1,1.9,6.2,2.7,9.3l0.5,1.8l0.3,1
		c0,0.2,0.1,0.4,0.1,0.5c0.9,3.9,1.7,8,2.3,12l1.3,9.1l1.2,8.6c-37.3,37-87.7,57.6-140.3,57.5c-8.8,0-16-7.2-16-16v-40
		c0-8.8,7.2-16,16-16C303.4,384.2,344.9,352.1,356.7,306.2z M364.9,473c-5.5,2.8-11.4,4.8-17.5,5.9c3-9.6,4.7-19.6,5.1-29.7
		c5.1-2.6,10.1-5.3,15-8.2C368.5,451.8,367.6,462.6,364.9,473L364.9,473z M146.3,455.3c-1.5-4-2.3-8.3-2.3-12.6V424h80v14.7
		L146.3,455.3z M225.1,392c-0.7,2.6-1.1,5.3-1.1,8v8h-80v-37.6L225.1,392z M181.3,328c9.9,0,19.3,4,26.3,10.9l33.1,33.1
		c-2.8,1.5-5.3,3.4-7.5,5.6l-87.5-23.4C150.5,338.7,164.9,328,181.3,328z M205.5,477c-4.7,2-9.7,3-14.7,3h-9.4
		c-9.5,0-18.7-3.7-25.6-10.3l71.9-15.4c1.9,3.8,4.5,7.1,7.7,9.9L205.5,477z M320,472v-9.6c5.4-1.7,10.7-3.6,15.9-5.7
		c-1.2,7.9-3.1,15.7-5.7,23.3H328C323.6,480,320,476.4,320,472z M383.5,458.7c1.1-9.1,0.6-18.4-1.5-27.3c6.2-4.5,12.3-9.4,18-14.5
		C399.7,432.4,393.9,447.3,383.5,458.7z M410.3,383.2l-0.7-4.7c-0.5-3.6-1.3-7.4-2.2-11.1c-0.2-0.9-0.3-1.9-0.5-2.8
		c-0.1-0.3-0.2-0.5-0.2-0.8c-0.1-0.4-0.2-0.8-0.3-1.2l-0.3-1c-0.9-3.5-1.9-6.9-3.2-10.9l-0.8-2.1c-1.3-3.6-2.6-7.1-4.1-10.4
		c-0.2-0.5-0.4-1-0.9-1.8c-1.7-3.6-3.5-7.2-5.2-10.4c-0.1-0.2-0.2-0.3-0.3-0.4l-0.4-0.7c-2-3.5-4-6.6-6-9.7
		c-0.2-0.4-0.5-0.8-0.7-1.1l-0.2-0.4c-4-5.7-8.4-11.1-13.1-16.2l-13.2-12.6l-0.6-0.6L357,284l-0.4-0.4c-9.9-8.3-20.8-15.3-32.5-20.9
		c-0.4-0.2-0.8-0.4-1.2-0.5c-3.6-1.7-7.3-3.2-11-4.7l-0.8-0.3l-1-0.3c-3.5-1.3-7.2-2.5-11.4-3.7c-1-0.2-2-0.4-3.2-0.7
		c-3-0.8-6.1-1.5-9.4-2.1c-1.4-0.2-2.8-0.4-4.2-0.6l-1.7-0.2h-0.2l-0.4,0l-2.3-0.4c-1.5-0.2-3-0.5-4.8-0.7c-2.2-0.2-4.5-0.2-6.8-0.3
		c40-27.6,50-82.3,22.5-122.3c-9.3-13.5-22.3-24.2-37.3-30.7l-6.4,14.7c36.5,15.9,53.1,58.3,37.3,94.8C270.6,231,244.7,248,216,248
		h-27.1c7.2-4.7,13.8-10.4,19.5-16.8l7.9-9.1c15.3-17.5,21.1-41.4,15.5-64l-15.5,3.9c4.4,17.5-0.1,36-12,49.6l-7.9,9.1
		C181.1,238,159.1,248,136,248h-1.5c21.6-13.4,40.5-30.7,55.7-51c1.6-2,2.1-4.6,1.5-7.1L169.2,108c-4.7-17.6-15.3-33.1-29.9-44h29.8
		c-0.7,2.6-1.1,5.3-1.1,8c0,17.7,14.3,32,32,32s32-14.3,32-32c0-4.9-1.2-9.7-3.4-14.1c9.1-1.3,18.2-1.9,27.4-1.9
		c80.8-0.2,153.7,48.4,184.6,123.1c0.1,0.3,0.3,0.6,0.5,0.9c9.9,24.1,15,49.9,14.9,76c0,11.1-0.9,22.3-2.8,33.2
		C447.4,323.8,432.6,356.2,410.3,383.2z M471.9,258.1c0-0.7,0.1-1.4,0.1-2.1c0-13.4-1.3-26.8-3.7-40H480v2.7
		C480,232.3,477.2,245.7,471.9,258.1L471.9,258.1z"/>
	<path d="M383,153.1l2.5,3.5l13-9.3l-2.5-3.5c-16.4-23-38.8-41.1-64.8-52.3l-6.4,14.7C348.1,116.3,368.2,132.5,383,153.1z"/>
	<path d="M287,95.9c7.7,1,15.3,2.6,22.7,4.8l4.6-15.3c-8.3-2.5-16.7-4.3-25.3-5.3L287,95.9z"/>
</g>
</svg>
