<?xml version="1.0" encoding="utf-8"?>
<!-- Generator: Adobe Illustrator 23.1.0, SVG Export Plug-In . SVG Version: 6.00 Build 0)  -->
<svg version="1.1" id="icon" xmlns="http://www.w3.org/2000/svg" xmlns:xlink="http://www.w3.org/1999/xlink" x="0px" y="0px"
	 viewBox="0 0 512 512" style="enable-background:new 0 0 512 512;" xml:space="preserve">
<path d="M146.9,327.9c-1.2-2.8-4-4.7-7-4.7c-3.2,0-6.1,2.1-7.2,5c-1,2.9-0.2,6.1,2.1,8.2c2.6,2.3,6.4,2.6,9.3,0.7
	C147.1,335.2,148.2,331.3,146.9,327.9z"/>
<path d="M161.9,276.4c-2.5-6.1-11.5-6.1-14,0c-2.7,6.5,4.5,12.9,10.6,9.6C161.8,284.1,163.4,279.9,161.9,276.4z"/>
<path d="M256,44.7c-27.9,0-55,5.4-80.5,15.9c-2,0.8-3.6,2.5-4.3,4.5c-0.7,2-0.5,4.3,0.5,6.2l194.5,355.3c1,1.9,2.8,3.3,4.9,3.8
	c0.6,0.1,1.2,0.2,1.7,0.2c1.5,0,3.1-0.5,4.4-1.4c56.4-39.6,90.1-104.3,90.1-173.1C467.3,139.5,372.5,44.7,256,44.7z M278.8,235.2
	h82.6v23.4h-69.8L278.8,235.2z M375.3,411.6l-75.4-137.8H369c4.2,0,7.6-3.4,7.6-7.6v-31h33.2c4.2,0,7.6-3.4,7.6-7.6v-49.5
	c0-4.2-3.4-7.6-7.6-7.6h-10.7v-12c0-7.6-4.3-14.2-11.1-17.4c-6.9-3.2-14.7-2.1-20.5,2.8l-31.3,26.6h-30.5c-4.2,0-7.6,3.4-7.6,7.6
	s3.4,7.6,7.6,7.6h96.6V220H270.4l-18.8-34.3h23.6c4.2,0,7.6-3.4,7.6-7.6s-3.4-7.6-7.6-7.6h-31.9l-54.1-98.9
	c21.4-7.8,43.8-11.7,66.8-11.7c108.1,0,196.1,88,196.1,196.1C452.1,317,423.6,374.6,375.3,411.6z M359.6,170.5l17.7-15
	c1.7-1.5,3.5-0.9,4.2-0.6c0.7,0.3,2.3,1.3,2.3,3.6v12H359.6z"/>
<path d="M437,75C388.7,26.6,324.4,0,256,0S123.3,26.6,75,75S0,187.6,0,256s26.6,132.7,75,181s112.6,75,181,75s132.7-26.6,181-75
	s75-112.6,75-181S485.4,123.3,437,75z M426.3,426.3c-45.5,45.5-105.9,70.5-170.3,70.5s-124.8-25-170.3-70.5S15.2,320.3,15.2,256
	s25-124.8,70.5-170.3S191.7,15.2,256,15.2s124.8,25,170.3,70.5s70.5,105.9,70.5,170.3S471.7,380.8,426.3,426.3z"/>
<path d="M324.5,411.9c-2-3.7-6.6-5-10.3-3c-3.7,2-5,6.6-3,10.3l11.6,21.2c-21.4,7.8-43.8,11.7-66.8,11.7
	c-108.1,0-196.1-88-196.1-196.1c0-61,28.6-118.6,76.8-155.6l47.3,86.3c-1.3,6.4-4.2,12.4-8.3,17.5c-6.2-26.1-27.7-37.8-39.9-40.5
	c-4.1-0.9-8.1,1.7-9,5.8c-0.9,4.1,1.6,8.1,5.7,9.1c1.2,0.3,27.3,6.7,29.5,36.9c-5.9,3-12.4,4.6-19.1,4.6h-2c-2.4,0-4.6,1.1-6.1,3
	c-2.2,2.9-52.6,70.4-43.1,115.9c2.8,13.5,10.4,23.8,22.7,30.7c8.7,4.9,17.8,7.3,26.8,7.3c9.1,0,18.1-2.5,26.5-7.4
	c18.1-10.6,30.9-31.1,33.4-52.5h34.3c6.2,0,12.1-1.5,17.5-4.3l43.7,79.8c2,3.7,6.6,5,10.3,3c3.7-2,5-6.6,3-10.3L145.8,85.5
	c-1-1.9-2.8-3.3-4.9-3.8c-2.1-0.5-4.3-0.1-6.1,1.2C78.4,122.5,44.7,187.2,44.7,256c0,116.5,94.8,211.3,211.3,211.3
	c27.9,0,55-5.4,80.5-15.9c2-0.8,3.6-2.5,4.3-4.5c0.7-2,0.5-4.3-0.5-6.2L324.5,411.9z M144.8,235.2c14.5-0.5,28.1-6.4,38.5-16.7
	c4.2-4.2,7.6-8.9,10.3-14.1l31,56.7c-6.1,1.5-11.5,3.6-16.2,6.3c-7-13.1-21.3-22.1-40.6-25.2c-9.3-1.5-19.1-1.4-28,0.1
	C141.9,239.4,143.6,236.9,144.8,235.2z M160,356.4c-8.5,5-22.1,9-38.2,0c-8.3-4.7-13.3-11.4-15.2-20.6c-4.4-21,7.7-49.5,19.8-71.3
	c0,0,0,0,0,0c2.9-4.9,20-10.2,39.1-7.2c20.5,3.3,28.1,13.1,30.9,20.4c-6.6,8.2-10.1,18.8-10.1,31.7C186.3,328,175.5,347.3,160,356.4
	z M235.4,301.8h-33.3c1.7-10.8,7.1-17.3,13.8-21.2l-1.9,7.6c-1,4.1,1.4,8.2,5.5,9.2c0.6,0.2,1.3,0.2,1.9,0.2c3.4,0,6.5-2.3,7.4-5.7
	l4-16l12.8,23.4C242.4,300.9,238.9,301.8,235.4,301.8z"/>
</svg>
