<?xml version="1.0" encoding="utf-8"?>
<svg version="1.1" id="logo" xmlns="http://www.w3.org/2000/svg" xmlns:xlink="http://www.w3.org/1999/xlink" x="0px" y="0px"
	 viewBox="-30 0 1100 180" style="enable-background:new 130 0 994 180;" xml:space="preserve">
<g clip-path="url(#clip0_0_1)">
<path d="M261 12V155.8H281.4V12H261Z"/>
<path d="M637 13V156.8H657.4V13H637Z"/>
<path d="M804.4 104.3H818C830.2 104.3 836.3 98.2 836.3 86V30.3C836.3 18.1 830.2 12 818 12H719V155.8H739.1V104.3H783.7L815.8 155.9H836.6L804.4 104.3ZM739.2 90.7V25.7H809.3C812.4 25.7 814.4 26.1 815.2 27C816 27.9 816.5 29.8 816.5 32.9V83.5C816.5 86.4 816.1 88.4 815.2 89.3C814.4 90.2 812.4 90.7 809.3 90.7H739.2Z"/>
<path d="M996.7 12H898V155.8H918.1V108.9H996.7C1008.9 108.9 1015 102.8 1015 90.6V30.3C1015 18.1 1008.9 12 996.7 12ZM995.1 88.1C995.1 91 994.6 92.9 993.7 93.9C992.8 94.8 990.9 95.3 987.9 95.3H918.1V25.7H987.9C990.8 25.7 992.8 26.1 993.7 27C994.6 27.9 995.1 29.8 995.1 32.9V88.1Z"/>
<path d="M82.4375 13H103.25L152.188 132.531H153.875L202.813 13H223.625V157H207.312V47.5938H205.906L160.906 157H145.156L100.156 47.5938H98.75V157H82.4375V13Z"/>
<path d="M464.438 13H485.25L534.188 132.531H535.875L584.813 13H605.625V157H589.312V47.5938H587.906L542.906 157H527.156L482.156 47.5938H480.75V157H464.438V13Z"/>
<path d="M325.344 157H307.063L359.938 13H377.938L430.813 157H412.531L369.5 35.7812H368.375L325.344 157ZM332.094 100.75H405.781V116.219H332.094V100.75Z"/>
</g>
</svg>