<?xml version="1.0" encoding="utf-8"?>
<!-- Generator: Adobe Illustrator 23.1.0, SVG Export Plug-In . SVG Version: 6.00 Build 0)  -->
<svg version="1.1" id="icon" xmlns="http://www.w3.org/2000/svg" xmlns:xlink="http://www.w3.org/1999/xlink" x="0px" y="0px"
	 viewBox="0 0 512 512" style="enable-background:new 0 0 512 512;" xml:space="preserve">
<g>
	<g>
		<path d="M459.1,158.6L449,117.2c-4.5-18.4-16.2-29.4-31.5-29.4h-67.6V50c0-27.6-22.4-50-50-50h-87.8c-27.6,0-50,22.4-50,50v104.9
			c0,5.5,4.5,10,10,10h42.3c-14.5,15.5-26,33.5-33.9,52.9c-2.8-0.2-5.6-0.3-8.4-0.3c-67.4,0-122.3,54.9-122.3,122.3
			c0,33.3,13.4,63.5,35.1,85.6c0.2,0.3,0.5,0.6,0.8,0.9c5.8,5.8,5.8,15.3,0,21.1c-2.8,2.8-6.6,4.4-10.5,4.4c-3.4,0-6.7-1.2-9.4-3.3
			C37.5,420.9,20,382.4,20,339.9c0-42.2,17.8-82.8,48.7-111.6c1.4-1.3,2.5-3.1,2.9-5l10.8-44.3c1-4,4-13.2,10.9-14.1
			c5.5-0.6,9.4-5.6,8.8-11.1c-0.6-5.5-5.6-9.4-11.1-8.8c-13.6,1.6-23.8,12.2-28,29.2l-10.1,41.4C19.2,248.1,0,293.2,0,339.9
			c0,47,18.9,89.6,49.5,120.7c0.3,0.3,0.5,0.7,0.9,1c0.6,0.6,1.3,1.2,2,1.8c31,30.1,73.2,48.6,119.7,48.6c51.1,0,98.6-22.2,131.4-61
			c11.7,2.5,23.9,3.9,36.3,3.9c94.9,0,172.1-77.2,172.1-172.1C512,236,492.8,191,459.1,158.6z M182.1,50c0-16.5,13.5-30,30-30h87.8
			c16.5,0,30,13.5,30,30v37.8h-67.6c-15.2,0-27,11-31.5,29.4l-6.8,27.7h-41.9L182.1,50L182.1,50z M172.1,237.6c0.6,0,1.1,0,1.7,0
			c-4,14.6-6.1,29.8-6.1,45.1c0,47,18.9,89.6,49.6,120.7c0.3,0.3,0.5,0.7,0.9,1c0.6,0.6,1.3,1.2,2,1.8c5,4.8,10.2,9.3,15.8,13.5
			c-18.1,14.5-40.3,22.3-63.8,22.3c-56.4,0-102.3-45.9-102.3-102.3S115.7,237.6,172.1,237.6z M172.1,492c-30,0-58-8.7-81.6-23.8
			c3.4-1.7,6.5-3.9,9.2-6.6c4.8-4.8,7.9-10.7,9.3-16.9c18.4,11.1,40,17.5,63,17.5c30.2,0,58.7-10.9,81.1-30.8
			c9.2,5.4,18.8,9.9,29,13.5C253.5,475,214.2,492,172.1,492z M339.9,434.9c-30,0-58-8.7-81.6-23.8c3.4-1.7,6.5-3.9,9.2-6.6
			c4.8-4.8,7.9-10.7,9.3-16.9c13.9,8.4,29.6,14.1,46.4,16.4c0.1,0,0.2,0,0.2,0c5.4,0.7,10.8,1.1,16.4,1.1c17.4,0,34.2-3.6,50-10.7
			c5-2.3,7.3-8.2,5-13.2c-2.3-5-8.2-7.3-13.2-5c-13.2,5.9-27.3,8.9-41.8,8.9c-0.6,0-1.1,0-1.6,0c4-14.7,6-29.8,6-45.1
			c0-46.7-19.2-91.8-52.9-124.1l-4.9-20.2c15.6-9.6,33.9-15.1,53.5-15.1c56.4,0,102.3,45.9,102.3,102.3c0,14.6-3,28.6-8.9,41.8
			c-2.3,5,0,11,5,13.2c5,2.3,11,0,13.2-5c7.1-15.8,10.7-32.6,10.7-50c0-67.4-54.9-122.3-122.3-122.3c-25.9,0-50,8.1-69.8,21.9
			c-0.6,0.4-1.2,0.8-1.7,1.2c-20,14.5-35.5,34.8-43.9,58.5c-0.2,0.4-0.3,0.8-0.4,1.2c-4.2,12.4-6.5,25.6-6.5,39.4
			c0,33.3,13.4,63.5,35.1,85.6c0.2,0.3,0.5,0.6,0.8,0.9c5.8,5.8,5.8,15.3,0,21.1c-2.8,2.8-6.6,4.4-10.5,4.4c-3.4,0-6.7-1.2-9.4-3.3
			c-28.2-27.6-45.8-66.1-45.8-108.6c0-42.2,17.8-82.8,48.7-111.6c1.4-1.3,2.5-3.1,2.9-5l10.8-44.3c1.3-5.3,4.6-14.1,12-14.1h155.3
			c7.5,0,10.8,8.9,12,14.1l10.8,44.3c0.5,1.9,1.5,3.6,2.9,5c31,28.7,48.7,69.4,48.7,111.6C492,366.6,423.8,434.9,339.9,434.9z
			 M269.1,209l3.5,14.4c0.5,1.9,1.5,3.6,2.9,5c31,28.7,48.7,69.4,48.7,111.6c0,14.6-2.1,29-6.1,42.8c-10-2.2-19.4-5.8-28-10.6
			c2.8-10.5,4.3-21.2,4.3-32.2c0-38.5-18-74.4-48.5-97.5C251.4,229.7,259.3,218.4,269.1,209z M239.5,263
			c22,19.3,34.9,47.1,34.9,76.9c0,6.7-0.7,13.3-1.9,19.7c-21.4-18.8-34.9-46.3-34.9-76.9C237.6,276,238.3,269.4,239.5,263z"/>
		<path d="M132.1,164.9c5.5,0,10-4.5,10-10s-4.5-10-10-10h0c-5.5,0-10,4.5-10,10S126.6,164.9,132.1,164.9z"/>
		<path d="M412.2,355.1L412.2,355.1c-3.9,3.9-3.9,10.2,0,14.1c2,2,4.5,2.9,7.1,2.9c2.6,0,5.1-1,7.1-2.9c3.9-3.9,3.9-10.2,0-14.1
			C422.4,351.2,416.1,351.2,412.2,355.1z"/>
	</g>
</g>
</svg>
