<?xml version="1.0" encoding="utf-8"?>
<!-- Generator: Adobe Illustrator 23.1.0, SVG Export Plug-In . SVG Version: 6.00 Build 0)  -->
<svg version="1.1" id="icon" xmlns="http://www.w3.org/2000/svg" xmlns:xlink="http://www.w3.org/1999/xlink" x="0px" y="0px"
	 viewBox="0 0 512 512" style="enable-background:new 0 0 512 512;" xml:space="preserve">
<style type="text/css">
	.st0{fill:#FEC478;}
	.st1{fill:#FEB756;}
	.st2{fill:#FEDBAB;}
	.st3{fill:#4F3F82;}
	.st4{fill:#3B2C68;}
	.st5{fill:#17CEB4;}
	.st6{fill:#11AD94;}
</style>
<path class="st0" d="M436.7,512H293.1c-27.9,0-54.2-10.8-74-30.9l-33.6-33.6c-3-2.7-4.5-6.6-4.5-10.5V255.4c0-8.4,6.6-15,15-15h30
	l47.3-47.6c27.6-27.3,42.5-63.5,42.5-102.2c0-16.5,13.5-30,30-30c16.5,0,30,13.5,30,30v22.8c0,36.2-6.6,72.2-19.2,106.9l-7.5,20.1
	h81.3l2.4,102.3L436.7,512z"/>
<path class="st1" d="M436.7,512H293.1c-27.9,0-54.2-10.8-74-30.9l-33.6-33.6c-3-2.7-4.5-6.6-4.5-10.5v-94.5h251.7L436.7,512z"/>
<path class="st2" d="M478.1,376.2c18.6,0,33.6,16,33.6,34.6c0,18.9-15,33.9-33.6,33.9h-30c18.6,0,33.6,15,33.6,33.9
	c0,18.6-15,33.6-33.6,33.6h-53.7c-18.6,0-33.6-15-33.6-33.6c0-18.9,15-33.9,33.6-33.9c-18.6,0-33.6-15-33.6-33.9
	c0-18.6,15-34.6,33.6-34.6c-18.6,0-33.6-15-33.6-33.6c0-18.9,15-34.9,33.6-34.9c-18.6,0-33.6-15-33.6-33.9c0-18.6,15-33.6,33.6-33.6
	h83.7c18.6,0,33.6,15,33.6,33.6c0,18.9-15,33.9-33.6,33.9c18.6,0,33.6,16,33.6,34.9C511.6,361.2,496.7,376.2,478.1,376.2z"/>
<path class="st0" d="M511.6,410.7c0,18.9-15,33.9-33.6,33.9h-30c18.6,0,33.6,15,33.6,33.9c0,18.6-15,33.6-33.6,33.6h-53.7
	c-18.6,0-33.6-15-33.6-33.6c0-18.9,15-33.9,33.6-33.9c-18.6,0-33.6-15-33.6-33.9c0-18.6,15-34.6,33.6-34.6
	c-18.6,0-33.6-15-33.6-33.6h150.8c0,18.6-15,33.6-33.6,33.6C496.7,376.2,511.6,392.2,511.6,410.7z"/>
<path class="st3" d="M196.1,210.4h-59.9c-8.4,0-15,6.6-15,15v241.7c0,8.4,6.6,15,15,15h59.9c8.4,0,15-6.6,15-15V225.4
	C211.1,217,204.5,210.4,196.1,210.4z"/>
<path class="st4" d="M121.2,342.6h89.9v124.4c0,8.4-6.6,15-15,15h-59.9c-8.4,0-15-6.6-15-15C121.2,467.1,121.2,342.6,121.2,342.6z"
	/>
<path class="st5" d="M136.2,180.5H15.3c-8.4,0-15,6.6-15,15V497c0,8.4,6.6,15,15,15h120.8c8.4,0,15-6.6,15-15V195.4
	C151.1,187.1,144.6,180.5,136.2,180.5z"/>
<path class="st6" d="M0.4,342.6h150.8V497c0,8.4-6.6,15-15,15H15.3c-8.4,0-15-6.6-15-15C0.4,497,0.4,342.6,0.4,342.6z"/>
</svg>
