<?xml version="1.0" encoding="utf-8"?>
<!-- Generator: Adobe Illustrator 23.1.0, SVG Export Plug-In . SVG Version: 6.00 Build 0)  -->
<svg version="1.1" id="icon" xmlns="http://www.w3.org/2000/svg" xmlns:xlink="http://www.w3.org/1999/xlink" x="0px" y="0px"
	 viewBox="0 0 511 511" style="enable-background:new 0 0 511 511;" xml:space="preserve">
<style type="text/css">
	.st0{fill:#BA6746;}
	.st1{fill:#FFC305;}
	.st2{fill:#55696E;}
	.st3{fill:#748488;}
	.st4{fill:#FFDA52;}
	.st5{fill:#FFAB8F;}
	.st6{fill:#4699F2;}
	.st7{fill:#414B82;}
	.st8{fill:#5F6E9B;}
	.st9{fill:#64AFFF;}
	.st10{fill:#FFB69E;}
</style>
<path class="st0" d="M173.3,249.7c-10-5.3-13.8-17.8-8.4-27.8l32.7-61.2l-59.9-7.5c-11.2-1.4-19.2-11.6-17.8-22.9
	s11.6-19.2,22.9-17.8l89.5,11.2c6.7,0.8,12.6,4.9,15.7,10.9c3.1,6,3.1,13.1-0.1,19.1L201,241.3C195.7,251.3,183.3,255,173.3,249.7z"
	/>
<path class="st1" d="M192.4,118.8l-49.6-6.2c-11.2-1.4-21.5,6.6-22.9,17.8c-1.4,11.2,6.6,21.5,17.8,22.9l48,6L192.4,118.8z"/>
<path class="st2" d="M177.3,478.8L147,377.7c-1.5-5.1-1.4-10.6,0.5-15.6l30.3-81.9c4.7-12.7,18.9-19.2,31.6-14.5
	c12.7,4.7,19.3,18.9,14.5,31.6l-27.5,74.2l28,93.2c3.9,13-3.5,26.7-16.5,30.6C194.9,499.2,181.2,491.7,177.3,478.8z"/>
<path class="st3" d="M79.6,473.5l-7-94.5c-0.3-3.5,0.2-7.1,1.5-10.4L114,261c4.7-12.7,18.9-19.2,31.6-14.5
	c12.7,4.7,19.2,18.9,14.5,31.6l-38.1,102.6l6.6,89.1c1,13.6-9.2,25.4-22.7,26.4C92.5,497.2,80.6,487.1,79.6,473.5z"/>
<path class="st4" d="M152.6,305.5l70.6-27l-56-146.6c-6-15.8-23.7-23.7-39.5-17.7l-50.9,19.5c-15.8,6-23.7,23.7-17.7,39.5
	l41.6,109.1C108.7,303,131.9,313.4,152.6,305.5z"/>
<path class="st0" d="M118.3,69.3c0,25-20.3,45.3-45.3,45.3c-25,0-45.3-20.3-45.3-45.3C27.7,44.3,48,24,73,24
	C98,24,118.3,44.3,118.3,69.3z"/>
<path class="st0" d="M25.6,284l79.4-20.4c6.7-1.7,12-6.6,14.3-13.1l32.8-94.3c3.7-10.7-1.9-22.4-12.6-26.1
	c-10.7-3.7-22.4,1.9-26.1,12.6l-29.2,83.9l-68.7,17.7c-11,2.8-17.6,14-14.8,25C3.5,280.2,14.6,286.9,25.6,284z"/>
<path class="st1" d="M136.3,201.5l15.8-45.3c3.7-10.7-1.9-22.4-12.6-26.1c-10.7-3.7-22.4,1.9-26.1,12.6c-7,20.2-11.7,33.6-15.7,45.2
	L136.3,201.5z"/>
<path class="st5" d="M287.8,146.2c-1.8-11.2,5.9-21.7,17.1-23.5l87.2-13.8l50.7-55.1c7.7-8.3,20.6-8.9,29-1.2
	c8.3,7.7,8.9,20.6,1.2,29L417.4,142c-3.1,3.4-7.3,5.6-11.9,6.4l-94.3,14.9C300,165.1,289.5,157.4,287.8,146.2z"/>
<path class="st6" d="M373.6,111.9l-68.7,10.8c-11.2,1.8-18.8,12.3-17.1,23.5c1.8,11.2,12.3,18.8,23.5,17.1l62.3-9.8V111.9z"/>
<path class="st7" d="M351.9,495.8c-13.3-2.8-21.8-15.9-19-29.2l22.7-107.2l-30.5-83c-4.7-12.8,1.9-26.9,14.6-31.6
	c12.8-4.7,26.9,1.9,31.6,14.6l32.9,89.7c1.6,4.3,1.9,9,1,13.6l-24.2,114.1C378.3,490.1,365.2,498.6,351.9,495.8z"/>
<path class="st8" d="M470.3,397l-65.7-56.6l-113.2-26.7c-13.2-3.1-21.4-16.4-18.3-29.6c3.1-13.2,16.4-21.4,29.6-18.3l119,28.1
	c3.8,0.9,7.4,2.7,10.4,5.3l70.2,60.5c10.3,8.9,11.4,24.4,2.6,34.7C496.2,404.7,480.6,405.9,470.3,397z"/>
<path class="st9" d="M272.5,289.7V142.4c0-15.9,12.9-28.7,28.7-28.7h51.2c15.9,0,28.7,12.9,28.7,28.7v141.9L272.5,289.7z"/>
<path class="st10" d="M369.6,58.5c0,23.5-19,42.5-42.5,42.5s-42.5-19-42.5-42.5s19-42.5,42.5-42.5S369.6,35,369.6,58.5z"/>
<path class="st10" d="M479.1,135.2l-62.8,52.7c-5.3,4.4-12.4,5.9-19,4l-95.8-28.2c-10.9-3.2-17.1-14.6-13.9-25.5
	c3.2-10.9,14.6-17.1,25.5-13.9l85.3,25.1l54.4-45.6c8.7-7.3,21.6-6.1,28.9,2.5C488.9,115,487.7,127.9,479.1,135.2z"/>
<path class="st6" d="M358.7,137.7l-45.7-13.4c-10.9-3.2-22.3,3-25.5,13.9c-3.2,10.9,3,22.3,13.9,25.5l45.4,13.4L358.7,137.7z"/>
</svg>
