<?xml version="1.0" encoding="utf-8"?>
<!-- Generator: Adobe Illustrator 23.0.2, SVG Export Plug-In . SVG Version: 6.00 Build 0)  -->
<svg version="1.1" id="icon" xmlns="http://www.w3.org/2000/svg" xmlns:xlink="http://www.w3.org/1999/xlink" x="0px" y="0px"
	 viewBox="0 0 60 60" style="enable-background:new 0 0 60 60;" xml:space="preserve">
<g>
	<path d="M58.1,40.7h-8.7c-0.5-1.1-1.6-1.9-2.9-1.9h-9.6c-1.7,0-3.1,1.4-3.1,3.1v10.6c0,1.7,1.4,3.1,3.1,3.1h9.6
		c1.3,0,2.4-0.8,2.9-1.9h8.7V40.7z M46.5,53.8h-9.6c-0.7,0-1.3-0.6-1.3-1.3V42c0-0.7,0.6-1.3,1.3-1.3h9.6c0.7,0,1.3,0.6,1.3,1.3
		v10.6C47.8,53.3,47.2,53.8,46.5,53.8z M56.2,52h-6.5v-9.3h6.5V52z"/>
	<path d="M44,43.5h-4.7c-0.5,0-0.9,0.4-0.9,0.9v5.6c0,0.5,0.4,0.9,0.9,0.9H44c0.5,0,0.9-0.4,0.9-0.9v-5.6C45,44,44.6,43.5,44,43.5z
		 M43.1,49.2h-2.8v-3.7h2.8V49.2z"/>
	<path d="M29,41.7h-3.3l-2.5-2.5c0,0,0,0-0.1,0L57.9,4.3H39.4L3.1,40.7c0,0,0,0,0,0.1H2v13.1h11.2v0.9c0,0.5,0.4,0.9,0.9,0.9h3.7
		h4.7c0.2,0,0.5-0.1,0.7-0.3l2.5-2.5H29c1.6,0,2.9-1.3,2.9-2.9v-5.4C31.9,43,30.6,41.7,29,41.7z M40.2,6.2h13.2L20.7,38.9h-2.8h-3.7
		h-0.9v0.9v0.9H5.6L40.2,6.2z M3.9,52v-9.3h9.3V52H3.9z M15.1,42.6v-1.9H17v13.1h-1.9V42.6z M22.2,53.8h-3.4V40.7h2.7h0.7l2.3,2.3
		v8.6L22.2,53.8z M30,50c0,0.6-0.5,1-1,1h-2.7v-7.5H29c0.6,0,1,0.5,1,1V50z"/>
	<rect x="27.2" y="45.4" width="1.9" height="3.7"/>
</g>
</svg>
