<?xml version="1.0" encoding="utf-8"?>
<!-- Generator: Adobe Illustrator 23.1.0, SVG Export Plug-In . SVG Version: 6.00 Build 0)  -->
<svg version="1.1" id="icon" xmlns="http://www.w3.org/2000/svg" xmlns:xlink="http://www.w3.org/1999/xlink" x="0px" y="0px"
	 viewBox="0 0 512 512" style="enable-background:new 0 0 512 512;" xml:space="preserve">
<g id="XMLID_1695_">
	<g id="XMLID_2_">
		<path id="XMLID_14_" d="M294.6,287.5c65.3,0,118.4-53.1,118.4-118.4S359.9,50.8,294.6,50.8H127.3C62.1,50.8,9,103.9,9,169.2
			s53.1,118.4,118.4,118.4c31.6,0,61.5-12.5,83.6-34.7C233.1,275,263,287.5,294.6,287.5z M203.3,231.6
			c-18.8,22.8-46.5,35.9-75.9,35.9c-54.2,0-98.4-44.1-98.4-98.4s44.1-98.4,98.4-98.4h167.3c54.2,0,98.4,44.1,98.4,98.4
			s-44.1,98.4-98.4,98.4c-29.4,0-57.1-13.1-75.9-35.9c-1.9-2.3-4.7-3.6-7.7-3.6S205.2,229.3,203.3,231.6z"/>
		<path id="XMLID_20_" d="M229.6,192.1c9.7,27.5,35.8,45.9,65,45.9c18.6,0,36-7.3,49.1-20.6c13.1-13.3,20.1-30.8,19.8-49.4
			c-0.6-37.4-31.9-67.8-69.8-67.8H256c-5.5,0-10,4.5-10,10s4.5,10,10,10h37.7c27,0,49.4,21.6,49.8,48.1c0.2,13.2-4.8,25.6-14.1,35.1
			c-9.3,9.4-21.6,14.6-34.8,14.6c-20.7,0-39.2-13.1-46.1-32.6c-5.6-15.7-20.7-26.3-37.5-26.3s-32,10.6-37.5,26.3
			c-6.9,19.5-25.4,32.6-46.1,32.6c-13.2,0-25.5-5.2-34.8-14.6c-9.3-9.4-14.3-21.9-14.1-35.1c0.4-26.5,22.7-48.1,49.8-48.1H166
			c5.5,0,10-4.5,10-10s-4.5-10-10-10h-37.7c-37.9,0-69.2,30.4-69.8,67.8c-0.3,18.6,6.8,36.1,19.8,49.4
			c13.1,13.3,30.5,20.6,49.1,20.6c29.1,0,55.2-18.5,65-45.9c2.7-7.8,10.3-13,18.7-13S226.9,184.4,229.6,192.1L229.6,192.1z"/>
		<path id="XMLID_23_" d="M493,0h-60c-5.5,0-10,4.5-10,10v80.7c0,5.4,4.3,9.8,9.7,10V359c0,51.3-41.7,93-93,93
			c-44.5,0-82.2-30.9-91.1-74.1c5.1-6.7,8.1-15,8.1-24v-40.5c0-5.5-4.5-10-10-10h-60c-5.5,0-10,4.5-10,10v40.5
			c0,11,4.5,21.1,11.8,28.3C199.8,456.4,264.3,512,339.7,512c84.4,0,153-68.6,153-153V100.7h0.3c5.5,0,10-4.5,10-10V10
			C503,4.5,498.5,0,493,0z M443,20h40v60.7h-40V20z M196.7,323.4h40v30.5c0,11-9,20-20,20s-20-9-20-20V323.4z M472.7,359
			c0,73.3-59.7,133-133,133c-60.6,0-113.1-41.3-128.5-98.5c1.8,0.2,3.6,0.4,5.5,0.4c5.2,0,10.1-1,14.7-2.8
			c6.2,20.7,18.2,39.4,34.9,53.7c20.5,17.5,46.6,27.2,73.5,27.2c62.3,0,113-50.7,113-113V100.7h20V359z"/>
		<path id="XMLID_26_" d="M211,120.2c2.6,0,5.2-1.1,7.1-2.9c1.9-1.9,2.9-4.4,2.9-7.1s-1.1-5.2-2.9-7.1c-1.9-1.9-4.4-2.9-7.1-2.9
			c-2.6,0-5.2,1.1-7.1,2.9c-1.9,1.9-2.9,4.4-2.9,7.1s1.1,5.2,2.9,7.1C205.8,119.2,208.3,120.2,211,120.2z"/>
	</g>
</g>
</svg>
