<svg height="512pt" viewBox="-26 0 512 512.001" width="512pt" xmlns="http://www.w3.org/2000/svg"><path d="m395 31.339844c-1.105469-.636719-2.320312-1.058594-3.585938-1.238282l-67.753906-9.679687-28.054687-18.703125c-1.667969-1.125-3.664063-1.71875-5.671875-1.71875h-119.933594c-1.972656 0-3.96875.613281-5.605469 1.71875l-28.054687 18.703125-67.753906 9.679687c-1.265626.179688-2.484376.601563-3.585938 1.238282-10.882812 6.28125-20.71875 15.414062-29.238281 27.140625-3.246094 4.46875-2.253907 10.722656 2.214843 13.96875 1.777344 1.289062 3.832032 1.910156 5.871094 1.910156 3.089844 0 6.140625-1.433594 8.097656-4.125 6.425782-8.847656 13.636719-15.773437 21.457032-20.617187l57.054687-8.152344 2.339844 57.480468c.113281 2.78125 1.382813 5.390626 3.5 7.199219l13.574219 11.589844-18.207032 25.886719c-2.535156 3.605468-2.410156 8.449218.308594 11.921875l88.035156 112.40625v224.050781h-131.507812c-5.515625 0-10-4.488281-10-10v-90.003906h65.292969c5.523437 0 10-4.476563 10-10 0-5.519532-4.476563-10-10-10h-65.292969v-227.496094c0-5.523438-4.476562-10-10-10s-10 4.476562-10 10v267.5h-38.5v-217c0-15.226562 1.058594-30.21875 3.148438-44.5625.792968-5.464844-2.992188-10.542969-8.457032-11.335938-5.460937-.796874-10.539062 2.988282-11.335937 8.453126-2.226563 15.296874-3.355469 31.257812-3.355469 47.445312v217c0 11.027344 8.972656 20 20 20h38.5v50c0 16.542969 13.457031 30 30 30h183c5.523438 0 10-4.476562 10-10s-4.476562-10-10-10h-31.492188v-224.074219l88.019532-112.382812c2.71875-3.472657 2.84375-8.316407.308594-11.921875l-18.207032-25.886719 13.574219-11.589844c2.117187-1.808593 3.386719-4.417969 3.5-7.199219l2.339844-57.480468 57.054687 8.152344c32.5 20.171874 53.402344 76.886718 53.402344 145.382812v217h-38.5v-267.5c0-5.523438-4.476562-10-10-10s-10 4.476562-10 10v227.5h-65.292969c-5.523437 0-10 4.476562-10 10s4.476563 10 10 10h65.292969v90c0 5.515625-4.484375 10-10 10h-10c-5.523438 0-10 4.476562-10 10s4.476562 10 10 10h10c16.542969 0 30-13.457031 30-30v-50h38.5c11.027344 0 20-8.972656 20-20v-217c0-60.976562-17.074219-135.992188-65-163.660156zm-212.367188-11.339844h94.734376l-47.359376 200.921875zm-30.335937 129.054688 19.171875-27.261719c2.96875-4.21875 2.238281-10.007813-1.6875-13.359375l-17.175781-14.664063-2.386719-58.5625 13.351562-8.898437 46.269532 196.21875zm136.234375-27.261719 19.171875 27.261719-57.519531 73.441406 46.246094-196.191406 13.347656 8.902343-2.382813 58.5625-17.179687 14.664063c-3.921875 3.351562-4.652344 9.140625-1.683594 13.359375zm0 0"/><path d="m316.503906 492h-.007812c-5.523438 0-9.996094 4.476562-9.996094 10s4.480469 10 10.003906 10c5.523438 0 10-4.476562 10-10s-4.476562-10-10-10zm0 0"/><path d="m20.242188 114.335938c1.109374.398437 2.246093.585937 3.363281.585937 4.105469 0 7.957031-2.550781 9.417969-6.636719v-.007812c1.859374-5.203125-.851563-10.917969-6.054688-12.777344-5.199219-1.855469-10.921875.855469-12.78125 6.058594-1.859375 5.199218.851562 10.921875 6.054688 12.777344zm0 0"/></svg>