<?xml version="1.0" encoding="utf-8"?>
<!-- Generator: Adobe Illustrator 23.1.0, SVG Export Plug-In . SVG Version: 6.00 Build 0)  -->
<svg version="1.1" id="icon" xmlns="http://www.w3.org/2000/svg" xmlns:xlink="http://www.w3.org/1999/xlink" x="0px" y="0px"
	 viewBox="0 0 512 512" style="enable-background:new 0 0 512 512;" xml:space="preserve">
<g>
	<g>
		<path d="M512,60.9c0.2-16.3-6.1-31.7-17.7-43.3C482.9,6.3,467.8,0,451.7,0c-0.2,0-0.4,0-0.6,0c-16.3,0.2-31.6,6.8-42.9,18.5
			l-89.6,93.4L84.1,34.3l-69.3,69.3l196,120.7l-80.6,84l-63.3-10.4L0,364.8l109.1,38.2L147.2,512l66.9-66.9l-10.4-63.3l84-80.6
			l120.7,196l69.3-69.3l-77.6-234.5l93.4-89.6C505.2,92.5,511.8,77.3,512,60.9z M472.7,82.1L365.6,184.9l77.7,234.9l-29.3,29.3
			L293.8,253.8L171.5,371.1l10.5,63.7L159.8,457l-27.2-77.6L55,352.2L77.2,330l63.7,10.5l117.3-122.3L62.9,97.9l29.3-29.3
			l234.9,77.7L429.9,39.3c5.7-5.9,13.3-9.2,21.5-9.3c0.1,0,0.2,0,0.3,0c8.1,0,15.7,3.1,21.4,8.9c5.8,5.8,8.9,13.5,8.9,21.7
			C481.9,68.8,478.6,76.5,472.7,82.1z"/>
	</g>
</g>
</svg>
