<?xml version="1.0" encoding="utf-8"?>
<!-- Generator: Adobe Illustrator 23.1.0, SVG Export Plug-In . SVG Version: 6.00 Build 0)  -->
<svg version="1.1" id="icon" xmlns="http://www.w3.org/2000/svg" xmlns:xlink="http://www.w3.org/1999/xlink" x="0px" y="0px"
	 viewBox="0 0 489 489" style="enable-background:new 0 0 489 489;" xml:space="preserve">
<path d="M25.1,202.8c0,0,0,0.1,0,0.1c0.1,0.3,0.3,0.6,0.4,0.9c0,0,0,0.1,0.1,0.1c0.2,0.3,0.4,0.5,0.6,0.8c0,0,0,0,0,0.1l95.2,106.3
	v109.7c0,2.3,1.3,4.4,3.3,5.4c2,1,4.5,0.8,6.3-0.6l56.2-43c1.5-1.1,2.3-2.9,2.3-4.8V373c3.4,3.2,7,6.1,10.8,8.8l-0.5,16.5
	c-0.1,2.5,1.5,4.8,3.8,5.8l33.2,12.8c2.4,0.9,5,0.2,6.7-1.7l10.7-12.4c9.7,1,19.5,0.7,29.1-0.8l11.5,12c1.7,1.8,4.4,2.3,6.7,1.3
	l32.6-14.2c2.3-1,3.8-3.4,3.6-5.9l-1.2-16.5c7.7-6.1,14.5-13.2,20.1-21.1l16.5,0.5c2.5,0.1,4.8-1.5,5.8-3.8l12.8-33.2
	c0.9-2.4,0.2-5-1.7-6.7l-12.4-10.7c1-9.7,0.7-19.5-0.8-29.1l12-11.5c1.8-1.7,2.3-4.4,1.3-6.7l-14.3-32.6c-1-2.3-3.4-3.8-5.9-3.6
	l-16.5,1.2c-6.1-7.7-13.2-14.5-21.1-20.1l0.5-16.5c0.1-2.5-1.5-4.9-3.8-5.8l-33.2-12.8c-2.4-0.9-5-0.2-6.7,1.7l-2.9,3.3v-9.5
	c0-3.3-2.7-6-6-6h-24.7c4.6-11.7,0.8-25-9.2-32.6c-10-7.6-23.9-7.6-33.9,0c-10,7.6-13.8,20.9-9.2,32.6H30.7c-3.3,0-6,2.7-6,6v39.1
	c0,0.3,0,0.7,0.1,1c0,0,0,0.1,0,0.1C24.9,202.2,25,202.5,25.1,202.8z M177.6,374.7l-44.2,33.9v-99.8c0-1.5-0.5-2.9-1.5-4l-87.8-98
	h222.8l-16,17.9c0,0,0,0-0.1,0.1l-71.7,80.1c-1,1.1-1.5,2.5-1.5,4V374.7z M266.3,233.6c32,0,57.9,25.9,57.9,57.9
	c0,32-25.9,57.9-57.9,57.9c-32,0-57.9-25.9-57.9-57.9c0-0.5,0-1.1,0.1-1.6l49.9-55.8C261,233.8,263.7,233.6,266.3,233.6L266.3,233.6
	z M295.5,178.8l25.3,9.8l-0.5,15.5c-0.1,2.1,0.9,4,2.7,5.2c8.9,5.9,16.6,13.3,22.9,21.8c1.2,1.7,3.2,2.6,5.3,2.4l15.5-1.1l10.9,24.9
	L366.3,268c-1.5,1.4-2.1,3.4-1.7,5.4c1.9,10.5,2.2,21.3,0.8,31.9c-0.3,2,0.5,4,2,5.3l11.6,10l-9.8,25.3l-15.5-0.5
	c-2.1-0.1-4,0.9-5.2,2.7c-5.9,8.9-13.3,16.6-21.8,22.9c-1.7,1.2-2.6,3.2-2.4,5.3l1.1,15.6l-24.9,10.9l-10.8-11.2
	c-1.4-1.5-3.4-2.1-5.4-1.7c-10.5,1.9-21.3,2.2-31.9,0.8c-2-0.3-4,0.5-5.3,2l-10,11.6l-25.3-9.8l0.5-15.5c0.1-2.1-0.9-4-2.7-5.2
	c-7.6-5.1-14.4-11.2-20.2-18.3v-44.4l7.7-8.6c5.7,36.3,38.6,62,75.2,58.7c36.6-3.3,64.5-34.4,63.7-71.1
	c-0.8-36.8-29.9-66.6-66.7-68.3l15.2-17c0,0,0,0,0-0.1c0.2-0.2,0.4-0.5,0.6-0.8c0,0,0-0.1,0.1-0.1c0.2-0.3,0.3-0.6,0.4-0.9
	c0,0,0-0.1,0-0.1c0.1-0.3,0.2-0.6,0.3-1c0,0,0-0.1,0-0.1c0.1-0.3,0.1-0.7,0.1-1v-11.3L295.5,178.8z M218,134.1
	c6.1-6.1,15.8-6.3,22.2-0.6c6.4,5.8,7.1,15.5,1.7,22.2h-25C211.7,149.2,212.2,139.9,218,134.1z M274.3,167.6v27.1H36.7v-27.1H274.3z
	"/>
<path d="M175.4,8.2c-11-11-28.8-11-39.7,0c-11,11-11,28.8,0,39.7c11,11,28.8,11,39.7,0C186.3,37,186.3,19.2,175.4,8.2z M166.9,39.5
	c-6.3,6.3-16.5,6.3-22.8,0c-6.3-6.3-6.3-16.5,0-22.8c6.3-6.3,16.5-6.3,22.8,0C173.2,23,173.2,33.2,166.9,39.5z"/>
<path d="M40.2,81.6c-11,11-11,28.8,0,39.8c11,11,28.8,11,39.8,0c11-11,11-28.8,0-39.8C68.9,70.6,51.2,70.6,40.2,81.6z M71.5,112.8
	c-6.3,6.3-16.5,6.3-22.8,0c-6.3-6.3-6.3-16.5,0-22.8c6.3-6.3,16.5-6.3,22.8,0C77.7,96.3,77.7,106.5,71.5,112.8z"/>
<path d="M140,441c-11,11-11,28.8,0,39.8c11,11,28.8,11,39.8,0c11-11,11-28.8,0-39.8C168.8,430.1,151,430.1,140,441z M171.3,472.3
	c-6.3,6.3-16.5,6.3-22.8,0c-6.3-6.3-6.3-16.5,0-22.8c6.3-6.3,16.5-6.3,22.8,0C177.6,455.8,177.6,466,171.3,472.3z"/>
<path d="M215.9,31.8l-26.5,26.5c-2.3,2.3-2.3,6.1,0,8.5l26.5,26.5c2.3,2.3,6.1,2.3,8.5,0l26.5-26.5c2.3-2.3,2.3-6.1,0-8.5
	l-26.5-26.5C222,29.5,218.2,29.5,215.9,31.8z M220.1,80.6l-18-18l18-18l18,18L220.1,80.6z"/>
<path d="M178.1,101.1l-43.5-10c-1.9-0.4-3.8,0.1-5.2,1.3c-1.4,1.2-2.2,3.1-2.1,5l3.2,44.5c0.2,2.3,1.6,4.2,3.7,5.1
	c2.1,0.9,4.5,0.5,6.2-1l40.2-34.5c1.7-1.5,2.5-3.8,1.9-6C182.1,103.3,180.3,101.6,178.1,101.1z M141.7,129.2l-1.8-24.5l24,5.5
	L141.7,129.2z"/>
<path d="M423.9,162.9l20.4-20.4c1.6-1.6,2.1-3.8,1.5-6c-0.6-2.1-2.4-3.7-4.5-4.1l-59.9-12.4c-2-0.4-4,0.2-5.5,1.6
	c-1.4,1.4-2,3.5-1.6,5.5l12.5,59.9c0.4,2.2,2,3.9,4.1,4.5c2.1,0.6,4.4,0.1,5.9-1.5l18.6-18.6c27.7,34.9,41.2,79,37.7,123.5
	c-3.1,40.7-19.9,79.1-46,105.2c-17,17-39.4,30.2-64.8,38.2c-26.3,8.3-54.2,10.4-81.5,6.2c-3.3-0.5-6.3,1.7-6.8,5
	c-0.5,3.3,1.7,6.3,5,6.8c9.6,1.5,19.3,2.2,29,2.2c19.6,0,39.2-3,57.9-8.9c27.2-8.5,51.3-22.8,69.6-41.2
	c28.1-28.1,46.1-69.2,49.5-112.8c3.7-47.6-10.8-94.9-40.6-132.2C424.3,163.3,424.1,163.1,423.9,162.9z M396.2,173.6l-8.3-40.1
	l40.1,8.3L396.2,173.6z"/>
</svg>
