<?xml version="1.0" encoding="iso-8859-1"?>
<!-- Generator: Adobe Illustrator 19.0.0, SVG Export Plug-In . SVG Version: 6.00 Build 0)  -->
<svg version="1.1" id="Layer_1" xmlns="http://www.w3.org/2000/svg" xmlns:xlink="http://www.w3.org/1999/xlink" x="0px" y="0px"
	 viewBox="0 0 512 512" style="enable-background:new 0 0 512 512;" xml:space="preserve">
<g>
	<g>
		<path d="M171.468,76.891c-13.13,0-33.974,5.589-37.574,20.988c-1.911,8.173,1.702,17.206,10.173,25.437
			c6.601,6.413,15.356,11.485,22.849,13.237c2.262,0.528,30.444,4.755,36.211-22.484C210.63,78.628,174.811,76.891,171.468,76.891z
			 M188.319,110.605c-2.472,13.032-16.812,11.403-17.938,11.139c-4.809-1.124-11.125-4.878-15.716-9.337
			c-4.232-4.112-6.572-8.456-5.963-11.065c1.111-4.752,12.174-9.243,22.765-9.243C173.616,92.099,191.451,94.09,188.319,110.605z"/>
	</g>
</g>
<g>
	<g>
		<path d="M187.855,332.365h166.931c82.312,0,149.278-66.966,149.278-149.277c0-3.271,0-62.299-21.98-107.323
			c-10.659-21.834-26.157-39.248-44.988-52.291c-32.113-22.244-63.617-23.43-64.943-23.47C372.067,0.001,371.972,0,371.894,0
			c-51.872,0.232-138.381,0-138.771,0C208,0,195.199,19.476,190.499,33.715c-0.518-0.013-67.167-0.04-67.167-0.04
			c-0.253,0-26.55,0.294-54.123,6.845C31.94,49.374,11.354,65.023,8.022,87.03c-0.516,3.404,1.32,6.729,4.474,8.107l30.963,13.525
			l-13.893,6.468c-2.478,1.154-4.147,3.548-4.369,6.274c-0.223,2.725,1.034,5.359,3.292,6.901
			c32.941,22.481,94.249,24.291,94.841,24.291l231.455,0.136c16.74,0,30.357,13.618,30.357,30.357
			c0,12.923-8.119,23.979-19.522,28.352c-1.173-3.49-3.014-7.697-5.895-11.938c-6.268-9.232-18.668-20.238-42.151-20.238H179.642
			c-2.913-0.028-51.964,0.023-91.835,39.289c-32.667,32.169-49.229,80.674-49.229,144.17c0,82.31,66.966,149.276,149.277,149.276
			h95.996c69.233,0,103.349-32.849,114.803-46.972c0.14-0.172,9.763-13.303-1.199-26.419
			c-35.259-42.183-98.673-45.365-111.184-45.528h-98.416c-16.74,0-30.357-13.618-30.357-30.357S171.115,332.365,187.855,332.365z
			 M232.894,15.209c1.485,0.127,136.164,0.012,138.891,0c1.91,0.095,29.677,1.822,57.273,21.199
			c19.361,13.594,34.04,32.221,43.986,55.694c-27.32-35.424-70.165-58.291-118.258-58.291H206.823
			C210.49,25.785,218.101,15.316,232.894,15.209z M188.944,137.386h-65.571c-9.419-0.129-47.182-3.29-73.71-14.838l15.497-7.216
			c2.71-1.261,4.43-3.995,4.393-6.984c-0.035-2.989-1.82-5.681-4.559-6.877L24.597,83.827
			c11.971-28.644,79.983-34.891,98.735-34.944h65.612c24.401,0,44.252,19.851,44.252,44.252
			C233.196,117.535,213.344,137.386,188.944,137.386z M98.292,229.571c35.581-35.192,80.777-35.088,81.183-35.1
			c0.04,0.001,0.078,0.001,0.117,0.001h137.983c13.269,0,23.111,4.411,29.25,13.11c1.406,1.992,2.467,4.007,3.274,5.864H187.855
			c-47.537,0-89.954,22.336-117.311,57.063C77.593,254.571,86.844,240.894,98.292,229.571z M187.855,408.288l98.316-0.001
			c10.799,0.142,64.435,2.576,95.863,35.834H187.856c-44.884,0-81.398-36.515-81.398-81.398s36.515-81.398,81.398-81.398h166.93
			c54.169,0,98.238-44.069,98.238-98.238c0-11.513-1.985-22.801-5.9-33.546c-1.438-3.946-5.803-5.98-9.747-4.541
			c-3.946,1.438-5.979,5.802-4.541,9.747c3.305,9.071,4.981,18.607,4.981,28.339c0,45.783-37.246,83.03-83.03,83.03H187.856
			c-53.268,0-96.606,43.338-96.606,96.606c0,53.268,43.337,96.606,96.606,96.606h195.617
			c-12.647,13.701-42.781,37.463-99.622,37.463h-95.996c-73.926,0-134.069-60.143-134.069-134.069s60.143-134.069,134.069-134.069
			h166.931c25.125,0,45.565-20.44,45.565-45.565s-20.44-45.565-45.565-45.565H228.449c10.606-9.45,17.81-22.63,19.538-37.463
			h106.799c17.334,0,33.951,5.311,48.055,15.358c1.337,0.953,7.012,2.583,10.605-1.781c2.668-3.241,1.639-8.169-1.781-10.605
			c-16.695-11.894-36.363-18.181-56.88-18.181H247.813c-1.98-14.135-8.937-26.695-19.052-35.833h126.025
			c73.927,0,134.07,60.143,134.07,134.069s-60.143,134.069-134.07,134.069h-166.93c-25.125,0-45.565,20.44-45.565,45.565
			S162.73,408.288,187.855,408.288z"/>
	</g>
</g>
<g>
	<g>
		<path d="M436.03,127.908c-2.117-3.103-4.438-6.124-6.898-8.974c-2.746-3.178-7.545-3.529-10.726-0.785
			c-3.178,2.745-3.529,7.546-0.785,10.726c2.086,2.414,4.049,4.969,5.84,7.597c1.472,2.159,6.164,4.848,10.566,2.002
			C437.554,136.194,438.394,131.378,436.03,127.908z"/>
	</g>
</g>
<g>
	<g>
		<path d="M82.43,68.162c-1.655-1.667-3.953-2.619-6.31-2.619c-2.358,0-4.656,0.952-6.31,2.619c-1.668,1.656-2.62,3.965-2.62,6.311
			c0,2.345,0.952,4.655,2.62,6.31c1.655,1.667,3.952,2.62,6.31,2.62c2.357,0,4.656-0.953,6.31-2.62
			c1.668-1.655,2.62-3.965,2.62-6.31C85.049,72.127,84.097,69.818,82.43,68.162z"/>
	</g>
</g>
<g>
	<g>
		<path d="M187.855,238.792c-16.702,0-32.92,3.283-48.203,9.759c-3.867,1.637-5.645,6.089-4.034,9.967
			c2.521,6.07,8.999,4.446,9.967,4.035c13.396-5.676,27.618-8.554,42.27-8.554c4.2,0,7.604-3.404,7.604-7.604
			S192.055,238.792,187.855,238.792z"/>
	</g>
</g>
<g>
	<g>
		<path d="M219.164,238.792h-11.152c-4.2,0-7.604,3.404-7.604,7.604s3.404,7.604,7.604,7.604h11.152c4.2,0,7.604-3.404,7.604-7.604
			S223.364,238.792,219.164,238.792z"/>
	</g>
</g>
<g>
</g>
<g>
</g>
<g>
</g>
<g>
</g>
<g>
</g>
<g>
</g>
<g>
</g>
<g>
</g>
<g>
</g>
<g>
</g>
<g>
</g>
<g>
</g>
<g>
</g>
<g>
</g>
<g>
</g>
</svg>
