<?xml version="1.0" encoding="utf-8"?>
<!-- Generator: Adobe Illustrator 23.1.0, SVG Export Plug-In . SVG Version: 6.00 Build 0)  -->
<svg version="1.1" id="icon" xmlns="http://www.w3.org/2000/svg" xmlns:xlink="http://www.w3.org/1999/xlink" x="0px" y="0px"
	 viewBox="0 0 512 512" style="enable-background:new 0 0 512 512;" xml:space="preserve">
<g>
	<g>
		<path d="M48,200c-26.5,0-48-21.5-48-48c0-4.4,3.6-8,8-8s8,3.6,8,8c0,17.6,14.4,32,32,32c4.4,0,8,3.6,8,8S52.4,200,48,200z"/>
	</g>
	<g>
		<path d="M48,176c-13.2,0-24-10.8-24-24c0-4.4,3.6-8,8-8s8,3.6,8,8c0,4.4,3.6,8,8,8c4.4,0,8,3.6,8,8S52.4,176,48,176z"/>
	</g>
	<g>
		<path d="M32,160H8c-4.4,0-8-3.6-8-8s3.6-8,8-8h24c4.4,0,8,3.6,8,8S36.4,160,32,160z"/>
	</g>
	<g>
		<path d="M464,200c-4.4,0-8-3.6-8-8s3.6-8,8-8c17.6,0,32-14.4,32-32c0-4.4,3.6-8,8-8s8,3.6,8,8C512,178.5,490.5,200,464,200z"/>
	</g>
	<g>
		<path d="M464,176c-4.4,0-8-3.6-8-8s3.6-8,8-8c4.4,0,8-3.6,8-8c0-4.4,3.6-8,8-8s8,3.6,8,8C488,165.2,477.2,176,464,176z"/>
	</g>
	<g>
		<path d="M504,160h-24c-4.4,0-8-3.6-8-8s3.6-8,8-8h24c4.4,0,8,3.6,8,8S508.4,160,504,160z"/>
	</g>
	<g>
		<path d="M464,176H48c-4.4,0-8-3.6-8-8s3.6-8,8-8h416c4.4,0,8,3.6,8,8S468.4,176,464,176z"/>
	</g>
	<g>
		<path d="M464,200H48c-4.4,0-8-3.6-8-8s3.6-8,8-8h416c4.4,0,8,3.6,8,8S468.4,200,464,200z"/>
	</g>
	<g>
		<path d="M464,224H48c-4.4,0-8-3.6-8-8s3.6-8,8-8h416c4.4,0,8,3.6,8,8S468.4,224,464,224z"/>
	</g>
	<g>
		<path d="M48,344c-26.5,0-48-21.5-48-48c0-4.4,3.6-8,8-8s8,3.6,8,8c0,17.6,14.4,32,32,32c4.4,0,8,3.6,8,8S52.4,344,48,344z"/>
	</g>
	<g>
		<path d="M464,344c-4.4,0-8-3.6-8-8s3.6-8,8-8c17.6,0,32-14.4,32-32c0-4.4,3.6-8,8-8s8,3.6,8,8C512,322.5,490.5,344,464,344z"/>
	</g>
	<g>
		<path d="M464,344H48c-4.4,0-8-3.6-8-8s3.6-8,8-8h416c4.4,0,8,3.6,8,8S468.4,344,464,344z"/>
	</g>
	<g>
		<path d="M8,304c-4.4,0-8-3.6-8-8V152c0-4.4,3.6-8,8-8s8,3.6,8,8v144C16,300.4,12.4,304,8,304z"/>
	</g>
	<g>
		<path d="M504,304c-4.4,0-8-3.6-8-8V152c0-4.4,3.6-8,8-8s8,3.6,8,8v144C512,300.4,508.4,304,504,304z"/>
	</g>
	<g>
		<path d="M128,304c-4.4,0-8-3.6-8-8c0-17.6-14.4-32-32-32c-4.4,0-8-3.6-8-8s3.6-8,8-8c26.5,0,48,21.5,48,48
			C136,300.4,132.4,304,128,304z"/>
	</g>
	<g>
		<path d="M80,304c-26.5,0-48-21.5-48-48c0-4.4,3.6-8,8-8s8,3.6,8,8c0,17.6,14.4,32,32,32c4.4,0,8,3.6,8,8S84.4,304,80,304z"/>
	</g>
	<g>
		<path d="M88,264H40c-4.4,0-8-3.6-8-8s3.6-8,8-8h48c4.4,0,8,3.6,8,8C96,260.4,92.4,264,88,264z"/>
	</g>
	<g>
		<path d="M128,304H80c-4.4,0-8-3.6-8-8s3.6-8,8-8h48c4.4,0,8,3.6,8,8S132.4,304,128,304z"/>
	</g>
	<g>
		<path d="M384,304c-4.4,0-8-3.6-8-8c0-26.5,21.5-48,48-48c4.4,0,8,3.6,8,8c0,4.4-3.6,8-8,8c-17.6,0-32,14.4-32,32
			C392,300.4,388.4,304,384,304z"/>
	</g>
	<g>
		<path d="M432,304c-4.4,0-8-3.6-8-8s3.6-8,8-8c17.6,0,32-14.4,32-32c0-4.4,3.6-8,8-8s8,3.6,8,8C480,282.5,458.5,304,432,304z"/>
	</g>
	<g>
		<path d="M472,264h-48c-4.4,0-8-3.6-8-8s3.6-8,8-8h48c4.4,0,8,3.6,8,8C480,260.4,476.5,264,472,264z"/>
	</g>
	<g>
		<path d="M432,304h-48c-4.4,0-8-3.6-8-8s3.6-8,8-8h48c4.4,0,8,3.6,8,8S436.4,304,432,304z"/>
	</g>
	<g>
		<path d="M184,304c-26.5,0-48-21.5-48-48c0-4.4,3.6-8,8-8s8,3.6,8,8c0,17.6,14.4,32,32,32c4.4,0,8,3.6,8,8S188.4,304,184,304z"/>
	</g>
	<g>
		<path d="M328,304c-4.4,0-8-3.6-8-8s3.6-8,8-8c17.6,0,32-14.4,32-32c0-4.4,3.6-8,8-8s8,3.6,8,8C376,282.5,354.5,304,328,304z"/>
	</g>
	<g>
		<path d="M328,304H184c-4.4,0-8-3.6-8-8s3.6-8,8-8h144c4.4,0,8,3.6,8,8S332.4,304,328,304z"/>
	</g>
	<g>
		<path d="M368,264H144c-4.4,0-8-3.6-8-8s3.6-8,8-8h224c4.4,0,8,3.6,8,8C376,260.4,372.4,264,368,264z"/>
	</g>
	<g>
		<path d="M72,368c-17.6,0-32-14.4-32-32c0-4.4,3.6-8,8-8s8,3.6,8,8c0,8.8,7.2,16,16,16c4.4,0,8,3.6,8,8S76.4,368,72,368z"/>
	</g>
	<g>
		<path d="M440,368c-4.4,0-8-3.6-8-8s3.6-8,8-8c8.8,0,16-7.2,16-16c0-4.4,3.6-8,8-8s8,3.6,8,8C472,353.7,457.6,368,440,368z"/>
	</g>
	<g>
		<path d="M440,368H72c-4.4,0-8-3.6-8-8s3.6-8,8-8h368c4.4,0,8,3.6,8,8S444.4,368,440,368z"/>
	</g>
</g>
</svg>
