<?xml version="1.0" encoding="utf-8"?>
<!-- Generator: Adobe Illustrator 23.1.0, SVG Export Plug-In . SVG Version: 6.00 Build 0)  -->
<svg version="1.1" id="icon" xmlns="http://www.w3.org/2000/svg" xmlns:xlink="http://www.w3.org/1999/xlink" x="0px" y="0px"
	 viewBox="0 0 506 506" style="enable-background:new 0 0 506 506;" xml:space="preserve">
<path d="M293.1,38.2c-3.1-6.3-7.2-12.1-12.1-17.2l6-6c3.2-3.3,3.1-8.5-0.1-11.8c-3.2-3.2-8.5-3.3-11.8-0.1l-6.3,6.3
	c-7.3-5.6-16.2-8.7-25.4-8.8h-43.3c-11.1,0-21.8,4.4-29.6,12.3l-44.8,44.9c-2.3,2.3-5,4-7.9,5.3l-23.3,10c-9.8,4.3-17.7,12.1-22,22
	l-10,23.2c-1.2,3-3,5.6-5.3,7.9l-44.9,44.9C4.5,179,0.1,189.7,0.1,200.8v43.3c0.1,9.2,3.2,18.1,8.8,25.4l-6.3,6.3
	c-2.2,2.1-3.1,5.2-2.3,8.1c0.8,2.9,3.1,5.2,6,6c2.9,0.8,6-0.1,8.1-2.3l6-6c5.1,4.9,10.9,9,17.2,12.1
	c11.5,123.4,117,216.6,240.9,212.8c123.9-3.8,223.5-103.4,227.3-227.3C509.7,155.3,416.5,49.7,293.1,38.2z M16.9,244.1v-43.3
	c0-6.7,2.7-13.1,7.3-17.8l44.9-44.8c3.8-3.8,6.8-8.3,8.8-13.2l10-23.2c2.6-5.9,7.3-10.7,13.2-13.3l23.2-10c4.9-2.1,9.4-5.1,13.2-8.8
	l44.8-44.9c4.7-4.7,11.1-7.3,17.8-7.4h43.3c4.8,0,9.4,1.4,13.4,3.9l-12.5,12.5c-9.5-4.6-21-2.7-28.5,4.8c-1.9,1.9-3.5,4.2-4.7,6.6
	l-2.2,0.2h-0.1l-17.8,2c-5.7,0.6-10.9,3.2-15,7.2l-38.5,38.5c-2.4,2.5-5.3,4.5-8.4,6.1l-10.4,5.3c-6.5,3.2-11.7,8.5-15,15l-5.3,10.4
	c-1.6,3.1-3.6,5.9-6.1,8.4l-38.5,38.5c-4,4.1-6.6,9.4-7.2,15l-2,17.8v0.1l-0.3,2.3c-12.3,6-17.4,20.8-11.4,33.1l-12.5,12.4
	C18.3,253.5,16.9,248.9,16.9,244.1z M80.4,219.7l-2.9,1.9c-3.3-6-9.1-10.3-15.8-11.7l1.8-16.3c0.2-1.9,1.1-3.7,2.4-5l38.5-38.5
	c3.7-3.7,6.8-8,9.2-12.7l5.3-10.4c1.6-3.2,4.3-5.9,7.5-7.5l10.4-5.3c4.7-2.4,9-5.5,12.7-9.2L188,66.5c1.4-1.3,3.1-2.2,5-2.4
	l16.2-1.8c1.1,4.5,3.4,8.7,6.7,11.9c1.5,1.5,3.3,2.8,5.1,3.8l-2,2.9c-1.2,1.8-3,3.1-5.1,3.5c-14.7,2.7-44.7,12.6-81,49
	c-36.4,36.4-46.3,66.4-49,81C83.6,216.7,82.3,218.6,80.4,219.7z M50,240.2c-2.4-2.4-3.1-6-1.8-9.1c1.3-3.1,4.4-5.2,7.7-5.2
	c3.4,0,6.4,2,7.7,5.2c1.3,3.1,0.6,6.7-1.8,9.1c-1.6,1.6-3.7,2.5-5.9,2.5C53.7,242.7,51.5,241.8,50,240.2z M234.1,64.8
	c-2.3,0.1-4.6-0.8-6.3-2.4c-2.4-2.4-3-6-1.8-9.1c1.3-3.1,4.3-5.1,7.7-5.2c2.2,0,4.4,0.9,5.9,2.5c1.6,1.6,2.5,3.7,2.5,5.9
	c0,2.2-0.9,4.3-2.5,5.9v0C238.2,63.9,236.2,64.8,234.1,64.8z M45.1,256.9c6.9,3.3,14.8,3.3,21.7,0c6.9-3.3,11.8-9.6,13.5-17l9.4-6.3
	c5.6-3.7,9.5-9.5,10.7-16.1c1.9-10.2,9.9-37.8,44.3-72.2c34.4-34.4,61.9-42.5,72.2-44.3c6.6-1.3,12.4-5.1,16.1-10.7l6.2-9.3
	c7.5-1.6,13.8-6.6,17.1-13.5c3.3-6.9,3.3-14.9-0.1-21.8l12.8-12.8c4.4,4.5,7.7,9.8,10,15.6c0,0.1,0,0.2,0.1,0.3
	c1.6,3.6,1.7,7.8,0.2,11.4L260.7,94c-0.7,1.3-1.7,2.6-2.8,3.7l-24.6,24.6c-55.3,13.1-98.5,56.2-111.5,111.6L97,258.5
	c-1.1,1.1-2.4,2-3.8,2.8l-12.8,7.1c-0.1,0-0.1,0-0.2,0.1c-0.1,0.1-0.1,0.1-0.2,0.1L59.6,280c-3.7,1.5-7.8,1.4-11.4-0.2H48
	c-5.9-2.2-11.2-5.7-15.7-10.1L45.1,256.9z M135.2,253.1c7.2-61.6,55.8-110.1,117.3-117.3c5.2-0.6,10.5-1,15.7-1
	c55.7-0.1,105.7,34.3,125.5,86.4c19.8,52.1,5.4,111-36.2,148c-41.6,37-101.8,44.5-151.2,18.7C157,362.1,128.7,308.5,135.2,253.1z
	 M425.2,425.8c-58.9,59-146.3,79.2-225.2,52c-78.8-27.2-135.1-97.1-145-179.9c4.4,0,8.8-1.1,12.7-3.2l13.4-7.4
	c6.3,11.1,13.8,21.4,22.4,30.8c3.2,3.3,8.5,3.3,11.8,0.1c3.3-3.2,3.4-8.5,0.2-11.8c-7.5-8.4-14.2-17.5-19.8-27.3l5.6-3.1
	c2.8-1.5,5.3-3.4,7.5-5.6l8.9-8.9c-3,61.6,31.8,118.8,87.9,144.4c56.1,25.6,122.1,14.6,166.7-28c44.6-42.5,58.9-108,35.9-165.2
	c-22.9-57.2-78.4-94.7-140-94.7c-2.4,0-4.9,0.1-7.3,0.2l8.8-8.8c2.2-2.2,4.1-4.7,5.6-7.5l18.7-33.7c2.1-3.9,3.2-8.3,3.1-12.7
	c82.8,9.9,152.7,66.2,179.9,145C504.3,279.4,484.2,366.9,425.2,425.8L425.2,425.8z"/>
<path d="M268.3,386.2c56,0,104.1-39.6,115-94.5c10.9-54.9-18.5-109.8-70.2-131.2s-111.3-3.3-142.4,43.3
	c-31.1,46.5-24.9,108.5,14.7,148.1C207.3,373.9,237.2,386.3,268.3,386.2z M197.2,197.8c28.8-28.8,72-37.4,109.6-21.8
	c37.6,15.6,62.1,52.2,62.1,92.9c0,40.7-24.5,77.4-62.1,92.9c-37.6,15.6-80.8,7-109.6-21.8c-18.9-18.8-29.6-44.4-29.6-71.1
	C167.6,242.2,178.3,216.6,197.2,197.8z"/>
<path d="M268.3,327.6c28,0,52.1-19.8,57.5-47.2c5.5-27.5-9.2-54.9-35.1-65.7c-25.9-10.7-55.7-1.7-71.2,21.6
	c-15.5,23.3-12.5,54.3,7.3,74.1C237.8,321.4,252.8,327.6,268.3,327.6z M238.7,239.3c16.4-16.4,42.9-16.4,59.3,0
	c16.4,16.4,16.4,42.9,0,59.3c-16.4,16.4-42.9,16.4-59.3,0c-7.9-7.8-12.4-18.5-12.4-29.6C226.3,257.8,230.8,247.1,238.7,239.3z"/>
<path d="M276.7,193.5c0,4.6-3.8,8.4-8.4,8.4c-4.6,0-8.4-3.8-8.4-8.4c0-4.6,3.8-8.4,8.4-8.4C273,185.1,276.7,188.9,276.7,193.5z"/>
<path d="M217.2,325.1c-2.7,3.7-1.9,9,1.9,11.7c3.7,2.7,9,1.9,11.7-1.9c2.7-3.7,1.9-9-1.8-11.7c-1.8-1.3-4.1-1.9-6.3-1.5
	C220.5,322.1,218.5,323.3,217.2,325.1z"/>
<path d="M307.7,323.2c-3.7,2.7-4.6,8-1.8,11.7c2.7,3.7,8,4.6,11.7,1.9c3.7-2.7,4.6-7.9,1.9-11.7c-1.3-1.8-3.3-3-5.5-3.4
	C311.8,321.3,309.5,321.9,307.7,323.2z"/>
<path d="M204.5,248.2c1-3.2,0.1-6.8-2.5-9c-2.6-2.2-6.2-2.6-9.2-1.1c-3,1.5-4.8,4.7-4.5,8.1c0.3,3.4,2.5,6.3,5.8,7.3
	C198.4,255,203.1,252.6,204.5,248.2z"/>
<path d="M342.7,253.6c3.2-1,5.5-3.9,5.8-7.3c0.3-3.4-1.5-6.6-4.5-8.1c-3-1.5-6.7-1.1-9.2,1.1c-2.6,2.2-3.6,5.7-2.5,9
	C333.6,252.6,338.3,255,342.7,253.6z"/>
<path d="M387.3,101.4c-26.1-5.3-53-5.3-79.1,0.1c-4.1,1-6.8,4.9-6.3,9.1c0.5,4.2,4.1,7.4,8.3,7.4c0.7,0,1.4-0.1,2-0.3
	c23.7-4.8,48.1-4.7,71.8,0.1c3,0.7,6.1-0.3,8.2-2.6c2-2.3,2.7-5.5,1.7-8.4C392.9,104.1,390.3,101.9,387.3,101.4L387.3,101.4z"/>
<path d="M224.4,420c-23.7,4.7-48.1,4.7-71.8-0.1c-3-0.7-6.1,0.3-8.2,2.6c-2,2.3-2.7,5.5-1.7,8.4c1,2.9,3.5,5,6.5,5.5
	c13.1,2.6,26.5,3.9,39.9,3.9c13.2,0.1,26.3-1.2,39.2-4c2.9-0.7,5.2-2.9,6.1-5.8c0.8-2.9,0.1-6-2-8.2
	C230.4,420.2,227.3,419.3,224.4,420z"/>
<path d="M387.6,376.8c-4.5-1.3-9.1,1.3-10.4,5.7c-7.7,22.9-20,44-36,62.1c-2.1,2.2-2.8,5.4-1.9,8.3c0.9,2.9,3.4,5.1,6.4,5.7
	c3,0.6,6.1-0.6,8-2.9c17.7-19.9,31.1-43.3,39.5-68.6C394.6,382.7,392,378.1,387.6,376.8z"/>
<path d="M421.2,231.4c15.9,18.1,28.1,39.3,35.8,62.2c1.5,4.4,6.2,6.8,10.6,5.3c4.4-1.5,6.8-6.2,5.3-10.6
	c-8.4-25.3-21.9-48.6-39.6-68.5c-2.1-2.3-5.2-3.2-8.1-2.5c-3,0.7-5.3,3-6.1,5.9C418.2,226.1,419,229.3,421.2,231.4L421.2,231.4z"/>
</svg>
