<?xml version="1.0" encoding="utf-8"?>
<!-- Generator: Adobe Illustrator 23.1.0, SVG Export Plug-In . SVG Version: 6.00 Build 0)  -->
<svg version="1.1" id="icon" xmlns="http://www.w3.org/2000/svg" xmlns:xlink="http://www.w3.org/1999/xlink" x="0px" y="0px"
	 viewBox="0 0 368 368" style="enable-background:new 0 0 368 368;" xml:space="preserve">
<g>
	<g>
		<g>
			<path d="M184,0C82.5,0,0,82.5,0,184s82.5,184,184,184s184-82.5,184-184S285.5,0,184,0z M184,352c-92.6,0-168-75.4-168-168
				S91.4,16,184,16s168,75.4,168,168S276.6,352,184,352z"/>
			<path d="M144,152c0-13.2-10.8-24-24-24s-24,10.8-24,24s10.8,24,24,24S144,165.2,144,152z M112,152c0-4.4,3.6-8,8-8s8,3.6,8,8
				s-3.6,8-8,8S112,156.4,112,152z"/>
			<path d="M248,128c-13.2,0-24,10.8-24,24s10.8,24,24,24s24-10.8,24-24S261.2,128,248,128z M248,160c-4.4,0-8-3.6-8-8s3.6-8,8-8
				s8,3.6,8,8S252.4,160,248,160z"/>
			<path d="M261.3,226c-3.3-3-8.4-2.7-11.3,0.6c-16.7,18.6-40.8,29.3-66,29.3c-25.3,0-49.4-10.7-66-29.3c-3-3.3-8-3.6-11.3-0.6
				c-3.3,2.9-3.6,8-0.6,11.3c19.7,22,48.1,34.7,78,34.7c29.8,0,58.2-12.6,78-34.7C264.9,234,264.6,229,261.3,226z"/>
		</g>
	</g>
</g>
</svg>
