<?xml version="1.0" encoding="utf-8"?>
<!-- Generator: Adobe Illustrator 23.1.0, SVG Export Plug-In . SVG Version: 6.00 Build 0)  -->
<svg version="1.1" id="icons" xmlns="http://www.w3.org/2000/svg" xmlns:xlink="http://www.w3.org/1999/xlink" x="0px" y="0px"
	 viewBox="0 0 512 512" style="enable-background:new 0 0 512 512;" xml:space="preserve">
<path d="M80.6,507.1c0.3,0.7,0.8,1.3,1.2,1.8c0.2,0.2,0.3,0.5,0.5,0.8c0.4,0.4,0.9,0.6,1.3,0.9c0.4,0.3,0.8,0.6,1.3,0.8
	c1,0.4,2,0.6,3.1,0.6c0,0,0.1,0,0.1,0h127.9c0,0,0.1,0,0.1,0s0.1,0,0.1,0h208c4.4,0,8-3.6,8-8V112c0-1-0.2-2.1-0.6-3.1
	c-0.4-1-1-1.9-1.7-2.6L368,44.7V24c0-13.2-10.8-24-24-24H168c-13.2,0-24,10.8-24,24v20.6l-61.7,61.7c-0.7,0.7-1.3,1.6-1.7,2.6
	c-0.4,1-0.6,2-0.6,3.1v392v0C80,505,80.2,506.1,80.6,507.1L80.6,507.1z M168,16h176c4.4,0,8,3.6,8,8v16H160V24
	C160,19.6,163.6,16,168,16z M208,120v364.7l-48-48V120L208,120z M144,436.7l-48,48V120h48V436.7z M152,451.3l44.7,44.7h-89.4
	L152,451.3z M224,120h192v376H224L224,120z M296.1,103.3c13.2,0,23.9-10.6,23.9-23.6c0-13-10.8-23.6-24-23.6s-24,10.6-24,23.6
	c0,13,10.7,23.6,23.9,23.6h-76.6l-48-47.3h185.4l48,47.3H296.1z M296,88c-4.4,0-8-3.6-8-8s3.6-8,8-8s8,3.6,8,8S300.4,88,296,88z
	 M152,59.3l44.7,44.7h-89.4L152,59.3z"/>
<path d="M366,244.5l3.5-0.8l-1.5-3.3c-2.2-4.8-10-13.1-23.9-10.5c-1,0.2-2,0.5-2.9,0.8c5.4-8.9,16.7-15.7,24.9-17.8l5.6-1.4
	l-4.4-3.7c-0.4-0.4-10.9-9-24.2-7.4c-10.8,1.2-18.9,5.9-24.3,13.6c-3.9-2.4-8.9-4.1-15.1-4.8c-12.5-1.3-22.4,6.2-22.8,6.5l-4.9,3.8
	l6,1.4c9,2.2,21.3,9.6,25,18.7c-1-0.3-2-0.6-3.1-0.8c-17.7-3.3-21,7.5-21.1,8l-0.8,3l3,0.7c8.1,2,12,5.2,13.8,7.8
	c-11.8,2.5-19.7,7.7-24.5,15.9c-6.3,10.7-6.3,25.3-6.3,40.7v0.6c0,32.6,22.5,59.1,50,59.1h1.3c27.6,0,50-26.5,50-59.1v-0.6
	c0-9.8,0-19.2-1.6-27.5l0.1-0.1l-0.2-0.2c-0.9-4.7-2.4-9.1-4.6-12.9c-4.4-7.4-11.3-12.4-21.4-15.2
	C345.9,254.2,354.8,247.2,366,244.5z M343.7,206.2c5.9-0.7,11.2,1.2,14.9,3.1c-10.5,4.6-23.1,14.2-25.8,26.6c0,0-0.1,0.1-0.1,0.1
	c0-0.1,0-0.1,0-0.2c-0.1-0.4-0.2-0.8-0.2-1.2c-0.1-0.4-0.2-0.8-0.3-1.2c-0.1-0.5-0.3-1-0.4-1.5c-0.1-0.3-0.2-0.6-0.3-0.9
	c-0.2-0.6-0.4-1.2-0.6-1.8c-0.1-0.2-0.1-0.4-0.2-0.5c-0.3-0.7-0.6-1.4-0.9-2.1c0-0.1-0.1-0.1-0.1-0.2c-1.5-3.1-3.5-6.1-6.2-8.8
	C327.8,211,334.6,207.2,343.7,206.2z M289.8,217.3c3.4-1.5,8-2.8,13.2-2.3c6.7,0.7,11.6,2.9,15.2,5.8c0.7,0.5,1.3,1.1,1.8,1.7
	c0.1,0.1,0.3,0.2,0.4,0.4c0.7,0.8,1.3,1.6,1.9,2.4c0.1,0.1,0.1,0.2,0.2,0.3c0.6,0.8,1.1,1.7,1.5,2.6c0,0,0,0,0,0
	c1,1.9,1.6,3.9,2.1,5.9c0,0,0,0.1,0,0.1c0.5,1.9,0.8,3.8,1,5.7c0,0.2,0,0.3,0,0.5c0,0.5,0.1,0.9,0.1,1.3c-0.1,0.2-0.3,0.3-0.4,0.5
	c-0.3,0.4-0.6,0.7-0.8,1.1c-0.1,0.2-0.3,0.4-0.4,0.6c-0.4,0.6-0.9,1.3-1.3,1.9c-0.1,0.2-0.3,0.4-0.4,0.6c-0.5,0.7-0.9,1.5-1.3,2.2
	c-0.1,0.1-0.1,0.2-0.2,0.3c-0.9,1.7-1.7,3.3-2.4,4.7c-0.9-3.5-2.9-7.2-6.3-10.2C313,231.8,301,222,289.8,217.3z M304.9,257.1
	c-1.7-3.6-5.6-8.2-14.4-11.3c1.9-1.4,5.6-2.6,12.3-1.3c3,0.6,5.2,1.7,7,3.1c0.4,0.3,0.8,0.7,1.1,1c0.2,0.2,0.4,0.4,0.5,0.6
	c0.4,0.4,0.7,0.9,1,1.3c0.1,0.1,0.2,0.2,0.2,0.3c1.2,2,1.8,4,2.1,5.6c-0.1,0-0.2,0-0.3,0C311.1,256.5,307.9,256.8,304.9,257.1
	C305,257.1,305,257.1,304.9,257.1z M357.9,277.1c0,0.1,0.1,0.1,0.1,0.2l-9.5,9.5l4.2,4.2l6.3-6.3l3.1,4.7c0.7,4.3,1.1,9,1.2,14
	l-3.9-3.9l-10.9,10.9l4.2,4.2l6.8-6.8l3.8,3.8l0.1-0.1c0,1.1,0,2.2,0,3.3v0.6c0,3.4-0.3,6.8-0.8,10.1l-3.7-1.9L348.5,334l4.2,4.2
	l7.4-7.4l1.3,0.7c-5.7,21.5-22.4,37.1-42.1,37.1h-1.3c-19.5,0-36.1-15.3-41.9-36.5l0.7-0.7l6.8,6.8l4.2-4.2l-10.9-10.9l-2.2,2.2
	c-0.5-3.2-0.8-6.5-0.8-9.8v-0.6c0-1.4,0-2.7,0-4l2.9-2.9l6.8,6.8l4.2-4.2l-10.9-10.9l-2.8,2.8c0.2-6.4,0.7-12.3,2.1-17.4l0.7-0.7
	l6.8,6.8l4.2-4.2l-8.9-8.9c0.2-0.3,0.3-0.6,0.4-0.9c3.5-5.9,9.2-10,17.4-12.3L286.5,275l4.2,4.2l6.8-6.8l6.8,6.8l4.2-4.2l-10.5-10.5
	c1.6-0.4,3.3-0.7,5-1l0.6-0.1c4.3-0.7,9.2-1,14.6-1h1.2c0.6,0,1.2,0,1.9,0l0.1,0c5.5,0.1,10.5,0.5,14.8,1.4l1.1,0.2
	c0.5,0.1,1,0.2,1.5,0.3L327.8,275l4.2,4.2l6.8-6.8l6.8,6.8l4.2-4.2l-10.6-10.6C348.1,266.6,354.2,270.8,357.9,277.1z M325.4,256.6
	C325.4,256.6,325.4,256.6,325.4,256.6c0.3-0.7,0.7-1.6,1.2-2.5c0.1-0.1,0.1-0.2,0.2-0.3c0.2-0.3,0.4-0.7,0.6-1.1
	c0.2-0.4,0.4-0.8,0.7-1.2c0.1-0.2,0.2-0.3,0.3-0.5c0.4-0.7,0.8-1.4,1.3-2.1c0,0,0,0,0,0c0.5-0.8,1-1.5,1.5-2.3l1.8-2.3
	c1.4-1.7,2.9-3.3,4.5-4.6l0.8-0.7l0,0c2.1-1.6,4.5-2.8,7-3.2c8.1-1.5,12.9,1.7,15.3,4.3c-12.2,4.1-21.6,12.5-25.4,17.6
	C332.1,257,328.9,256.7,325.4,256.6z"/>
<path d="M297.4,334.9l-10.9,10.9l4.2,4.2l6.8-6.8l6.8,6.8l4.2-4.2L297.4,334.9z"/>
<path d="M307.1,360.6l4.2,4.2l6.8-6.8l6.8,6.8l4.2-4.2l-10.9-10.9L307.1,360.6z"/>
<path d="M327.8,345.9l4.2,4.2l6.8-6.8l6.8,6.8l4.2-4.2l-10.9-10.9L327.8,345.9z"/>
<path d="M297.4,319.6l6.8,6.8l4.2-4.2l-10.9-10.9l-10.9,10.9l4.2,4.2L297.4,319.6z"/>
<path d="M307.1,334l4.2,4.2l6.8-6.8l6.8,6.8l4.2-4.2l-10.9-10.9L307.1,334z"/>
<path d="M327.8,322.2l4.2,4.2l6.8-6.8l6.8,6.8l4.2-4.2l-10.9-10.9L327.8,322.2z"/>
<path d="M297.4,296l6.8,6.8l4.2-4.2l-10.9-10.9l-10.9,10.9l4.2,4.2L297.4,296z"/>
<path d="M318.1,299.5l-10.9,10.9l4.2,4.2l6.8-6.8l6.8,6.8l4.2-4.2L318.1,299.5z"/>
<path d="M327.8,298.6l4.2,4.2l6.8-6.8l6.8,6.8l4.2-4.2l-10.9-10.9L327.8,298.6z"/>
<path d="M318.1,284.2l6.8,6.8l4.2-4.2l-10.9-10.9l-10.9,10.9l4.2,4.2L318.1,284.2z"/>
</svg>
