<?xml version="1.0" encoding="iso-8859-1"?>
<!-- Generator: Adobe Illustrator 19.0.0, SVG Export Plug-In . SVG Version: 6.00 Build 0)  -->
<svg version="1.1" id="icon" xmlns="http://www.w3.org/2000/svg" xmlns:xlink="http://www.w3.org/1999/xlink" x="0px" y="0px"
	 viewBox="0 0 368 368" style="enable-background:new 0 0 368 368;" xml:space="preserve">
<g>
	<g>
		<path d="M364.8,145.6l-64-48c-1.384-1.04-3.072-1.6-4.8-1.6H72c-1.728,0-3.416,0.56-4.8,1.6l-64,48C1.184,147.112,0,149.488,0,152
			v80c0,3.032,1.712,5.8,4.424,7.16c2.712,1.344,5.952,1.064,8.376-0.76L64,200v56c0,8.824,7.176,16,16,16h32
			c8.824,0,16-7.176,16-16v-64h112v64c0,8.824,7.176,16,16,16h32c8.824,0,16-7.176,16-16v-56l51.2,38.4
			c1.416,1.064,3.104,1.6,4.8,1.6c1.216,0,2.448-0.28,3.576-0.84c2.712-1.36,4.424-4.128,4.424-7.16v-80
			C368,149.488,366.816,147.112,364.8,145.6z M112,256H80v-64h32V256z M288,256h-32v-64h32V256z M352,216l-51.2-38.4
			c-0.336-0.248-0.728-0.376-1.088-0.568c-0.296-0.16-0.56-0.336-0.872-0.456c-0.912-0.352-1.856-0.576-2.84-0.576H72
			c-0.984,0-1.928,0.224-2.832,0.568c-0.312,0.12-0.584,0.304-0.872,0.456c-0.36,0.192-0.76,0.32-1.088,0.568L16,216v-60l58.664-44
			h218.664L352,156V216z"/>
	</g>
</g>
<g>
</g>
<g>
</g>
<g>
</g>
<g>
</g>
<g>
</g>
<g>
</g>
<g>
</g>
<g>
</g>
<g>
</g>
<g>
</g>
<g>
</g>
<g>
</g>
<g>
</g>
<g>
</g>
<g>
</g>
</svg>
