<?xml version="1.0" encoding="utf-8"?>
<!-- Generator: Adobe Illustrator 23.1.0, SVG Export Plug-In . SVG Version: 6.00 Build 0)  -->
<svg version="1.1" id="icon" xmlns="http://www.w3.org/2000/svg" xmlns:xlink="http://www.w3.org/1999/xlink" x="0px" y="0px"
	 viewBox="0 0 488 488" style="enable-background:new 0 0 488 488;" xml:space="preserve">
<g>
	<g>
		<path d="M480,408H379.7c4.2-4.7,7.4-10.1,9.5-16h58.9c2.4,0,4.7-1.1,6.2-2.9l3.4-4.1c4.8-5.7,7-13.1,6.2-20.4
			c-1-7.4-4.8-14.1-10.7-18.7c-1.4-1.2-3.2-1.8-5.1-1.8H448v-72c0-4.4-3.6-8-8-8H327.1l-0.8-6.2c-4.3-34.7-18.2-67.5-40-94.8
			c-2.8-3.5-7.8-4-11.2-1.2s-4,7.8-1.2,11.2c20,25,32.7,55.1,36.7,86.8l0.5,4.2H280v-22.3c0-14.4-13.8-25.7-31.6-25.7H248v-8
			c0-4.4-3.6-8-8-8s-8,3.6-8,8v32c0,4.4,3.6,8,8,8s8-3.6,8-8v-8h0.4c9.2,0,15.6,5.1,15.6,9.7V264H139.3l-61.7-61.7
			c-3.3-3-8.3-2.7-11.3,0.6c-2.8,3.1-2.8,7.7,0,10.7l13,13C67.1,235.5,58.9,249,56.6,264H24c-4.4,0-8,3.6-8,8v72h-0.9
			c-2,0-3.9,0.7-5.4,2.1c-11.2,9.8-12.9,26.5-4.1,38.5l3,4.1c1.5,2.1,3.9,3.3,6.5,3.3h51.7c2.1,5.9,5.3,11.3,9.5,16H16
			c-4.4,0-8,3.6-8,8s3.6,8,8,8h464c4.4,0,8-3.6,8-8S484.4,408,480,408z M444.9,360c1.6,1.8,2.7,4,3,6.4c0.3,3-0.6,6.1-2.6,8.4h0
			l-1,1.2H424v-16H444.9z M90.9,238.1l25.9,25.9H72.9C75.1,253.3,81.6,244,90.9,238.1z M40,376H19.2l-0.6-0.9
			c-3.4-4.5-3.4-10.7,0-15.1H40V376z M112,408c-17.7,0-32-14.3-32-32s14.3-32,32-32s32,14.3,32,32C144,393.7,129.7,408,112,408z
			 M147.7,408c4.2-4.7,7.4-10.1,9.5-16h141.6c2.1,5.9,5.3,11.3,9.5,16H147.7z M344,408c-17.7,0-32-14.3-32-32s14.3-32,32-32
			s32,14.3,32,32S361.7,408,344,408z M344,328c-26.5,0-48,21.5-48,48H160c0-26.5-21.5-48-48-48s-48,21.5-48,48h-8v-24
			c0-4.4-3.6-8-8-8H32v-64h400v64h-16c-4.4,0-8,3.6-8,8v24h-16C392,349.5,370.5,328,344,328z"/>
	</g>
</g>
<g>
	<g>
		<path d="M192,296h-16c-4.4,0-8,3.6-8,8s3.6,8,8,8h16c4.4,0,8-3.6,8-8S196.4,296,192,296z"/>
	</g>
</g>
<g>
	<g>
		<path d="M248,64c-4.4,0-8,3.6-8,8v24c0,4.4,3.6,8,8,8s8-3.6,8-8V72C256,67.6,252.4,64,248,64z"/>
	</g>
</g>
<g>
	<g>
		<path d="M308.5,71.7c-4.2-1.3-8.7,1.1-10,5.3c-0.1,0.2-0.1,0.4-0.2,0.7l-6.2,23.2c-1.1,4.3,1.4,8.6,5.7,9.8
			c0.7,0.2,1.4,0.2,2.1,0.2c3.6,0,6.8-2.4,7.7-5.9l6.2-23.2C315,77.5,312.7,73,308.5,71.7z"/>
	</g>
</g>
<g>
	<g>
		<g>
			<path d="M363.9,95.1c-3.8-2.2-8.6-0.9-10.9,2.9l-12,20.8c-2.2,3.8-0.9,8.7,2.9,10.9c1.2,0.7,2.6,1.1,4,1.1c2.9,0,5.5-1.5,6.9-4
				l12-20.8C369.1,102.2,367.8,97.3,363.9,95.1z"/>
			<path d="M348,130.8L348,130.8L348,130.8z"/>
		</g>
	</g>
</g>
<g>
	<g>
		<path d="M411.9,131.9c-3.1-3-8-3-11.1,0l-17,17c-3.2,3.1-3.3,8.1-0.2,11.3c3.1,3.2,8.1,3.3,11.3,0.2c0.1-0.1,0.1-0.1,0.2-0.2
			l17-17C415.2,140.1,415.1,135,411.9,131.9z"/>
	</g>
</g>
<g>
	<g>
		<path d="M448.9,180c-2.2-3.8-7.1-5.1-10.9-2.9l-20.8,12c-3.8,2.2-5.1,7.1-2.9,10.9c1.4,2.5,4.1,4,6.9,4c1.4,0,2.8-0.4,4-1.1
			l20.8-12C449.9,188.7,451.1,183.8,448.9,180z"/>
	</g>
</g>
<g>
	<g>
		<path d="M201.9,101l-6.2-23.2c-1.1-4.3-5.5-6.8-9.8-5.7c-4.3,1.1-6.8,5.5-5.7,9.8l6.2,23.2c0.9,3.5,4.1,5.9,7.7,5.9
			c4.4,0,8-3.6,8-8C202.2,102.4,202.1,101.7,201.9,101z"/>
	</g>
</g>
<g>
	<g>
		<path d="M151,119.9l-12-20.8c-2.2-3.8-7.1-5.1-10.9-2.9c-3.8,2.2-5.1,7.1-2.9,10.9l12,20.8c1.4,2.5,4.1,4,6.9,4c4.4,0,8-3.6,8-8
			C152,122.5,151.7,121.1,151,119.9z"/>
	</g>
</g>
<g>
	<g>
		<path d="M106.8,151.5c-0.1-0.1-0.1-0.1-0.2-0.2l-17-17c-3.2-3-8.3-2.9-11.3,0.4c-2.9,3.1-2.9,7.9,0,10.9l17,17
			c3.1,3.2,8.1,3.3,11.3,0.2C109.8,159.7,109.9,154.6,106.8,151.5z"/>
	</g>
</g>
</svg>
