<?xml version="1.0" encoding="utf-8"?>
<!-- Generator: Adobe Illustrator 23.1.0, SVG Export Plug-In . SVG Version: 6.00 Build 0)  -->
<svg version="1.1" id="Layer_1" xmlns="http://www.w3.org/2000/svg" xmlns:xlink="http://www.w3.org/1999/xlink" x="0px" y="0px"
	 viewBox="0 0 512 512" style="enable-background:new 0 0 512 512;" xml:space="preserve">
<path d="M499,230.2c-2.7-0.9-6-1.9-9.9-3.2c-23.5-7.6-63.2-20.5-89.1-25.2c-0.1,0-0.2,0-0.2,0c-6.2-1.1-11.6-1.8-15.8-1.8H240
	c-11.7,0-28.6,3-46.5,6.8c-3.8-3.1-10-8.1-16.8-13.2C156,178.1,148.6,176,144,176c-5.5,0-15,1.9-23.6,4.2c-0.1,0-0.2,0.1-0.3,0.1
	c-2.2,0.6-4.4,1.2-6.4,1.8C95,187.8,88,192.7,88,200c0,3.9,2.9,11.2,8.7,21.7c-14.9-3.3-35.4-9.4-50.5-13.9
	C26.3,201.9,19.6,200,16,200c-4.3,0-9.1,0.3-12.6,4.1C0,207.7,0,212.5,0,216c0,6.9,6.5,12.4,19,22.3c3.5,2.8,8.8,6.9,11.6,9.7
	c-2.8,2.8-8.1,7-11.6,9.7C6.5,267.6,0,273.1,0,280c0,3.5,0,8.3,3.4,11.9c3.5,3.7,8.3,4.1,12.6,4.1c3.6,0,10.3-1.9,30.2-7.9
	c16.3-4.9,39-11.6,54.1-14.6c-2.7,4.3-4.4,9-4.4,14.5c0,10.1,12.9,18,16.8,20.2c6.3,3.5,12.3,5.2,17.6,5.2c3.7,0,7.1-0.9,9.9-2.6
	c9.8-6.2,31.8-23.8,32.7-24.5c0.5-0.4,1-0.9,1.4-1.4c24.4,5.7,49.7,11.2,65.6,11.2h0.6c1.4,9.6,5,18,8.1,23.8
	c0.7,1.4,7.4,13.6,12.2,15.6c1,0.4,2,0.6,3.1,0.6c2.1,0,4.1-0.8,5.7-2.3c8.5-8.5,15-25.9,17.3-37.7h59.1c0,18.4,16.6,30,17.4,30.6
	c1.3,0.9,2.9,1.4,4.5,1.4c0.5,0,1,0,1.5-0.1c2.1-0.4,3.9-1.6,5.1-3.4l19.5-29.3c25.1-3.6,70.4-18.3,95-26.2c3.8-1.2,7.2-2.3,9.9-3.2
	c7.8-2.5,13-9.6,13-17.8S506.8,232.7,499,230.2z M143.9,192c4.2,0.6,16.8,9.3,29.8,19.3c-4,0.9-8,1.9-12,2.8c-4.2,1-8.4,2-12.5,2.9
	l-14.4-23.9C138.5,192.5,141.7,192,143.9,192z M118.6,197.4l14.2,23.4c-6.5,1.4-12.2,2.4-16.4,2.9c-4.7-7.9-9.4-16.6-11.4-21.3
	C107.9,200.9,113,199.1,118.6,197.4z M62.3,266.7c-7,2-14.1,4.1-20.7,6.1c-9.1,2.7-19.3,5.8-23.9,6.8c2.9-2.8,7.9-6.7,11.2-9.4
	c12.5-9.9,19-15.4,19-22.3s-6.5-12.4-19-22.3c-3.3-2.6-8.3-6.6-11.2-9.4c4.6,1.1,14.8,4.1,23.9,6.8c6.6,2,13.6,4.1,20.7,6.1
	c-4,5.3-6.4,11.8-6.4,18.7C56,254.9,58.3,261.4,62.3,266.7z M131.7,297.2c-0.3,0.2-2.2,0.5-6.1-0.8c-6.6-2.2-12.3-7-13.6-9.2
	c0.2-3.4,2.2-7.3,9.9-14.2c8.6,1.4,20.3,4.1,32.9,7.1C147.5,285.9,137.2,293.8,131.7,297.2z M263.9,314.1c-2.7-4.6-5.7-11-7.1-18.1
	h13.8C269.2,301.6,266.7,308.5,263.9,314.1z M353.8,275c-1.3,1.6-2.5,3.3-3.5,5H240c-16.8,0-47.5-7.3-74.6-13.7
	c-23.2-5.5-43.2-10.3-53.4-10.3c-7.1,0-18.4,2.3-31.1,5.6c-5.4-2.3-8.9-7.7-8.9-13.6s3.5-11.3,8.9-13.6c12.7,3.3,24,5.6,31.1,5.6
	c0,0,0,0,0,0c0,0,0,0,0,0c10.2,0,30.2-4.8,53.3-10.3c8.2-2,16.8-4,25.2-5.9c2.1,0.4,4.3-0.1,6-1.3c17-3.7,32.9-6.5,43.4-6.5h144
	c0.5,0,1.1,0,1.7,0c-4.4,10.2-8.2,25.5-4.7,45.1C369.9,261.9,360.6,266.6,353.8,275z M366.6,307.6c-3.2-4.1-6-10.1-3.6-17.1
	c0.6-1.8,1.7-3.7,3.2-5.5c4.4-5.4,10.2-8,17.8-8c1,0,2,0,2.9,0.1L366.6,307.6z M494.2,250.5c-2.7,0.9-6.1,2-10,3.2
	c-19.7,6.4-53.1,17.2-77.6,22.8l0,0c1.3-2,1.7-4.5,1-6.7c-0.7-2.3-2.4-4.1-4.6-5.1c-0.4-0.2-2.4-1-5.4-1.8
	c-5-21.1,0.2-36.2,4.6-44.3c24.7,5.2,61.7,17.2,82,23.7c3.9,1.2,7.2,2.3,9.9,3.2c1.1,0.3,1.8,1.4,1.8,2.5S495.3,250.2,494.2,250.5z"
	/>
<path d="M440,232L440,232c-4.4,0-8,3.6-8,8c0,4.4,3.6,8,8,8s8-3.6,8-8C448,235.6,444.4,232,440,232z"/>
</svg>
