<?xml version="1.0" encoding="utf-8"?>
<!-- Generator: Adobe Illustrator 21.1.0, SVG Export Plug-In . SVG Version: 6.00 Build 0)  -->
<svg version="1.1" id="icon" xmlns="http://www.w3.org/2000/svg" xmlns:xlink="http://www.w3.org/1999/xlink" x="0px" y="0px"
	 viewBox="0 0 609 609" style="enable-background:new 0 0 609 609;" xml:space="preserve">
<path d="M304.5,9.9C304.5,9.9,304.5,9.9,304.5,9.9c-163.5,0-296,132.5-296,296c0,52.8,13.8,102.3,38,145.2c1.9,3.3,3.9,6.7,5.9,9.9
	c12.5,20.3,27.3,38.9,44.2,55.5c11.3,11.2,23.6,21.5,36.6,30.8c10.9,7.8,22.4,14.8,34.4,21.1c11.6,6.1,23.7,11.4,36.1,15.9
	c19.1,7,39.2,12,60,14.8l-36.3-94.7c-7.2,6.6-15.2,11.5-23.7,14.5c-3.7,1.3-7.5,2.1-11.3,2.6c-8.6-4.5-16.8-9.4-24.8-14.9
	c-10.3-7.1-20.1-14.9-29.1-23.4c-8.4-7.9-16.3-16.3-23.5-25.3c-1.8-2.2-3.6-4.5-5.3-6.8c-2.1-2.8-4.2-5.8-6.2-8.7
	c-18.1-26.6-31-56.9-37.4-89.5l16-20.3l49.7-4l27.4-2.2l2.6-0.2l17-17h6.7v-11.3c17.2,0,33.1,8,45.9,21.5
	c19.4,20.4,32.1,53.3,32.1,90.5c0,4.3-0.2,8.6-0.5,12.8L303.1,554l1.4,4.1l1.4-4.1L346,422.7c-0.3-4.2-0.5-8.4-0.5-12.8
	c0-37.2,12.6-70.1,32.1-90.5c12.9-13.5,28.8-21.5,45.9-21.5v11.3h6.7l17,17l2.6,0.2l27.4,2.2l49.7,4l16,20.3
	c-6.4,32.7-19.3,63-37.4,89.5c-2,3-4.1,5.9-6.2,8.7c-1.7,2.3-3.5,4.6-5.3,6.8c-7.2,9-15,17.5-23.5,25.3
	c-9.1,8.5-18.8,16.3-29.2,23.4c-7.9,5.4-16.2,10.4-24.8,14.9c-3.9-0.5-7.6-1.4-11.3-2.6c-8.5-2.9-16.5-7.9-23.7-14.5l-36.3,94.7
	c20.8-2.9,40.8-7.9,60-14.8c12.4-4.5,24.5-9.8,36.1-15.9c12-6.3,23.5-13.3,34.4-21.1c13-9.3,25.3-19.5,36.6-30.8
	c16.8-16.6,31.7-35.3,44.2-55.5c2-3.3,4-6.6,5.9-9.9c24.2-42.9,38-92.4,38-145.2C600.4,142.5,468,9.9,304.5,9.9z M304.5,335.8
	L304.5,335.8c-21.3,0-38.7-17.3-38.7-38.7s17.3-38.7,38.7-38.7h0c21.3,0,38.7,17.3,38.7,38.7S325.8,335.8,304.5,335.8z M541.7,262.7
	l-96.2-29.4l-22,7.3v14.1c-36.1-7.3-76.4-11.4-119-11.4h0c-42.6,0-83,4.1-119,11.4v-14.1l-22-7.3l-96.2,29.4l-2,0.6
	C85.4,149.4,184.9,62.9,304.5,62.9h0c119.6,0,219.1,86.5,239.2,200.4L541.7,262.7z"/>
<path d="M333.2,297.1c0,15.8-12.9,28.7-28.7,28.7h0c-15.8,0-28.7-12.9-28.7-28.7c0-15.8,12.9-28.7,28.7-28.7h0
	C320.3,268.5,333.2,281.3,333.2,297.1z"/>
</svg>
