<?xml version="1.0" encoding="utf-8"?>
<!-- Generator: Adobe Illustrator 21.1.0, SVG Export Plug-In . SVG Version: 6.00 Build 0)  -->
<svg version="1.1" id="icon" xmlns="http://www.w3.org/2000/svg" xmlns:xlink="http://www.w3.org/1999/xlink" x="0px" y="0px"
	 viewBox="0 0 496 496" style="enable-background:new 0 0 496 496;" xml:space="preserve">
<style type="text/css">
	.st0{enable-background:new    ;}
	.st1{fill:none;stroke:#000000;stroke-width:11;stroke-miterlimit:10;}
</style>
<g id="Слой_1_1_">
	<path d="M98.7,359c-3.8,0-6.8,3-6.8,6.8c0,1.9,0.8,3.6,2,4.8c1.2,1.2,2.9,2,4.8,2h206.4V359H98.7z M431.2,33.3H267.5
		c-44,0-86.3,20.9-113.1,55.8L67.1,203c-19,24.7-29.4,55.5-29.4,86.7v96.5c0,15,12.2,27.1,27.1,27.1h240.3v-13.6H64.8
		c-7.5,0-13.6-6.1-13.6-13.6v-6.8c0-3.8,3-6.8,6.8-6.8h13.6c3.8,0,6.8-3,6.8-6.8c0-1.9-0.8-3.6-2-4.8c-1.2-1.2-2.9-2-4.8-2H58
		c-3.8,0-6.8-3-6.8-6.8c0-1.9,0.8-3.6,2-4.8c1.2-1.2,2.9-2,4.8-2h247.1v-13.6H58c-3.8,0-6.8-3-6.8-6.8v-35.4
		c0-28.2,9.4-56.1,26.6-78.4l87.3-113.9c24.2-31.6,62.5-50.5,102.3-50.5h163.7c7.5,0,13.6,6.1,13.6,13.6v259.4h8
		c2,0,3.9,0.5,5.6,1.4V60.5C458.3,45.5,446.2,33.3,431.2,33.3z"/>
	<path d="M417.6,264h-54.3c-7.5,0-13.6,6.1-13.6,13.6v13.6c0,7.5,6.1,13.6,13.6,13.6h54.3c7.5,0,13.6-6.1,13.6-13.6v-13.6
		C431.2,270.1,425.1,264,417.6,264z M390.5,291.2h-27.1v-13.6h27.1V291.2z M417.6,291.2H404v-13.6h13.6V291.2z"/>
	<path d="M424.4,146.5c1.9,0,3.6-0.8,4.8-2c1.2-1.2,2-2.9,2-4.8V60.5H267.8c-35.9,0-70.2,17.1-91.9,45.6l-58.2,76.7
		c-10.6,0.7-19,9.5-19,20.2v27.1c0,11.2,9.1,20.3,20.4,20.3h312.1v-83.6c0-3.8-3-6.8-6.8-6.8c-1.9,0-3.6,0.8-4.8,2
		c-1.2,1.2-2,2.9-2,4.8v70.1H186.8c4.3-5.7,7-12.7,7-20.4v-33.9H135l51.8-68.3C205.9,89.1,236.2,74,267.9,74h149.8v65.6
		C417.6,143.5,420.7,146.5,424.4,146.5z M180.2,196.2v20.4c0,11.2-9.1,20.4-20.4,20.4h-40.7c-3.7,0-6.8-3-6.8-6.8V203
		c0-3.7,3-6.8,6.8-6.8H180.2z"/>
</g>
<g id="Слой_2">
	<g class="st0">
		<path d="M376.4,399.4c1.3,2.3,1.9,4.9,1.9,7.7v15.4c0,4.4-1.5,8.1-4.5,11.1c-2.9,2.9-6.6,4.4-10.8,4.4h-27c-2.6,0-4-1.3-4-3.8
			v-69.5c0-2.6,1.3-4,4-4h23.2c4.3,0,7.9,1.5,10.8,4.5c3,3,4.5,6.7,4.5,11v7.8c0,3.8-1.2,7.2-3.5,9.9
			C373.3,395.2,375.1,397.1,376.4,399.4z M364.5,389.4c1.5-1.5,2.3-3.3,2.3-5.4v-7.8c0-2.2-0.8-4-2.3-5.5c-1.5-1.5-3.3-2.2-5.4-2.2
			h-19.3v23.2h19.3C361.2,391.6,363,390.9,364.5,389.4z M339.7,430.3h23.2c2.1,0,3.9-0.8,5.4-2.3c1.5-1.5,2.3-3.4,2.3-5.5v-15.4
			c0-2.2-0.8-4-2.3-5.5c-1.5-1.5-3.3-2.3-5.4-2.3h-23.2V430.3z"/>
		<path d="M439.5,432c0.4,0.8,0.6,1.5,0.6,2.3c0,1-0.4,1.8-1.2,2.6c-0.8,0.8-1.7,1.1-2.8,1.1c-1.4,0-2.4-0.6-3.1-1.8l-18.3-29h-13.2
			v27c0,1.3-0.4,2.2-1.1,2.9c-0.7,0.6-1.6,1-2.8,1c-1.1,0-2-0.3-2.8-1c-0.8-0.7-1.2-1.6-1.2-2.8v-69.5c0-2.6,1.3-4,4-4h27
			c4.3,0,7.9,1.5,10.8,4.5c3,3,4.5,6.7,4.5,11v15.5c0,4.3-1.5,7.9-4.5,11c-2.9,3-6.6,4.5-10.8,4.5h-0.8L439.5,432z M424.7,399.3
			c2.1,0,3.9-0.7,5.4-2.2c1.5-1.5,2.3-3.3,2.3-5.5v-15.5c0-2.2-0.8-4-2.3-5.5c-1.5-1.5-3.3-2.2-5.4-2.2h-23.2v30.8H424.7z"/>
	</g>
</g>
<g id="Слой_3">
	<path class="st1" d="M442.7,479.6H327.2c-12.1,0-22-9.9-22-22V342c0-12.1,9.9-22,22-22h115.6c12.1,0,22,9.9,22,22v115.6
		C464.8,469.6,454.9,479.6,442.7,479.6z"/>
</g>
</svg>
