<svg height="511pt" viewBox="0 0 511.99996 511" width="511pt" xmlns="http://www.w3.org/2000/svg"><path d="m511.910156 317.425781-6.371094-41.28125c-4.265624-27.628906-16.96875-52.679687-36.734374-72.449219l-9.441407-9.441406c-2.929687-2.929687-7.679687-2.929687-10.609375 0-2.925781 2.929688-2.925781 7.679688 0 10.605469l9.445313 9.441406c17.496093 17.5 28.742187 39.675781 32.515625 64.132813l2.875 18.617187-104.484375-104.480469 23.679687-23.679687 10.828125 10.828125c3.050781 3.050781 8.199219 2.84375 11.003907-.429688 2.515624-2.9375 2.332031-7.449218-.398438-10.175781l-10.824219-10.828125 1.125-1.125c1.40625-1.40625 2.195313-3.316406 2.195313-5.304687s-.789063-3.894531-2.195313-5.300781l-1.839843-1.839844 15.410156-15.410156c3.324218-3.328126 5.15625-7.746094 5.15625-12.449219 0-4.699219-1.832032-9.121094-5.15625-12.445313l-30-30c-6.863282-6.863281-18.03125-6.859375-24.894532 0l-15.410156 15.410156-2.554687-2.554687c-2.925781-2.925781-7.675781-2.925781-10.605469 0l-1.125 1.125-44.695312-44.695313c-19.769532-19.769531-44.820313-32.46875-72.449219-36.734374l-41.28125-6.371094c-3.210938-.496094-6.367188 1.125-7.835938 4.019531-1.464843 2.894531-.90625 6.402344 1.386719 8.695313l120.085938 120.085937c-.972657 1.449219-1.425782 3.199219-1.242188 4.96875l2.484375 23.582031-165.742187 165.738282-1.125-1.125c-1.40625-1.40625-3.3125-2.195313-5.300782-2.195313-1.992187 0-3.898437.789063-5.304687 2.195313l-58.972657 58.972656c-2.929687 2.929687-2.929687 7.679687 0 10.605468 2.929688 2.929688 7.679688 2.929688 10.605469 0l53.667969-53.667968 32.253906 32.25-119.675781 119.675781-32.253906-32.25 41.296875-41.292969c2.929687-2.929687 2.929687-7.679687 0-10.605468-2.929688-2.929688-7.679688-2.929688-10.609375 0l-46.597657 46.59375c-2.925781 2.929687-2.925781 7.679687 0 10.609374l42.859376 42.855469c1.40625 1.40625 3.3125 2.199219 5.304687 2.199219 1.988281 0 3.894531-.792969 5.300781-2.199219l130.285156-130.28125c2.925782-2.929687 2.925782-7.679687 0-10.605469l-1.125-1.125 94.476563-94.480468c2.929687-2.929688 2.929687-7.679688 0-10.605469-2.929687-2.929687-7.675781-2.929687-10.605469 0l-94.480468 94.476563-19.390626-19.390626 162.964844-162.96875 19.394532 19.394532-43.660157 43.660156c-2.929687 2.925781-2.929687 7.675781 0 10.605469 2.929688 2.929687 7.679688 2.929687 10.605469 0l46.511719-46.511719 22.96875 1.863281c.203125.015625.40625.027344.605469.027344 1.5 0 2.957031-.453125 4.1875-1.28125l120.796874 120.796875c1.441407 1.441406 3.359376 2.195312 5.304688 2.195312 1.152344 0 2.3125-.265624 3.390625-.808593 2.894531-1.46875 4.515625-4.628907 4.019531-7.835938zm-118.105468-232.410156c1.011718-1.011719 2.664062-1.015625 3.679687 0l30 30c.664063.664063.761719 1.4375.761719 1.839844 0 .402343-.097656 1.179687-.761719 1.839843l-15.414063 15.410157-33.675781-33.679688zm-159.738282-63.230469c24.457032 3.773438 46.632813 15.019532 64.128906 32.515625l44.699219 44.699219-23.679687 23.675781-103.769532-103.765625zm117.074219 165.675782-26.175781-26.171876-2.203125-20.945312 37.167969-37.167969 48.679687 48.679688-37.246094 37.246093zm0 0"/></svg>