<?xml version="1.0" encoding="utf-8"?>
<!-- Generator: Adobe Illustrator 23.1.0, SVG Export Plug-In . SVG Version: 6.00 Build 0)  -->
<svg version="1.1" id="icon" xmlns="http://www.w3.org/2000/svg" xmlns:xlink="http://www.w3.org/1999/xlink" x="0px" y="0px"
	 viewBox="0 0 503.3 503.3" style="enable-background:new 0 0 503.3 503.3;" xml:space="preserve">
<style type="text/css">
	.st0{fill:#9B9B9B;}
	.st1{fill:#C6C6C6;}
</style>
<g>
	<path class="st0" d="M208.3,433.9H295V225.6h-86.8L208.3,433.9L208.3,433.9z"/>
	<path class="st1" d="M208.3,433.9H295l-6.7,26.9c-1.2,4.6-5.3,7.9-10.1,7.9H225c-4.8,0-8.9-3.2-10.1-7.9L208.3,433.9z"/>
	<path class="st0" d="M282.3,503.3H221c-7,0-12.7-5.7-12.7-12.7v-9.3c0-7,5.7-12.7,12.7-12.7h61.4c7,0,12.7,5.7,12.7,12.7v9.3
		C295.1,497.6,289.4,503.3,282.3,503.3"/>
	<path class="st1" d="M295,225.6h-86.8l17.4-34.7h52.1L295,225.6z"/>
	<path class="st0" d="M225.6,190.9h52.1v-52.1h-52.1V190.9z"/>
	<path class="st1" d="M277.7,138.8h-52.1c0-34.5,5-68.9,15-101.9L251.7,0l11.1,36.9C272.7,70,277.7,104.3,277.7,138.8"/>
</g>
</svg>
