<?xml version="1.0" encoding="utf-8"?>
<!-- Generator: Adobe Illustrator 23.1.0, SVG Export Plug-In . SVG Version: 6.00 Build 0)  -->
<svg version="1.1" id="icon" xmlns="http://www.w3.org/2000/svg" xmlns:xlink="http://www.w3.org/1999/xlink" x="0px" y="0px"
	 viewBox="0 0 106.2 106.2" style="enable-background:new 0 0 106.2 106.2;" xml:space="preserve">
<g>
	<path d="M104,10V0H2.2v10h2.3v86.2H2.2v10H104v-10h-2V10H104z M9.5,96.2V10H23v54.7c-1.7,1.4-3.3,3-4.7,4.7c-1.9,2.3-2.3,5.6,0,7.9
		c1.2,1.2,3,1.8,4.7,1.6v17.3L9.5,96.2L9.5,96.2z M43.8,70.4c-1.3,1.5-3,2.3-4.7,2.3c-0.2,0-0.4,0-0.6,0c-0.4,0-0.8-0.1-1.2-0.1
		c-1.5,0-2.8,0.4-4.1,1c1,9.3,2.1,22.1,2.1,22.1c0,0.2,0,1.4,0,2.3h-0.1c0-0.2,0-0.5,0-0.7c0,0,0-0.4-0.1-1.2H28v-21
		c2.8-2.9,5.9-4.8,10.2-4.3c3,0.3,5.6-2.8,5.6-5.6c0-3.3-2.6-5.2-5.6-5.6c-3.1-0.4-6.1,0.1-8.8,1.2c0-0.4-0.1-0.7-0.2-1
		c3.1-1.2,6.3-1.6,9.5-1.3c4.1,0.5,6.9,3.3,6.9,7.1C45.7,67.3,45,69.1,43.8,70.4z M46.7,47.6c-0.1,0-0.1,0-0.2,0v-0.8
		c-1.9-0.8-3.6-2-5-3.5v5.1c-0.6,0.2-1.2,0.4-1.7,0.7l0,0c-0.6,0.1-1.4,0.6-2.5,1.4c-0.4,0.3-0.8,0.6-1.2,1c-2.7,2.2-5.9,5.5-8,7.7
		V10h13.5v11.8c-2.4,2.6-3.9,6.1-3.9,9.9c0,7.9,6.3,14.4,14.2,14.6C50,46.4,48.3,46.8,46.7,47.6z M46.5,18.3V10H60v9.3
		c-2.3-1.4-4.9-2.2-7.8-2.2C50.2,17.1,48.3,17.5,46.5,18.3z M66.9,31.7c0-2.6-0.7-5-1.9-7.1V10h13.5v49.8l-5.8-5.2
		c-1.1-1.6-2.6-2.9-4.4-4l0,0h0c-1-0.6-2.1-1.1-3.3-1.5v-8.8c-1.2,2.2-2.9,4-5,5.4V48c-0.2,0-0.3,0-0.5,0c-1.9-1-4-1.6-6.3-1.7
		C60.9,45.7,66.9,39.4,66.9,31.7z M73.3,96.2c0-0.2,0-0.4,0-0.4c0,0,0.2-10,0.8-18.8c-2.4-2.6-4.9-4.3-8.2-4.3c-0.4,0-0.8,0-1.2,0.1
		c-0.2,0-0.4,0-0.6,0c-3.8,0-6.6-3.7-6.6-7.1c0-3.8,2.8-6.6,6.9-7.1c3.9-0.4,7.9,0.3,11.6,2.2v1.5c-3.5-2-7.5-3.1-11.8-2.6
		c-3,0.3-5.6,2.3-5.6,5.6c0,2.8,2.5,5.9,5.6,5.6c5.4-0.6,8.8,2.4,12.1,6.4c0.6,0.7,1.4,1.2,2.3,1.4v17.5L73.3,96.2
		C73.3,96.2,73.3,96.2,73.3,96.2z M97,96.2H83.5V77.8c0.2-0.2,0.4-0.3,0.6-0.5c2.3-2.3,1.9-5.5,0-7.9c-0.2-0.2-0.4-0.5-0.6-0.7V10
		H97V96.2z"/>
</g>
</svg>
