<?xml version="1.0" standalone="no"?>
<!DOCTYPE svg PUBLIC "-//W3C//DTD SVG 20010904//EN"
 "http://www.w3.org/TR/2001/REC-SVG-20010904/DTD/svg10.dtd">
<svg version="1.0" xmlns="http://www.w3.org/2000/svg"
 width="338.000000pt" height="139.000000pt" viewBox="0 0 338.000000 139.000000"
 preserveAspectRatio="xMidYMid meet">

<g transform="translate(0.000000,139.000000) scale(0.100000,-0.100000)"
fill="#000000" stroke="none">
<path d="M0 1110 l0 -280 35 0 35 0 0 245 0 245 315 0 315 0 0 35 0 35 -350 0
-350 0 0 -280z"/>
<path d="M120 913 c0 -224 5 -396 11 -423 40 -174 205 -339 379 -379 30 -7
499 -11 1393 -11 l1347 0 0 378 c0 223 -5 395 -11 422 -40 174 -205 339 -379
379 -30 7 -499 11 -1392 11 l-1348 0 0 -377z"/>
<path d="M3310 315 l0 -245 -315 0 -315 0 0 -35 0 -35 350 0 350 0 0 280 0
280 -35 0 -35 0 0 -245z"/>
</g>
</svg>
