<?xml version="1.0" encoding="utf-8"?>
<!-- Generator: Adobe Illustrator 23.0.2, SVG Export Plug-In . SVG Version: 6.00 Build 0)  -->
<svg version="1.1" id="Слой_1" xmlns="http://www.w3.org/2000/svg" xmlns:xlink="http://www.w3.org/1999/xlink" x="0px" y="0px"
	 viewBox="0 0 120 120" style="enable-background:new 0 0 120 120;" xml:space="preserve">
<style type="text/css">
	.st0{fill-rule:evenodd;clip-rule:evenodd;fill:url(#bg_1_);}
	.st1{fill:#FFFFFF;}
	.st2{fill:#3F4448;}
</style>
<title>Weather</title>
<g>
	<g id="Weather">
		
			<linearGradient id="bg_1_" gradientUnits="userSpaceOnUse" x1="-485.4167" y1="5.5833" x2="-485.4167" y2="6.5833" gradientTransform="matrix(120 0 0 120 58310 -670)">
			<stop  offset="0" style="stop-color:#FF8278"/>
			<stop  offset="0" style="stop-color:#FF7F75"/>
			<stop  offset="1" style="stop-color:#FF0706"/>
		</linearGradient>
		<path id="bg" class="st0" d="M28,0h64c15.5,0,28,12.5,28,28v64c0,15.5-12.5,28-28,28H28c-15.5,0-28-12.5-28-28V28
			C0,12.5,12.5,0,28,0z"/>
	</g>
</g>
<path class="st1" d="M100.5,81.2L67.7,23c-2.8-5.1-10.4-5.1-13.2,0L21.7,81.2c-2.8,5.1,0.8,11.4,6.6,11.4h65.3
	C99.7,92.4,103.3,86.3,100.5,81.2z"/>
<g>
	<path class="st2" d="M55.8,53.5l2,13.5c0.3,1.5,1.5,2.8,3.3,2.8l0,0c1.5,0,3.1-1.3,3.3-2.8l2-13.5c0.5-3.3-2-6.1-5.3-6.1l0,0
		C57.8,47.4,55.5,50.2,55.8,53.5z"/>
	<circle class="st2" cx="61.1" cy="75.6" r="3.1"/>
</g>
</svg>
