<?xml version="1.0" encoding="iso-8859-1"?>
<!-- Generator: Adobe Illustrator 19.0.0, SVG Export Plug-In . SVG Version: 6.00 Build 0)  -->
<svg version="1.1" id="Layer_1" xmlns="http://www.w3.org/2000/svg" xmlns:xlink="http://www.w3.org/1999/xlink" x="0px" y="0px"
	 viewBox="0 0 512 512" style="enable-background:new 0 0 512 512;" xml:space="preserve">
<g>
	<g>
		<path d="M455.374,197.12l-67.055-0.184c-2.025-30.743-15.874-52.654-41.263-65.183c-25.825-12.744-60.522-14.462-91.056-14.462
			s-65.231,1.719-91.056,14.462c-25.39,12.529-39.238,34.44-41.264,65.183l-67.055,0.184C25.402,197.12,0,222.522,0,253.746v84.246
			c0,31.274,25.402,56.717,56.626,56.717h398.748c31.223,0,56.626-25.443,56.626-56.717v-84.246
			C512,222.522,486.598,197.12,455.374,197.12z M99.952,374.311H56.626c-19.976,0-36.228-16.292-36.228-36.318v-84.246
			c0-19.975,16.251-36.228,36.228-36.228h43.326V374.311z M141.769,374.311h-21.418V217.518h21.418V374.311z M349.833,374.311
			H162.167V217.518h187.665V374.311z M144.116,196.936c1.772-22.76,11.379-37.775,29.854-46.891
			c22.194-10.952,55.497-12.356,82.03-12.356c26.534,0,59.836,1.404,82.03,12.356c18.476,9.116,28.083,24.131,29.854,46.891H144.116
			z M391.649,374.311h-21.418V217.518h21.418V374.311z M491.602,337.992c0,20.026-16.251,36.318-36.228,36.318h-43.326V217.518
			h43.326c19.976,0,36.228,16.251,36.228,36.228V337.992z"/>
	</g>
</g>
<g>
	<g>
		<path d="M330.964,229.482h-2.55c-5.632,0-10.199,4.566-10.199,10.199s4.567,10.199,10.199,10.199h2.55
			c5.632,0,10.199-4.566,10.199-10.199S336.596,229.482,330.964,229.482z"/>
	</g>
</g>
<g>
	<g>
		<path d="M298.837,229.482H181.036c-5.633,0-10.199,4.566-10.199,10.199s4.566,10.199,10.199,10.199h117.801
			c5.632,0,10.199-4.566,10.199-10.199S304.469,229.482,298.837,229.482z"/>
	</g>
</g>
<g>
</g>
<g>
</g>
<g>
</g>
<g>
</g>
<g>
</g>
<g>
</g>
<g>
</g>
<g>
</g>
<g>
</g>
<g>
</g>
<g>
</g>
<g>
</g>
<g>
</g>
<g>
</g>
<g>
</g>
</svg>
