<?xml version="1.0" encoding="utf-8"?>
<!-- Generator: Adobe Illustrator 23.1.0, SVG Export Plug-In . SVG Version: 6.00 Build 0)  -->
<svg version="1.1" id="icon" xmlns="http://www.w3.org/2000/svg" xmlns:xlink="http://www.w3.org/1999/xlink" x="0px" y="0px"
	 viewBox="0 0 512 512" style="enable-background:new 0 0 512 512;" xml:space="preserve">
<g>
	<g>
		<rect x="110.6" y="258.1" transform="matrix(1 -4.817193e-03 4.817193e-03 1 -1.6982 0.8553)" width="132.2" height="189.7"/>
	</g>
</g>
<g>
	<g>
		<path d="M163.3,15.4c-26.1,33.5-33.6,85-35.7,115.8c-0.4,5.6-0.6,10.6-0.7,14.6l-0.1,3.8l0.1,11.7l0.1,30.7l-13.3,36.5l2.1,0
			l122.9-0.6l-14-40.9l-0.1-26.1l-0.1-11.3l-0.1-4.1c-0.1-4-0.4-8.9-0.8-14.6c-2.4-30.8-10.3-82.2-36.8-115.5L175,0.4L163.3,15.4z"
			/>
	</g>
</g>
<g>
	<g>
		<rect x="127.4" y="477.8" transform="matrix(1 -4.817193e-03 4.817193e-03 1 -2.3829 0.8602)" width="100" height="34.6"/>
	</g>
</g>
<g>
	<g>
		<rect x="270.1" y="257.3" transform="matrix(1 -4.817193e-03 4.817193e-03 1 -1.6926 1.6238)" width="132.2" height="189.7"/>
	</g>
</g>
<g>
	<g>
		<path d="M322.8,14.6c-26.1,33.5-33.6,85-35.7,115.8c-0.4,5.6-0.6,10.6-0.7,14.6l-0.1,4.1l0.1,11.3l0.1,30.7l-13.3,36.5l125-0.6
			l-14-40.9l-0.1-26.1l-0.1-11.7l-0.9-18.3c-2.4-30.8-10.3-82.2-36.8-115.5L334.5-0.4L322.8,14.6z"/>
	</g>
</g>
<g>
	<g>
		<rect x="286.9" y="477.1" transform="matrix(1 -4.817193e-03 4.817193e-03 1 -2.3774 1.6288)" width="100" height="34.6"/>
	</g>
</g>
</svg>
