<?xml version="1.0" encoding="utf-8"?>
<!-- Generator: Adobe Illustrator 23.1.0, SVG Export Plug-In . SVG Version: 6.00 Build 0)  -->
<svg version="1.1" id="icon" xmlns="http://www.w3.org/2000/svg" xmlns:xlink="http://www.w3.org/1999/xlink" x="0px" y="0px"
	 viewBox="0 0 512 512" style="enable-background:new 0 0 512 512;" xml:space="preserve">
<g>
	<g>
		<path d="M488.5,92.2h-71.7c-4.2,0-7.5,3.4-7.5,7.5c0,4.2,3.4,7.5,7.5,7.5h71.7c4.7,0,8.5,3.8,8.5,8.5v280.5c0,4.7-3.8,8.5-8.5,8.5
			H23.5c-4.7,0-8.5-3.8-8.5-8.5V115.7c0-4.7,3.8-8.5,8.5-8.5h356.6c4.2,0,7.5-3.4,7.5-7.5c0-4.2-3.4-7.5-7.5-7.5H23.5
			c-13,0-23.5,10.6-23.5,23.5v280.5c0,13,10.6,23.5,23.5,23.5h464.9c13,0,23.5-10.6,23.5-23.5V115.7
			C512,102.7,501.4,92.2,488.5,92.2z"/>
		<path d="M207.4,155.8c0-4.2-3.4-7.5-7.5-7.5H55.6c-4.2,0-7.5,3.4-7.5,7.5v160.3c0,4.2,3.4,7.5,7.5,7.5h144.3
			c4.2,0,7.5-3.4,7.5-7.5V155.8z M95.2,308.6v-24.5c0-4.7,3.8-8.5,8.5-8.5h48.1c4.7,0,8.5,3.8,8.5,8.5v24.5H95.2z M192.4,308.6h-17
			v-24.5c0-13-10.6-23.5-23.5-23.5h-48.1c-13,0-23.5,10.6-23.5,23.5v24.5h-17V163.3h129.3V308.6z"/>
		<path d="M127.7,259.5c21.8,0,39.6-17.8,39.6-39.6s-17.8-39.6-39.6-39.6s-39.6,17.8-39.6,39.6S105.9,259.5,127.7,259.5z
			 M127.7,195.4c13.5,0,24.5,11,24.5,24.5c0,13.5-11,24.5-24.5,24.5s-24.5-11-24.5-24.5C103.2,206.4,114.2,195.4,127.7,195.4z"/>
		<path d="M248,148.3c-4.2,0-7.5,3.4-7.5,7.5s3.4,7.5,7.5,7.5h136.3c4.2,0,7.5-3.4,7.5-7.5s-3.4-7.5-7.5-7.5H248z"/>
		<path d="M248,203.4h64.1c4.2,0,7.5-3.4,7.5-7.5s-3.4-7.5-7.5-7.5H248c-4.2,0-7.5,3.4-7.5,7.5S243.8,203.4,248,203.4z"/>
		<path d="M463.9,195.9c0-4.2-3.4-7.5-7.5-7.5H344.2c-4.2,0-7.5,3.4-7.5,7.5s3.4,7.5,7.5,7.5h112.2
			C460.5,203.4,463.9,200,463.9,195.9z"/>
		<path d="M424.3,228.4H248c-4.2,0-7.5,3.4-7.5,7.5s3.4,7.5,7.5,7.5h176.3c4.2,0,7.5-3.4,7.5-7.5S428.5,228.4,424.3,228.4z"/>
		<path d="M351.7,276c0-4.2-3.4-7.5-7.5-7.5H248c-4.2,0-7.5,3.4-7.5,7.5c0,4.2,3.4,7.5,7.5,7.5h96.2
			C348.3,283.6,351.7,280.2,351.7,276z"/>
		<path d="M424.3,268.5h-48.1c-4.2,0-7.5,3.4-7.5,7.5c0,4.2,3.4,7.5,7.5,7.5h48.1c4.2,0,7.5-3.4,7.5-7.5
			C431.8,271.9,428.5,268.5,424.3,268.5z"/>
		<path d="M248,308.6c-4.2,0-7.5,3.4-7.5,7.5c0,4.2,3.4,7.5,7.5,7.5h56.1c4.2,0,7.5-3.4,7.5-7.5c0-4.2-3.4-7.5-7.5-7.5H248z"/>
		<path d="M336.2,323.6h88.2c4.2,0,7.5-3.4,7.5-7.5c0-4.2-3.4-7.5-7.5-7.5h-88.2c-4.2,0-7.5,3.4-7.5,7.5
			C328.6,320.3,332,323.6,336.2,323.6z"/>
		<path d="M55.6,348.7c-4.2,0-7.5,3.4-7.5,7.5c0,4.2,3.4,7.5,7.5,7.5h40.1c4.2,0,7.5-3.4,7.5-7.5c0-4.2-3.4-7.5-7.5-7.5H55.6z"/>
		<path d="M199.9,348.7h-72.1c-4.2,0-7.5,3.4-7.5,7.5c0,4.2,3.4,7.5,7.5,7.5h72.1c4.2,0,7.5-3.4,7.5-7.5
			C207.4,352,204,348.7,199.9,348.7z"/>
	</g>
</g>
</svg>
