<?xml version="1.0" encoding="utf-8"?>
<!-- Generator: Adobe Illustrator 23.1.0, SVG Export Plug-In . SVG Version: 6.00 Build 0)  -->
<svg version="1.1" id="icon" xmlns="http://www.w3.org/2000/svg" xmlns:xlink="http://www.w3.org/1999/xlink" x="0px" y="0px"
	 viewBox="0 0 480 480" style="enable-background:new 0 0 480 480;" xml:space="preserve">
<path d="M220,376c4.4,0,8-3.6,8-8V240c0-4.4-3.6-8-8-8s-8,3.6-8,8v128C212,372.4,215.6,376,220,376z"/>
<path d="M220,416c4.4,0,8-3.6,8-8v-8c0-4.4-3.6-8-8-8s-8,3.6-8,8v8C212,412.4,215.6,416,220,416z"/>
<path d="M452,72c0-4.4-3.6-8-8-8H316c-4.4,0-8,3.6-8,8s3.6,8,8,8h128C448.4,80,452,76.4,452,72z"/>
<path d="M316,32c0.5,0,1.1,0,1.6-0.2l80-16c4.3-0.9,7.1-5.1,6.2-9.4c-0.9-4.3-5.1-7.1-9.4-6.2l-80,16c-4,0.8-6.8,4.6-6.4,8.6
	C308.4,28.9,311.9,32,316,32z"/>
<path d="M388,152c3.9,0,7.3-2.9,7.9-6.7c0.6-3.9-1.6-7.6-5.4-8.9l-72-24c-4.2-1.4-8.7,0.9-10.1,5.1c-1.4,4.2,0.9,8.7,5.1,10.1l72,24
	C386.3,151.9,387.1,152,388,152z"/>
<path d="M52,432h-4.4c-10.8,0-19.6,8.8-19.6,19.6v8.8c0,10.8,8.8,19.6,19.6,19.6h216.8c10.8,0,19.6-8.8,19.6-19.6v-8.8
	c0-10.8-8.8-19.6-19.6-19.6H260V192h4.4c10.8,0,19.6-8.8,19.6-19.6v-8.8c0-10.8-8.8-19.6-19.6-19.6H244v-24c0-4.4-3.6-8-8-8V96h40
	c4.4,0,8-3.6,8-8V56c0-4.4-3.6-8-8-8h-40v-8c0-4.4-3.6-8-8-8H76c-4.4,0-8,3.6-8,8v72c-4.4,0-8,3.6-8,8v24H47.6
	c-10.8,0-19.6,8.8-19.6,19.6v8.8c0,10.8,8.8,19.6,19.6,19.6H52V432z M68,240h112v144H68V240z M268,451.6v8.8c0,2-1.6,3.6-3.6,3.6
	H47.6c-2,0-3.6-1.6-3.6-3.6v-8.8c0-1,0.4-1.9,1-2.6c0.7-0.7,1.6-1.1,2.5-1.1h216.8c1,0,1.9,0.4,2.6,1S268,450.6,268,451.6z M268,64
	v16h-32V64H268z M84,48h136v64H84V48z M76,128h152v16H76V128z M44,172.4v-8.8c0-1,0.4-1.9,1-2.6c0.7-0.7,1.6-1.1,2.5-1.1h216.8
	c2,0,3.6,1.6,3.6,3.6v8.8c0,2-1.6,3.6-3.6,3.6H47.6C45.6,176,44,174.4,44,172.4z M244,192v240H68v-32h120c4.4,0,8-3.6,8-8V232
	c0-4.4-3.6-8-8-8H68v-32H244z"/>
<path d="M132,64h-24c-4.4,0-8,3.6-8,8v16c0,4.4,3.6,8,8,8s8-3.6,8-8v-8h16c4.4,0,8-3.6,8-8S136.4,64,132,64z"/>
<path d="M172,64h-8c-4.4,0-8,3.6-8,8s3.6,8,8,8h8c4.4,0,8-3.6,8-8S176.4,64,172,64z"/>
</svg>
