<?xml version="1.0" encoding="utf-8"?>
<!-- Generator: Adobe Illustrator 21.1.0, SVG Export Plug-In . SVG Version: 6.00 Build 0)  -->
<svg version="1.1" id="icon" xmlns="http://www.w3.org/2000/svg" xmlns:xlink="http://www.w3.org/1999/xlink" x="0px" y="0px"
	 viewBox="0 0 512 512" style="enable-background:new 0 0 512 512;" xml:space="preserve">
<g>
	<g>
		<path d="M496.5,211.5c5.3,0,9.5-4.3,9.5-9.5v-54c0-3.6-2-7-5.5-8.7c-2.3-1.1-5-1.1-7.4-0.3l-20,6.7c-2.2,0.8-4.1,2.3-5.3,4.3
			l-12.8,22.6c-54.2,29.6-115.5,45.3-177.3,45.2l-82.2,1.1v-3.5c0-5.3-4.3-9.5-9.5-9.5h-24.8c-2.8-4-5.8-7.5-9-10.7
			c-34.6-34.6-91.6-33.5-124.7,3.4c-29.2,32.4-29.2,82.3,0,114.7c33.1,36.8,90.1,38,124.7,3.4c3.2-3.2,6.1-6.7,9-10.7H186
			c5.3,0,9.5-4.3,9.5-9.5v-3.4l82.3,1.2c61.8,0,123,15.7,177.3,45.3L468,362c1.2,2.1,3,3.6,5.3,4.3l20.3,6.8c4,1.3,8.6-0.1,11.1-3.9
			c1-1.6,1.5-3.4,1.5-5.3V244c0-5.3-4.3-9.5-9.5-9.5l0,0c-5.3,0-9.5,4.3-9.5,9.5v103.6c0,1.7-1.8,2.8-3.3,2.1l0,0
			c-0.6-0.2-1.1-0.6-1.4-1.1l-11.9-20.8c-0.9-1.5-2.1-2.8-3.7-3.6c-57.6-32-122.9-48.9-188.7-48.9l-82.5-1.2v-35.9l82.3-1.1
			c65.9,0,131.2-16.9,188.8-48.9c1.5-0.9,2.8-2.1,3.7-3.6l11.9-21c0.3-0.5,0.8-1,1.4-1.1c0.3-0.1,0.5-0.1,0.8-0.1
			c1.3,0,2.5,1.1,2.5,2.5V202C487,207.2,491.3,211.5,496.5,211.5L496.5,211.5z M173.4,287l-17.3,0c-3.3,0-6.4,1.7-8.1,4.5
			c-2.9,4.6-5.9,8.5-9.2,11.8c-26.8,26.8-70.9,26-96.7-2.3c-23-25.3-23-64.6,0-89.9c25.8-28.3,69.9-29.1,96.7-2.3
			c3.3,3.3,6.3,7.2,9.3,11.8c1.7,2.8,4.8,4.5,8.1,4.5h17.3c1.7,0,3.1,1.4,3.1,3.1v55.7C176.5,285.6,175.1,287,173.4,287z"/>
	</g>
</g>
</svg>
