<?xml version="1.0" encoding="utf-8"?>
<!-- Generator: Adobe Illustrator 23.1.0, SVG Export Plug-In . SVG Version: 6.00 Build 0)  -->
<svg version="1.1" id="icon" xmlns="http://www.w3.org/2000/svg" xmlns:xlink="http://www.w3.org/1999/xlink" x="0px" y="0px"
	 viewBox="0 0 124.1 124.1" style="enable-background:new 0 0 124.1 124.1;" xml:space="preserve">
<g>
	<path d="M113.3,27.4l-8.7,12.3c1.4,2.6,2.5,5.3,3.4,8.1l-2,0.6c-2.8,0.9-4.4,3.7-3.9,6.6v0.1c0.5,2.9,3,5,5.9,4.9l2.1-0.1
		c0.1,2.6,0,5.3-0.3,8c-0.6,4.4-1.7,8.7-3.4,12.6l-1.9-0.8c-2.7-1.1-5.7-0.1-7.2,2.4c-0.1,0.1-0.1,0.2-0.2,0.3
		c-1.5,2.5-0.8,5.7,1.5,7.4l1.7,1.3c-4.3,5.6-9.8,10.2-16.1,13.4l-1-1.9c-1.3-2.6-4.4-3.7-7.2-2.7h-0.1c-2.8,1-4.4,3.8-3.8,6.7
		l0.5,2.1c-5.3,1.2-10.8,1.5-16.4,0.8c-1.5-0.2-3-0.5-4.5-0.8l0.4-1.9c0.6-2.8-0.9-5.6-3.5-6.6c-0.1,0-0.2-0.1-0.3-0.1
		c-2.7-1.1-5.9,0-7.3,2.6l-1,1.8c-6.3-3.3-11.7-7.9-15.9-13.4l1.7-1.3c2.3-1.8,2.9-5,1.5-7.4c-0.1-0.1-0.1-0.2-0.2-0.3
		c-1.4-2.5-4.5-3.5-7.2-2.4L18,80.5c-2.7-6.4-4-13.4-3.7-20.6l2.3,0.1c2.9,0.1,5.5-1.9,5.9-4.8v-0.1c0.5-2.8-1.3-5.6-4-6.4l-2.2-0.6
		c2.1-7,5.8-13.2,10.5-18.4l1.5,1.4c2.1,2,5.4,2,7.6,0.2c0.1-0.1,0.2-0.2,0.3-0.2c2.2-1.9,2.7-5.1,1.1-7.5l-1.1-1.8
		c5.8-3.8,12.5-6.3,19.6-7.2l0.3,2.2c0.4,2.9,2.8,5,5.7,5c0.2,0,0.5,0,0.7,0c2.9,0,5.3-2.1,5.7-5l0.3-2.3c2.9,0.4,5.8,1.1,8.5,1.9
		L87.5,6c0.1-0.1,0.2-0.2,0.3-0.3l0.1-0.1C82.3,3,76.2,1.3,69.8,0.5c-34-4.3-65,19.8-69.3,53.8s19.8,65,53.8,69.3s65-19.8,69.3-53.8
		c2-15.6-2-30.5-10.2-42.5C113.4,27.2,113.4,27.3,113.3,27.4z"/>
	<path d="M59.6,50.2c-6.5,1.4-10.8,8-9,14.9c1.3,5.1,6,8.8,11.3,8.9c0.1,0,0.2,0,0.3,0c6.8,0,11.9-5.4,12-11.8l22-31.2l7.4-10.5
		c0.9-1.7,0.7-3.5-0.1-4.8c-0.6-0.9-1.4-1.6-2.4-2c-0.6-0.2-1.2-0.4-1.8-0.4c-1.1,0-2.2,0.4-3.2,1.3L87.5,23L59.6,50.2z"/>
</g>
</svg>
