<?xml version="1.0" encoding="utf-8"?>
<!-- Svg Vector Icons : http://www.onlinewebfonts.com/icon -->
<!DOCTYPE svg PUBLIC "-//W3C//DTD SVG 1.1//EN" "http://www.w3.org/Graphics/SVG/1.1/DTD/svg11.dtd">
<svg version="1.1" id="icon" xmlns="http://www.w3.org/2000/svg" xmlns:xlink="http://www.w3.org/1999/xlink" x="0px" y="0px" viewBox="0 0 1000 1000" enable-background="new 0 0 1000 1000" xml:space="preserve">
<g><g transform="translate(0.000000,511.000000) scale(0.100000,-0.100000)"><path d="M8848.9,4779.7L8618.7,4547l-110.2,98c-210.7,183.8,208.2,566-4199.3-3844C-100.9-3606.6,281.3-3187.7,465-3398.4l98-110.2l-232.7-230.3C136.7-3932.5,100-3981.5,100-4045.2c0-115.1,73.5-191.1,181.3-191.1c80.9,0,112.7,24.5,321,230.3L835-3773.3l139.7-139.6l139.6-139.7L874.2-4300c-227.9-230.3-240.1-249.9-225.4-323.4c19.6-102.9,95.5-166.6,196-166.6c63.7,0,112.7,36.7,306.2,230.3l230.3,232.7l110.2-98c210.7-183.8-208.3-566,4199.3,3844c4410,4407.6,4027.8,3988.6,3844,4199.3l-98,110.2l232.7,230.3c193.6,193.5,230.3,242.5,230.3,306.3c0,100.4-63.7,176.4-166.6,196c-73.5,14.7-93.1,2.5-323.4-225.4l-247.4-240.1l-139.7,139.6L8883.3,4275l232.7,232.8c205.8,208.2,230.3,240.1,230.3,320.9c0,107.8-76,181.3-191.1,181.3C9091.5,5010,9042.5,4973.3,8848.9,4779.7z M8748.5,3846.2l404.3-404.2l-142.1-139.7L8871,3160.3l-409.2,409.2L8050.3,3981l134.7,134.8c73.5,73.5,139.7,134.7,147,134.7S8525.6,4069.2,8748.5,3846.2z M5411.6-299.2L2219.2-3491.5l-409.2,409.2l-411.6,411.6L4588.4,519.2l3192.3,3192.3l409.2-409.2l411.6-411.6L5411.6-299.2z M1545.5-3356.7l404.3-404.2l-142.1-139.7L1668-4042.8l-409.2,409.2L847.3-3222L982-3087.2c73.5,73.5,139.7,134.7,147,134.7C1136.3-2952.5,1322.5-3133.8,1545.5-3356.7z"/><path d="M4598.2,3856c-44.1-34.3-63.7-73.5-63.7-127.4c0-44.1,66.2-279.3,149.4-526.7c134.8-406.7,156.8-450.8,223-485.1c41.6-22,100.4-31.8,132.3-24.5c76,19.6,156.8,107.8,156.8,171.5c0,100.4-298.9,948.2-350.3,997.2C4779.5,3922.2,4679,3919.8,4598.2,3856z"/><path d="M2704.3,2498.8c-95.5-41.7-137.2-147-93.1-247.5c17.2-39.2,169-205.8,335.7-370c262.1-259.7,316-301.3,384.6-301.3c105.4,0,198.5,93.1,198.5,198.5c0,68.6-41.7,122.5-311.2,392c-169,174-338.1,323.4-374.8,335.6C2799.9,2523.3,2755.8,2520.8,2704.3,2498.8z"/><path d="M1254,511.8c-63.7-80.8-66.2-181.3-4.9-247.5C1298,212.9,2145.8-86,2246.2-86c63.7,0,151.9,80.8,171.5,156.8c7.3,31.8-2.5,90.6-24.5,132.3c-34.3,66.2-78.4,88.2-485.1,223c-247.4,83.3-482.6,149.4-526.7,149.4C1327.5,575.5,1288.3,555.9,1254,511.8z"/><path d="M7668.1,281.5c-22.1-12.3-53.9-56.3-71.1-98c-36.7-90.6,0-198.4,80.8-242.6c115.1-58.8,864.8-296.4,938.3-296.4c151.9,0,237.7,200.9,134.7,311.2c-49,51.4-899.1,350.3-994.7,350.3C7729.3,306,7690.1,293.8,7668.1,281.5z"/><path d="M6531.2-1421.2c-39.2-36.7-61.3-85.8-61.3-137.2c0-68.6,41.7-122.5,301.3-384.7c164.2-166.6,330.7-318.5,370-335.7c151.9-66.2,311.1,78.4,254.8,232.8c-12.2,36.7-161.7,205.8-335.7,374.8c-269.5,269.5-323.4,311.2-392,311.2C6617-1360,6568-1382.1,6531.2-1421.2z"/><path d="M4897.1-2501.7c-120-63.7-115.1-127.4,51.5-629.7c95.6-286.7,174-477.7,205.8-507.1c110.2-102.9,311.2-19.6,311.2,129.8c0,44.1-66.2,279.3-149.4,526.7c-132.3,396.9-156.8,450.8-218.1,482.7C5009.8-2455.2,4980.4-2455.2,4897.1-2501.7z"/></g></g>
</svg>