<?xml version="1.0" encoding="utf-8"?>
<!-- Svg Vector Icons : http://www.onlinewebfonts.com/icon -->
<!DOCTYPE svg PUBLIC "-//W3C//DTD SVG 1.1//EN" "http://www.w3.org/Graphics/SVG/1.1/DTD/svg11.dtd">
<svg version="1.1" xmlns="http://www.w3.org/2000/svg" xmlns:xlink="http://www.w3.org/1999/xlink" x="0px" y="0px" viewBox="0 0 1000 1000" enable-background="new 0 0 1000 1000" xml:space="preserve">
<metadata> Svg Vector Icons : http://www.onlinewebfonts.com/icon </metadata>
<g><g transform="translate(0.000000,511.000000) scale(0.100000,-0.100000)"><path d="M101.2,1418.2c-9.8-39.4,37.4-151.6,204.8-498.2C550.2,417.8,630.9,224.9,686.1,12.2c65-256,49.2-309.2-179.2-600.6c-155.6-198.9-181.2-259.9-128-299.3c100.4-72.9,640,94.5,964.9,297.3l171.3,108.3h273.7c265.8,0,273.7-2,254-37.4c-39.4-76.8-19.7-147.7,84.7-295.4c57.1-80.7,126-163.4,153.6-185.1c49.2-35.4,55.1-35.4,114.2-5.9c76.8,41.3,193,187.1,297.3,376.1l80.7,147.7h261.9c145.7,0,289.5-5.9,324.9-11.8l61-11.8l-65-88.6c-76.8-108.3-80.7-210.7-7.9-352.5c86.7-169.4,244.2-283.6,389.9-283.6c110.3,0,240.2,196.9,350.5,537.6c25.6,72.9,55.1,131.9,66.9,131.9c13.8,0,214.7-27.6,447-59.1c539.6-76.8,1224.9-157.5,1339.1-157.5c120.1,0,145.7-17.7,118.2-86.7c-29.6-76.8-23.6-220.5,9.8-285.5c96.5-189,456.9-98.5,905.8,224.5l177.2,128h317c328.9,0,1073.2,31.5,1181.5,49.2c57.1,9.9,63,5.9,74.8-53.2c17.7-88.6,65-153.6,112.2-153.6c49.2,0,70.9,53.2,41.4,100.4c-33.5,51.2-29.5,110.3,7.9,124.1c61.1,23.6,78.8,11.8,80.8-57.1c2-94.5,53.2-167.4,114.2-167.4c37.4,0,49.2,9.9,49.2,45.3c0,25.6-9.8,55.1-21.7,67c-11.8,11.8-17.7,45.3-13.8,76.8c5.9,53.2,9.8,55.1,240.2,100.4c364.3,72.9,563.2,181.2,563.2,313.1c0,59.1-33.5,72.9-256,104.4c-256,37.4-435.2,88.6-756.2,218.6c-350.5,141.8-961,342.6-1341,443.1c-167.4,43.3-305.2,92.6-348.6,122.1c-63,43.3-78.8,47.3-104.4,25.6c-45.3-37.4-332.8,9.9-409.6,67c-45.3,33.5-61.1,35.4-92.6,15.8c-55.1-33.5-362.3-31.5-431.3,5.9c-49.2,23.6-61,23.6-92.5,0c-55.2-41.4-348.6-39.4-413.6,2c-45.3,31.5-51.2,31.5-92.5-5.9c-65-61-287.5-72.9-395.8-23.6l-80.7,37.4l-39.4-47.3c-53.2-63-293.4-88.6-386-39.4c-57.1,29.5-63,27.6-104.4-9.8c-63-59.1-289.5-86.6-389.9-47.3c-70.9,27.6-76.8,27.6-131.9-17.7c-70.9-61-263.9-86.6-382-51.2c-70.9,21.7-80.7,19.7-112.3-19.7c-25.6-29.5-66.9-45.3-145.7-55.1l-108.3-13.8l-112.3,102.4c-224.5,206.8-423.4,317.1-567.1,317.1c-104.4,0-143.8-41.4-364.3-370.2c-106.3-155.6-177.2-244.2-204.8-250.1c-68.9-15.8-419.4-49.2-504.1-49.2c-76.8,0-78.8,2-210.7,202.8c-452.9,691.2-911.7,1155.9-1148,1155.9C126.8,1467.4,111.1,1457.6,101.2,1418.2z M546.3,1093.3c196.9-195,358.4-399.7,608.5-766L1334,61.4l-61-63c-102.4-104.4-104.4-283.6-5.9-399.8l49.2-59.1l-84.7-55.1c-175.3-110.3-663.6-291.4-697.1-256c-3.9,3.9,39.4,68.9,98.5,145.7C790.5-425,841.7-318.7,841.7-196.6C841.7,22,729.4,333.2,438,933.8c-102.4,208.7-187.1,384-187.1,389.9C250.9,1353.2,404.5,1235.1,546.3,1093.3z M2726.2,630.5c120.1-51.2,443.1-305.2,387.9-305.2c-9.8,0-202.8-31.5-431.3-68.9c-226.5-35.4-415.5-63-419.4-59.1c-3.9,2,61,108.3,143.8,234.3C2570.6,681.7,2584.4,689.6,2726.2,630.5z M6847.7,445.4C7483.8,329.2,8303,83.1,8943-184.7c212.7-88.6,411.6-143.8,642-179.2c80.7-11.8,149.6-25.6,153.6-29.5c19.7-19.7-108.3-74.8-273.7-116.2c-315.1-80.7-856.6-131.9-1681.7-161.5c-431.3-15.8-435.2-13.8-582.9,143.8c-145.7,155.6-147.7,159.5-45.3,289.5c49.2,63,128,139.8,177.2,175.2c118.2,82.7,116.2,173.3-3.9,143.8c-68.9-17.7-301.3-258-362.3-372.2l-49.2-92.6h-120.1c-271.8,0-456.9-67-582.9-212.7l-65-76.8l-301.3,25.6c-346.6,29.5-567.1,57.1-1337.1,165.4c-746.3,106.3-955.1,118.1-2109,118.1h-990.5l-47.3,49.2c-70.9,68.9-66.9,169.3,9.8,234.3c65,55.1,104.4,63,354.5,80.7c195,13.8,468.7,53.2,1230.8,175.3c1211.1,195,1685.6,248.1,2766.7,315.1c59.1,3.9,285.5,3.9,502.1,2C6526.8,488.7,6674.5,478.9,6847.7,445.4z M2582.4-574.6c-80.7-137.8-155.6-248.1-200.8-287.5c-39.4-35.4-41.4-33.5-90.6,33.5c-177.2,244.2-171.3,226.5-100.4,297.3c43.3,45.3,61,49.2,246.2,49.2h198.9L2582.4-574.6z M3976.6-533.3c31.5-9.9,29.5-21.7-15.8-151.6c-67-185.1-157.5-376.1-193-407.6c-67-53.2-240.2,61-315.1,210.7c-53.2,108.3-41.4,167.4,61,281.6l90.6,102.4l169.4-13.8C3866.4-519.5,3958.9-529.4,3976.6-533.3z M7072.2-574.6l59.1-70.9l-68.9-57.1c-118.1-100.4-439.1-307.2-557.3-360.4c-228.4-100.4-346.6-82.7-346.6,55.1c0,131.9,153.6,374.1,277.6,439.1c74.8,37.4,230.4,61.1,421.4,65l157.5,2L7072.2-574.6z"/><path d="M4941.5,83.1C4884.4,26,4839.1-29.2,4839.1-41c0-9.8,47.3-67,106.3-124.1c72.9-70.9,118.1-102.4,137.8-94.5c65,25.6,59.1,74.8-19.7,153.6l-74.8,76.8l74.8,76.8c49.2,49.2,72.9,88.6,65,108.3C5107,213,5045.9,189.4,4941.5,83.1z"/><path d="M5364.9,94.9c-51.2-53.2-92.6-108.3-92.6-126c0-47.3,208.7-242.2,244.2-228.4c49.2,19.7,37.4,84.7-29.5,161.5l-63,70.9l63,65c70.9,72.9,74.8,135.9,11.8,145.7C5473.2,187.4,5426,155.9,5364.9,94.9z"/><path d="M5782.4,90.9c-53.2-51.2-96.5-108.3-96.5-122.1c0-47.3,208.7-242.2,244.2-228.4c65,25.6,59.1,74.8-19.7,153.6l-74.8,76.8l74.8,76.8c49.2,49.2,72.9,88.6,65,108.3C5951.7,213,5878.9,189.4,5782.4,90.9z"/><path d="M6211.7,94.9c-51.2-53.2-92.5-108.3-92.5-126c0-49.2,204.8-238.3,242.2-222.5c53.2,19.7,39.4,72.9-35.4,145.7L6257-41l70.9,72.9c76.8,78.8,82.7,141.8,17.7,151.6C6320,187.4,6272.7,155.9,6211.7,94.9z"/><path d="M6623.2,89c-49.2-53.2-90.6-108.3-90.6-122.1c0-47.3,210.7-238.3,244.2-226.5c65,25.6,59.1,74.8-19.7,153.6l-74.8,76.8l72.9,74.8c51.2,51.2,70.9,86.7,61.1,108.3C6792.6,217,6719.7,191.4,6623.2,89z"/><path d="M3669.4,69.3c-49.2-53.2-90.6-102.4-90.6-108.3c0-5.9,37.4-51.2,80.7-98.5c53.2-57.1,98.5-88.6,130-88.6c74.8,0,78.8,53.2,7.9,126l-61,63l41.4,39.4c65,57.1,82.7,104.4,55.1,137.9C3795.5,185.5,3765.9,173.7,3669.4,69.3z"/><path d="M4094.8,83.1c-45.3-45.3-82.7-98.5-82.7-114.2c0-45.3,167.4-198.9,208.7-191c57.1,9.9,55.1,72.9-3.9,135.9l-55.1,57.1l55.1,57.1c61,63,61,126,2,135.9C4193.3,167.7,4149.9,138.2,4094.8,83.1z"/><path d="M4518.2,73.2C4467,22,4425.6-27.2,4425.6-35.1c0-7.9,37.4-55.1,80.7-102.4c53.2-57.1,98.5-88.6,130-88.6c74.8,0,78.8,53.2,7.9,126l-61,63l41.4,39.4c65,57.1,82.7,104.4,55.1,137.9C4644.2,183.5,4616.6,173.7,4518.2,73.2z"/><path d="M8318.7-84.3c-39.4-43.3-43.3-143.8-9.9-177.2c41.3-41.4,147.7-29.5,181.2,19.7c41.3,59.1,39.4,106.3-7.9,153.6C8432.9-39,8360.1-37.1,8318.7-84.3z"/></g></g>
</svg>