<?xml version="1.0" encoding="iso-8859-1"?>
<!-- Generator: Adobe Illustrator 19.0.0, SVG Export Plug-In . SVG Version: 6.00 Build 0)  -->
<svg version="1.1" id="Layer_1" xmlns="http://www.w3.org/2000/svg" xmlns:xlink="http://www.w3.org/1999/xlink" x="0px" y="0px"
	 viewBox="0 0 511.969 511.969" style="enable-background:new 0 0 511.969 511.969;" xml:space="preserve">
<g>
	<g>
		<path d="M399.288,59.347C361.009,21.076,310.121,0,255.984,0C201.846,0,150.959,21.076,112.68,59.348
			c-38.263,38.279-59.356,89.173-59.356,143.303v298.646c0,5.891,4.781,10.672,10.672,10.672h383.977
			c5.891,0,10.672-4.781,10.672-10.672V202.651C458.644,148.521,437.55,97.627,399.288,59.347z M437.3,490.624h-21.326v-10.653
			c0-5.906-4.781-10.672-10.672-10.672c-5.89,0-10.654,4.766-10.654,10.672v10.654h-21.344v-10.654
			c0-5.906-4.765-10.672-10.654-10.672c-5.891,0-10.672,4.766-10.672,10.672v10.654h-21.326v-10.654
			c0-5.906-4.781-10.672-10.672-10.672s-10.672,4.766-10.672,10.672v10.654h-21.326v-10.654c0-5.906-4.781-10.672-10.672-10.672
			c-5.89,0-10.654,4.766-10.654,10.672v10.654h-21.343v-10.654c0-5.906-4.766-10.672-10.656-10.672
			c-5.89,0-10.671,4.766-10.671,10.672v10.654h-21.327v-10.654c0-5.906-4.781-10.672-10.671-10.672
			c-5.891,0-10.672,4.766-10.672,10.672v10.654H159.99v-10.654c0-5.906-4.781-10.672-10.672-10.672
			c-5.89,0-10.655,4.766-10.655,10.672v10.654H117.32v-10.654c0-5.906-4.765-10.672-10.655-10.672
			c-5.89,0-10.671,4.765-10.671,10.671v10.654H74.667v-21.326h31.998h42.653h42.67h42.669h42.653h42.67h42.67h42.652H437.3V490.624z
			 M437.3,447.972H74.667V202.651c0-48.435,18.858-93.971,53.106-128.219s79.776-53.106,128.211-53.106
			s93.963,18.858,128.211,53.106S437.3,154.216,437.3,202.651V447.972z"/>
	</g>
</g>
<g>
	<g>
		<path d="M255.984,277.31c-35.889,0-63.996,20.108-63.996,45.795v57.73c0,25.686,28.107,45.793,63.996,45.793
			c35.889,0,63.996-20.107,63.996-45.793v-57.73C319.98,297.417,291.873,277.31,255.984,277.31z M298.654,380.835
			c0,7.67-6.781,13.264-10.828,15.936c-8.234,5.422-19.843,8.531-31.842,8.531s-23.608-3.109-31.842-8.531
			c-4.047-2.672-10.828-8.266-10.828-15.936v-57.73c0-7.656,6.781-13.266,10.828-15.938c8.233-5.406,19.843-8.531,31.842-8.531
			c12.015,0,23.607,3.125,31.842,8.531c4.047,2.672,10.828,8.281,10.828,15.938V380.835z"/>
	</g>
</g>
<g>
	<g>
		<path d="M243.189,196.252c-1.438-1.921-35.873-46.935-93.87-46.935c-12.968,0-26.404,6-36.872,16.46
			c-10.453,10.453-16.452,23.897-16.452,36.873c0,15.397,4.999,28.459,14.468,37.771c10.498,10.321,25.731,15.555,45.277,15.555
			c16.874,0,36.67-7.82,58.809-23.241c15.858-11.046,27.093-22.006,27.562-22.467C245.939,206.526,246.392,200.534,243.189,196.252z
			 M155.74,234.649c-25.498,0-38.42-10.765-38.42-31.998c0-15.554,16.452-31.998,31.998-31.998c34.279,0,59.185,20.132,70.324,31.24
			C204.455,214.892,176.864,234.649,155.74,234.649z"/>
	</g>
</g>
<g>
	<g>
		<path d="M399.523,165.778c-10.468-10.46-23.905-16.46-36.872-16.46c-57.997,0-92.433,45.014-93.87,46.935
			c-3.202,4.281-2.749,10.273,1.078,14.016c0.468,0.46,11.701,11.42,27.561,22.466c22.139,15.421,41.935,23.241,58.809,23.241
			c19.545,0,34.779-5.234,45.278-15.554c9.468-9.312,14.468-22.374,14.468-37.771C415.975,189.675,409.975,176.231,399.523,165.778z
			 M356.228,234.649c-21.062,0-48.685-19.765-63.887-32.764c11.14-11.124,36.045-31.232,70.309-31.232
			c15.545,0,31.998,16.444,31.998,31.998C394.648,223.884,381.726,234.649,356.228,234.649z"/>
	</g>
</g>
<g>
</g>
<g>
</g>
<g>
</g>
<g>
</g>
<g>
</g>
<g>
</g>
<g>
</g>
<g>
</g>
<g>
</g>
<g>
</g>
<g>
</g>
<g>
</g>
<g>
</g>
<g>
</g>
<g>
</g>
</svg>
