<?xml version="1.0" encoding="utf-8"?>
<!-- Generator: Adobe Illustrator 21.1.0, SVG Export Plug-In . SVG Version: 6.00 Build 0)  -->
<svg version="1.1" id="icon" xmlns="http://www.w3.org/2000/svg" xmlns:xlink="http://www.w3.org/1999/xlink" x="0px" y="0px"
	 viewBox="0 0 472 472" style="enable-background:new 0 0 472 472;" xml:space="preserve">
<path d="M348,328h-4.9c-4.4,0-8,3.6-8,8l0,0c0,4.4,3.6,8,8,8h2.5v112H213.1c-4.4,0-8,3.6-8,8l0,0c0,4.4,3.6,8,8,8H404
	c0.1,0,0.3,0,0.4,0c8.5-0.2,15.4-7.1,15.6-15.6c0-0.1,0-0.3,0-0.4v-56C420,360.3,387.8,328,348,328z M404,456h-41.4V346
	c23.8,6.4,41.4,28.2,41.4,54.1V456z M364,128C364,57.4,306.6,0,236,0c-68.2,0-128,63.5-128,136l0,48c0,42.9,21.4,82.3,56,105.9V328
	l-40,0c-39.7,0-72,32.3-72,72v56c0,0.1,0,0.3,0,0.4c0.2,8.5,7.1,15.4,15.6,15.6c0.1,0,0.3,0,0.4,0h81.1c4.4,0,8-3.6,8-8l0,0
	c0-4.4-3.6-8-8-8h-22.6V344l38.9,0c3.3,9.2,11.9,15.8,22.2,16c0.1,0,0.3,0,0.4,0h95.6c0.1,0,0.3,0,0.4,0c10.4,0,19.3-6.7,22.6-16
	h4.4c4.4,0,8-3.6,8-8l0,0c0-4.4-3.6-8-8-8H308v-38.2c34.6-23.5,56-63,56-105.8v0L364,128z M109.5,456H68v-56
	c0-25.9,17.6-47.7,41.5-54.1V456z M296.2,278.5C296.1,278.5,296.1,278.5,296.2,278.5C296.1,278.6,296.1,278.6,296.2,278.5
	c-0.3,0.2-0.5,0.3-0.7,0.5h0c-4.6,2.9-9.5,5.5-14.6,7.7c-4,1.8-5.9,6.5-4.1,10.5c1.3,3,4.3,4.8,7.3,4.8c1.1,0,2.1-0.2,3.2-0.7
	c1.6-0.7,3.2-1.5,4.8-2.2V336c0,4.3-3.4,7.8-7.6,8c0,0,0,0,0,0c-0.1,0-0.3,0-0.4,0h-96c0,0,0,0,0,0c-4.4,0-8-3.6-8-8v-36.9
	c1.6,0.8,3.2,1.5,4.8,2.2c1,0.5,2.1,0.7,3.2,0.7c3.1,0,6-1.8,7.3-4.8c1.8-4-0.1-8.8-4.1-10.5c-5-2.2-9.8-4.7-14.4-7.6c0,0,0,0,0,0
	c-0.3-0.2-0.6-0.4-0.9-0.6c0,0,0,0,0,0c0,0,0,0,0,0C143.9,258.1,124,222.7,124,184v0l0-48c0-63.9,52.3-120,112-120
	c61.8,0,112,50.2,112,112l0,56C348,222.7,328.1,258.2,296.2,278.5z"/>
<path d="M212,312v16c0,4.4-3.6,8-8,8c-4.4,0-8-3.6-8-8v-16c0-4.4,3.6-8,8-8C208.4,304,212,307.6,212,312z"/>
<path d="M244,312v16c0,4.4-3.6,8-8,8s-8-3.6-8-8v-16c0-4.4,3.6-8,8-8S244,307.6,244,312z"/>
<path d="M268,336c-4.4,0-8-3.6-8-8v-16c0-4.4,3.6-8,8-8c4.4,0,8,3.6,8,8v16C276,332.4,272.4,336,268,336z"/>
<path d="M189.1,464L189.1,464c0,4.4-3.6,8-8,8h0c-4.4,0-8-3.6-8-8l0,0c0-4.4,3.6-8,8-8h0C185.5,456,189.1,459.6,189.1,464z"/>
</svg>
