<?xml version="1.0" encoding="utf-8"?>
<!-- Generator: Adobe Illustrator 23.1.0, SVG Export Plug-In . SVG Version: 6.00 Build 0)  -->
<svg version="1.1" id="icon" xmlns="http://www.w3.org/2000/svg" xmlns:xlink="http://www.w3.org/1999/xlink" x="0px"
	 y="0px" viewBox="0 0 512 512" style="enable-background:new 0 0 512 512;" xml:space="preserve">
<path d="M351.3,356.8l-28-62.9l16.8,9.2c1.2,0.7,2.5,1,3.8,1c2.7,0,5.4-1.4,6.9-3.9l24-40c2.3-3.8,1-8.7-2.7-11L320,217.9V152
	c0-17.6-11.5-32.4-27.4-37.8C304.5,104,312,88.9,312,72c0-30.9-25.1-56-56-56s-56,25.1-56,56c0,16.9,7.5,32,19.4,42.2
	c-15.8,5.3-27.4,20.1-27.4,37.8v31.4l-62.2,75.5c-2.6,3.2-2.4,7.8,0.5,10.7l32,32c1.5,1.5,3.5,2.3,5.7,2.3c0.1,0,0.2,0,0.3,0
	c2.2-0.1,4.3-1.1,5.8-2.7l21.8-25.1c3.2,11.5,8.3,22.3,15.3,32l-18.6,80.5l-47.2,70.8c-2.3,3.5-1.6,8.1,1.7,10.7l40,32
	c1.4,1.1,3.2,1.8,5,1.8c0.4,0,0.7,0,1.1-0.1c2.2-0.3,4.1-1.5,5.4-3.2l64-88c0.5-0.7,0.9-1.5,1.2-2.4l10.9-36.4l14.1,14.1l23.5,101.8
	c0.8,3.6,4.1,6.2,7.8,6.2h48c2.4,0,4.6-1.1,6.2-2.9s2.1-4.2,1.7-6.6l-24-128C351.8,357.9,351.6,357.3,351.3,356.8L351.3,356.8z
	 M216,72c0-22.1,17.9-40,40-40s40,17.9,40,40c0,9.5-3.4,18.1-9,24.9c-4.4-4.4-7-10.5-7-16.9h-16c0,10.2,4,19.8,10.7,27.1
	c-5.6,3-11.9,4.9-18.7,4.9C233.9,112,216,94.1,216,72L216,72z M167.6,284.3l-20.8-20.8l45.2-54.9v39.6c0,2.6,0.2,5.1,0.4,7.6
	L167.6,284.3z M248.7,404.4l-58.3,80.1l-27.7-22.2l43.9-65.9c0.5-0.8,0.9-1.7,1.1-2.6l16.3-70.4l37.7,37.7L248.7,404.4z M326.4,480
	l-22.6-97.8c-0.3-1.5-1.1-2.8-2.1-3.9l-67.9-67.9c-16.6-16.6-25.7-38.7-25.7-62.2V152c0-13.2,10.8-24,24-24h48c13.2,0,24,10.8,24,24
	v56.3l-9.3-5.6l-15.1-45.2l-15.2,5.1l16,48c0.6,1.8,1.8,3.3,3.5,4.3l73.1,43.9l-15.9,26.6l-78.9-43l-30.9-69.5l-14.6,6.5l32,72
	c0.7,1.6,1.9,2.9,3.5,3.8l51.8,28.3v4.7c0,1.1,0.2,2.2,0.7,3.2l31.6,71.1L358.4,480L326.4,480z"/>
</svg>
