<?xml version="1.0" encoding="iso-8859-1"?>
<!-- Generator: Adobe Illustrator 19.0.0, SVG Export Plug-In . SVG Version: 6.00 Build 0)  -->
<svg version="1.1" id="Layer_1" xmlns="http://www.w3.org/2000/svg" xmlns:xlink="http://www.w3.org/1999/xlink" x="0px" y="0px"
	 viewBox="0 0 512 512" style="enable-background:new 0 0 512 512;" xml:space="preserve">
<g>
	<g>
		<path d="M376.003,127.399h-178.87c-10.631,0-20.62,4.146-28.127,11.675l-50.954,51.107c-7.475,7.498-11.592,17.457-11.592,28.045
			v54.573c0,4.601,3.73,8.33,8.33,8.33c4.6,0,8.33-3.728,8.33-8.33v-54.573c0-6.146,2.39-11.93,6.729-16.281l50.954-51.107
			c4.358-4.373,10.158-6.779,16.33-6.779h178.87c12.715,0,23.059,10.345,23.059,23.06v260.736c0,12.715-10.345,23.059-23.059,23.059
			H146.177c-12.715,0-23.059-10.344-23.059-23.059V306.118c0-4.6-3.73-8.33-8.33-8.33c-4.6,0-8.33,3.728-8.33,8.33v121.737
			c0,21.901,17.818,39.719,39.719,39.719h229.826c21.901,0,39.719-17.818,39.719-39.719V167.12
			C415.722,145.218,397.904,127.399,376.003,127.399z"/>
	</g>
</g>
<g>
	<g>
		<path d="M308.209,294.226l54.121-54.121c12.992-12.992,12.992-34.131,0.001-47.123c-6.293-6.292-14.659-9.757-23.559-9.757
			s-17.267,3.465-23.562,9.758l-54.121,54.121l-54.12-54.12c-6.293-6.294-14.661-9.759-23.56-9.759c-8.9,0-17.267,3.465-23.56,9.758
			c-6.294,6.294-9.759,14.661-9.759,23.561s3.466,17.267,9.759,23.56l54.12,54.121l-54.121,54.121
			c-12.991,12.991-12.99,34.129,0,47.12c6.293,6.294,14.659,9.759,23.56,9.759c8.901,0,17.267-3.465,23.56-9.758l54.121-54.121
			l54.12,54.121c6.293,6.293,14.661,9.758,23.56,9.758s17.267-3.465,23.561-9.759c12.99-12.99,12.99-34.129,0-47.122
			L308.209,294.226z M350.55,383.685c-3.146,3.146-7.33,4.88-11.781,4.88s-8.634-1.734-11.78-4.88l-60.011-60.01
			c-1.626-1.626-3.758-2.439-5.89-2.439s-4.264,0.813-5.891,2.439l-60.01,60.01c-3.146,3.146-7.33,4.88-11.781,4.88
			c-4.45,0-8.633-1.734-11.78-4.88c-6.496-6.496-6.496-17.064-0.001-23.56l60.011-60.01c3.253-3.254,3.253-8.528,0-11.781
			l-60.011-60.011c-3.146-3.146-4.88-7.33-4.88-11.778c0-4.45,1.734-8.633,4.88-11.781c3.146-3.146,7.33-4.879,11.78-4.879
			c4.45,0,8.633,1.733,11.78,4.88l60.011,60.01c3.253,3.252,8.528,3.252,11.78,0l60.01-60.01c3.148-3.146,7.332-4.88,11.783-4.88
			c4.449,0,8.633,1.733,11.778,4.878c6.498,6.494,6.498,17.065,0.003,23.559l-60.011,60.011c-1.563,1.563-2.44,3.681-2.44,5.891
			c0,2.21,0.877,4.327,2.44,5.891l60.01,60.008C357.046,366.62,357.046,377.19,350.55,383.685z"/>
	</g>
</g>
<g>
	<g>
		<path d="M451.818,189.539c-4.6,0-8.33,3.728-8.33,8.33v289.365c0,4.469-3.636,8.107-8.107,8.107H86.798
			c-4.47,0-8.107-3.636-8.107-8.107V193.682c0-2.16,0.841-4.193,2.366-5.723l21.627-21.691l56.269-56.435
			c0.002-0.002,0.004-0.006,0.007-0.008l7.783-7.807c1.533-1.537,3.572-2.383,5.741-2.383h7.045c2.941,0,5.663-1.55,7.164-4.079
			l41.964-70.735c2.985-5.033,8.475-8.16,14.327-8.16h156.597c9.186,0,16.66,7.474,16.66,16.66v57.984c0,4.601,3.73,8.33,8.33,8.33
			h10.809c4.47,0,8.107,3.636,8.107,8.108v56.809c0,4.601,3.73,8.33,8.33,8.33c4.6,0,8.33-3.728,8.33-8.33v-56.809
			c0-13.657-11.11-24.768-24.766-24.768H432.9V33.32C432.9,14.947,417.953,0,399.581,0H242.986
			c-11.704,0-22.684,6.253-28.656,16.318l-39.544,66.656h-2.301c-6.533,0-12.926,2.654-17.539,7.28l-1.9,1.906l-9.063-9.064
			c-6.597-6.596-15.369-10.23-24.699-10.23c-9.349,0-18.135,3.646-24.735,10.268l-32.522,32.619
			c-13.58,13.62-13.563,35.763,0.037,49.362l9.135,9.137l-1.938,1.944c-4.661,4.675-7.228,10.885-7.228,17.486v293.553
			c0,13.657,11.11,24.766,24.766,24.766h348.583c13.657,0,24.766-11.11,24.766-24.766V197.869
			C460.148,193.268,456.418,189.539,451.818,189.539z M73.822,127.516l32.523-32.62c3.453-3.462,8.048-5.37,12.938-5.37
			c4.88,0,9.468,1.9,12.919,5.35l9.081,9.082l-20.653,20.715l-37.67,37.781l-9.118-9.12C66.729,146.221,66.72,134.64,73.822,127.516
			z"/>
	</g>
</g>
<g>
	<g>
		<path d="M374.593,49.979H257.216c-2.941,0-5.664,1.55-7.164,4.081l-19.574,32.994c-1.527,2.573-1.555,5.77-0.074,8.372
			c1.482,2.601,4.245,4.207,7.239,4.207h136.95c4.6,0,8.33-3.729,8.33-8.33V58.309C382.923,53.708,379.194,49.979,374.593,49.979z
			 M366.263,82.973H252.27l9.69-16.334h104.303V82.973z"/>
	</g>
</g>
<g>
</g>
<g>
</g>
<g>
</g>
<g>
</g>
<g>
</g>
<g>
</g>
<g>
</g>
<g>
</g>
<g>
</g>
<g>
</g>
<g>
</g>
<g>
</g>
<g>
</g>
<g>
</g>
<g>
</g>
</svg>
