<?xml version="1.0" encoding="iso-8859-1"?>
<!-- Generator: Adobe Illustrator 19.0.0, SVG Export Plug-In . SVG Version: 6.00 Build 0)  -->
<svg id="stomach" xmlns="http://www.w3.org/2000/svg" xmlns:xlink="http://www.w3.org/1999/xlink" version="1.1" x="0px" y="0px" viewBox="0 0 512.521 512.521" style="enable-background:new 0 0 512.521 512.521;" xml:space="preserve">
<path d="M303.045,512.26c-73.942,0-108.251-37.454-133.303-64.801c-18.178-19.844-28.422-30.199-44.697-30.199  c-0.399,0-0.75,0.01-1.054,0.024c-2.379,4.75-4.254,16.071-4.014,21.122c0.045,0.938,0.067,1.898,0.067,2.854v51  c0,11.046-8.954,20-20,20s-20-8.954-20-20v-51c0-0.316-0.007-0.632-0.022-0.948c-0.016-0.34-0.851-34.476,15.917-52.061  c7.061-7.398,16.579-10.991,29.105-10.991c34.638,0,54.746,21.951,74.192,43.18c23.338,25.477,47.47,51.82,103.808,51.82  c40.917,0,74.948-11.143,101.147-33.117c8.463-7.1,21.078-5.991,28.176,2.471c7.099,8.463,5.992,21.078-2.471,28.176  C396.299,497.971,353.62,512.26,303.045,512.26z M40.045,492.26v-50.266c0-0.208-0.003-0.415-0.01-0.623  c-0.162-5.198-0.781-51.634,26.955-80.723c14.589-15.301,34.664-23.389,58.055-23.389c26.871,0,40.544,9.813,53.766,19.303  c10.904,7.827,23.264,16.697,40.234,16.697c27.771,0,45.021-16.859,45.021-44.003l-0.021-131.997c0-32.783-22.032-45-35.919-45  c-4.77,0-11.921-4.143-18.219-10.555c-30.864-31.42-47.862-74.55-47.862-121.445c0-11.046-8.954-20-20-20s-20,8.954-20,20  c0,57.445,21.069,110.53,59.326,149.476c7.663,7.802,22.893,20.505,42.156,22.309c0.267,1.098,0.518,2.808,0.518,5.219  l0.021,131.997c0,1.763-0.164,2.889-0.309,3.539c-0.779,0.203-2.253,0.461-4.713,0.461c-3.904,0-8.969-3.493-16.91-9.193  c-15.763-11.313-37.35-26.807-77.09-26.807c-34.597,0-64.682,12.374-87.004,35.785C0.241,372.689-0.29,430.254,0.045,442.29v49.971  c0,11.046,8.954,20,20,20S40.045,503.306,40.045,492.26z M486.572,389.985c29.942-71.509,26.053-149.271,25.473-158.404  c-0.117-66.018-17.315-116.072-51.122-148.779c-38.415-37.167-84.554-37.625-90.064-37.541  c-41.772,0.057-69.667,19.446-88.138,32.282c-4.785,3.326-11.052,7.681-14.633,9.323c-0.106-0.127-0.22-0.265-0.339-0.416  c-0.228-0.285-0.462-0.564-0.704-0.838c-16.354-18.429-24.999-41.027-24.999-65.352c0-11.046-8.954-20-20-20s-20,8.954-20,20  c0,34.094,12.012,65.729,34.744,91.521c14.189,17.503,30.576,16.639,39.12,14.545c10.356-2.537,19.292-8.747,29.639-15.938  c16.948-11.778,36.157-25.129,65.497-25.129c0.221,0,0.44-0.004,0.661-0.011c0.334-0.011,33.86-0.348,61.403,26.299  c25.836,24.996,38.936,65.609,38.936,120.712c0,0.473,0.019,0.966,0.052,1.438c0.053,0.746,4.982,75.392-22.422,140.838  c-4.266,10.188,0.535,21.906,10.724,26.173c2.524,1.057,5.141,1.558,7.716,1.557C475.935,402.265,483.362,397.649,486.572,389.985z   M269.331,88.135h0.01H269.331z M431.429,283.55c8.197-9.476,1.579-24.29-11.001-24.29l-53.317,0l38.597-66h-58.986l-46.084,82.167  c-7.528,13.423,2.246,29.833,17.719,29.833h40.177l-26.875,68.491c-0.419,0.914-0.609,1.752-0.613,2.509  c-0.015,3.146,2.714,5.014,6.211,5c2.456-0.01,5.05-0.995,6.761-2.699L431.429,283.55z"/>















</svg>
