<?xml version="1.0" encoding="utf-8"?>
<!-- Generator: Adobe Illustrator 21.1.0, SVG Export Plug-In . SVG Version: 6.00 Build 0)  -->
<svg version="1.1" id="icon" xmlns="http://www.w3.org/2000/svg" xmlns:xlink="http://www.w3.org/1999/xlink" x="0px" y="0px"
	 viewBox="0 0 472 472" style="enable-background:new 0 0 472 472;" xml:space="preserve">
<path d="M264.8,228.3c-2.5-0.3-4.7-1.8-5.9-3.9c-1.4-2.3-3.8-3.9-6.7-4H228c-0.1,0-0.2,0-0.2,0c0,0,0,0-0.1,0
	c-2.9,0.1-5.4,1.8-6.7,4.1c-0.8,1.4-1.9,2.6-3.4,3.2c-6.3,2.4-11.4-2.2-11.4-7.4c0-1.3,0.3-2.7,1.1-4c4.1-7.1,11.7-11.9,20.4-12
	c0.1,0,0.3,0,0.4,0h24c0.1,0,0.3,0,0.4,0c8.7,0.1,16.3,5,20.4,12C276,222,271.5,229.1,264.8,228.3z"/>
<path d="M364,128C364,57.4,306.6,0,236,0c-68.2,0-128,63.5-128,136l0,48c0,49.1,28.1,93.8,72,115.1V328h-7.6c-0.1,0-0.3,0-0.4,0
	l-43.2,0H124c-39.8,0-72,32.2-72,72v56c0,0.1,0,0.3,0,0.4c0.2,8.5,7.1,15.4,15.6,15.6c0.1,0,0.3,0,0.4,0h27.7c4.4,0,8-3.6,8-8l0,0
	c0-4.4-3.6-8-8-8H68v-56c0-30.9,25.1-56,56-56h4.8c0,0,0,0,0,0l36.6,0v0c3.3,9.3,12.2,16,22.6,16c0.1,0,0.3,0,0.4,0h95
	c0.2,0,0.4,0,0.5,0c10.4,0,19.3-6.7,22.6-16h2.6c4.4,0,8-3.6,8-8c0-2.2-0.9-4.2-2.3-5.7c-1.5-1.4-3.5-2.3-5.7-2.3H292v-28.9
	c43.9-21.4,72-66,72-115.1v0L364,128z M280.8,286.7c-3.2,1.4-5,4.7-4.8,8c0,0,0,0,0,0c0,0.1,0,0.2,0,0.3v37.6c0,3-1.2,5.9-3.3,8.1
	c-1.1,1.1-2.3,1.9-3.7,2.5c-1.4,0.6-2.8,0.9-4.4,0.9h-57.1c-3,0-5.9-1.2-8.1-3.4c-1.1-1.1-1.9-2.3-2.5-3.7c-0.6-1.4-0.9-2.9-0.9-4.4
	V295c0-0.2,0-0.4,0-0.6c0.2-3.2-1.7-6.4-4.8-7.7C150.4,268.9,124,228.6,124,184v0l0-48c0-63.9,52.3-120,112-120
	c61.8,0,112,50.2,112,112l0,56C348,228.6,321.6,268.9,280.8,286.7z M127.7,472L127.7,472c4.4,0,8-3.6,8-8l0,0c0-4.4-3.6-8-8-8h0
	c-4.4,0-8,3.6-8,8l0,0C119.8,468.4,123.3,472,127.7,472z M348,328l-6.6,0h-0.2c-4.4,0-8,3.6-8,8c0,2.2,0.9,4.2,2.3,5.7
	c1.4,1.5,3.4,2.3,5.7,2.3h6.8c30.9,0,56,25.1,56,56v56H159.7c-4.4,0-8,3.6-8,8l0,0c0,4.4,3.6,8,8,8H404c0.1,0,0.3,0,0.4,0
	c8.5-0.2,15.4-7.1,15.6-15.6c0-0.1,0-0.3,0-0.4v-56C420,360.3,387.8,328,348,328z"/>
<path d="M197,127.1c-4.3-4.3-10.3-7-17-7c-13.3,0-24,10.7-24,24c0,6.6,2.7,12.6,7,17c4.3,4.3,10.3,7,17,7s12.6-2.7,17-7
	c4.3-4.3,7-10.3,7-17S201.3,131.4,197,127.1z M180,152c-4.4,0-8-3.6-8-8c0-4.4,3.6-8,8-8c4.4,0,8,3.6,8,8
	C188,148.4,184.5,152,180,152z"/>
<path d="M317,127.1c-4.3-4.3-10.3-7-17-7c-13.3,0-24,10.7-24,24c0,6.6,2.7,12.6,7,17c4.3,4.3,10.3,7,17,7s12.6-2.7,17-7
	c4.3-4.3,7-10.3,7-17S321.3,131.4,317,127.1z M300,152c-4.4,0-8-3.6-8-8c0-4.4,3.6-8,8-8c4.4,0,8,3.6,8,8
	C308,148.4,304.4,152,300,152z"/>
</svg>
